<?xml version="1.0" encoding="utf-8"?>
<!-- Generator: Adobe Illustrator 16.0.0, SVG Export Plug-In . SVG Version: 6.00 Build 0)  -->
<!DOCTYPE svg PUBLIC "-//W3C//DTD SVG 1.1//EN" "http://www.w3.org/Graphics/SVG/1.1/DTD/svg11.dtd">
<svg version="1.1" id="Layer_1" xmlns="http://www.w3.org/2000/svg" xmlns:xlink="http://www.w3.org/1999/xlink" x="0px" y="0px"
	 width="80px" height="30px" viewBox="0 0 80 30" enable-background="new 0 0 80 30" xml:space="preserve">
<g>
	<path fill="#C5372B" d="M0.025,17.264c0.077,0.029,0.157,0.016,0.235,0.016c3.771,0.003,7.542,0.004,11.313,0.004
		c0.118,0,0.237-0.023,0.379,0.021c-0.189,0.26-0.371,0.514-0.557,0.764c-0.037,0.052-0.105,0.033-0.16,0.033
		c-0.254,0.002-0.509,0.002-0.763,0.002c-3.404,0-6.808,0-10.211,0c-0.079,0-0.158,0.006-0.237,0.01
		C0.025,17.828,0.025,17.546,0.025,17.264z"/>
	<path fill="#C5372B" d="M80.182,21.098c-0.062-0.002-0.123-0.01-0.187-0.01c-3.834,0-7.667,0-11.501,0
		c-0.053,0-0.126,0.03-0.154-0.029c-0.021-0.052,0.039-0.09,0.068-0.129c0.13-0.187,0.263-0.367,0.388-0.556
		c0.06-0.087,0.126-0.11,0.226-0.11c3.66,0.004,7.318,0.004,10.978,0.004c0.062,0,0.124,0.012,0.187-0.019
		C80.182,20.532,80.182,20.814,80.182,21.098z"/>
	<path fill="#C5372B" d="M0.025,18.79c0.068-0.005,0.135-0.011,0.202-0.011c3.348-0.002,6.695-0.002,10.042,0
		c0.185,0,0.372-0.024,0.581,0.015c-0.186,0.265-0.359,0.519-0.54,0.767c-0.04,0.058-0.116,0.035-0.177,0.035
		c-1.797,0-3.596,0-5.394,0c-1.498,0-2.996,0-4.495,0c-0.073,0-0.146,0.006-0.219,0.01C0.025,19.332,0.025,19.061,0.025,18.79z"/>
	<path fill="#C5372B" d="M80.182,19.604c-0.078-0.002-0.156-0.008-0.236-0.008c-3.434,0-6.865,0-10.299,0
		c-0.071,0-0.176,0.034-0.209-0.022c-0.043-0.076,0.061-0.134,0.102-0.194c0.124-0.177,0.256-0.346,0.38-0.521
		c0.042-0.062,0.093-0.082,0.17-0.082c3.304,0.002,6.604,0.002,9.908,0.004c0.062,0,0.124,0.007,0.188,0.012
		C80.182,19.061,80.182,19.332,80.182,19.604z"/>
	<path fill="#C5372B" d="M0.025,20.249c0.064,0.03,0.134,0.017,0.201,0.017c3.108,0.002,6.217,0,9.326,0c0.06,0,0.122,0,0.228,0
		c-0.208,0.286-0.387,0.541-0.575,0.791c-0.044,0.059-0.127,0.029-0.193,0.029c-2.922,0.002-5.844,0.002-8.767,0.002
		c-0.073,0-0.146,0.008-0.219,0.01C0.025,20.814,0.025,20.532,0.025,20.249z"/>
	<path fill="#C5372B" d="M80.182,18.111c-0.074-0.004-0.146-0.01-0.221-0.01c-3.068,0-6.141,0-9.211-0.002
		c-0.07,0-0.169,0.035-0.208-0.025c-0.047-0.073,0.06-0.119,0.093-0.178c0.055-0.092,0.141-0.168,0.188-0.264
		c0.144-0.293,0.366-0.361,0.692-0.361c2.811,0.016,5.618,0.008,8.432,0.008c0.078,0,0.158,0.014,0.234-0.016
		C80.182,17.546,80.182,17.828,80.182,18.111z"/>
	<path fill="#C6332A" d="M56.161,9.771c-0.19,0.267-0.341,0.549-0.562,0.783c-0.121,0.126-0.213,0.277-0.317,0.419
		c-0.505,0.687-1.007,1.375-1.513,2.061c-0.803,1.092-1.607,2.18-2.408,3.272c-0.074,0.103-0.158,0.131-0.271,0.125
		c-0.13-0.006-0.261-0.008-0.39-0.008c-5.617,0-11.232,0-16.849,0c-0.183,0-0.367,0-0.586,0c0.383-0.514,0.716-1.008,1.11-1.46
		c0.235-0.269,0.444-0.561,0.648-0.854c0.156-0.226,0.335-0.433,0.496-0.655c0.349-0.484,0.714-0.957,1.058-1.447
		c0.166-0.235,0.336-0.473,0.518-0.701c0.289-0.365,0.592-0.725,0.828-1.132c0.047-0.082,0.101-0.161,0.16-0.235
		c0.089-0.112,0.189-0.184,0.355-0.184c2.279,0.004,4.557,0,6.837-0.001c0.026,0,0.057,0,0.086-0.001
		c0.109-0.003,0.125,0.032,0.062,0.126c-0.177,0.273-0.363,0.537-0.57,0.791c-0.289,0.353-0.539,0.738-0.808,1.108
		c-0.396,0.543-0.794,1.084-1.188,1.627c-0.031,0.044-0.098,0.086-0.065,0.144c0.024,0.045,0.093,0.023,0.144,0.023
		c0.974,0,1.945-0.001,2.918,0.001c0.104,0,0.174-0.024,0.242-0.113c0.885-1.213,1.775-2.422,2.665-3.633
		c0.048-0.062,0.093-0.08,0.171-0.08c2.295,0.003,4.592,0.002,6.887,0.005C55.926,9.754,56.039,9.72,56.161,9.771z"/>
	<path fill="#C6332A" d="M11.569,13.225c0.27-0.369,0.513-0.699,0.756-1.029c0.558-0.754,1.118-1.505,1.67-2.263
		c0.096-0.13,0.196-0.185,0.363-0.184c4.829,0.005,9.659,0.004,14.489,0.003c0.718,0,1.425,0.092,2.088,0.371
		c1.088,0.458,1.808,1.25,1.992,2.44c0.104,0.663-0.107,1.264-0.524,1.801c-0.489,0.634-0.956,1.286-1.428,1.933
		c-0.07,0.098-0.148,0.133-0.267,0.133c-1.901-0.004-3.801-0.003-5.701-0.004c-0.136,0-0.271-0.012-0.402-0.047
		c-0.202-0.053-0.266-0.201-0.179-0.389c0.053-0.115,0.129-0.213,0.205-0.311c0.267-0.351,0.517-0.713,0.783-1.062
		c0.208-0.272,0.398-0.559,0.59-0.843c0.182-0.271,0.097-0.458-0.224-0.517c-0.134-0.024-0.269-0.033-0.405-0.033
		c-4.529,0.001-9.06,0.001-13.589,0.001C11.73,13.225,11.674,13.225,11.569,13.225z"/>
	<path fill="#C6332A" d="M13.631,16.885c0.36-0.498,0.72-0.996,1.083-1.494C15,15,15.292,14.613,15.581,14.222
		c0.06-0.081,0.12-0.129,0.233-0.129c2.058,0.004,4.116,0.004,6.174,0.002c0.147,0,0.293,0.012,0.437,0.047
		c0.176,0.042,0.235,0.147,0.186,0.328c-0.045,0.167-0.154,0.3-0.252,0.436c-0.43,0.594-0.866,1.184-1.299,1.775
		c-0.037,0.049-0.073,0.101-0.1,0.155c-0.095,0.195-0.036,0.326,0.172,0.39c0.118,0.034,0.24,0.058,0.366,0.058
		c2.781,0,5.562,0.001,8.344,0.002c0.062,0,0.125-0.009,0.186-0.009c0.055,0,0.13-0.021,0.158,0.031
		c0.027,0.051-0.033,0.099-0.064,0.146c-0.181,0.267-0.401,0.5-0.623,0.731c-0.456,0.479-0.935,0.929-1.474,1.313
		c-0.596,0.427-1.237,0.767-1.919,1.028c-0.538,0.211-1.09,0.359-1.662,0.438c-0.182,0.015-0.348-0.082-0.528-0.073
		c-0.026-0.08-0.097-0.059-0.155-0.066c-0.23-0.045-0.44,0.07-0.666,0.07c-3.992-0.004-7.985-0.002-11.978-0.006
		c-0.092,0-0.258,0.053-0.26-0.061c-0.002-0.117,0.164-0.072,0.257-0.072c2.245-0.002,4.491-0.002,6.736-0.002
		c1.741,0,3.483,0,5.225-0.002c0.065,0,0.141,0.027,0.206-0.038c-0.082-0.044-0.156-0.024-0.229-0.024
		c-3.586-0.002-7.171,0-10.757-0.004c-0.347-0.002-0.697,0.045-1.043-0.045c-0.079-0.021-0.163-0.017-0.167-0.121
		c-0.005-0.108,0.09-0.055,0.138-0.076c0.05-0.023,0.113-0.022,0.136-0.088c0.028-0.082-0.044-0.092-0.086-0.121
		c-0.03-0.021-0.043-0.051-0.048-0.086l0.002-0.002c0.085,0.027,0.117-0.035,0.158-0.088c0.048-0.062,0.055-0.158,0.14-0.182
		c0.097-0.023,0.118-0.102,0.125-0.178c0.005-0.051,0.018-0.085,0.051-0.12c0.12-0.125,0.202-0.28,0.302-0.421
		c0.085-0.117,0.232-0.207,0.23-0.381l-0.001,0.004c0.196-0.098,0.271-0.309,0.417-0.451c0.067-0.068,0.166-0.135,0.19-0.219
		c0.053-0.186,0.208-0.282,0.3-0.432c0.122-0.193,0.285-0.371,0.349-0.602h-0.001C13.604,17.066,13.638,16.99,13.631,16.885z
		 M11.41,20.423c-0.012,0.015-0.028,0.024-0.032,0.036c-0.008,0.027-0.028,0.075,0.03,0.059C11.436,20.51,11.435,20.46,11.41,20.423
		z"/>
	<path fill="#C6332A" d="M53.299,20.827c-0.562-0.132-1.033-0.405-1.305-0.929c-0.253-0.49-0.145-0.969,0.154-1.404
		c0.25-0.363,0.521-0.711,0.771-1.072c0.074-0.105,0.151-0.141,0.281-0.141c5.388,0.004,10.776,0.004,16.165,0.004
		c0.078,0,0.156,0,0.236-0.002c0.104-0.004,0.121,0.031,0.061,0.115c-0.137,0.182-0.266,0.367-0.398,0.549
		c-0.146,0.193-0.298,0.383-0.445,0.572c-0.062,0.031-0.121,0.018-0.188-0.002c-0.131-0.035-0.204,0.037-0.144,0.155
		c0.057,0.104,0.025,0.165-0.027,0.239c-0.035,0.045-0.061,0.094-0.049,0.152l0,0c-0.205-0.041-0.223,0.117-0.246,0.252
		c-0.066-0.01-0.059-0.062-0.082-0.09c-0.01-0.01-0.027-0.019-0.042-0.016c-0.024,0.004-0.042,0.034-0.029,0.051
		c0.105,0.127-0.056,0.205-0.062,0.313c-0.002,0.049-0.028,0.125-0.094,0.151c-0.222,0.09-0.264,0.287-0.297,0.488h0.002
		c-0.039-0.021-0.123,0.025-0.119-0.031c0.002-0.08-0.025-0.097-0.084-0.072c-0.041,0.018-0.062,0.057-0.031,0.111
		c0.062,0.114,0.068,0.199-0.108,0.197c-0.1-0.003-0.182,0.107-0.122,0.17c0.137,0.141-0.033,0.146-0.064,0.204
		c-0.018,0.029-0.092,0.038-0.094,0.062c-0.018,0.199-0.164,0.166-0.287,0.166c-1.403,0.002-2.807,0.002-4.207,0.002
		c-2.45,0-4.896,0-7.346-0.002c-0.065,0-0.142,0.024-0.197-0.024c0-0.017,0.002-0.033,0.004-0.052c3.957,0,7.912,0,11.869,0
		c-0.068-0.073-0.145-0.057-0.215-0.057c-3.812-0.002-7.623-0.002-11.434-0.002c-0.102,0-0.198-0.021-0.296-0.041
		c-0.165-0.033-0.351-0.098-0.509,0.041c-0.096,0-0.188-0.005-0.275,0.053c-0.047,0.031-0.109,0.024-0.164,0
		c-0.033-0.017-0.076-0.041-0.068-0.084c0.01-0.045,0.055-0.029,0.086-0.033c0.062-0.012,0.131,0.017,0.184-0.055
		c-0.146,0.071-0.316-0.15-0.453,0.056c-0.01,0.014-0.047,0.02-0.062,0.012C53.479,20.798,53.387,20.838,53.299,20.827z"/>
	<path fill="#C6332A" d="M57.576,16.426c-1.244,0-2.488,0-3.732-0.002c-0.046,0-0.113,0.034-0.137-0.027
		c-0.02-0.045,0.036-0.08,0.061-0.111c0.731-0.998,1.465-1.995,2.197-2.991c0.83-1.128,1.661-2.254,2.488-3.385
		c0.085-0.116,0.17-0.16,0.318-0.16c2.44,0.006,4.885,0.004,7.328,0.004c0.047,0,0.092,0.002,0.137,0
		c0.084-0.003,0.104,0.029,0.054,0.1c-0.113,0.154-0.226,0.31-0.339,0.464c-1.104,1.502-2.205,3.004-3.309,4.506
		c-0.369,0.5-0.74,0.999-1.107,1.499c-0.053,0.072-0.109,0.109-0.209,0.107C60.077,16.424,58.826,16.426,57.576,16.426z"/>
	<path fill="#C6332A" d="M50.624,17.303c-0.174,0.238-0.334,0.461-0.498,0.684c-0.635,0.863-1.272,1.729-1.911,2.592
		c-0.037,0.049-0.088,0.091-0.113,0.146c-0.146,0.326-0.403,0.375-0.74,0.373c-2.211-0.017-4.42-0.009-6.631-0.009
		c-0.012,0-0.023,0.003-0.035,0c-0.055-0.006-0.129,0.022-0.153-0.032C40.52,21,40.58,20.952,40.613,20.908
		c0.519-0.711,1.041-1.419,1.562-2.131c0.343-0.463,0.681-0.928,1.019-1.396c0.051-0.067,0.104-0.106,0.193-0.104
		c2.393,0.002,4.783,0.004,7.176,0.006C50.573,17.283,50.583,17.289,50.624,17.303z"/>
	<path fill="#C6332A" d="M36.278,17.275c1.17,0,2.341,0,3.511,0c0.057,0,0.132-0.017,0.159,0.033
		c0.027,0.055-0.04,0.098-0.071,0.141c-0.871,1.182-1.741,2.363-2.61,3.547c-0.064,0.089-0.144,0.092-0.236,0.092
		c-1.159-0.001-2.319,0-3.478,0c-1.148,0-2.296,0-3.444,0.002c-0.034,0-0.068-0.004-0.102-0.002
		c-0.121,0.003-0.139-0.033-0.064-0.136c0.599-0.813,1.194-1.63,1.791-2.445c0.267-0.364,0.541-0.724,0.801-1.093
		c0.072-0.104,0.147-0.133,0.265-0.131c1.161,0.003,2.319,0.002,3.479,0.002C36.278,17.281,36.278,17.277,36.278,17.275z"/>
	<path fill="#C5372B" d="M11.226,20.15c0.005,0.035,0.019,0.062,0.048,0.086c0.042,0.029,0.114,0.039,0.086,0.121
		c-0.022,0.063-0.086,0.062-0.136,0.088c-0.048,0.021-0.143-0.032-0.138,0.076c0.004,0.104,0.087,0.102,0.167,0.121
		c0.346,0.09,0.696,0.043,1.043,0.045c3.586,0.004,7.171,0.002,10.757,0.004c0.072,0,0.146-0.02,0.229,0.024
		c-0.064,0.065-0.14,0.038-0.206,0.038c-1.742,0.002-3.484,0.002-5.225,0.002c-2.245,0-4.491,0-6.736,0.002
		c-0.093,0-0.26-0.045-0.257,0.072c0.001,0.111,0.168,0.061,0.26,0.061c3.993,0.004,7.986,0.002,11.978,0.006
		c0.226,0,0.436-0.115,0.666-0.07c0.059,0.01,0.129-0.014,0.156,0.078c-0.16,0.012-0.318,0.012-0.477,0.012
		c0.157-0.016,0.332,0.262,0.477-0.012c0.179-0.021,0.345,0.076,0.527,0.062c-0.168,0.077-0.352,0.058-0.528,0.077
		c-0.252,0.027-0.507,0.041-0.76,0.041c-4.126,0.004-8.252,0.002-12.378,0.002c-0.033,0-0.068,0-0.102,0
		c-0.109,0-0.112-0.05-0.056-0.125C10.821,20.691,11.022,20.42,11.226,20.15z M10.922,20.979c0.001,0.011,0.001,0.02,0.002,0.027
		c4.136,0,8.273,0,12.41,0c0-0.01,0-0.02,0-0.027C19.197,20.979,15.059,20.979,10.922,20.979z M10.804,20.971
		c-0.008-0.009-0.019-0.022-0.032-0.025c-0.026-0.006-0.044,0.013-0.042,0.037c0.001,0.012,0.018,0.028,0.03,0.033
		C10.786,21.02,10.801,21.002,10.804,20.971z"/>
	<path fill="#C5372B" d="M54.322,20.895c0.158-0.14,0.343-0.074,0.508-0.043c0.098,0.021,0.195,0.043,0.296,0.043
		c3.81,0,7.621,0,11.433,0c0.071,0,0.146-0.018,0.215,0.059c-3.957,0-7.912,0-11.869,0c-0.002,0.02-0.004,0.033-0.004,0.051
		c0.059,0.053,0.133,0.025,0.197,0.025c2.448,0,4.896,0,7.346,0c1.402,0,2.805,0,4.207,0c0.123,0,0.271,0.031,0.287-0.168
		c0.002-0.021,0.076-0.03,0.095-0.062c0.03-0.059,0.2-0.065,0.063-0.204c-0.059-0.062,0.023-0.173,0.123-0.17
		c0.18,0.002,0.172-0.083,0.108-0.199c-0.03-0.055-0.009-0.094,0.032-0.109c0.058-0.021,0.086-0.01,0.084,0.07
		c-0.004,0.061,0.08,0.013,0.119,0.033c-0.168,0.282-0.383,0.529-0.568,0.797c-0.037,0.053-0.081,0.073-0.143,0.07
		c-0.035-0.001-0.068,0-0.104,0c-3.915,0-7.833,0-11.748,0c-0.208,0-0.417-0.002-0.621-0.053c0.151,0.012,0.274-0.079,0.418-0.107
		C54.641,20.875,54.48,20.902,54.322,20.895L54.322,20.895z"/>
	<path fill="#C5372B" d="M13.489,17.084c-0.064,0.23-0.227,0.406-0.349,0.602c-0.092,0.147-0.247,0.246-0.3,0.432
		c-0.024,0.084-0.123,0.148-0.19,0.219c-0.145,0.146-0.22,0.354-0.417,0.451c0.064-0.165,0.197-0.285,0.297-0.426
		C12.843,17.93,13.151,17.496,13.489,17.084z"/>
	<path fill="#C5372B" d="M67.562,20.221c0.033-0.201,0.073-0.397,0.295-0.49c0.063-0.024,0.092-0.103,0.094-0.149
		c0.006-0.106,0.167-0.188,0.062-0.312c-0.015-0.019,0.002-0.047,0.027-0.053c0.014-0.003,0.033,0.008,0.042,0.018
		c0.024,0.025,0.017,0.08,0.082,0.09c0.022-0.135,0.041-0.293,0.246-0.254C68.156,19.473,67.861,19.85,67.562,20.221z"/>
	<path fill="#C5372B" d="M12.235,18.782c0.002,0.173-0.145,0.263-0.23,0.38c-0.101,0.141-0.183,0.296-0.302,0.421
		c-0.034,0.035-0.046,0.071-0.051,0.12c-0.008,0.078-0.029,0.152-0.125,0.178c-0.085,0.021-0.092,0.12-0.14,0.182
		c-0.042,0.054-0.073,0.115-0.158,0.086C11.548,19.682,11.877,19.221,12.235,18.782z"/>
	<path fill="#C5372B" d="M53.299,20.827c0.088,0.011,0.18-0.029,0.268,0.013c0.017,0.008,0.054,0.002,0.062-0.012
		c0.137-0.206,0.309,0.018,0.453-0.055c-0.053,0.068-0.121,0.043-0.184,0.054c-0.031,0.004-0.078-0.011-0.086,0.034
		c-0.008,0.043,0.033,0.068,0.068,0.084c0.055,0.025,0.117,0.031,0.164,0c0.087-0.057,0.182-0.053,0.275-0.053v0.002
		c0,0.047-0.045,0.095,0.008,0.14C53.973,21.034,53.628,20.968,53.299,20.827z"/>
	<path fill="#C5372B" d="M68.411,19.068c-0.011-0.062,0.014-0.109,0.049-0.154c0.056-0.074,0.084-0.137,0.028-0.239
		c-0.062-0.12,0.012-0.192,0.143-0.157c0.064,0.021,0.125,0.035,0.188,0.004C68.688,18.709,68.568,18.902,68.411,19.068z"/>
	<path fill="#C6332A" d="M54.329,21.034c-0.052-0.045-0.009-0.093-0.007-0.14c0.158,0.008,0.316-0.021,0.475,0.031
		c-0.143,0.028-0.266,0.119-0.418,0.107C54.361,21.034,54.346,21.034,54.329,21.034z"/>
	<path fill="#C5372B" d="M13.631,16.885c0.007,0.105-0.027,0.182-0.143,0.199C13.525,17.01,13.563,16.938,13.631,16.885z"/>
	<path fill="#C5372B" d="M11.41,20.423c0.024,0.037,0.026,0.087-0.001,0.095c-0.058,0.019-0.038-0.028-0.03-0.059
		C11.382,20.447,11.398,20.438,11.41,20.423z"/>
	<path fill="#C6332A" d="M10.922,20.979c4.137,0,8.275,0,12.412,0c0,0.011,0,0.02,0,0.027c-4.137,0-8.273,0-12.41,0
		C10.923,20.996,10.923,20.986,10.922,20.979z"/>
	<path fill="#C6332A" d="M23.92,20.916c-0.147,0.262-0.322-0.016-0.479,0C23.6,20.916,23.757,20.916,23.92,20.916z"/>
	<path fill="#C6332A" d="M10.804,20.971c-0.003,0.031-0.018,0.049-0.043,0.045c-0.013-0.005-0.029-0.021-0.03-0.033
		c-0.003-0.024,0.016-0.043,0.042-0.037C10.785,20.945,10.795,20.962,10.804,20.971z"/>
</g>
</svg>
