<?xml version="1.0" encoding="utf-8"?>
<!-- Generator: Adobe Illustrator 16.0.0, SVG Export Plug-In . SVG Version: 6.00 Build 0)  -->
<!DOCTYPE svg PUBLIC "-//W3C//DTD SVG 1.1//EN" "http://www.w3.org/Graphics/SVG/1.1/DTD/svg11.dtd">
<svg version="1.1" id="Layer_1" xmlns="http://www.w3.org/2000/svg" xmlns:xlink="http://www.w3.org/1999/xlink" x="0px" y="0px"
	 width="80px" height="30px" viewBox="0 0 80 30" enable-background="new 0 0 80 30" xml:space="preserve">
<g>
	<path fill="#493291" d="M42.376,26.705c-1.155,0.003-2.311,0.006-3.466,0.008c-0.463,0-0.927-0.006-1.39,0.003
		c-0.123,0.002-0.154-0.034-0.151-0.153c0.007-0.397,0.002-0.799,0.002-1.232c-0.156,0.15-0.255,0.311-0.374,0.447
		c-0.629,0.738-1.409,1.223-2.338,1.5c-0.616,0.186-1.24,0.209-1.865,0.168c-0.776-0.053-1.525-0.244-2.237-0.578
		c-0.644-0.305-1.224-0.689-1.749-1.172c-1.168-1.064-1.884-2.389-2.258-3.909c-0.06-0.244-0.113-0.493-0.144-0.742
		c-0.014-0.106-0.055-0.118-0.136-0.11c-0.018,0.002-0.037,0-0.056,0c-3.138,0-6.275,0.002-9.413-0.004
		c-0.156-0.002-0.211,0.036-0.186,0.189c0.059,0.37,0.13,0.732,0.311,1.064c0.453,0.832,1.13,1.392,2.068,1.553
		c0.649,0.111,1.303,0.06,1.913-0.244c0.371-0.186,0.623-0.492,0.857-0.816c0.056-0.076,0.109-0.113,0.206-0.113
		c1.532,0.004,3.064,0.002,4.596,0.002c0.08,0,0.17-0.024,0.105,0.123c-0.243,0.549-0.508,1.088-0.848,1.586
		c-0.618,0.906-1.385,1.646-2.35,2.184c-0.758,0.422-1.566,0.686-2.421,0.816c-0.392,0.062-0.787,0.076-1.178,0.121
		c-0.415,0.049-0.821,0.01-1.226-0.021c-0.793-0.062-1.563-0.244-2.308-0.537c-0.758-0.297-1.445-0.71-2.067-1.229
		c-0.615-0.512-1.116-1.123-1.528-1.812c-0.449-0.75-0.736-1.562-0.906-2.411c-0.145-0.724-0.147-1.464-0.109-2.194
		c0.023-0.433,0.082-0.864,0.209-1.285c0.028-0.094-0.013-0.125-0.113-0.123c-0.234,0.007-0.469,0.002-0.704,0.002
		c-1.514,0-3.027,0.003-4.54-0.004c-0.159,0-0.202,0.033-0.202,0.199c0.006,2.848,0.002,5.693,0.008,8.541
		c0,0.166-0.041,0.199-0.201,0.199c-1.748-0.008-3.496-0.008-5.245,0c-0.171,0.004-0.195-0.05-0.195-0.203
		c0.004-6.941,0.004-13.887,0-20.831c0-0.161,0.031-0.213,0.206-0.212c4.04,0.006,8.08,0.005,12.119,0
		c0.167,0,0.211,0.039,0.21,0.208c-0.007,1.452-0.007,2.903,0,4.354c0,0.158-0.042,0.189-0.192,0.188
		c-2.162-0.005-4.325-0.001-6.486-0.007c-0.169,0-0.227,0.026-0.224,0.213c0.012,0.871,0.008,1.743,0.002,2.613
		c-0.001,0.141,0.029,0.184,0.179,0.183c1.989-0.005,3.978-0.001,5.967-0.008c0.164,0,0.202,0.041,0.2,0.201
		c-0.009,0.803-0.004,1.606-0.004,2.447c0.135-0.192,0.254-0.358,0.37-0.525c0.535-0.769,1.223-1.374,2.022-1.854
		c0.689-0.413,1.431-0.703,2.213-0.878c0.353-0.08,0.709-0.139,1.072-0.168c0.371-0.03,0.743-0.079,1.114-0.067
		c1.085,0.036,2.153,0.181,3.164,0.602c0.71,0.296,1.354,0.699,1.935,1.214c0.748,0.663,1.285,1.469,1.708,2.36
		c0.14,0.299,0.255,0.605,0.359,0.953c0.073-0.179,0.145-0.332,0.197-0.491c0.189-0.567,0.477-1.086,0.812-1.579
		c0.588-0.866,1.322-1.572,2.231-2.103c0.699-0.408,1.448-0.666,2.237-0.804c0.513-0.089,1.038-0.115,1.557-0.077
		c0.809,0.06,1.596,0.218,2.314,0.624c0.312,0.176,0.61,0.367,0.865,0.621c0.148,0.147,0.294,0.298,0.451,0.458
		c0.042-0.074,0.024-0.142,0.024-0.204c0.001-2.755,0.002-5.51-0.003-8.265c0-0.166,0.039-0.21,0.208-0.209
		c1.539,0.007,3.076,0.004,4.613,0.004c0.062,0,0.123,0.004,0.187,0.007C42.376,12.556,42.376,19.632,42.376,26.705z M31.439,20.006
		c-0.017,0.215,0.01,0.512,0.078,0.805c0.181,0.765,0.51,1.441,1.119,1.969c0.663,0.572,1.424,0.734,2.269,0.6
		c1.026-0.166,1.656-0.805,2.019-1.734c0.277-0.711,0.343-1.449,0.269-2.211c-0.065-0.672-0.222-1.302-0.553-1.888
		c-0.212-0.377-0.495-0.69-0.864-0.909c-0.714-0.419-1.48-0.492-2.266-0.234c-0.729,0.238-1.236,0.746-1.582,1.412
		C31.586,18.471,31.431,19.177,31.439,20.006z M19.423,17.816c0.247,0,0.493,0,0.74,0c0.593,0,1.185,0,1.777,0
		c0.06,0,0.148,0.029,0.116-0.096c-0.125-0.496-0.338-0.951-0.693-1.324c-0.386-0.407-0.874-0.631-1.42-0.729
		c-0.461-0.083-0.923-0.062-1.364,0.096c-0.898,0.321-1.458,0.967-1.746,1.867c-0.048,0.151-0.032,0.188,0.128,0.188
		C17.782,17.814,18.603,17.816,19.423,17.816z"/>
	<path fill="#F47921" d="M42.376,26.705c0-7.073,0-14.149,0-21.223c0.062-0.003,0.122-0.007,0.185-0.007
		c3.787,0,7.572,0.001,11.359-0.004c0.171,0,0.209,0.045,0.208,0.211c-0.007,1.439-0.007,2.879,0,4.317
		c0.001,0.171-0.028,0.225-0.215,0.225c-2.125-0.008-4.25-0.003-6.375-0.009c-0.161,0-0.203,0.036-0.201,0.2
		c0.011,0.871,0.011,1.742,0,2.612c-0.002,0.171,0.05,0.197,0.204,0.197c4.23-0.004,8.463-0.002,12.693-0.006
		c0.16,0,0.262,0.039,0.363,0.18c0.125,0.177,0.295,0.326,0.44,0.49c0.43,0.478,0.872,0.945,1.305,1.421
		c0.343,0.375,0.677,0.755,1.028,1.152c0.259-0.301,0.508-0.59,0.76-0.878c0.205-0.234,0.412-0.466,0.615-0.702
		c0.396-0.455,0.791-0.91,1.186-1.368c0.159-0.188,0.319-0.306,0.606-0.303c1.858,0.019,3.719,0.01,5.577,0.011
		c0.062,0,0.133-0.018,0.209,0.021c-0.076,0.137-0.195,0.236-0.291,0.347c-0.348,0.405-0.713,0.789-1.065,1.187
		c-0.528,0.597-1.051,1.203-1.579,1.8c-0.354,0.398-0.718,0.787-1.07,1.185c-0.533,0.604-1.062,1.21-1.594,1.814
		c-0.01,0.008-0.018,0.017-0.024,0.026c-0.314,0.338-0.304,0.325,0.016,0.674c0.479,0.521,0.938,1.059,1.41,1.589
		c0.243,0.274,0.494,0.54,0.737,0.812c0.482,0.544,0.963,1.089,1.447,1.632c0.241,0.272,0.494,0.543,0.737,0.812
		c0.459,0.509,0.916,1.02,1.374,1.525c0.008,0.006,0,0.021,0,0.062c-0.062,0-0.126,0-0.189,0c-1.965,0-3.928-0.009-5.894,0.009
		c-0.252,0.003-0.396-0.106-0.521-0.271c-0.119-0.164-0.266-0.303-0.396-0.453c-0.496-0.58-1.01-1.145-1.521-1.715
		c-0.229-0.254-0.461-0.506-0.687-0.762c-0.063-0.07-0.108-0.082-0.175-0.004c-0.331,0.383-0.663,0.762-0.998,1.143
		c-0.223,0.252-0.449,0.498-0.671,0.752c-0.338,0.385-0.674,0.771-1.011,1.154c-0.077,0.09-0.154,0.15-0.295,0.15
		c-5.851-0.005-11.697-0.004-17.549-0.004C42.475,26.713,42.425,26.708,42.376,26.705z M54.167,13.338
		c-0.015,0.006-0.028,0.011-0.043,0.016c0,0.06,0,0.119,0,0.178c0,1.346-0.003,2.692,0.003,4.038
		c0.001,0.162-0.029,0.215-0.205,0.214c-2.137-0.007-4.273-0.003-6.41-0.007c-0.136,0-0.175,0.029-0.174,0.17
		c0.006,1.266,0.008,2.531,0,3.798c-0.001,0.155,0.04,0.19,0.191,0.188c2.131-0.004,4.262,0,6.392-0.01
		c0.175-0.001,0.207,0.053,0.206,0.217c-0.006,1.42-0.003,2.838-0.002,4.258c0,0.062-0.018,0.129,0.02,0.191
		c0.239-0.273,0.472-0.544,0.705-0.808c0.393-0.443,0.778-0.892,1.18-1.326c0.518-0.562,1.021-1.134,1.521-1.71
		c0.393-0.445,0.785-0.887,1.182-1.326c0.438-0.49,0.883-0.979,1.324-1.47c-0.184-0.196-0.361-0.382-0.531-0.574
		c-0.444-0.502-0.885-1.008-1.328-1.51c-0.243-0.275-0.493-0.541-0.738-0.815c-0.492-0.551-0.98-1.104-1.473-1.655
		c-0.215-0.242-0.435-0.48-0.646-0.724C54.945,14.229,54.557,13.783,54.167,13.338z"/>
	<path fill="#F47921" d="M77.414,27.119c-1.275,0.061-2.671-1.012-2.539-2.74c0.1-1.297,1.113-2.329,2.562-2.326
		c1.396,0.002,2.633,1.016,2.559,2.717C79.939,25.994,78.9,27.169,77.414,27.119z M77.436,26.674
		c1.194,0.029,2.022-0.916,2.033-2.008c0.012-1.344-0.875-2.17-2.055-2.167c-1.139,0.003-1.957,0.844-2.018,1.983
		C75.327,25.775,76.326,26.729,77.436,26.674z"/>
	<path fill="#F47921" d="M78.072,24.546c0.268,0.121,0.283,0.382,0.32,0.613c0.051,0.315,0.082,0.634,0.199,0.96
		c-0.174,0-0.331-0.001-0.486,0c-0.078,0.001-0.1-0.043-0.117-0.111c-0.062-0.197-0.069-0.404-0.107-0.605
		c-0.02-0.104-0.025-0.215-0.056-0.317c-0.073-0.259-0.222-0.36-0.509-0.373c-0.4-0.013-0.4-0.013-0.4,0.382
		c0,0.291-0.003,0.581,0.004,0.871c0.002,0.111-0.016,0.162-0.146,0.16c-0.338-0.005-0.338,0.002-0.338-0.337
		c0-0.872,0.004-1.742-0.004-2.612c-0.002-0.143,0.039-0.175,0.174-0.171c0.328,0.013,0.655-0.01,0.982,0.007
		c0.27,0.014,0.547,0.045,0.738,0.27C78.682,23.693,78.562,24.282,78.072,24.546z M76.916,23.866c0,0.11,0.002,0.221,0,0.331
		c0,0.061,0,0.109,0.085,0.107c0.247-0.012,0.497,0.021,0.737-0.074c0.242-0.096,0.322-0.416,0.15-0.606
		c-0.152-0.168-0.354-0.171-0.553-0.173C76.916,23.448,76.916,23.451,76.916,23.866z"/>
</g>
</svg>
