<?xml version="1.0" encoding="utf-8"?>
<!-- Generator: Adobe Illustrator 16.0.0, SVG Export Plug-In . SVG Version: 6.00 Build 0)  -->
<!DOCTYPE svg PUBLIC "-//W3C//DTD SVG 1.1//EN" "http://www.w3.org/Graphics/SVG/1.1/DTD/svg11.dtd">
<svg version="1.1" id="Layer_1" xmlns="http://www.w3.org/2000/svg" xmlns:xlink="http://www.w3.org/1999/xlink" x="0px" y="0px"
	 width="18px" height="18px" viewBox="0 0 18 18" enable-background="new 0 0 18 18" xml:space="preserve">
<g id="ZU56Mp.tif">
	<g>
		<g>
			<path d="M8.4,0.037c0.425,0,0.85,0,1.274,0c0.219,0.061,0.444,0.052,0.665,0.087c1.917,0.299,3.584,1.107,4.976,2.463
				c1.369,1.337,2.231,2.95,2.576,4.836c0.06,0.323,0.098,0.651,0.146,0.977c0,0.425,0,0.85,0,1.274
				c-0.014,0.049-0.033,0.096-0.035,0.145c-0.027,0.412-0.102,0.815-0.189,1.22c-0.768,3.466-3.639,6.229-7.123,6.846
				c-0.336,0.062-0.676,0.104-1.016,0.154c-0.425,0-0.85,0-1.274,0c-0.057-0.034-0.12-0.034-0.182-0.039
				c-0.643-0.054-1.271-0.183-1.885-0.376c-1.629-0.518-3.004-1.422-4.119-2.719c-1.053-1.223-1.731-2.629-2.025-4.217
				c-0.062-0.336-0.103-0.676-0.153-1.015c0-0.425,0-0.85,0-1.274C0.05,8.346,0.07,8.292,0.073,8.237
				c0.02-0.33,0.072-0.656,0.139-0.979C0.633,5.22,1.637,3.521,3.217,2.171C4.431,1.135,5.83,0.474,7.404,0.183
				C7.735,0.122,8.071,0.11,8.4,0.037z M6.645,8.438c0.55,0,1.1-0.003,1.65,0.002C8.411,8.442,8.441,8.408,8.44,8.293
				c-0.005-0.7-0.005-1.4,0-2.1c0.001-0.118-0.025-0.161-0.153-0.16C7.294,6.04,6.3,6.038,5.307,6.035
				c-0.104,0-0.153,0.024-0.175,0.137C4.99,6.871,4.895,7.574,4.862,8.286C4.855,8.417,4.894,8.442,5.013,8.44
				C5.557,8.435,6.101,8.438,6.645,8.438z M6.651,9.637c-0.544,0-1.088,0.004-1.631-0.003C4.884,9.631,4.856,9.67,4.863,9.802
				c0.034,0.699,0.126,1.392,0.265,2.077c0.025,0.124,0.067,0.162,0.192,0.162c0.988-0.005,1.975-0.004,2.962,0
				c0.118,0,0.161-0.025,0.159-0.154c-0.006-0.699-0.006-1.397,0-2.099C8.442,9.66,8.4,9.633,8.282,9.635
				C7.738,9.641,7.194,9.637,6.651,9.637z M11.424,8.438c0.544,0,1.088-0.005,1.633,0.003c0.135,0.002,0.162-0.037,0.155-0.168
				c-0.034-0.699-0.126-1.391-0.265-2.077c-0.024-0.125-0.067-0.163-0.191-0.162c-0.988,0.005-1.977,0.004-2.963,0
				C9.675,6.033,9.633,6.06,9.634,6.187c0.007,0.7,0.007,1.4,0,2.1C9.633,8.415,9.675,8.442,9.793,8.44
				C10.337,8.435,10.881,8.438,11.424,8.438z M11.43,9.637c-0.544,0-1.088,0.004-1.631-0.003C9.665,9.632,9.633,9.671,9.634,9.801
				c0.007,0.693,0.007,1.387,0.001,2.081c-0.001,0.119,0.026,0.16,0.153,0.159c0.993-0.005,1.987-0.004,2.979-0.001
				c0.104,0,0.151-0.024,0.176-0.138c0.14-0.699,0.236-1.402,0.27-2.114c0.006-0.131-0.033-0.155-0.152-0.153
				C12.518,9.641,11.975,9.637,11.43,9.637z M5.515,4.823C5.539,4.83,5.55,4.836,5.562,4.836c0.918,0.001,1.837,0,2.756,0.004
				c0.104,0,0.122-0.042,0.122-0.132C8.438,3.626,8.436,2.545,8.441,1.464c0-0.139-0.054-0.142-0.154-0.104
				C8,1.471,7.728,1.607,7.482,1.794C6.752,2.349,6.267,3.092,5.88,3.907C5.739,4.204,5.609,4.506,5.515,4.823z M5.501,13.236
				c0.352,0.984,0.794,1.877,1.502,2.617c0.363,0.381,0.782,0.678,1.281,0.854c0.07,0.023,0.155,0.084,0.155-0.074
				c-0.003-1.093-0.002-2.188,0-3.279c0-0.09-0.028-0.117-0.118-0.117C7.391,13.238,6.461,13.236,5.501,13.236z M12.572,4.838
				c-0.312-0.885-0.703-1.688-1.288-2.385c-0.399-0.476-0.87-0.856-1.46-1.078C9.688,1.323,9.631,1.324,9.633,1.5
				c0.008,0.968,0.003,1.937,0.003,2.906c0,0.432,0,0.432,0.438,0.432C10.898,4.838,11.725,4.838,12.572,4.838z M12.57,13.236
				c-0.075,0-0.129,0-0.186,0c-0.855,0-1.712,0.005-2.566-0.004c-0.147,0-0.188,0.037-0.188,0.186c0.008,1,0.003,2,0.003,2.999
				c0,0.366,0,0.367,0.339,0.22c0.586-0.257,1.045-0.671,1.436-1.171C11.928,14.8,12.287,14.052,12.57,13.236z M2.457,8.438
				c0.344,0,0.688-0.005,1.031,0.002c0.117,0.003,0.158-0.027,0.165-0.152C3.69,7.571,3.77,6.858,3.919,6.155
				c0.025-0.12-0.023-0.119-0.109-0.119c-0.618,0.001-1.237,0.002-1.855,0c-0.078,0-0.125,0.018-0.156,0.097
				C1.523,6.826,1.354,7.544,1.273,8.286C1.259,8.416,1.307,8.443,1.426,8.44C1.769,8.434,2.113,8.438,2.457,8.438z M2.461,9.637
				c-0.35,0-0.7,0.006-1.049-0.002c-0.12-0.003-0.151,0.036-0.139,0.15c0.079,0.74,0.248,1.461,0.525,2.154
				c0.025,0.062,0.054,0.102,0.133,0.101c0.637-0.002,1.274-0.002,1.912-0.001c0.071,0.001,0.099-0.014,0.081-0.096
				C3.77,11.221,3.691,10.49,3.649,9.754C3.644,9.648,3.6,9.635,3.511,9.635C3.161,9.639,2.811,9.637,2.461,9.637z M14.134,12.037
				c0.687,0,1.36,0,2.034,0.001c0.064,0,0.085-0.041,0.104-0.088c0.283-0.704,0.457-1.437,0.529-2.191
				c0.008-0.082-0.008-0.125-0.105-0.125c-0.719,0.005-1.437,0.003-2.153,0c-0.078,0-0.106,0.025-0.11,0.105
				C14.383,10.507,14.297,11.27,14.134,12.037z M15.615,8.438c0.343,0,0.688-0.007,1.029,0.003c0.139,0.004,0.17-0.043,0.154-0.17
				c-0.084-0.728-0.244-1.437-0.52-2.118c-0.03-0.08-0.065-0.119-0.158-0.118c-0.624,0.004-1.249,0.003-1.874,0
				c-0.091,0-0.114,0.018-0.095,0.117c0.147,0.703,0.229,1.416,0.269,2.133c0.006,0.119,0.039,0.159,0.162,0.156
				C14.93,8.433,15.271,8.438,15.615,8.438z M5.602,2.056c-1.297,0.627-2.33,1.549-3.134,2.782c0.591,0,1.145-0.001,1.698,0.001
				c0.08,0,0.104-0.039,0.126-0.104C4.604,3.783,5.025,2.884,5.602,2.056z M15.609,4.838c-0.812-1.233-1.842-2.158-3.17-2.818
				c0.035,0.064,0.045,0.087,0.059,0.107c0.534,0.74,0.919,1.555,1.22,2.413c0.104,0.297,0.103,0.298,0.418,0.298
				C14.613,4.838,15.093,4.838,15.609,4.838z M5.593,16.01c-0.571-0.826-0.991-1.722-1.299-2.669
				c-0.036-0.11-0.103-0.104-0.185-0.104c-0.5,0.003-1,0-1.5,0.004c-0.038,0-0.089-0.024-0.116,0.039
				C3.278,14.469,4.305,15.387,5.593,16.01z M12.48,16.012c1.293-0.63,2.324-1.549,3.125-2.772c-0.588,0-1.138,0.002-1.687-0.005
				c-0.088,0-0.117,0.041-0.144,0.113c-0.07,0.213-0.146,0.424-0.229,0.633C13.271,14.698,12.913,15.373,12.48,16.012z"/>
			<path fill="none" d="M9.675,18.038c0.339-0.052,0.679-0.095,1.015-0.154c3.485-0.618,6.356-3.38,7.125-6.846
				c0.088-0.403,0.162-0.808,0.188-1.22c0.002-0.047,0.022-0.096,0.035-0.145c0,2.738-0.002,5.477,0.003,8.215
				c0,0.127-0.025,0.151-0.152,0.151C15.148,18.036,12.413,18.038,9.675,18.038z"/>
			<path fill="none" d="M0.037,9.675c0.051,0.339,0.091,0.679,0.153,1.015c0.294,1.588,0.972,2.994,2.025,4.219
				c1.115,1.295,2.49,2.199,4.119,2.717C6.948,17.818,7.576,17.947,8.219,18c0.062,0.005,0.125,0.005,0.182,0.039
				c-2.738,0-5.476-0.002-8.213,0.003c-0.128,0-0.154-0.024-0.154-0.153C0.039,15.148,0.037,12.413,0.037,9.675z"/>
			<path fill="none" d="M18.038,8.4c-0.05-0.326-0.089-0.653-0.147-0.977c-0.344-1.887-1.207-3.499-2.576-4.836
				c-1.391-1.356-3.058-2.164-4.975-2.463c-0.221-0.035-0.447-0.026-0.665-0.087c2.738,0,5.476,0.001,8.214-0.003
				c0.127,0,0.152,0.025,0.152,0.154C18.036,2.925,18.038,5.662,18.038,8.4z"/>
			<path fill="none" d="M8.4,0.037C8.071,0.11,7.735,0.122,7.404,0.183C5.83,0.474,4.431,1.135,3.217,2.171
				c-1.58,1.35-2.584,3.049-3.005,5.087c-0.067,0.323-0.12,0.649-0.139,0.979C0.07,8.292,0.05,8.346,0.037,8.4
				c0-2.735,0.001-5.469-0.003-8.204c0-0.135,0.028-0.164,0.163-0.163C2.931,0.039,5.666,0.037,8.4,0.037z"/>
			<path fill="none" d="M6.645,8.438c-0.543,0-1.087-0.003-1.631,0.002c-0.12,0.002-0.159-0.023-0.152-0.154
				C4.895,7.574,4.99,6.87,5.132,6.172c0.022-0.113,0.071-0.137,0.175-0.137C6.3,6.038,7.294,6.04,8.288,6.034
				c0.128,0,0.154,0.042,0.153,0.16c-0.005,0.699-0.005,1.399,0,2.1c0.001,0.115-0.029,0.149-0.146,0.147
				C7.745,8.435,7.195,8.438,6.645,8.438z"/>
			<path fill="none" d="M6.651,9.637c0.543,0,1.087,0.004,1.631-0.002C8.4,9.633,8.442,9.66,8.441,9.788
				c-0.006,0.7-0.006,1.399,0,2.099c0.001,0.129-0.041,0.154-0.159,0.154c-0.987-0.004-1.975-0.005-2.962,0
				c-0.125,0-0.167-0.038-0.192-0.162c-0.139-0.688-0.23-1.378-0.265-2.077C4.856,9.67,4.884,9.631,5.02,9.634
				C5.563,9.641,6.106,9.637,6.651,9.637z"/>
			<path fill="none" d="M11.424,8.438c-0.543,0-1.087-0.003-1.631,0.002c-0.118,0.001-0.16-0.026-0.159-0.153
				c0.007-0.7,0.007-1.399,0-2.1C9.633,6.061,9.675,6.034,9.793,6.035c0.986,0.004,1.975,0.004,2.963,0
				c0.124,0,0.167,0.037,0.191,0.162c0.139,0.687,0.229,1.378,0.265,2.077c0.007,0.131-0.021,0.17-0.155,0.168
				C12.512,8.434,11.968,8.438,11.424,8.438z"/>
			<path fill="none" d="M11.43,9.637c0.545,0,1.088,0.004,1.631-0.002c0.119-0.001,0.158,0.022,0.152,0.153
				c-0.033,0.712-0.13,1.415-0.27,2.114c-0.022,0.111-0.07,0.138-0.176,0.138c-0.992-0.003-1.986-0.004-2.979,0.001
				c-0.127,0.001-0.154-0.04-0.153-0.159c0.006-0.692,0.006-1.388-0.001-2.081c-0.001-0.13,0.031-0.169,0.165-0.167
				C10.342,9.641,10.886,9.637,11.43,9.637z"/>
			<path fill="none" d="M5.515,4.823C5.609,4.506,5.739,4.204,5.88,3.907c0.387-0.815,0.872-1.558,1.603-2.113
				C7.728,1.607,8,1.471,8.287,1.361c0.1-0.038,0.154-0.036,0.154,0.104c-0.005,1.08-0.003,2.161-0.002,3.243
				c0,0.091-0.017,0.133-0.122,0.132C7.399,4.836,6.48,4.837,5.562,4.836C5.55,4.836,5.539,4.83,5.515,4.823z"/>
			<path fill="none" d="M5.501,13.236c0.96,0,1.89,0.002,2.821-0.002c0.089,0,0.118,0.026,0.118,0.117
				c-0.002,1.094-0.003,2.188,0,3.279c0,0.158-0.085,0.1-0.155,0.074c-0.5-0.178-0.918-0.475-1.281-0.854
				C6.295,15.113,5.853,14.221,5.501,13.236z"/>
			<path fill="none" d="M12.572,4.838c-0.85,0-1.674,0-2.498,0c-0.438,0-0.438,0-0.438-0.432c0-0.969,0.005-1.938-0.003-2.906
				C9.631,1.324,9.688,1.323,9.824,1.375c0.59,0.222,1.061,0.602,1.46,1.078C11.869,3.15,12.262,3.953,12.572,4.838z"/>
			<path fill="none" d="M12.57,13.236c-0.283,0.813-0.645,1.562-1.161,2.229c-0.39,0.5-0.849,0.914-1.437,1.171
				c-0.337,0.147-0.338,0.146-0.338-0.22c0-0.999,0.004-1.999-0.003-2.999C9.631,13.271,9.67,13.23,9.818,13.23
				c0.855,0.01,1.711,0.004,2.567,0.004C12.441,13.236,12.495,13.236,12.57,13.236z"/>
			<path fill="none" d="M2.457,8.438c-0.344,0-0.688-0.004-1.031,0.002C1.307,8.443,1.259,8.416,1.273,8.286
				c0.081-0.742,0.25-1.46,0.526-2.154C1.83,6.054,1.877,6.035,1.955,6.036c0.618,0.002,1.237,0.002,1.855,0
				c0.086,0,0.134-0.001,0.109,0.119C3.77,6.858,3.69,7.571,3.652,8.289C3.646,8.413,3.604,8.443,3.487,8.44
				C3.144,8.434,2.8,8.438,2.457,8.438z"/>
			<path fill="none" d="M2.461,9.637c0.35,0,0.7,0.002,1.049-0.001c0.089,0,0.133,0.015,0.139,0.119
				c0.042,0.736,0.12,1.468,0.275,2.188c0.018,0.082-0.01,0.097-0.081,0.096c-0.637-0.001-1.275-0.001-1.912,0.001
				c-0.079,0.001-0.108-0.037-0.133-0.101c-0.277-0.693-0.446-1.414-0.525-2.154C1.261,9.67,1.292,9.631,1.412,9.634
				C1.762,9.643,2.111,9.637,2.461,9.637z"/>
			<path fill="none" d="M14.134,12.037c0.163-0.77,0.249-1.53,0.294-2.296c0.004-0.081,0.034-0.105,0.112-0.105
				c0.719,0.003,1.437,0.003,2.155,0c0.098,0,0.113,0.042,0.104,0.125c-0.07,0.755-0.247,1.487-0.527,2.191
				c-0.021,0.047-0.039,0.088-0.104,0.088C15.494,12.037,14.82,12.037,14.134,12.037z"/>
			<path fill="none" d="M15.615,8.438c-0.344,0-0.688-0.006-1.03,0.002c-0.123,0.003-0.155-0.037-0.162-0.156
				c-0.039-0.717-0.118-1.43-0.269-2.133c-0.021-0.099,0.004-0.117,0.095-0.117c0.625,0.002,1.25,0.003,1.874,0
				c0.093-0.001,0.128,0.038,0.159,0.118c0.272,0.682,0.435,1.39,0.519,2.118c0.016,0.127-0.018,0.174-0.154,0.17
				C16.303,8.432,15.958,8.438,15.615,8.438z"/>
			<path fill="none" d="M5.602,2.056c-0.577,0.828-0.998,1.727-1.31,2.679C4.27,4.801,4.245,4.84,4.166,4.839
				C3.612,4.836,3.059,4.838,2.468,4.838C3.272,3.605,4.305,2.684,5.602,2.056z"/>
			<path fill="none" d="M15.609,4.838c-0.519,0-0.996,0-1.476,0c-0.313,0-0.312-0.001-0.418-0.298
				c-0.301-0.858-0.687-1.673-1.22-2.413c-0.016-0.02-0.021-0.042-0.061-0.107C13.77,2.68,14.798,3.605,15.609,4.838z"/>
			<path fill="none" d="M5.593,16.01c-1.289-0.623-2.315-1.541-3.099-2.73C2.52,13.216,2.572,13.24,2.61,13.24
				c0.5-0.004,1-0.001,1.5-0.004c0.082,0,0.148-0.006,0.185,0.104C4.602,14.288,5.022,15.184,5.593,16.01z"/>
			<path fill="none" d="M12.48,16.012c0.433-0.639,0.791-1.312,1.068-2.031c0.081-0.209,0.156-0.42,0.229-0.633
				c0.023-0.072,0.055-0.113,0.143-0.113c0.551,0.007,1.1,0.005,1.686,0.005C14.807,14.463,13.773,15.382,12.48,16.012z"/>
		</g>
	</g>
</g>
</svg>
