<?xml version="1.0" encoding="utf-8"?>
<!-- Generator: Adobe Illustrator 16.0.0, SVG Export Plug-In . SVG Version: 6.00 Build 0)  -->
<!DOCTYPE svg PUBLIC "-//W3C//DTD SVG 1.1//EN" "http://www.w3.org/Graphics/SVG/1.1/DTD/svg11.dtd">
<svg version="1.1" id="Layer_1" xmlns="http://www.w3.org/2000/svg" xmlns:xlink="http://www.w3.org/1999/xlink" x="0px" y="0px"
	 width="18px" height="18px" viewBox="0 0 18 18" enable-background="new 0 0 18 18" xml:space="preserve">
<g id="lgnLJt.tif">
	<g>
		<g>
			<path fill="none" d="M9.545,0.137c2.667,0,5.335,0.001,8.003-0.004c0.147,0,0.188,0.022,0.188,0.183
				c-0.004,5.714-0.006,11.428,0.002,17.142c0,0.172-0.045,0.194-0.201,0.194c-5.662-0.006-11.322-0.006-16.983,0
				c-0.156,0-0.201-0.022-0.201-0.194c0.006-5.714,0.006-11.428,0-17.142c0-0.161,0.039-0.184,0.189-0.183
				C3.225,0.139,5.908,0.137,8.59,0.137C8.56,0.18,8.512,0.177,8.468,0.184C6.706,0.457,5.35,1.987,5.317,3.763
				c-0.018,0.985-0.005,1.97-0.005,2.955c0,0.09,0.006,0.179,0.04,0.268C5.482,7.32,5.817,7.514,6.17,7.454
				c0.338-0.058,0.595-0.362,0.597-0.728c0.004-0.78,0-1.561,0.002-2.341c0.001-0.31-0.013-0.619,0.042-0.928
				C7.006,2.341,8.15,1.47,9.258,1.601c1.26,0.15,2.107,1.102,2.107,2.372c0.002,0.909,0,1.818,0.002,2.728
				c0,0.443,0.309,0.759,0.729,0.758s0.725-0.314,0.725-0.761c0.006-0.955,0.01-1.91-0.002-2.864
				c-0.016-1.658-1.135-3.111-2.729-3.558C9.908,0.226,9.727,0.184,9.545,0.137z M9.036,17.602c1.546,0,3.093,0,4.64,0
				c0.764,0,1.326-0.444,1.508-1.187c0.66-2.692,1.322-5.388,1.984-8.08c0.168-0.683,0.336-1.365,0.502-2.048
				c0.076-0.309-0.012-0.461-0.277-0.461c-1.229-0.004-2.457,0-3.684-0.005c-0.137,0-0.166,0.049-0.162,0.171
				c0.008,0.258,0.008,0.516,0.002,0.773c-0.02,0.75-0.605,1.358-1.363,1.419c-0.715,0.058-1.381-0.471-1.516-1.198
				c-0.061-0.332-0.02-0.666-0.029-0.998c-0.004-0.1-0.006-0.168-0.141-0.167c-0.956,0.005-1.911,0.004-2.866,0
				c-0.111,0-0.143,0.04-0.141,0.146C7.498,6.225,7.502,6.483,7.491,6.74C7.458,7.535,6.876,8.138,6.104,8.186
				C5.382,8.229,4.723,7.698,4.607,6.941C4.562,6.645,4.58,6.336,4.59,6.034C4.596,5.863,4.547,5.818,4.376,5.82
				c-1.205,0.007-2.41,0.003-3.615,0.004c-0.32,0-0.423,0.13-0.346,0.446c0.835,3.406,1.67,6.811,2.511,10.214
				c0.167,0.676,0.752,1.117,1.449,1.117C5.928,17.604,7.482,17.602,9.036,17.602z"/>
			<path d="M9.545,0.137c0.182,0.046,0.362,0.089,0.542,0.139c1.597,0.447,2.715,1.9,2.729,3.558
				c0.011,0.955,0.007,1.91,0.002,2.864c0,0.447-0.305,0.76-0.726,0.761c-0.42,0.001-0.729-0.315-0.729-0.758
				c-0.003-0.909,0-1.818-0.003-2.728c0-1.271-0.848-2.222-2.106-2.372C8.15,1.47,7.006,2.341,6.811,3.456
				C6.757,3.765,6.771,4.074,6.77,4.384C6.767,5.165,6.771,5.945,6.767,6.725C6.765,7.091,6.508,7.396,6.17,7.453
				c-0.353,0.06-0.688-0.134-0.818-0.468c-0.034-0.088-0.04-0.177-0.04-0.268c0-0.985-0.013-1.97,0.005-2.955
				c0.033-1.776,1.389-3.307,3.151-3.58C8.512,0.177,8.56,0.18,8.59,0.137C8.909,0.137,9.227,0.137,9.545,0.137z"/>
			<path d="M9.036,17.602c-1.554,0-3.108,0.002-4.662,0c-0.696,0-1.282-0.439-1.449-1.115C2.085,13.081,1.25,9.676,0.415,6.27
				C0.337,5.955,0.441,5.824,0.761,5.824c1.205-0.001,2.41,0.003,3.616-0.004c0.17-0.001,0.22,0.043,0.213,0.214
				C4.58,6.336,4.562,6.645,4.607,6.941C4.723,7.698,5.382,8.23,6.104,8.186c0.772-0.047,1.354-0.65,1.387-1.445
				c0.011-0.257,0.006-0.516,0.001-0.773C7.49,5.862,7.522,5.822,7.633,5.822c0.955,0.003,1.911,0.004,2.866,0
				c0.135-0.001,0.137,0.066,0.142,0.168c0.01,0.333-0.031,0.667,0.028,0.998c0.136,0.727,0.802,1.255,1.517,1.198
				c0.758-0.061,1.344-0.67,1.362-1.419c0.007-0.258,0.007-0.516-0.002-0.773c-0.004-0.123,0.024-0.172,0.162-0.171
				c1.228,0.005,2.455,0.001,3.685,0.005c0.267,0,0.354,0.153,0.276,0.461c-0.166,0.683-0.334,1.365-0.502,2.048
				c-0.662,2.692-1.324,5.388-1.983,8.08c-0.183,0.74-0.744,1.187-1.509,1.187C12.129,17.602,10.582,17.602,9.036,17.602z"/>
		</g>
	</g>
</g>
</svg>
