<?xml version="1.0" encoding="utf-8"?>
<!-- Generator: Adobe Illustrator 16.0.0, SVG Export Plug-In . SVG Version: 6.00 Build 0)  -->
<!DOCTYPE svg PUBLIC "-//W3C//DTD SVG 1.1//EN" "http://www.w3.org/Graphics/SVG/1.1/DTD/svg11.dtd">
<svg version="1.1" id="Layer_1" xmlns="http://www.w3.org/2000/svg" xmlns:xlink="http://www.w3.org/1999/xlink" x="0px" y="0px"
	 width="18px" height="18px" viewBox="0 0 18 18" enable-background="new 0 0 18 18" xml:space="preserve">
<g id="KJJY2F.tif">
	<g>
		<path d="M6.196,0.091c0.338,0,0.676,0,1.013,0C7.445,0.13,7.683,0.163,7.918,0.208c4.469,0.867,6.749,5.784,4.518,9.756
			c-0.093,0.168-0.051,0.248,0.063,0.362c1.515,1.509,3.022,3.025,4.54,4.529c0.361,0.357,0.708,0.72,0.824,1.237
			c0,0.146,0,0.29,0,0.437c-0.069,0.177-0.121,0.363-0.213,0.533c-0.496,0.896-1.696,1.053-2.442,0.312
			c-1.634-1.623-3.261-3.256-4.89-4.89c-0.101-0.1-0.168-0.153-0.32-0.063c-1.266,0.726-2.626,0.986-4.077,0.833
			c-2.709-0.288-5.078-2.396-5.645-5.062C0.175,7.717,0.14,7.227,0.074,6.744c0-0.032,0-0.064,0-0.096
			C0.09,6.521,0.112,6.396,0.12,6.269C0.294,3.46,2.25,1.063,4.977,0.334C5.376,0.228,5.79,0.171,6.196,0.091z M2.215,6.69
			c-0.002,2.483,1.998,4.492,4.478,4.498c2.492,0.004,4.514-2.008,4.511-4.494c-0.005-2.473-2.02-4.487-4.495-4.49
			C4.232,2.203,2.219,4.213,2.215,6.69z"/>
	</g>
</g>
</svg>
