<?xml version="1.0" encoding="utf-8"?>
<!-- Generator: Adobe Illustrator 16.0.0, SVG Export Plug-In . SVG Version: 6.00 Build 0)  -->
<!DOCTYPE svg PUBLIC "-//W3C//DTD SVG 1.1//EN" "http://www.w3.org/Graphics/SVG/1.1/DTD/svg11.dtd">
<svg version="1.1" id="Layer_1" xmlns="http://www.w3.org/2000/svg" xmlns:xlink="http://www.w3.org/1999/xlink" x="0px" y="0px"
	 width="18px" height="18px" viewBox="0 0 18 18" enable-background="new 0 0 18 18" xml:space="preserve">
<path fill="#010101" d="M17.386,16.211l-5.204-5.203c0.676-1.008,1.039-2.192,1.039-3.432c0-1.65-0.643-3.202-1.81-4.369
	s-2.718-1.81-4.369-1.81c-1.65,0-3.202,0.643-4.369,1.81s-1.81,2.718-1.81,4.369s0.643,3.202,1.81,4.369
	c1.167,1.167,2.719,1.81,4.369,1.81c1.254,0,2.451-0.371,3.466-1.062l5.198,5.197c0.175,0.176,0.498,0.138,0.72-0.085l0.874-0.873
	C17.522,16.709,17.561,16.387,17.386,16.211z M7.042,12.08c-2.484,0-4.504-2.021-4.504-4.504s2.021-4.504,4.504-4.504
	c2.484,0,4.504,2.021,4.504,4.504S9.527,12.08,7.042,12.08z"/>
</svg>
