<?xml version="1.0" encoding="utf-8"?>
<!-- Generator: Adobe Illustrator 16.0.0, SVG Export Plug-In . SVG Version: 6.00 Build 0)  -->
<!DOCTYPE svg PUBLIC "-//W3C//DTD SVG 1.1//EN" "http://www.w3.org/Graphics/SVG/1.1/DTD/svg11.dtd">
<svg version="1.1" id="Layer_1" xmlns="http://www.w3.org/2000/svg" xmlns:xlink="http://www.w3.org/1999/xlink" x="0px" y="0px"
	 width="18px" height="18px" viewBox="0 0 18 18" enable-background="new 0 0 18 18" xml:space="preserve">
<path fill="#010101" d="M9,18.167c-4.942,0-8.964-4.021-8.964-8.964C0.036,4.26,4.057,0.239,9,0.239
	c4.943,0,8.964,4.021,8.964,8.964C17.964,14.146,13.942,18.167,9,18.167z M9,1.895c-4.03,0-7.308,3.278-7.308,7.308
	c0,4.03,3.278,7.308,7.308,7.308s7.308-3.278,7.308-7.308C16.308,5.172,13.029,1.895,9,1.895z"/>
<g>
	<path fill="#010101" d="M9.444,3.282v0.716c0.473,0.049,0.879,0.146,1.217,0.292C11,4.437,11.295,4.658,11.548,4.954
		c0.198,0.225,0.352,0.458,0.46,0.696c0.108,0.239,0.163,0.458,0.163,0.657c0,0.221-0.081,0.413-0.242,0.574
		c-0.161,0.162-0.357,0.242-0.587,0.242c-0.435,0-0.714-0.235-0.843-0.703C10.354,5.867,10.002,5.5,9.444,5.319v2.759
		c0.548,0.151,0.984,0.288,1.31,0.412c0.326,0.124,0.616,0.303,0.872,0.537c0.274,0.243,0.486,0.535,0.635,0.873
		s0.222,0.709,0.222,1.111c0,0.504-0.118,0.977-0.355,1.416c-0.236,0.44-0.585,0.8-1.044,1.078c-0.46,0.278-1.007,0.444-1.639,0.498
		v0.726c0,0.261-0.026,0.451-0.077,0.57c-0.05,0.119-0.162,0.179-0.334,0.179c-0.16,0-0.271-0.049-0.335-0.146
		c-0.064-0.098-0.096-0.248-0.096-0.451v-0.865c-0.518-0.058-0.97-0.18-1.357-0.365s-0.71-0.417-0.968-0.693
		c-0.259-0.276-0.45-0.563-0.574-0.862c-0.124-0.298-0.186-0.591-0.186-0.879c0-0.212,0.083-0.403,0.249-0.573
		c0.166-0.171,0.372-0.256,0.62-0.256c0.199,0,0.367,0.047,0.504,0.14s0.232,0.224,0.285,0.392c0.12,0.362,0.223,0.64,0.312,0.832
		c0.088,0.192,0.222,0.368,0.401,0.527s0.417,0.281,0.713,0.365V9.558C8.009,9.394,7.514,9.212,7.116,9.01
		C6.718,8.81,6.395,8.523,6.147,8.151C5.899,7.78,5.776,7.302,5.776,6.718c0-0.76,0.242-1.384,0.726-1.871
		c0.484-0.486,1.184-0.77,2.1-0.849V3.295c0-0.371,0.139-0.557,0.418-0.557C9.303,2.738,9.444,2.919,9.444,3.282z M8.602,7.833
		V5.292C8.23,5.403,7.94,5.549,7.733,5.73C7.525,5.912,7.421,6.186,7.421,6.552c0,0.35,0.097,0.614,0.292,0.793
		C7.908,7.525,8.204,7.687,8.602,7.833z M9.444,9.803v2.906c0.447-0.089,0.791-0.268,1.035-0.538
		c0.243-0.269,0.364-0.583,0.364-0.941c0-0.385-0.118-0.682-0.354-0.892C10.252,10.127,9.904,9.949,9.444,9.803z"/>
</g>
</svg>
