<?xml version="1.0" encoding="utf-8"?>
<!-- Generator: Adobe Illustrator 16.0.0, SVG Export Plug-In . SVG Version: 6.00 Build 0)  -->
<!DOCTYPE svg PUBLIC "-//W3C//DTD SVG 1.1//EN" "http://www.w3.org/Graphics/SVG/1.1/DTD/svg11.dtd">
<svg version="1.1" id="Layer_1" xmlns="http://www.w3.org/2000/svg" xmlns:xlink="http://www.w3.org/1999/xlink" x="0px" y="0px"
	 width="18px" height="18px" viewBox="0 0 18 18" enable-background="new 0 0 18 18" xml:space="preserve">
<g id="J5Nq3E.tif">
	<g>
		<g>
			<path d="M8.438,0.035c0.41,0,0.82,0,1.23,0c0.038,0.037,0.087,0.031,0.133,0.034c0.456,0.029,0.905,0.107,1.348,0.214
				c3.397,0.816,6.016,3.53,6.72,6.962c0.071,0.36,0.101,0.727,0.168,1.087c0,0.48,0,0.961,0,1.441
				c-0.058,0.189-0.054,0.391-0.082,0.586c-0.228,1.457-0.759,2.791-1.636,3.979c-1.375,1.859-3.195,3.033-5.459,3.52
				c-0.356,0.076-0.725,0.119-1.086,0.178c-0.491,0-0.983,0-1.478,0c-0.044-0.038-0.1-0.029-0.151-0.034
				c-0.479-0.044-0.95-0.129-1.414-0.254c-1.534-0.414-2.877-1.17-4.007-2.288c-1.353-1.34-2.208-2.947-2.546-4.823
				c-0.06-0.333-0.096-0.668-0.144-1.003c0-0.398,0-0.797,0-1.195c0.011-0.051,0.03-0.101,0.033-0.153
				c0.031-0.491,0.115-0.974,0.239-1.45C0.882,4.627,2.113,2.876,3.99,1.583c1.053-0.725,2.217-1.189,3.478-1.414
				C7.79,0.113,8.117,0.101,8.438,0.035z M9.039,15.966c3.831-0.001,6.92-3.087,6.927-6.917c0.009-3.833-3.093-6.939-6.926-6.94
				c-3.829,0-6.934,3.107-6.932,6.939C2.11,12.867,5.215,15.967,9.039,15.966z"/>
			<path fill="none" d="M8.438,0.035C8.117,0.101,7.79,0.113,7.468,0.169C6.207,0.394,5.043,0.858,3.99,1.583
				C2.113,2.876,0.882,4.627,0.307,6.835c-0.124,0.476-0.208,0.958-0.239,1.45C0.065,8.336,0.046,8.387,0.035,8.438
				c0-2.751,0.001-5.502-0.003-8.253c0-0.127,0.026-0.153,0.153-0.153C2.936,0.037,5.687,0.035,8.438,0.035z"/>
			<path fill="none" d="M18.035,8.332c-0.067-0.36-0.096-0.727-0.168-1.087c-0.704-3.433-3.32-6.146-6.719-6.962
				C10.706,0.176,10.255,0.098,9.8,0.069C9.755,0.066,9.706,0.072,9.668,0.035c2.742,0,5.484,0.001,8.227-0.003
				c0.121,0,0.146,0.023,0.146,0.144C18.034,2.895,18.035,5.613,18.035,8.332z"/>
			<path fill="none" d="M0.035,9.633c0.047,0.334,0.083,0.67,0.144,1.003c0.338,1.876,1.193,3.483,2.546,4.823
				c1.13,1.118,2.474,1.874,4.007,2.288c0.463,0.125,0.935,0.21,1.414,0.254c0.051,0.005,0.106-0.004,0.151,0.034
				c-2.707,0-5.414-0.001-8.121,0.003c-0.121,0-0.145-0.022-0.144-0.144C0.036,15.141,0.035,12.387,0.035,9.633z"/>
			<path fill="none" d="M9.773,18.035c0.36-0.059,0.729-0.102,1.086-0.178c2.263-0.484,4.084-1.658,5.459-3.52
				c0.877-1.188,1.408-2.521,1.635-3.979c0.029-0.195,0.025-0.396,0.082-0.586c0,2.707-0.001,5.414,0.003,8.121
				c0,0.119-0.022,0.144-0.144,0.144C15.188,18.034,12.48,18.035,9.773,18.035z"/>
			<path fill="none" d="M9.039,15.966c-3.824,0.001-6.929-3.099-6.931-6.918C2.106,5.215,5.211,2.107,9.04,2.108
				c3.833,0.001,6.935,3.108,6.926,6.94C15.959,12.879,12.869,15.965,9.039,15.966z M7.98,10.824L7.98,10.824
				c0.001,0.316-0.007,0.633,0.005,0.949c0.005,0.146-0.05,0.146-0.157,0.103c-0.231-0.095-0.437-0.224-0.597-0.419
				c-0.207-0.25-0.31-0.549-0.372-0.859c-0.027-0.135-0.084-0.164-0.21-0.162c-0.439,0.008-0.879,0.002-1.318,0.002
				c-0.496,0-0.492,0-0.397,0.488c0.324,1.68,1.752,2.606,2.895,2.852c0.123,0.025,0.159,0.072,0.156,0.195
				c-0.009,0.353,0,0.702-0.005,1.055c-0.001,0.1,0.027,0.131,0.128,0.13c0.527-0.005,1.055-0.007,1.582,0
				c0.11,0.002,0.141-0.037,0.139-0.142c-0.005-0.347,0.001-0.69-0.003-1.037c-0.001-0.104,0.021-0.148,0.141-0.166
				c1.207-0.168,2.146-0.758,2.733-1.832c0.648-1.187,0.285-2.612-0.807-3.289c-0.59-0.364-1.25-0.515-1.927-0.595
				C9.844,8.082,9.822,8.039,9.823,7.935C9.826,7.372,9.824,6.81,9.825,6.247c0-0.188,0.021-0.205,0.204-0.141
				c0.477,0.166,0.729,0.524,0.838,0.999c0.021,0.096,0.039,0.156,0.16,0.154c0.552-0.007,1.103-0.005,1.652-0.001
				c0.107,0.001,0.139-0.035,0.133-0.143c-0.037-0.726-0.302-1.355-0.808-1.876c-0.552-0.568-1.222-0.916-2.009-1.023
				C9.85,4.196,9.795,4.148,9.802,3.991c0.015-0.327,0-0.656,0.007-0.984c0.004-0.118-0.035-0.15-0.147-0.149
				C9.15,2.862,8.64,2.864,8.131,2.856c-0.13-0.002-0.155,0.046-0.152,0.163c0.006,0.346,0,0.691,0.004,1.037
				c0.001,0.09-0.016,0.129-0.118,0.143c-0.356,0.046-0.696,0.154-1.02,0.308C5.889,4.962,5.182,5.63,5.049,6.737
				c-0.108,0.91,0.146,1.693,0.909,2.26c0.549,0.409,1.188,0.59,1.851,0.701c0.128,0.021,0.179,0.057,0.174,0.194
				C7.973,10.203,7.98,10.514,7.98,10.824z"/>
			<path d="M7.98,10.824c0-0.311-0.007-0.621,0.003-0.932c0.005-0.14-0.046-0.176-0.174-0.195c-0.663-0.11-1.302-0.292-1.851-0.701
				C5.196,8.43,4.941,7.646,5.049,6.737c0.133-1.108,0.84-1.776,1.796-2.23c0.323-0.154,0.664-0.261,1.02-0.308
				c0.102-0.014,0.119-0.053,0.118-0.143C7.979,3.71,7.985,3.365,7.979,3.019C7.976,2.902,8.001,2.854,8.131,2.856
				C8.64,2.864,9.15,2.862,9.66,2.857c0.113-0.001,0.152,0.032,0.148,0.149C9.801,3.335,9.816,3.664,9.802,3.991
				C9.795,4.148,9.85,4.196,9.997,4.216c0.787,0.107,1.457,0.455,2.009,1.023c0.506,0.521,0.77,1.15,0.807,1.876
				c0.006,0.108-0.022,0.144-0.133,0.143c-0.551-0.003-1.102-0.005-1.652,0.001c-0.12,0.001-0.141-0.059-0.159-0.154
				c-0.108-0.475-0.361-0.833-0.839-0.999C9.846,6.042,9.825,6.059,9.825,6.247C9.824,6.81,9.826,7.372,9.823,7.935
				C9.822,8.039,9.844,8.082,9.964,8.096c0.677,0.081,1.337,0.231,1.927,0.595c1.092,0.675,1.455,2.103,0.805,3.29
				c-0.588,1.074-1.524,1.664-2.731,1.83c-0.12,0.019-0.144,0.062-0.141,0.166c0.004,0.348-0.003,0.691,0.003,1.037
				c0.001,0.104-0.027,0.145-0.139,0.141c-0.525-0.004-1.055-0.004-1.582,0c-0.101,0.003-0.129-0.028-0.128-0.129
				c0.005-0.352-0.003-0.701,0.005-1.055c0.003-0.123-0.033-0.169-0.156-0.193c-1.142-0.244-2.571-1.174-2.895-2.853
				c-0.095-0.487-0.098-0.487,0.397-0.487c0.439,0,0.878,0.004,1.318-0.004c0.126,0,0.183,0.028,0.21,0.164
				c0.062,0.312,0.165,0.608,0.372,0.858c0.161,0.196,0.366,0.323,0.597,0.419c0.107,0.046,0.162,0.046,0.157-0.104
				C7.973,11.457,7.981,11.141,7.98,10.824L7.98,10.824z M9.843,10.99L9.843,10.99c0,0.275,0.003,0.549-0.001,0.824
				c-0.002,0.082,0.016,0.123,0.106,0.104c0.354-0.07,0.69-0.188,0.944-0.46c0.299-0.319,0.293-0.743-0.021-1.05
				c-0.257-0.249-0.581-0.334-0.928-0.359C9.85,10.041,9.84,10.088,9.84,10.163C9.846,10.439,9.843,10.715,9.843,10.99z
				 M7.984,6.908c0-0.234-0.002-0.468,0.001-0.702c0.002-0.09-0.014-0.127-0.117-0.097C7.722,6.152,7.58,6.201,7.449,6.282
				c-0.339,0.21-0.501,0.561-0.414,0.89c0.082,0.306,0.437,0.55,0.81,0.568C7.95,7.745,7.991,7.723,7.987,7.61
				C7.979,7.377,7.985,7.143,7.984,6.908z"/>
			<path fill="none" d="M9.843,10.99c0-0.275,0.003-0.551,0-0.825c-0.001-0.075,0.009-0.122,0.103-0.114
				c0.348,0.025,0.672,0.11,0.929,0.359c0.312,0.307,0.317,0.729,0.021,1.05c-0.256,0.274-0.59,0.388-0.944,0.46
				c-0.093,0.018-0.108-0.023-0.106-0.105C9.846,11.539,9.842,11.266,9.843,10.99L9.843,10.99z"/>
			<path fill="none" d="M7.985,6.908c0,0.234-0.006,0.469,0.002,0.703c0.004,0.113-0.036,0.135-0.142,0.13
				c-0.374-0.019-0.729-0.263-0.81-0.568c-0.087-0.33,0.075-0.68,0.414-0.89C7.58,6.202,7.721,6.153,7.868,6.11
				c0.103-0.03,0.119,0.007,0.117,0.097C7.982,6.44,7.984,6.674,7.985,6.908z"/>
		</g>
	</g>
</g>
</svg>
