<?xml version="1.0" encoding="utf-8"?>
<!-- Generator: Adobe Illustrator 16.0.0, SVG Export Plug-In . SVG Version: 6.00 Build 0)  -->
<!DOCTYPE svg PUBLIC "-//W3C//DTD SVG 1.1//EN" "http://www.w3.org/Graphics/SVG/1.1/DTD/svg11.dtd">
<svg version="1.1" id="Layer_1" xmlns="http://www.w3.org/2000/svg" xmlns:xlink="http://www.w3.org/1999/xlink" x="0px" y="0px"
	 width="251px" height="23px" viewBox="0 0 251 23" enable-background="new 0 0 251 23" xml:space="preserve">
<path fill="#1D1D1B" stroke="#1D1D1B" stroke-width="1.5" stroke-miterlimit="10" d="M18.373,16.445
	c0.015,0.014,0.026,0.035,0.031,0.063c0.006,0.02,0.011,0.037,0.011,0.052c0,0.076-0.064,0.114-0.191,0.114
	c-0.07,0.007-0.281-0.002-0.632-0.027c-0.348-0.024-0.592-0.036-0.726-0.036c-0.227,0-0.565,0.018-1.018,0.052
	c-0.17,0.015-0.29,0.019-0.36,0.012c-0.122,0-0.182-0.043-0.182-0.128c0-0.035,0.012-0.063,0.032-0.084
	c0.021-0.028,0.174-0.152,0.456-0.371c0.22-0.17,0.329-0.321,0.329-0.456V6.39c-0.396,0.17-0.85,0.292-1.362,0.371
	c-0.512,0.078-1.019,0.117-1.521,0.117c-0.566,0-1.224-0.082-1.972-0.244C10.52,6.472,9.863,6.263,9.297,6.008v9.637
	c0,0.135,0.107,0.283,0.322,0.446c0.286,0.215,0.437,0.333,0.452,0.354c0.014,0.014,0.026,0.035,0.032,0.063
	c0.005,0.02,0.011,0.037,0.011,0.052c0,0.076-0.065,0.114-0.19,0.114c-0.074,0.007-0.282-0.002-0.634-0.027
	c-0.352-0.024-0.594-0.036-0.729-0.036c-0.226,0-0.568,0.018-1.021,0.052c-0.171,0.015-0.292,0.019-0.362,0.012
	c-0.12,0-0.182-0.043-0.182-0.128c0-0.035,0.011-0.063,0.033-0.084c0.021-0.028,0.173-0.152,0.455-0.371
	c0.22-0.17,0.33-0.321,0.33-0.456V5.924C7.713,5.909,7.627,5.902,7.557,5.902c-0.466,0-0.89,0.11-1.271,0.329
	C5.833,6.493,5.607,6.835,5.607,7.26c0,0.205,0.047,0.371,0.138,0.499C5.802,7.836,5.889,7.91,6.009,7.98
	C6.13,8.051,6.292,8.086,6.497,8.086c0.091,0,0.155-0.006,0.192-0.021C6.773,8.044,6.815,8.069,6.815,8.14
	c0,0.043-0.028,0.089-0.083,0.138C6.609,8.384,6.48,8.468,6.339,8.532C6.127,8.63,5.91,8.681,5.693,8.681
	c-0.355,0-0.655-0.096-0.902-0.287C4.487,8.161,4.334,7.832,4.334,7.408c0-0.474,0.127-0.88,0.382-1.219
	C4.935,5.906,5.254,5.655,5.67,5.436C5.889,5.316,6.158,5.22,6.476,5.15c0.396-0.092,0.841-0.138,1.336-0.138V2.871
	c0-0.135-0.106-0.287-0.319-0.456C7.339,2.294,7.182,2.17,7.028,2.043C7.006,2.015,7,1.973,7.012,1.916
	C7.021,1.86,7.076,1.831,7.177,1.831C7.248,1.824,7.46,1.833,7.814,1.858C8.17,1.883,8.417,1.895,8.56,1.895
	c0.283,0,0.574-0.01,0.867-0.032c0.294-0.021,0.459-0.032,0.496-0.032c0.125,0,0.19,0.039,0.19,0.117
	c0,0.042-0.015,0.081-0.043,0.116c-0.015,0.021-0.161,0.138-0.441,0.35C9.407,2.584,9.297,2.736,9.297,2.871v2.269
	c0.558,0.261,1.236,0.497,2.035,0.705c0.8,0.208,1.511,0.312,2.142,0.312c0.504,0,0.891-0.025,1.167-0.074
	c0.432-0.078,0.927-0.243,1.484-0.498V2.871c0-0.135-0.105-0.287-0.318-0.456c-0.154-0.121-0.312-0.245-0.467-0.372
	c-0.021-0.028-0.026-0.07-0.015-0.127c0.01-0.056,0.064-0.085,0.165-0.085c0.07-0.007,0.282,0.001,0.635,0.027
	c0.355,0.025,0.601,0.037,0.743,0.037c0.282,0,0.571-0.01,0.865-0.032c0.292-0.021,0.457-0.032,0.493-0.032
	c0.126,0,0.191,0.039,0.191,0.117c0,0.042-0.015,0.081-0.042,0.116c-0.015,0.021-0.159,0.138-0.435,0.35
	c-0.218,0.169-0.33,0.321-0.33,0.457v12.774c0,0.135,0.106,0.283,0.318,0.446C18.209,16.307,18.357,16.425,18.373,16.445z"/>
<path fill="#1D1D1B" stroke="#1D1D1B" stroke-width="1.5" stroke-miterlimit="10" d="M30.247,16.398
	c0.049,0.079,0.074,0.135,0.074,0.171c0,0.069-0.052,0.105-0.159,0.105c-0.028,0-0.144-0.012-0.35-0.032
	c-0.206-0.021-0.398-0.031-0.583-0.031c-0.126,0-0.27,0.01-0.423,0.031c-0.156,0.021-0.249,0.032-0.276,0.032
	c-0.163,0-0.244-0.04-0.244-0.116c0-0.028,0.017-0.068,0.052-0.117c0.063-0.093,0.115-0.189,0.154-0.292s0.058-0.217,0.058-0.345
	l-0.063-1.018c-0.276,0.579-0.731,1.085-1.368,1.517c-0.706,0.474-1.446,0.71-2.216,0.71c-1.087,0-2.008-0.322-2.757-0.965
	c-0.791-0.679-1.187-1.559-1.187-2.639c0-1.089,0.43-2.001,1.294-2.736c0.826-0.707,1.816-1.061,2.967-1.061
	c0.557,0,1.094,0.11,1.607,0.329c0.511,0.219,0.902,0.484,1.171,0.796c0-0.312-0.179-0.774-0.541-1.389
	c-0.423-0.728-0.922-1.325-1.496-1.792c-0.72-0.594-1.462-0.89-2.226-0.89c-0.472,0-0.881,0.099-1.22,0.296
	C22.13,7.189,21.935,7.5,21.935,7.896c0,0.227,0.059,0.414,0.175,0.562c0.116,0.149,0.276,0.224,0.481,0.224
	c0.143,0,0.265-0.046,0.372-0.139c0.107-0.091,0.158-0.202,0.158-0.329c0-0.091-0.013-0.182-0.036-0.271
	c-0.024-0.087-0.046-0.167-0.069-0.238c-0.021-0.049-0.017-0.081,0.011-0.095c0.014-0.007,0.06-0.011,0.137-0.011
	c0.199,0.021,0.378,0.113,0.542,0.276c0.163,0.163,0.243,0.346,0.243,0.552c0,0.332-0.132,0.609-0.397,0.832
	s-0.571,0.333-0.918,0.333c-0.407,0-0.748-0.137-1.018-0.413c-0.268-0.276-0.402-0.647-0.402-1.114c0-0.608,0.321-1.082,0.964-1.421
	c0.567-0.297,1.247-0.445,2.047-0.445c0.785,0,1.56,0.249,2.322,0.748c0.764,0.498,1.382,1.176,1.854,2.03
	c0.334,0.601,0.599,1.348,0.795,2.237c0.129,0.566,0.248,1.341,0.361,2.327c0.113,0.987,0.207,1.664,0.286,2.031
	c0.036,0.184,0.101,0.36,0.201,0.529C30.151,16.257,30.22,16.356,30.247,16.398z M28.444,13.006c0-0.799-0.294-1.436-0.884-1.914
	c-0.591-0.478-1.363-0.716-2.317-0.716c-0.778,0-1.457,0.254-2.036,0.764c-0.579,0.508-0.871,1.138-0.871,1.887
	c0,0.799,0.296,1.473,0.887,2.02c0.591,0.548,1.293,0.821,2.105,0.821c0.938,0,1.694-0.266,2.264-0.8
	C28.16,14.535,28.444,13.848,28.444,13.006z"/>
<path fill="#1D1D1B" stroke="#1D1D1B" stroke-width="1.5" stroke-miterlimit="10" d="M41.505,10.169c0,1.047-0.183,2.051-0.55,3.01
	c-0.367,0.959-0.912,1.845-1.633,2.657c0.021,0,0.059,0.002,0.112,0.007c0.052,0.004,0.125,0.004,0.217,0.004
	c0.218,0,0.424-0.012,0.615-0.036c0.191-0.025,0.377-0.097,0.562-0.218c0.185-0.147,0.304-0.243,0.36-0.287
	c0.015-0.013,0.036-0.024,0.063-0.032c0.021-0.004,0.036-0.009,0.042-0.009c0.08,0,0.101,0.063,0.063,0.189
	c-0.015,0.105-0.028,0.231-0.043,0.379c-0.015,0.148-0.021,0.247-0.021,0.296c0,0.105,0.005,0.216,0.011,0.332
	c0.006,0.115,0.017,0.236,0.032,0.363c0.027,0.14,0,0.212-0.085,0.212c-0.036,0-0.07-0.015-0.105-0.043
	c-0.213-0.116-0.361-0.192-0.446-0.226c-0.164-0.062-0.316-0.105-0.462-0.125c-0.145-0.021-0.37-0.031-0.673-0.031
	c-0.205,0-0.366,0.003-0.488,0.009c-0.12,0.007-0.278,0.024-0.476,0.055c-0.206,0.035-0.308-0.028-0.308-0.191
	c0-0.049,0.011-0.092,0.033-0.127c0.379-0.594,0.678-1.084,0.89-1.474c0.333-0.615,0.579-1.188,0.742-1.718
	c0.197-0.65,0.297-1.31,0.297-1.983c0-1.109-0.249-2.01-0.742-2.703c-0.516-0.728-1.215-1.092-2.099-1.092
	c-0.595,0-1.129,0.166-1.601,0.498c-0.424,0.296-0.774,0.709-1.051,1.238v6.503c0,0.126,0.08,0.257,0.238,0.391
	c0.136,0.114,0.272,0.227,0.408,0.334c0.08,0.079,0.119,0.15,0.119,0.216c0,0.071-0.061,0.107-0.18,0.107
	c-0.037,0-0.195-0.012-0.48-0.032c-0.283-0.021-0.542-0.031-0.777-0.031c-0.27,0-0.485,0.006-0.643,0.021
	c-0.16,0.015-0.342,0.028-0.548,0.043c-0.171,0-0.255-0.041-0.255-0.119c0-0.05,0.031-0.11,0.095-0.184
	c0.063-0.071,0.166-0.165,0.308-0.28c0.239-0.185,0.361-0.339,0.361-0.465V9.355c0-0.599-0.181-1.087-0.542-1.461
	c-0.154-0.163-0.427-0.346-0.815-0.55c-0.058-0.028-0.085-0.068-0.085-0.117c0-0.049,0.021-0.096,0.063-0.138
	c0.092-0.084,0.169-0.153,0.233-0.206s0.144-0.128,0.245-0.228c0.1-0.099,0.176-0.18,0.233-0.243
	c0.057-0.064,0.111-0.127,0.159-0.19c0.028-0.037,0.068-0.053,0.116-0.053c0.042,0,0.075,0.01,0.096,0.031
	c0.254,0.205,0.523,0.491,0.806,0.859c0.387,0.502,0.615,0.937,0.679,1.304c0.312-0.509,0.689-0.951,1.134-1.326
	c0.664-0.558,1.34-0.837,2.025-0.837c1.272,0,2.251,0.478,2.937,1.433C41.235,8.389,41.505,9.235,41.505,10.169z"/>
<path fill="#1D1D1B" stroke="#1D1D1B" stroke-width="1.5" stroke-miterlimit="10" d="M54.06,15.933
	c-0.036,0.021-0.091,0.063-0.169,0.127c-0.127,0.105-0.232,0.196-0.314,0.271c-0.081,0.074-0.169,0.16-0.271,0.26
	c-0.068,0.07-0.116,0.12-0.137,0.148c-0.057,0.063-0.112,0.097-0.17,0.097c-0.035,0-0.091-0.026-0.168-0.075
	c-0.164-0.121-0.354-0.361-0.573-0.721c-0.24-0.396-0.41-0.758-0.508-1.082c-0.333,0.615-0.773,1.112-1.321,1.49
	c-0.548,0.377-1.141,0.566-1.776,0.566c-1.308,0-2.378-0.486-3.207-1.458c-0.831-0.972-1.246-2.21-1.246-3.716
	s0.424-2.803,1.273-3.891c0.904-1.166,2.049-1.75,3.435-1.75c0.579,0,1.098,0.096,1.558,0.287c0.417,0.169,0.823,0.441,1.219,0.816
	V4.291c0-0.205-0.007-0.367-0.022-0.488c-0.015-0.12-0.099-0.169-0.254-0.148c-0.085,0.007-0.2,0.063-0.35,0.169
	c-0.197,0.142-0.314,0.219-0.35,0.233c-0.036,0.021-0.068,0.032-0.095,0.032c-0.092,0-0.138-0.042-0.138-0.127
	c0-0.035,0.023-0.084,0.069-0.148c0.046-0.063,0.186-0.208,0.418-0.434c0.417-0.403,0.694-0.672,0.827-0.806
	c0.241-0.24,0.502-0.526,0.785-0.858c0.198-0.233,0.324-0.371,0.382-0.414c0.015-0.014,0.036-0.024,0.064-0.031
	c0.021-0.007,0.038-0.011,0.052-0.011c0.065,0,0.096,0.057,0.096,0.17c-0.049,0.466-0.079,0.731-0.085,0.795
	c-0.027,0.389-0.042,0.759-0.042,1.113V13.96c0,0.418,0.073,0.765,0.221,1.039s0.398,0.503,0.753,0.68
	c0.079,0.042,0.117,0.092,0.117,0.147C54.134,15.868,54.108,15.904,54.06,15.933z M51.685,13.069V9.486
	c0-0.855-0.297-1.53-0.891-2.025c-0.53-0.445-1.194-0.667-1.994-0.667c-0.954,0-1.766,0.445-2.438,1.335
	c-0.635,0.848-0.955,1.823-0.955,2.926c0,1.322,0.315,2.428,0.944,3.319c0.685,0.968,1.586,1.452,2.704,1.452
	c0.715,0,1.319-0.233,1.814-0.7C51.413,14.61,51.685,13.925,51.685,13.069z"/>
<path fill="#1D1D1B" stroke="#1D1D1B" stroke-width="1.5" stroke-miterlimit="10" d="M69.815,10.126c0,0.928-0.238,1.915-0.71,2.961
	c-0.446,0.983-1.044,1.899-1.792,2.748c0.021,0,0.059,0.002,0.11,0.007c0.054,0.004,0.127,0.004,0.219,0.004
	c0.218,0,0.428-0.012,0.625-0.036c0.198-0.025,0.393-0.104,0.584-0.238c0.111-0.092,0.229-0.188,0.349-0.286
	c0.043-0.043,0.085-0.049,0.128-0.021c0.036,0.028,0.049,0.077,0.043,0.148c-0.021,0.142-0.042,0.281-0.059,0.419
	c-0.018,0.138-0.027,0.238-0.027,0.302c0,0.155,0.004,0.285,0.016,0.388c0.011,0.102,0.026,0.221,0.048,0.354
	c0.014,0.121-0.011,0.182-0.076,0.182c-0.048,0-0.102-0.025-0.158-0.074c-0.134-0.093-0.282-0.167-0.447-0.223
	c-0.163-0.057-0.312-0.097-0.45-0.117c-0.137-0.021-0.359-0.031-0.663-0.031c-0.207,0-0.367,0.003-0.486,0.008
	c-0.123,0.006-0.28,0.021-0.479,0.047c-0.028,0.007-0.053,0.009-0.074,0.009c-0.037,0-0.06,0-0.075,0
	c-0.134,0-0.202-0.046-0.202-0.137c0-0.043,0.025-0.107,0.075-0.192c0.354-0.543,0.661-1.061,0.922-1.556
	c0.346-0.649,0.611-1.251,0.796-1.801c0.227-0.677,0.338-1.289,0.338-1.832c0-1.158-0.166-2.058-0.497-2.7
	c-0.398-0.756-1.016-1.134-1.856-1.134c-0.346,0-0.674,0.068-0.986,0.207c-0.312,0.138-0.589,0.352-0.837,0.642
	c0.127,0.346,0.218,0.767,0.275,1.261c0.058,0.495,0.086,1.022,0.086,1.581c0,0.692-0.163,1.501-0.488,2.428
	c-0.254,0.728-0.574,1.441-0.954,2.141c-0.312,0.573-0.53,0.923-0.659,1.05c-0.021,0.028-0.066,0.043-0.137,0.043
	c-0.111,0-0.18-0.021-0.202-0.063c-0.02-0.028-0.025-0.067-0.01-0.116c0.042-0.101,0.066-0.16,0.074-0.181
	c0.622-1.286,0.934-2.997,0.934-5.132c0-1.032-0.199-1.908-0.594-2.628c-0.43-0.778-0.99-1.167-1.676-1.167
	c-0.467,0-0.905,0.195-1.314,0.583c-0.346,0.325-0.6,0.711-0.763,1.156v6.501c0,0.118,0.08,0.245,0.244,0.38
	c0.127,0.107,0.258,0.216,0.392,0.323c0.085,0.087,0.128,0.157,0.128,0.215c0,0.087-0.079,0.13-0.234,0.13
	c-0.079,0-0.282-0.012-0.615-0.032c-0.334-0.021-0.53-0.031-0.594-0.031c-0.254,0-0.461,0.006-0.62,0.021s-0.34,0.028-0.545,0.043
	c-0.165,0-0.244-0.04-0.244-0.119c0-0.058,0.038-0.125,0.117-0.204c0.169-0.143,0.296-0.255,0.381-0.334
	c0.155-0.141,0.234-0.272,0.234-0.391V9.355c0-0.599-0.187-1.087-0.562-1.461c-0.143-0.141-0.414-0.325-0.816-0.55
	c-0.058-0.035-0.084-0.078-0.084-0.128c0-0.035,0.021-0.07,0.064-0.105c0.111-0.085,0.275-0.232,0.487-0.445
	c0.106-0.106,0.187-0.19,0.244-0.254C56.8,6.348,56.85,6.29,56.896,6.237c0.045-0.053,0.085-0.08,0.123-0.08
	c0.034,0,0.073,0.021,0.114,0.064c0.271,0.232,0.537,0.526,0.807,0.879c0.375,0.488,0.594,0.909,0.657,1.262
	c0.249-0.516,0.53-0.94,0.849-1.272c0.567-0.593,1.214-0.891,1.951-0.891c0.61,0,1.149,0.17,1.623,0.509
	c0.324,0.233,0.647,0.572,0.964,1.018c0.281-0.424,0.605-0.767,0.964-1.029c0.46-0.332,0.952-0.498,1.475-0.498
	c1.215,0,2.125,0.471,2.726,1.412C69.593,8.312,69.815,9.149,69.815,10.126z"/>
<path fill="#1D1D1B" stroke="#1D1D1B" stroke-width="1.5" stroke-miterlimit="10" d="M81.966,16.398
	c0.05,0.079,0.073,0.135,0.073,0.171c0,0.069-0.05,0.105-0.157,0.105c-0.028,0-0.145-0.012-0.351-0.032
	c-0.206-0.021-0.398-0.031-0.583-0.031c-0.128,0-0.271,0.01-0.425,0.031c-0.153,0.021-0.247,0.032-0.276,0.032
	c-0.164,0-0.244-0.04-0.244-0.116c0-0.028,0.018-0.068,0.054-0.117c0.063-0.093,0.114-0.189,0.154-0.292
	c0.039-0.103,0.057-0.217,0.057-0.345l-0.062-1.018c-0.276,0.579-0.733,1.085-1.369,1.517c-0.704,0.474-1.444,0.71-2.215,0.71
	c-1.088,0-2.009-0.322-2.757-0.965c-0.791-0.679-1.187-1.559-1.187-2.639c0-1.089,0.43-2.001,1.292-2.736
	c0.827-0.707,1.818-1.061,2.969-1.061c0.558,0,1.094,0.11,1.606,0.329c0.511,0.219,0.902,0.484,1.171,0.796
	c0-0.312-0.181-0.774-0.541-1.389c-0.423-0.728-0.922-1.325-1.495-1.792c-0.721-0.594-1.463-0.89-2.227-0.89
	c-0.472,0-0.879,0.099-1.22,0.296c-0.386,0.227-0.582,0.538-0.582,0.934c0,0.227,0.057,0.414,0.174,0.562
	c0.117,0.149,0.276,0.224,0.482,0.224c0.142,0,0.266-0.046,0.371-0.139c0.106-0.091,0.159-0.202,0.159-0.329
	c0-0.091-0.012-0.182-0.037-0.271c-0.023-0.087-0.047-0.167-0.069-0.238c-0.021-0.049-0.018-0.081,0.01-0.095
	c0.015-0.007,0.061-0.011,0.138-0.011c0.198,0.021,0.376,0.113,0.542,0.276c0.163,0.163,0.243,0.346,0.243,0.552
	c0,0.332-0.132,0.609-0.397,0.832s-0.571,0.333-0.917,0.333c-0.409,0-0.748-0.137-1.018-0.413c-0.269-0.276-0.402-0.647-0.402-1.114
	c0-0.608,0.323-1.082,0.965-1.421c0.565-0.297,1.247-0.445,2.046-0.445c0.784,0,1.559,0.249,2.322,0.748
	c0.763,0.498,1.383,1.176,1.855,2.03c0.333,0.601,0.597,1.348,0.794,2.237c0.127,0.566,0.249,1.341,0.361,2.327
	c0.112,0.987,0.208,1.664,0.286,2.031c0.036,0.184,0.103,0.36,0.202,0.529C81.871,16.257,81.938,16.356,81.966,16.398z
	 M80.163,13.006c0-0.799-0.295-1.436-0.886-1.914c-0.591-0.478-1.362-0.716-2.316-0.716c-0.778,0-1.458,0.254-2.035,0.764
	c-0.579,0.508-0.87,1.138-0.87,1.887c0,0.799,0.295,1.473,0.887,2.02c0.59,0.548,1.292,0.821,2.104,0.821
	c0.94,0,1.695-0.266,2.264-0.8C79.878,14.535,80.163,13.848,80.163,13.006z"/>
<path fill="#1D1D1B" stroke="#1D1D1B" stroke-width="1.5" stroke-miterlimit="10" d="M93.861,15.933
	c-0.036,0.021-0.092,0.063-0.169,0.127c-0.126,0.105-0.231,0.196-0.313,0.271c-0.081,0.074-0.169,0.16-0.27,0.26
	c-0.071,0.07-0.117,0.12-0.137,0.148c-0.058,0.063-0.113,0.097-0.17,0.097c-0.037,0-0.091-0.026-0.17-0.075
	c-0.164-0.121-0.354-0.361-0.573-0.721c-0.239-0.396-0.409-0.758-0.508-1.082c-0.334,0.615-0.771,1.112-1.32,1.49
	c-0.548,0.377-1.141,0.566-1.775,0.566c-1.31,0-2.378-0.486-3.207-1.458c-0.831-0.972-1.247-2.21-1.247-3.716
	s0.422-2.803,1.271-3.891c0.905-1.166,2.051-1.75,3.436-1.75c0.579,0,1.098,0.096,1.559,0.287c0.418,0.169,0.823,0.441,1.219,0.816
	V4.291c0-0.205-0.005-0.367-0.021-0.488c-0.015-0.12-0.101-0.169-0.255-0.148c-0.085,0.007-0.202,0.063-0.35,0.169
	c-0.197,0.142-0.313,0.219-0.349,0.233c-0.038,0.021-0.069,0.032-0.096,0.032c-0.092,0-0.137-0.042-0.137-0.127
	c0-0.035,0.022-0.084,0.069-0.148c0.045-0.063,0.186-0.208,0.418-0.434c0.417-0.403,0.693-0.672,0.827-0.806
	c0.24-0.24,0.502-0.526,0.786-0.858c0.197-0.233,0.323-0.371,0.38-0.414c0.014-0.014,0.037-0.024,0.065-0.031
	c0.02-0.007,0.037-0.011,0.051-0.011c0.063,0,0.096,0.057,0.096,0.17c-0.05,0.466-0.079,0.731-0.085,0.795
	c-0.027,0.389-0.042,0.759-0.042,1.113V13.96c0,0.418,0.074,0.765,0.222,1.039c0.149,0.274,0.399,0.503,0.754,0.68
	c0.077,0.042,0.115,0.092,0.115,0.147C93.935,15.868,93.91,15.904,93.861,15.933z M91.486,13.069V9.486
	c0-0.855-0.297-1.53-0.891-2.025c-0.529-0.445-1.193-0.667-1.993-0.667c-0.954,0-1.767,0.445-2.438,1.335
	c-0.637,0.848-0.954,1.823-0.954,2.926c0,1.322,0.314,2.428,0.944,3.319c0.685,0.968,1.586,1.452,2.702,1.452
	c0.714,0,1.32-0.233,1.814-0.7C91.215,14.61,91.486,13.925,91.486,13.069z"/>
<path fill="#1D1D1B" stroke="#1D1D1B" stroke-width="1.5" stroke-miterlimit="10" d="M105.481,14.428
	c-0.184,0.601-0.625,1.162-1.325,1.686c-0.82,0.614-1.713,0.923-2.683,0.923c-0.621,0-1.171-0.068-1.653-0.201
	c-0.552-0.157-1.076-0.422-1.569-0.796c-0.197,0.247-0.378,0.516-0.541,0.805c-0.206,0.361-0.309,0.622-0.309,0.785
	c0,0.198,0.055,0.335,0.161,0.414c0.071,0.048,0.187,0.074,0.35,0.074c0.049,0,0.101-0.007,0.149-0.021
	c0.042-0.016,0.084-0.028,0.126-0.043c0.027-0.014,0.054-0.014,0.074,0c0.05,0.027,0.061,0.085,0.034,0.17
	c-0.043,0.17-0.129,0.325-0.255,0.467c-0.171,0.183-0.367,0.275-0.594,0.275c-0.239,0-0.439-0.089-0.593-0.266
	c-0.155-0.176-0.234-0.406-0.234-0.688c0-0.227,0.079-0.502,0.234-0.827c0.042-0.091,0.345-0.594,0.912-1.505
	c-0.524-0.538-0.927-1.121-1.209-1.749c-0.312-0.701-0.467-1.454-0.467-2.26c0-1.484,0.483-2.767,1.447-3.849
	c0.966-1.081,2.164-1.622,3.599-1.622c0.574,0,1.162,0.138,1.762,0.414c0.333,0.162,0.663,0.321,0.996,0.477
	c0.063,0.029,0.156,0.05,0.275,0.064c0.121,0.014,0.24,0.021,0.361,0.021l0.318-0.021c0.078,0,0.116,0.031,0.116,0.095
	c0,0.049-0.024,0.089-0.074,0.117c-0.111,0.07-0.238,0.166-0.372,0.287c-0.183,0.155-0.342,0.314-0.476,0.477
	c-0.686,0.764-1.48,1.764-2.386,3c-0.905,1.237-1.755,2.479-2.554,3.722c0.417,0.298,0.842,0.527,1.273,0.689
	c0.509,0.191,1.039,0.286,1.59,0.286c0.763,0,1.392-0.145,1.887-0.435c0.361-0.211,0.764-0.59,1.208-1.135
	c0.043-0.062,0.091-0.132,0.149-0.206c0.058-0.075,0.121-0.105,0.191-0.091c0.091,0.021,0.137,0.089,0.137,0.201
	C105.534,14.247,105.518,14.335,105.481,14.428z M102.577,8.172c0-0.417-0.228-0.743-0.679-0.976
	c-0.382-0.197-0.841-0.296-1.378-0.296c-1.003,0-1.831,0.428-2.481,1.283c-0.609,0.805-0.913,1.763-0.913,2.873
	c0,0.657,0.16,1.315,0.477,1.972c0.27,0.559,0.605,1.032,1.008,1.421c0.481-0.714,0.855-1.27,1.125-1.665
	c0.431-0.636,0.8-1.169,1.102-1.601c0.388-0.551,0.779-1.103,1.166-1.653C102.386,8.935,102.577,8.482,102.577,8.172z"/>
<g>
	<path fill="#1D1D1B" stroke="#1D1D1B" stroke-width="1.5" stroke-miterlimit="10" d="M124.263,2.525
		c0,0.241-0.089,0.457-0.266,0.647c-0.079,0.084-0.222,0.202-0.435,0.349c-0.042,0.021-0.074,0.033-0.096,0.033
		c-0.048,0-0.068-0.04-0.054-0.117c0.043-0.092,0.072-0.167,0.091-0.228c0.018-0.06,0.027-0.136,0.027-0.228
		c0-0.12-0.025-0.244-0.075-0.371c-0.079-0.213-0.217-0.371-0.413-0.478c-0.197-0.106-0.421-0.159-0.669-0.159
		c-0.449,0-0.851,0.164-1.198,0.489c-0.345,0.326-0.518,0.716-0.518,1.168c0,0.327,0.099,0.639,0.297,0.936
		c0.07,0.107,0.154,0.196,0.254,0.266c0.048,0.036,0.185,0.118,0.402,0.245c0.064,0.036,0.095,0.071,0.095,0.106
		c0,0.028-0.024,0.057-0.074,0.085l-0.657,0.382c-0.184,0.114-0.29,0.182-0.317,0.202c-0.191,0.128-0.291,0.195-0.297,0.202
		c-0.021,0.022-0.046,0.029-0.075,0.022c-0.063-0.007-0.089-0.049-0.074-0.127c0.015-0.063,0.034-0.155,0.059-0.276
		c0.024-0.12,0.037-0.226,0.037-0.318c0-0.141-0.025-0.297-0.075-0.466c-0.148-0.56-0.511-1.013-1.087-1.363
		c-0.574-0.35-1.251-0.525-2.03-0.525c-1.427,0-2.581,0.642-3.457,1.928c-0.805,1.179-1.208,2.578-1.208,4.195
		c0,1.979,0.504,3.716,1.516,5.213c1.125,1.668,2.583,2.499,4.379,2.499c1.061,0,1.976-0.278,2.747-0.838
		c0.77-0.556,1.155-1.191,1.155-1.897c0-0.175-0.047-0.34-0.139-0.491c-0.091-0.152-0.216-0.228-0.37-0.228
		c-0.144,0-0.261,0.031-0.361,0.094c-0.063,0.043-0.121,0.096-0.169,0.16c-0.015,0.057-0.043,0.084-0.085,0.084
		c-0.043,0-0.063-0.049-0.063-0.148c0-0.197,0.069-0.402,0.212-0.615c0.176-0.269,0.403-0.403,0.68-0.403
		c0.339,0,0.602,0.142,0.794,0.425c0.169,0.247,0.256,0.547,0.256,0.901c0,0.079-0.006,0.138-0.012,0.18
		c-0.101,1.039-0.644,1.924-1.633,2.657c-0.991,0.73-2.157,1.097-3.499,1.097c-2.03,0-3.707-0.838-5.037-2.512
		c-1.266-1.592-1.898-3.489-1.898-5.695c0-1.945,0.579-3.629,1.739-5.057c1.215-1.492,2.729-2.237,4.537-2.237
		c1.16,0,2.127,0.346,2.905,1.039c0.091-0.565,0.325-1.067,0.7-1.506c0.467-0.537,1.039-0.805,1.718-0.805
		c0.516,0,0.935,0.136,1.257,0.408C124.101,1.721,124.263,2.081,124.263,2.525z"/>
	<path fill="#1D1D1B" stroke="#1D1D1B" stroke-width="1.5" stroke-miterlimit="10" d="M133.635,17.199
		c0.049,0.079,0.074,0.135,0.074,0.17c0,0.069-0.053,0.106-0.159,0.106c-0.027,0-0.145-0.012-0.351-0.031
		c-0.204-0.022-0.396-0.033-0.582-0.033c-0.127,0-0.27,0.011-0.425,0.033c-0.154,0.02-0.248,0.031-0.275,0.031
		c-0.163,0-0.244-0.039-0.244-0.117c0-0.027,0.017-0.067,0.054-0.116c0.063-0.092,0.114-0.189,0.152-0.293
		c0.04-0.103,0.06-0.216,0.06-0.345l-0.064-1.018c-0.275,0.578-0.73,1.087-1.367,1.517c-0.707,0.474-1.447,0.711-2.216,0.711
		c-1.088,0-2.008-0.323-2.756-0.965c-0.791-0.679-1.188-1.56-1.188-2.64c0-1.089,0.431-2,1.293-2.736
		c0.828-0.706,1.817-1.06,2.97-1.06c0.557,0,1.095,0.109,1.606,0.329c0.513,0.219,0.902,0.483,1.171,0.794
		c0-0.312-0.181-0.773-0.539-1.389c-0.426-0.728-0.925-1.325-1.496-1.792c-0.722-0.594-1.464-0.89-2.227-0.89
		c-0.474,0-0.88,0.099-1.22,0.296c-0.389,0.227-0.583,0.538-0.583,0.934c0,0.227,0.058,0.414,0.175,0.561
		c0.116,0.15,0.277,0.224,0.482,0.224c0.142,0,0.266-0.045,0.37-0.138c0.107-0.092,0.16-0.202,0.16-0.329
		c0-0.09-0.013-0.181-0.037-0.27c-0.025-0.088-0.048-0.169-0.068-0.238c-0.021-0.049-0.018-0.081,0.011-0.096
		c0.015-0.007,0.059-0.01,0.138-0.01c0.196,0.021,0.377,0.113,0.539,0.274c0.165,0.164,0.244,0.347,0.244,0.552
		c0,0.333-0.132,0.61-0.396,0.832c-0.266,0.224-0.571,0.334-0.917,0.334c-0.41,0-0.749-0.138-1.018-0.414
		c-0.271-0.275-0.404-0.647-0.404-1.114c0-0.607,0.323-1.081,0.967-1.421C126.133,7.148,126.813,7,127.613,7
		c0.783,0,1.558,0.249,2.32,0.747c0.765,0.499,1.383,1.177,1.856,2.031c0.332,0.601,0.599,1.346,0.796,2.236
		c0.127,0.567,0.247,1.343,0.359,2.327c0.112,0.988,0.208,1.666,0.287,2.031c0.035,0.184,0.101,0.361,0.201,0.53
		C133.539,17.058,133.607,17.157,133.635,17.199z M131.832,13.807c0-0.799-0.296-1.436-0.887-1.915
		c-0.59-0.476-1.36-0.715-2.315-0.715c-0.776,0-1.456,0.254-2.035,0.763c-0.579,0.51-0.869,1.139-0.869,1.888
		c0,0.799,0.294,1.472,0.885,2.02c0.591,0.547,1.292,0.821,2.104,0.821c0.938,0,1.694-0.267,2.264-0.801
		C131.548,15.335,131.832,14.649,131.832,13.807z"/>
	<path fill="#1D1D1B" stroke="#1D1D1B" stroke-width="1.5" stroke-miterlimit="10" d="M143.155,8.547
		c0,0.409-0.11,0.743-0.328,0.997c-0.218,0.254-0.514,0.381-0.881,0.381c-0.261,0-0.483-0.035-0.673-0.105
		c-0.188-0.071-0.309-0.17-0.366-0.297c-0.021-0.028-0.023-0.06-0.009-0.095c0.015-0.037,0.045-0.052,0.095-0.052
		c0.128,0,0.245-0.019,0.354-0.053c0.109-0.036,0.206-0.1,0.293-0.192c0.12-0.133,0.18-0.3,0.18-0.499
		c0-0.232-0.092-0.419-0.276-0.562c-0.212-0.162-0.516-0.243-0.911-0.243c-0.503,0-0.996,0.222-1.484,0.666
		c-0.431,0.396-0.765,0.874-0.997,1.431v6.501c0,0.127,0.079,0.26,0.232,0.393c0.135,0.115,0.27,0.227,0.404,0.334
		c0.068,0.072,0.105,0.137,0.105,0.194c0,0.086-0.078,0.13-0.232,0.13c-0.128,0-0.234-0.005-0.319-0.012
		c-0.438-0.035-0.728-0.053-0.869-0.053c-0.271,0-0.481,0.006-0.642,0.021c-0.159,0.016-0.341,0.028-0.546,0.044
		c-0.154,0-0.233-0.042-0.233-0.119c0-0.064,0.043-0.14,0.127-0.227c0.128-0.108,0.223-0.188,0.287-0.238
		c0.218-0.175,0.328-0.331,0.328-0.467v-6.269c0-0.486-0.131-0.889-0.393-1.207c-0.176-0.212-0.555-0.446-1.134-0.699
		c-0.027-0.006-0.043-0.028-0.043-0.064c0-0.042,0.016-0.077,0.043-0.105l0.487-0.466c0.092-0.091,0.174-0.18,0.244-0.265
		c0.021-0.02,0.068-0.081,0.138-0.18c0.042-0.049,0.089-0.074,0.139-0.074c0.027,0,0.059,0.01,0.096,0.032
		c0.396,0.275,0.688,0.512,0.88,0.711c0.423,0.429,0.666,0.873,0.73,1.325c0.262-0.588,0.651-1.078,1.167-1.475
		C139.747,7.229,140.413,7,141.142,7c0.629,0,1.121,0.15,1.479,0.451C142.979,7.75,143.155,8.117,143.155,8.547z"/>
	<path fill="#1D1D1B" stroke="#1D1D1B" stroke-width="1.5" stroke-miterlimit="10" d="M154.457,11.263
		c0,1.871-0.519,3.445-1.558,4.717c-1.003,1.224-2.181,1.835-3.53,1.835c-0.488,0-0.931-0.092-1.326-0.275
		c-0.317-0.149-0.689-0.409-1.112-0.785v2.269c0,0.397,0.078,0.722,0.233,0.976c0.078,0.121,0.211,0.27,0.401,0.445
		c0.064,0.058,0.098,0.107,0.098,0.148c0,0.049-0.054,0.096-0.156,0.139c-0.102,0.042-0.217,0.088-0.343,0.138
		c-0.22,0.099-0.475,0.24-0.764,0.424c-0.199,0.121-0.384,0.25-0.558,0.393c-0.172,0.141-0.348,0.286-0.524,0.434
		c-0.058,0.027-0.105,0.043-0.147,0.043c-0.071,0-0.101-0.07-0.087-0.212c0.144-0.375,0.261-0.75,0.351-1.13
		c0.091-0.377,0.139-0.764,0.139-1.159v-9.5c0-0.61-0.187-1.104-0.562-1.486c-0.153-0.162-0.429-0.345-0.816-0.551
		c-0.042-0.022-0.062-0.049-0.062-0.084c0-0.021,0.005-0.046,0.021-0.075c0.014-0.029,0.027-0.054,0.042-0.073
		c0.036-0.043,0.095-0.1,0.181-0.171c0.121-0.099,0.217-0.184,0.287-0.253c0.105-0.105,0.186-0.191,0.242-0.254
		c0.058-0.064,0.11-0.127,0.16-0.191c0.02-0.036,0.06-0.054,0.117-0.054c0.04,0,0.073,0.01,0.096,0.032
		c0.29,0.22,0.571,0.502,0.847,0.848c0.409,0.517,0.651,1.018,0.721,1.506c0.275-0.544,0.654-1.024,1.135-1.443
		C148.687,7.303,149.475,7,150.345,7c0.876,0,1.649,0.258,2.32,0.774c0.558,0.431,1.008,1.007,1.347,1.729
		C154.309,10.138,154.457,10.726,154.457,11.263z M153.037,12.024c0-1.019-0.282-1.911-0.848-2.682
		c-0.596-0.813-1.33-1.219-2.207-1.219c-0.727,0-1.367,0.23-1.919,0.69c-0.45,0.375-0.83,0.886-1.133,1.537v6.171l0.423-0.403
		c0.121-0.111,0.219-0.212,0.292-0.297c0.075-0.085,0.16-0.206,0.26-0.36c0.035-0.042,0.07-0.064,0.106-0.064
		c0.091,0,0.121,0.058,0.085,0.17c-0.007,0.015-0.021,0.084-0.043,0.207s-0.031,0.224-0.031,0.301c0,0.172,0.031,0.325,0.096,0.467
		c0.091,0.186,0.27,0.34,0.535,0.468c0.265,0.126,0.538,0.19,0.821,0.19c1.075,0,1.937-0.478,2.587-1.43
		C152.713,14.814,153.037,13.566,153.037,12.024z"/>
	<path fill="#1D1D1B" stroke="#1D1D1B" stroke-width="1.5" stroke-miterlimit="10" d="M165.929,15.228
		c-0.184,0.601-0.623,1.162-1.325,1.687c-0.82,0.613-1.713,0.922-2.682,0.922c-0.622,0-1.172-0.068-1.654-0.203
		c-0.551-0.153-1.074-0.418-1.568-0.795c-0.198,0.249-0.379,0.517-0.541,0.806c-0.206,0.362-0.308,0.622-0.308,0.785
		c0,0.197,0.054,0.336,0.16,0.413c0.069,0.05,0.186,0.074,0.348,0.074c0.05,0,0.101-0.006,0.15-0.021
		c0.041-0.015,0.083-0.027,0.127-0.042c0.027-0.014,0.053-0.014,0.073,0c0.049,0.027,0.06,0.084,0.032,0.169
		c-0.042,0.171-0.128,0.325-0.255,0.468c-0.169,0.184-0.366,0.274-0.593,0.274c-0.239,0-0.439-0.089-0.595-0.265
		c-0.154-0.177-0.233-0.406-0.233-0.688c0-0.227,0.079-0.503,0.233-0.827c0.043-0.092,0.345-0.595,0.912-1.504
		c-0.523-0.538-0.927-1.121-1.208-1.751c-0.312-0.7-0.468-1.452-0.468-2.26c0-1.484,0.484-2.766,1.449-3.847
		C158.947,7.54,160.146,7,161.582,7c0.571,0,1.16,0.138,1.761,0.414c0.333,0.164,0.664,0.323,0.996,0.478
		c0.063,0.027,0.154,0.049,0.275,0.063c0.122,0.014,0.241,0.021,0.361,0.021l0.317-0.021c0.078,0,0.117,0.031,0.117,0.095
		c0,0.049-0.025,0.088-0.073,0.117c-0.114,0.071-0.238,0.167-0.372,0.286c-0.185,0.155-0.343,0.314-0.478,0.479
		c-0.685,0.763-1.48,1.764-2.386,3c-0.904,1.235-1.756,2.477-2.554,3.721c0.418,0.298,0.84,0.526,1.271,0.688
		c0.508,0.191,1.038,0.288,1.591,0.288c0.763,0,1.393-0.146,1.887-0.437c0.361-0.212,0.764-0.59,1.208-1.134
		c0.043-0.064,0.093-0.132,0.149-0.207c0.057-0.074,0.121-0.104,0.19-0.09c0.091,0.021,0.139,0.09,0.139,0.201
		C165.983,15.047,165.966,15.137,165.929,15.228z M163.025,8.973c0-0.418-0.227-0.744-0.68-0.976
		c-0.381-0.198-0.842-0.296-1.378-0.296c-1.002,0-1.83,0.428-2.481,1.282c-0.608,0.807-0.911,1.765-0.911,2.873
		c0,0.657,0.158,1.316,0.477,1.973c0.269,0.557,0.604,1.032,1.007,1.421c0.481-0.716,0.854-1.269,1.124-1.665
		c0.431-0.637,0.8-1.17,1.104-1.602c0.386-0.551,0.775-1.102,1.165-1.653C162.832,9.735,163.025,9.283,163.025,8.973z"/>
	<path fill="#1D1D1B" stroke="#1D1D1B" stroke-width="1.5" stroke-miterlimit="10" d="M171.295,7.848c0,0.114-0.049,0.17-0.148,0.17
		c-0.036,0-0.208-0.007-0.521-0.021c-0.311-0.014-0.604-0.021-0.879-0.021v7.018c0,0.504,0.141,0.929,0.423,1.284
		c0.079,0.1,0.282,0.286,0.616,0.561c0.057,0.043,0.085,0.092,0.085,0.149c0,0.036-0.028,0.072-0.085,0.111
		c-0.059,0.039-0.121,0.079-0.191,0.122c-0.091,0.07-0.164,0.127-0.213,0.169c-0.197,0.178-0.323,0.303-0.381,0.384
		c-0.059,0.056-0.113,0.083-0.169,0.083c-0.049,0-0.102-0.014-0.149-0.042c-0.304-0.171-0.572-0.46-0.807-0.869
		c-0.323-0.573-0.487-1.259-0.487-2.058V7.976c-0.226,0-0.44,0.005-0.646,0.015c-0.204,0.012-0.412,0.02-0.626,0.027
		c-0.099,0-0.148-0.057-0.148-0.17V7.508c0-0.113,0.063-0.17,0.191-0.17c0.036,0,0.191,0.008,0.466,0.023
		c0.277,0.013,0.53,0.02,0.764,0.02V6.576c0-0.409-0.089-0.64-0.265-0.689c-0.121-0.015-0.202-0.026-0.244-0.032
		c-0.098,0-0.147-0.049-0.147-0.148c0-0.043,0.021-0.085,0.063-0.127c0.153-0.135,0.313-0.278,0.477-0.43
		c0.162-0.152,0.343-0.326,0.541-0.524c0.227-0.233,0.401-0.429,0.524-0.584c0.124-0.155,0.246-0.306,0.365-0.455
		c0.022-0.036,0.05-0.053,0.087-0.053c0.057,0,0.084,0.053,0.084,0.158c-0.022,0.185-0.042,0.368-0.063,0.553
		c-0.043,0.445-0.063,0.905-0.063,1.377v1.76c0.232,0,0.462-0.004,0.689-0.011c0.226-0.006,0.462-0.018,0.71-0.032
		c0.1,0,0.148,0.05,0.148,0.15V7.848z"/>
</g>
<g>
	<path fill="#1D1D1B" stroke="#1D1D1B" stroke-width="1.5" stroke-miterlimit="10" d="M191.146,2.802
		c0,0.396-0.177,0.719-0.53,0.974c-0.354,0.255-0.769,0.382-1.251,0.382c-0.524,0-1.075-0.095-1.654-0.287
		c-1.265-0.417-2.135-0.625-2.607-0.625c-1.569,0-2.868,0.668-3.902,2.002c-0.975,1.258-1.464,2.752-1.464,4.483
		c0,2.09,0.609,3.888,1.824,5.393c1.258,1.555,2.807,2.33,4.645,2.33c0.191,0,0.429-0.015,0.715-0.042s0.636-0.103,1.044-0.223
		c0.409-0.119,0.706-0.254,0.891-0.402c-0.121-0.113-0.221-0.233-0.306-0.36c-0.059-0.093-0.13-0.229-0.219-0.407
		c-0.087-0.181-0.144-0.403-0.163-0.672c-0.022-0.269-0.031-0.613-0.031-1.039V9.566c-0.282,0.127-0.531,0.216-0.742,0.264
		c-0.214,0.049-0.468,0.076-0.764,0.076c-0.283,0-0.665-0.145-1.146-0.434c-0.481-0.292-0.861-0.437-1.145-0.437
		c-0.219,0-0.42,0.052-0.599,0.155c-0.181,0.103-0.271,0.254-0.271,0.461c0,0.438,0.19,0.635,0.573,0.593
		c0.12-0.022,0.214-0.047,0.281-0.08c0.066-0.032,0.114-0.068,0.142-0.111c0.022-0.037,0.047-0.053,0.074-0.053
		c0.038,0,0.056,0.025,0.056,0.073c0.033,0.091,0.051,0.195,0.051,0.308c0,0.059-0.006,0.13-0.021,0.218
		c-0.015,0.088-0.1,0.196-0.255,0.324c-0.154,0.126-0.328,0.19-0.519,0.19c-0.312,0-0.551-0.121-0.717-0.36
		c-0.166-0.24-0.247-0.519-0.247-0.837c0-0.071,0.002-0.125,0.008-0.159c0.051-0.482,0.26-0.87,0.627-1.167
		c0.366-0.297,0.811-0.446,1.326-0.446c0.482,0,0.947,0.086,1.398,0.254c0.981,0.367,1.754,0.553,2.311,0.553
		c0.262,0,0.536-0.047,0.828-0.139c0.312-0.11,0.621-0.228,0.934-0.349c0.099,0,0.126,0.042,0.085,0.126
		c-0.106,0.128-0.214,0.25-0.319,0.372c-0.312,0.402-0.466,0.823-0.466,1.26v4.497c0,0.566,0.111,1.046,0.339,1.441
		c0.078,0.135,0.247,0.347,0.509,0.638c0.035,0.041,0.054,0.078,0.054,0.116c0,0.036-0.025,0.073-0.075,0.116
		c-0.29,0.219-0.88,0.45-1.771,0.689c-1.06,0.291-2.022,0.435-2.894,0.435c-2.135,0-3.939-0.803-5.417-2.407
		c-1.449-1.575-2.174-3.461-2.174-5.651c0-2.085,0.628-3.834,1.888-5.248c1.313-1.479,3.005-2.217,5.068-2.217
		c0.692,0,1.462,0.138,2.311,0.414c0.848,0.276,1.357,0.414,1.527,0.414c0.607,0,0.91-0.22,0.91-0.657
		c0-0.186-0.055-0.323-0.164-0.414c-0.108-0.092-0.238-0.138-0.387-0.138c-0.057-0.014-0.112-0.013-0.169,0.004
		c-0.058,0.02-0.1,0.031-0.127,0.037c-0.044,0.022-0.078,0.028-0.107,0.022c-0.028-0.007-0.042-0.028-0.042-0.064
		c0-0.042,0.014-0.092,0.042-0.148c0.092-0.205,0.234-0.359,0.425-0.461c0.19-0.104,0.396-0.155,0.615-0.155
		c0.381,0,0.67,0.125,0.869,0.377C191.046,2.114,191.146,2.426,191.146,2.802z"/>
	<path fill="#1D1D1B" stroke="#1D1D1B" stroke-width="1.5" stroke-miterlimit="10" d="M202.511,17.539
		c0.049,0.078,0.074,0.134,0.074,0.169c0,0.07-0.054,0.106-0.158,0.106c-0.027,0-0.144-0.01-0.351-0.032
		c-0.205-0.02-0.397-0.031-0.582-0.031c-0.128,0-0.27,0.012-0.425,0.031c-0.155,0.022-0.249,0.032-0.276,0.032
		c-0.162,0-0.243-0.037-0.243-0.117c0-0.026,0.016-0.067,0.054-0.115c0.063-0.092,0.112-0.188,0.153-0.292
		c0.039-0.103,0.059-0.218,0.059-0.345l-0.063-1.019c-0.276,0.58-0.732,1.087-1.369,1.517c-0.705,0.472-1.446,0.711-2.216,0.711
		c-1.087,0-2.008-0.322-2.756-0.965c-0.79-0.679-1.188-1.56-1.188-2.641c0-1.087,0.431-2,1.293-2.735
		c0.828-0.706,1.819-1.06,2.971-1.06c0.557,0,1.094,0.11,1.605,0.328c0.513,0.219,0.902,0.484,1.171,0.795
		c0-0.312-0.18-0.773-0.539-1.389c-0.426-0.728-0.924-1.325-1.495-1.792c-0.722-0.594-1.464-0.891-2.228-0.891
		c-0.474,0-0.88,0.1-1.219,0.297c-0.389,0.228-0.583,0.537-0.583,0.933c0,0.228,0.058,0.415,0.176,0.562
		c0.114,0.149,0.275,0.224,0.481,0.224c0.142,0,0.265-0.046,0.37-0.138c0.107-0.091,0.16-0.202,0.16-0.329
		c0-0.091-0.013-0.184-0.038-0.271c-0.023-0.088-0.047-0.168-0.068-0.238c-0.021-0.048-0.016-0.081,0.011-0.095
		c0.015-0.007,0.059-0.011,0.139-0.011c0.197,0.021,0.376,0.113,0.54,0.275c0.163,0.164,0.245,0.346,0.245,0.552
		c0,0.333-0.135,0.61-0.398,0.832c-0.266,0.223-0.571,0.334-0.917,0.334c-0.411,0-0.748-0.138-1.019-0.414
		c-0.27-0.276-0.404-0.647-0.404-1.113c0-0.608,0.324-1.082,0.967-1.421c0.565-0.295,1.245-0.445,2.045-0.445
		c0.785,0,1.559,0.249,2.323,0.747c0.763,0.499,1.383,1.176,1.855,2.031c0.331,0.601,0.597,1.347,0.796,2.237
		c0.125,0.565,0.246,1.342,0.359,2.327c0.113,0.986,0.207,1.663,0.286,2.03c0.037,0.185,0.101,0.36,0.202,0.53
		C202.416,17.397,202.483,17.496,202.511,17.539z M200.709,14.146c0-0.801-0.296-1.438-0.887-1.914
		c-0.59-0.477-1.361-0.714-2.315-0.714c-0.778,0-1.457,0.253-2.034,0.762c-0.58,0.509-0.871,1.139-0.871,1.887
		c0,0.8,0.295,1.472,0.885,2.021c0.592,0.549,1.293,0.821,2.105,0.821c0.939,0,1.694-0.268,2.263-0.8
		C200.426,15.675,200.709,14.988,200.709,14.146z"/>
	<path fill="#1D1D1B" stroke="#1D1D1B" stroke-width="1.5" stroke-miterlimit="10" d="M207.643,17.481
		c0.085,0.083,0.128,0.151,0.128,0.207c0,0.085-0.078,0.126-0.233,0.126c-0.128,0-0.233-0.004-0.318-0.013
		c-0.439-0.039-0.727-0.062-0.87-0.062c-0.253,0-0.46,0.009-0.619,0.025c-0.159,0.015-0.34,0.032-0.546,0.049
		c-0.17,0-0.256-0.041-0.256-0.128c0-0.044,0.038-0.109,0.108-0.195c0.175-0.144,0.306-0.256,0.391-0.333
		c0.163-0.143,0.244-0.271,0.244-0.393V5.431c0-0.206-0.007-0.368-0.022-0.487c-0.015-0.122-0.099-0.171-0.254-0.149
		c-0.077,0.015-0.208,0.083-0.391,0.206c-0.186,0.124-0.308,0.197-0.373,0.219c-0.104,0.036-0.158-0.005-0.158-0.117
		c0-0.037,0.021-0.086,0.064-0.15c0.041-0.062,0.235-0.262,0.582-0.595c0.275-0.271,0.495-0.486,0.658-0.65
		c0.239-0.24,0.502-0.527,0.784-0.86c0.197-0.234,0.324-0.374,0.381-0.416c0.016-0.015,0.037-0.026,0.064-0.031
		c0.021-0.007,0.037-0.011,0.052-0.011c0.065,0,0.097,0.057,0.097,0.169c-0.037,0.227-0.066,0.508-0.089,0.843
		c-0.025,0.337-0.038,0.693-0.038,1.068v12.317c0,0.112,0.073,0.236,0.222,0.372C207.378,17.269,207.509,17.375,207.643,17.481z"/>
	<path fill="#1D1D1B" stroke="#1D1D1B" stroke-width="1.5" stroke-miterlimit="10" d="M213.581,17.481
		c0.083,0.083,0.126,0.151,0.126,0.207c0,0.085-0.078,0.126-0.233,0.126c-0.127,0-0.233-0.004-0.319-0.013
		c-0.438-0.039-0.726-0.062-0.866-0.062c-0.256,0-0.462,0.009-0.621,0.025c-0.16,0.015-0.342,0.032-0.548,0.049
		c-0.168,0-0.253-0.041-0.253-0.128c0-0.044,0.035-0.109,0.105-0.195c0.175-0.144,0.308-0.256,0.394-0.333
		c0.163-0.143,0.243-0.271,0.243-0.393V5.431c0-0.206-0.007-0.368-0.021-0.487c-0.015-0.122-0.099-0.171-0.256-0.149
		c-0.077,0.015-0.206,0.083-0.392,0.206c-0.184,0.124-0.308,0.197-0.37,0.219c-0.105,0.036-0.16-0.005-0.16-0.117
		c0-0.037,0.022-0.086,0.065-0.15c0.042-0.062,0.237-0.262,0.582-0.595c0.274-0.271,0.494-0.486,0.658-0.65
		c0.238-0.24,0.502-0.527,0.785-0.86c0.195-0.234,0.324-0.374,0.38-0.416c0.015-0.015,0.036-0.026,0.063-0.031
		c0.022-0.007,0.039-0.011,0.055-0.011c0.062,0,0.094,0.057,0.094,0.169c-0.034,0.227-0.064,0.508-0.09,0.843
		c-0.025,0.337-0.036,0.693-0.036,1.068v12.317c0,0.112,0.074,0.236,0.223,0.372C213.314,17.269,213.446,17.375,213.581,17.481z"/>
	<path fill="#1D1D1B" stroke="#1D1D1B" stroke-width="1.5" stroke-miterlimit="10" d="M225.814,15.567
		c-0.185,0.6-0.626,1.161-1.324,1.685c-0.82,0.616-1.714,0.924-2.682,0.924c-0.623,0-1.174-0.068-1.656-0.201
		c-0.55-0.156-1.074-0.422-1.568-0.796c-0.197,0.248-0.378,0.515-0.54,0.806c-0.205,0.359-0.308,0.622-0.308,0.785
		c0,0.196,0.053,0.335,0.159,0.412c0.068,0.049,0.187,0.075,0.351,0.075c0.048,0,0.098-0.007,0.147-0.021
		c0.042-0.015,0.084-0.027,0.128-0.042c0.026-0.016,0.054-0.016,0.074,0c0.049,0.027,0.06,0.084,0.031,0.17
		c-0.043,0.168-0.127,0.324-0.255,0.466c-0.169,0.185-0.366,0.275-0.593,0.275c-0.239,0-0.439-0.089-0.595-0.265
		c-0.154-0.176-0.232-0.408-0.232-0.689c0-0.227,0.078-0.502,0.232-0.827c0.043-0.091,0.346-0.593,0.913-1.506
		c-0.525-0.536-0.929-1.118-1.21-1.75c-0.312-0.699-0.465-1.452-0.465-2.258c0-1.484,0.481-2.767,1.445-3.848
		c0.966-1.082,2.164-1.623,3.599-1.623c0.574,0,1.16,0.138,1.762,0.413c0.334,0.165,0.664,0.323,0.997,0.479
		c0.062,0.028,0.153,0.048,0.274,0.062c0.121,0.015,0.24,0.022,0.36,0.022l0.319-0.022c0.078,0,0.116,0.032,0.116,0.096
		c0,0.049-0.025,0.089-0.074,0.117c-0.111,0.069-0.239,0.166-0.371,0.286c-0.185,0.155-0.345,0.314-0.477,0.478
		c-0.687,0.762-1.481,1.765-2.386,3c-0.905,1.236-1.756,2.476-2.557,3.721c0.418,0.298,0.844,0.527,1.273,0.69
		c0.508,0.19,1.039,0.285,1.59,0.285c0.764,0,1.393-0.145,1.887-0.434c0.361-0.214,0.765-0.59,1.21-1.137
		c0.042-0.062,0.091-0.13,0.147-0.206c0.059-0.073,0.121-0.104,0.192-0.09c0.09,0.022,0.138,0.09,0.138,0.202
		C225.869,15.388,225.853,15.477,225.814,15.567z M222.91,9.312c0-0.417-0.227-0.742-0.678-0.976
		c-0.382-0.196-0.843-0.296-1.379-0.296c-1.004,0-1.831,0.428-2.481,1.283c-0.608,0.806-0.911,1.766-0.911,2.874
		c0,0.658,0.159,1.314,0.476,1.972c0.27,0.559,0.605,1.033,1.008,1.422c0.482-0.715,0.856-1.268,1.125-1.665
		c0.429-0.636,0.799-1.171,1.102-1.602c0.388-0.551,0.778-1.103,1.168-1.653C222.719,10.074,222.91,9.624,222.91,9.312z"/>
	<path fill="#1D1D1B" stroke="#1D1D1B" stroke-width="1.5" stroke-miterlimit="10" d="M234.572,8.887
		c0,0.41-0.109,0.742-0.328,0.996c-0.219,0.255-0.513,0.383-0.88,0.383c-0.261,0-0.485-0.037-0.673-0.106
		c-0.189-0.071-0.31-0.17-0.367-0.297c-0.021-0.027-0.024-0.061-0.009-0.095c0.015-0.037,0.046-0.053,0.094-0.053
		c0.128,0,0.247-0.017,0.355-0.053c0.109-0.037,0.207-0.1,0.292-0.19c0.12-0.134,0.181-0.302,0.181-0.499
		c0-0.234-0.091-0.42-0.275-0.562c-0.213-0.163-0.516-0.243-0.912-0.243c-0.504,0-0.996,0.222-1.485,0.666
		c-0.429,0.396-0.763,0.873-0.996,1.431v6.502c0,0.126,0.078,0.258,0.233,0.393c0.133,0.114,0.27,0.227,0.402,0.333
		c0.07,0.072,0.107,0.137,0.107,0.195c0,0.087-0.079,0.128-0.233,0.128c-0.128,0-0.234-0.004-0.319-0.01
		c-0.438-0.037-0.727-0.054-0.869-0.054c-0.269,0-0.482,0.006-0.641,0.022c-0.159,0.013-0.342,0.026-0.547,0.041
		c-0.155,0-0.232-0.039-0.232-0.119c0-0.063,0.043-0.139,0.127-0.227c0.127-0.107,0.223-0.188,0.286-0.236
		c0.219-0.179,0.328-0.332,0.328-0.467v-6.269c0-0.487-0.132-0.89-0.392-1.209c-0.176-0.212-0.557-0.445-1.134-0.698
		c-0.029-0.006-0.044-0.028-0.044-0.063c0-0.043,0.015-0.077,0.044-0.105l0.487-0.466c0.09-0.092,0.175-0.18,0.244-0.265
		c0.021-0.02,0.067-0.081,0.138-0.181c0.042-0.049,0.089-0.073,0.138-0.073c0.027,0,0.059,0.01,0.095,0.031
		c0.396,0.276,0.689,0.513,0.881,0.71c0.423,0.43,0.668,0.873,0.731,1.326c0.261-0.588,0.651-1.078,1.165-1.475
		c0.602-0.46,1.267-0.688,1.993-0.688c0.631,0,1.122,0.151,1.479,0.45C234.395,8.089,234.572,8.456,234.572,8.887z"/>
	<path fill="#1D1D1B" stroke="#1D1D1B" stroke-width="1.5" stroke-miterlimit="10" d="M245.112,7.977
		c-0.171,0.147-0.301,0.26-0.393,0.339c-0.177,0.154-0.266,0.29-0.266,0.403v8.524c0,1.57-0.438,2.846-1.314,3.827
		c-0.833,0.938-1.873,1.41-3.117,1.41c-0.558,0-1.004-0.069-1.335-0.212c-0.439-0.184-0.659-0.48-0.659-0.891
		c0-0.304,0.163-0.55,0.488-0.737c0.324-0.187,0.616-0.266,0.87-0.237c0.105,0,0.158,0.037,0.158,0.116
		c0,0.028-0.016,0.065-0.047,0.111c-0.032,0.045-0.06,0.09-0.08,0.133c-0.043,0.084-0.063,0.165-0.063,0.244
		c0,0.056,0.01,0.114,0.032,0.18c0.049,0.19,0.165,0.34,0.35,0.45c0.186,0.11,0.393,0.165,0.625,0.165
		c0.865,0,1.545-0.387,2.048-1.156c0.459-0.706,0.688-1.607,0.688-2.703v-1.887c-0.233,0.486-0.59,0.928-1.07,1.324
		c-0.615,0.503-1.269,0.753-1.963,0.753c-1.292,0-2.289-0.429-2.988-1.284c-0.609-0.742-0.912-1.679-0.912-2.808
		c0-0.658,0.081-1.27,0.244-1.835c0.134-0.466,0.335-0.958,0.604-1.474c0.021-0.042,0.27-0.474,0.743-1.294
		c0.036-0.078-0.015-0.163-0.148-0.254c-0.085-0.057-0.249-0.133-0.487-0.232c-0.128-0.064-0.255-0.127-0.382-0.191
		c-0.059-0.021-0.086-0.057-0.086-0.106s0.062-0.09,0.186-0.117c0.124-0.028,0.249-0.056,0.378-0.084
		c0.218-0.048,0.459-0.123,0.72-0.222c0.261-0.101,0.499-0.208,0.716-0.324c0.216-0.117,0.434-0.235,0.652-0.355
		c0.042-0.021,0.079-0.032,0.116-0.032c0.086,0,0.127,0.039,0.127,0.116c0,0.021-0.015,0.06-0.041,0.112
		c-0.027,0.053-0.09,0.139-0.183,0.259c-0.056,0.079-0.125,0.175-0.211,0.286c-0.545,0.757-0.959,1.499-1.241,2.228
		c-0.331,0.864-0.497,1.745-0.497,2.65c0,1.13,0.259,2.061,0.778,2.788s1.214,1.093,2.085,1.093c0.607,0,1.176-0.177,1.706-0.526
		c0.53-0.349,0.916-0.788,1.155-1.319V8.718c0-0.133-0.077-0.271-0.233-0.414c-0.141-0.112-0.282-0.229-0.423-0.35
		c-0.05-0.049-0.074-0.102-0.074-0.159c0-0.079,0.06-0.116,0.18-0.116c0.035,0,0.191,0.01,0.467,0.032
		c0.276,0.02,0.531,0.031,0.764,0.031c0.274,0,0.491-0.004,0.651-0.016c0.158-0.011,0.345-0.026,0.556-0.047
		c0.144,0,0.213,0.043,0.213,0.126C245.196,7.862,245.169,7.918,245.112,7.977z"/>
</g>
</svg>
