<?xml version="1.0" encoding="utf-8"?>
<!-- Generator: Adobe Illustrator 16.0.0, SVG Export Plug-In . SVG Version: 6.00 Build 0)  -->
<!DOCTYPE svg PUBLIC "-//W3C//DTD SVG 1.1//EN" "http://www.w3.org/Graphics/SVG/1.1/DTD/svg11.dtd">
<svg version="1.1" id="Layer_1" xmlns="http://www.w3.org/2000/svg" xmlns:xlink="http://www.w3.org/1999/xlink" x="0px" y="0px"
	 width="251px" height="23px" viewBox="0 0 251 23" enable-background="new 0 0 251 23" xml:space="preserve">
<g>
	<g>
		<path fill="#1D1D1B" d="M16.645,18.158c0.016,0.015,0.026,0.033,0.032,0.064c0.006,0.021,0.012,0.036,0.012,0.053
			c0,0.076-0.066,0.115-0.194,0.115c-0.072,0.008-0.286-0.002-0.642-0.026c-0.354-0.026-0.601-0.037-0.737-0.037
			c-0.23,0-0.575,0.017-1.034,0.054c-0.172,0.014-0.294,0.018-0.366,0.01c-0.124,0-0.185-0.043-0.185-0.13
			c0-0.034,0.012-0.062,0.033-0.085c0.022-0.029,0.177-0.154,0.462-0.377c0.223-0.172,0.334-0.326,0.334-0.463V7.947
			c-0.401,0.172-0.863,0.297-1.383,0.377c-0.519,0.078-1.034,0.118-1.545,0.118c-0.574,0-1.243-0.083-2.002-0.248
			C8.67,8.029,8.003,7.817,7.428,7.558v9.788c0,0.137,0.109,0.288,0.327,0.453c0.291,0.219,0.444,0.34,0.459,0.359
			c0.015,0.015,0.026,0.033,0.033,0.064c0.005,0.021,0.011,0.036,0.011,0.053c0,0.076-0.066,0.115-0.194,0.115
			c-0.075,0.008-0.286-0.002-0.644-0.026c-0.357-0.026-0.604-0.037-0.74-0.037c-0.23,0-0.578,0.017-1.037,0.054
			c-0.173,0.014-0.295,0.018-0.368,0.01c-0.122,0-0.186-0.043-0.186-0.13c0-0.034,0.012-0.062,0.034-0.085
			c0.021-0.029,0.176-0.154,0.462-0.377c0.223-0.172,0.335-0.326,0.335-0.463V7.473C5.819,7.458,5.732,7.451,5.662,7.451
			c-0.474,0-0.905,0.111-1.292,0.334C3.911,8.051,3.68,8.399,3.68,8.83c0,0.208,0.048,0.376,0.141,0.506
			C3.879,9.415,3.966,9.49,4.09,9.561c0.123,0.072,0.287,0.108,0.495,0.108c0.093,0,0.158-0.007,0.196-0.022
			c0.084-0.021,0.127,0.004,0.127,0.075c0,0.043-0.028,0.091-0.085,0.141c-0.124,0.107-0.255,0.193-0.398,0.258
			c-0.215,0.1-0.435,0.151-0.656,0.151c-0.361,0-0.665-0.097-0.916-0.291c-0.31-0.236-0.464-0.57-0.464-1.001
			c0-0.481,0.129-0.895,0.387-1.238C2.999,7.455,3.322,7.2,3.745,6.978c0.221-0.123,0.496-0.22,0.818-0.29
			c0.403-0.094,0.854-0.141,1.358-0.141V4.372c0-0.136-0.109-0.291-0.324-0.463C5.44,3.786,5.28,3.661,5.124,3.532
			C5.102,3.503,5.096,3.46,5.108,3.402c0.009-0.057,0.065-0.086,0.167-0.086C5.347,3.31,5.563,3.318,5.923,3.343
			C6.284,3.369,6.535,3.38,6.68,3.38c0.287,0,0.582-0.01,0.879-0.032c0.3-0.021,0.467-0.032,0.504-0.032
			c0.128,0,0.194,0.039,0.194,0.119c0,0.042-0.016,0.082-0.044,0.118C8.199,3.575,8.05,3.693,7.766,3.909
			C7.54,4.081,7.428,4.235,7.428,4.372v2.304c0.566,0.265,1.256,0.505,2.066,0.716c0.814,0.212,1.535,0.317,2.176,0.317
			c0.511,0,0.904-0.025,1.184-0.075c0.438-0.079,0.941-0.247,1.507-0.506V4.372c0-0.136-0.106-0.291-0.322-0.463
			c-0.158-0.123-0.316-0.248-0.475-0.377c-0.021-0.029-0.025-0.072-0.015-0.129c0.01-0.057,0.065-0.086,0.167-0.086
			c0.071-0.007,0.287,0.001,0.645,0.027c0.36,0.026,0.61,0.037,0.754,0.037c0.286,0,0.58-0.01,0.878-0.032
			c0.297-0.021,0.463-0.032,0.501-0.032c0.128,0,0.194,0.039,0.194,0.119c0,0.042-0.015,0.082-0.043,0.118
			c-0.015,0.022-0.162,0.141-0.441,0.356c-0.222,0.172-0.334,0.327-0.334,0.463v12.975c0,0.137,0.107,0.287,0.323,0.452
			C16.479,18.018,16.63,18.139,16.645,18.158z"/>
		<path fill="#1D1D1B" d="M28.705,18.109c0.05,0.08,0.075,0.138,0.075,0.173c0,0.073-0.053,0.108-0.162,0.108
			c-0.028,0-0.146-0.012-0.355-0.033s-0.405-0.03-0.593-0.03c-0.128,0-0.273,0.009-0.43,0.03c-0.158,0.021-0.252,0.033-0.281,0.033
			c-0.166,0-0.247-0.041-0.247-0.117c0-0.029,0.017-0.069,0.053-0.119c0.064-0.096,0.116-0.192,0.156-0.297
			c0.04-0.105,0.059-0.222,0.059-0.352l-0.064-1.033c-0.28,0.59-0.743,1.104-1.389,1.541c-0.718,0.479-1.469,0.721-2.251,0.721
			c-1.104,0-2.04-0.326-2.799-0.979c-0.803-0.688-1.206-1.583-1.206-2.68c0-1.104,0.437-2.032,1.315-2.778
			c0.839-0.718,1.845-1.077,3.014-1.077c0.565,0,1.111,0.112,1.632,0.334c0.519,0.222,0.916,0.491,1.189,0.807
			c0-0.315-0.183-0.785-0.549-1.41c-0.43-0.74-0.937-1.346-1.519-1.82c-0.731-0.603-1.485-0.904-2.26-0.904
			c-0.48,0-0.895,0.1-1.24,0.301c-0.393,0.23-0.592,0.545-0.592,0.948c0,0.23,0.06,0.419,0.178,0.57s0.281,0.227,0.489,0.227
			c0.146,0,0.27-0.047,0.377-0.14c0.108-0.094,0.161-0.206,0.161-0.335c0-0.092-0.012-0.185-0.037-0.274
			c-0.025-0.089-0.047-0.17-0.069-0.242c-0.021-0.049-0.018-0.083,0.01-0.097c0.015-0.006,0.062-0.011,0.139-0.011
			c0.202,0.022,0.384,0.115,0.551,0.281c0.166,0.165,0.247,0.352,0.247,0.56c0,0.336-0.135,0.619-0.404,0.845
			s-0.58,0.339-0.932,0.339c-0.414,0-0.76-0.14-1.034-0.42c-0.272-0.28-0.408-0.657-0.408-1.131c0-0.618,0.326-1.098,0.979-1.442
			c0.575-0.302,1.266-0.453,2.078-0.453c0.797,0,1.584,0.254,2.358,0.76c0.776,0.506,1.404,1.194,1.883,2.062
			c0.34,0.611,0.608,1.369,0.808,2.272c0.131,0.572,0.252,1.36,0.367,2.362c0.115,1.001,0.21,1.688,0.291,2.062
			c0.036,0.188,0.103,0.365,0.205,0.537C28.607,17.968,28.677,18.066,28.705,18.109z M26.874,14.664
			c0-0.811-0.299-1.457-0.898-1.943c-0.6-0.481-1.384-0.726-2.353-0.726c-0.791,0-1.48,0.259-2.067,0.776
			c-0.588,0.517-0.884,1.153-0.884,1.916c0,0.812,0.301,1.494,0.9,2.052c0.6,0.556,1.313,0.835,2.138,0.835
			c0.953,0,1.72-0.272,2.299-0.813C26.585,16.219,26.874,15.52,26.874,14.664z"/>
		<path fill="#1D1D1B" d="M40.139,11.784c0,1.063-0.187,2.082-0.558,3.056c-0.374,0.975-0.926,1.875-1.659,2.7
			c0.022,0,0.06,0.001,0.114,0.006c0.053,0.004,0.127,0.005,0.22,0.005c0.222,0,0.43-0.012,0.625-0.037
			c0.194-0.024,0.383-0.099,0.571-0.222c0.187-0.149,0.308-0.246,0.366-0.291c0.014-0.013,0.036-0.024,0.064-0.032
			c0.021-0.006,0.037-0.011,0.043-0.011c0.081,0,0.102,0.065,0.064,0.192c-0.015,0.106-0.028,0.234-0.043,0.386
			c-0.016,0.149-0.021,0.251-0.021,0.3c0,0.107,0.004,0.221,0.011,0.339c0.006,0.117,0.017,0.239,0.032,0.367
			c0.028,0.144,0,0.217-0.086,0.217c-0.036,0-0.071-0.017-0.107-0.045c-0.215-0.116-0.366-0.194-0.452-0.229
			c-0.166-0.062-0.322-0.104-0.469-0.125s-0.376-0.03-0.684-0.03c-0.208,0-0.372,0.003-0.496,0.008
			c-0.123,0.007-0.283,0.024-0.483,0.058c-0.21,0.037-0.313-0.027-0.313-0.193c0-0.051,0.011-0.094,0.033-0.131
			c0.386-0.604,0.689-1.103,0.904-1.495c0.338-0.625,0.588-1.206,0.753-1.744c0.201-0.661,0.302-1.331,0.302-2.015
			c0-1.126-0.253-2.042-0.753-2.747c-0.524-0.74-1.234-1.109-2.132-1.109c-0.603,0-1.146,0.168-1.625,0.505
			c-0.431,0.3-0.786,0.72-1.067,1.258v6.604c0,0.129,0.082,0.262,0.241,0.396c0.14,0.115,0.277,0.229,0.415,0.338
			c0.081,0.08,0.121,0.152,0.121,0.22c0,0.073-0.062,0.108-0.183,0.108c-0.037,0-0.198-0.01-0.488-0.031
			c-0.287-0.021-0.55-0.03-0.789-0.03c-0.274,0-0.492,0.005-0.653,0.021c-0.163,0.018-0.348,0.029-0.557,0.045
			c-0.174,0-0.258-0.041-0.258-0.121c0-0.051,0.031-0.111,0.096-0.188c0.064-0.071,0.169-0.167,0.313-0.284
			c0.242-0.188,0.366-0.344,0.366-0.473v-6.369c0-0.609-0.183-1.104-0.55-1.484c-0.156-0.165-0.434-0.352-0.828-0.559
			c-0.059-0.029-0.087-0.069-0.087-0.119c0-0.051,0.022-0.097,0.065-0.141c0.089-0.086,0.169-0.156,0.233-0.21
			c0.064-0.053,0.146-0.13,0.248-0.231c0.101-0.101,0.179-0.182,0.236-0.247c0.058-0.065,0.112-0.129,0.162-0.194
			c0.028-0.037,0.069-0.054,0.118-0.054c0.043,0,0.076,0.01,0.097,0.031C31.87,7.96,32.142,8.25,32.43,8.624
			c0.393,0.509,0.624,0.951,0.689,1.324c0.316-0.517,0.7-0.965,1.151-1.346c0.674-0.567,1.36-0.851,2.057-0.851
			c1.292,0,2.286,0.486,2.982,1.456C39.864,9.977,40.139,10.836,40.139,11.784z"/>
		<path fill="#1D1D1B" d="M52.889,17.639c-0.036,0.021-0.093,0.063-0.172,0.129c-0.129,0.106-0.236,0.199-0.319,0.273
			c-0.083,0.075-0.172,0.163-0.274,0.266c-0.07,0.07-0.118,0.121-0.14,0.149c-0.058,0.063-0.113,0.099-0.173,0.099
			c-0.036,0-0.092-0.027-0.171-0.076c-0.166-0.123-0.359-0.367-0.582-0.731c-0.242-0.401-0.416-0.771-0.516-1.099
			c-0.339,0.623-0.785,1.129-1.341,1.513c-0.557,0.383-1.159,0.575-1.803,0.575c-1.329,0-2.415-0.492-3.257-1.48
			c-0.843-0.984-1.265-2.242-1.265-3.771s0.431-2.847,1.292-3.953c0.919-1.184,2.082-1.777,3.488-1.777
			c0.588,0,1.116,0.098,1.583,0.292c0.423,0.172,0.835,0.448,1.238,0.829v-3.06c0-0.208-0.007-0.373-0.022-0.495
			c-0.016-0.122-0.101-0.172-0.258-0.15c-0.087,0.007-0.203,0.064-0.355,0.172c-0.199,0.144-0.319,0.222-0.355,0.236
			c-0.037,0.022-0.07,0.033-0.098,0.033c-0.093,0-0.14-0.043-0.14-0.13c0-0.035,0.024-0.085,0.07-0.151
			c0.047-0.064,0.189-0.211,0.426-0.44c0.423-0.41,0.705-0.683,0.84-0.819c0.244-0.244,0.509-0.534,0.797-0.872
			c0.2-0.237,0.328-0.377,0.387-0.42c0.016-0.015,0.036-0.025,0.065-0.032c0.021-0.007,0.039-0.011,0.052-0.011
			c0.066,0,0.098,0.058,0.098,0.173c-0.049,0.473-0.079,0.742-0.086,0.807c-0.027,0.395-0.042,0.771-0.042,1.131v10.789
			c0,0.425,0.075,0.775,0.225,1.056c0.151,0.279,0.405,0.512,0.766,0.688c0.079,0.043,0.118,0.095,0.118,0.147
			C52.964,17.573,52.938,17.607,52.889,17.639z M50.477,14.73V11.09c0-0.869-0.302-1.555-0.905-2.057
			c-0.539-0.452-1.213-0.678-2.025-0.678c-0.968,0-1.793,0.452-2.476,1.356c-0.646,0.861-0.97,1.852-0.97,2.971
			c0,1.344,0.32,2.467,0.958,3.37c0.696,0.983,1.611,1.476,2.746,1.476c0.726,0,1.34-0.235,1.842-0.709
			C50.201,16.295,50.477,15.6,50.477,14.73z"/>
		<path fill="#1D1D1B" d="M68.889,11.741c0,0.94-0.241,1.942-0.72,3.007c-0.453,0.999-1.061,1.93-1.821,2.792
			c0.021,0,0.06,0.001,0.112,0.006c0.056,0.004,0.129,0.005,0.223,0.005c0.221,0,0.434-0.012,0.634-0.037
			c0.201-0.024,0.399-0.105,0.594-0.242c0.113-0.092,0.232-0.189,0.354-0.291c0.043-0.043,0.087-0.049,0.13-0.021
			c0.036,0.03,0.05,0.079,0.043,0.151c-0.021,0.144-0.042,0.285-0.059,0.426c-0.019,0.141-0.027,0.242-0.027,0.307
			c0,0.158,0.005,0.288,0.016,0.395c0.011,0.104,0.027,0.225,0.049,0.359c0.014,0.123-0.011,0.186-0.077,0.186
			c-0.049,0-0.103-0.025-0.16-0.075c-0.137-0.097-0.287-0.17-0.455-0.228c-0.165-0.059-0.316-0.098-0.456-0.119
			c-0.139-0.021-0.365-0.03-0.673-0.03c-0.209,0-0.373,0.003-0.494,0.007c-0.125,0.006-0.284,0.023-0.486,0.048
			c-0.028,0.007-0.053,0.009-0.075,0.009c-0.037,0-0.061,0-0.076,0c-0.136,0-0.204-0.047-0.204-0.139
			c0-0.044,0.025-0.109,0.076-0.195c0.359-0.551,0.671-1.076,0.936-1.58c0.352-0.657,0.621-1.269,0.809-1.828
			c0.23-0.688,0.343-1.309,0.343-1.859c0-1.175-0.168-2.089-0.505-2.742c-0.403-0.768-1.03-1.152-1.884-1.152
			c-0.352,0-0.685,0.07-1.002,0.21c-0.317,0.14-0.598,0.357-0.851,0.652c0.129,0.352,0.222,0.779,0.28,1.281
			c0.059,0.502,0.086,1.038,0.086,1.604c0,0.701-0.166,1.523-0.495,2.465c-0.258,0.738-0.583,1.466-0.968,2.176
			c-0.317,0.582-0.538,0.938-0.669,1.064c-0.021,0.029-0.068,0.043-0.14,0.043c-0.113,0-0.183-0.021-0.205-0.062
			c-0.02-0.028-0.025-0.067-0.01-0.119c0.042-0.103,0.068-0.161,0.075-0.182c0.632-1.31,0.949-3.046,0.949-5.216
			c0-1.045-0.202-1.938-0.603-2.667c-0.438-0.79-1.006-1.185-1.702-1.185c-0.475,0-0.92,0.197-1.335,0.591
			c-0.352,0.331-0.608,0.722-0.775,1.174v6.602c0,0.122,0.082,0.25,0.248,0.387c0.129,0.108,0.262,0.22,0.397,0.328
			c0.087,0.088,0.13,0.16,0.13,0.22c0,0.088-0.08,0.131-0.237,0.131c-0.08,0-0.287-0.011-0.624-0.031
			c-0.339-0.022-0.539-0.031-0.604-0.031c-0.258,0-0.468,0.005-0.629,0.02c-0.162,0.019-0.345,0.03-0.554,0.045
			c-0.167,0-0.248-0.041-0.248-0.121c0-0.06,0.039-0.127,0.119-0.207c0.172-0.146,0.301-0.26,0.387-0.338
			c0.158-0.146,0.238-0.275,0.238-0.397v-6.369c0-0.609-0.19-1.104-0.572-1.484c-0.145-0.144-0.42-0.33-0.829-0.559
			c-0.059-0.037-0.086-0.08-0.086-0.13c0-0.035,0.021-0.072,0.065-0.108c0.113-0.086,0.28-0.236,0.495-0.452
			c0.108-0.107,0.189-0.193,0.249-0.257c0.058-0.065,0.109-0.124,0.156-0.178c0.046-0.054,0.086-0.081,0.124-0.081
			c0.036,0,0.075,0.022,0.117,0.065c0.274,0.236,0.546,0.535,0.82,0.893c0.38,0.496,0.602,0.923,0.667,1.281
			c0.252-0.523,0.539-0.955,0.861-1.292c0.576-0.603,1.233-0.905,1.982-0.905c0.619,0,1.167,0.173,1.647,0.518
			c0.329,0.236,0.657,0.582,0.98,1.033c0.285-0.43,0.614-0.778,0.979-1.044c0.467-0.336,0.967-0.506,1.498-0.506
			c1.234,0,2.158,0.479,2.768,1.435C68.664,9.897,68.889,10.749,68.889,11.741z"/>
		<path fill="#1D1D1B" d="M81.229,18.109c0.05,0.08,0.074,0.138,0.074,0.173c0,0.073-0.051,0.108-0.16,0.108
			c-0.028,0-0.147-0.012-0.356-0.033s-0.405-0.03-0.592-0.03c-0.13,0-0.274,0.009-0.431,0.03c-0.155,0.021-0.251,0.033-0.28,0.033
			c-0.166,0-0.248-0.041-0.248-0.117c0-0.029,0.018-0.069,0.054-0.119c0.065-0.096,0.116-0.192,0.157-0.297
			c0.04-0.104,0.058-0.222,0.058-0.352l-0.063-1.033c-0.279,0.59-0.744,1.104-1.39,1.541c-0.715,0.479-1.467,0.721-2.249,0.721
			c-1.105,0-2.041-0.326-2.8-0.979c-0.803-0.688-1.205-1.583-1.205-2.68c0-1.104,0.436-2.032,1.312-2.778
			c0.84-0.718,1.846-1.077,3.014-1.077c0.567,0,1.111,0.112,1.632,0.334c0.52,0.222,0.916,0.491,1.19,0.807
			c0-0.315-0.184-0.785-0.549-1.41c-0.43-0.74-0.937-1.346-1.519-1.82c-0.731-0.603-1.485-0.904-2.261-0.904
			c-0.48,0-0.893,0.1-1.238,0.301c-0.393,0.23-0.591,0.545-0.591,0.948c0,0.23,0.058,0.419,0.177,0.57
			c0.118,0.151,0.281,0.227,0.49,0.227c0.144,0,0.27-0.047,0.377-0.14c0.107-0.094,0.162-0.206,0.162-0.335
			c0-0.092-0.013-0.185-0.039-0.274c-0.023-0.089-0.047-0.17-0.069-0.242c-0.021-0.049-0.018-0.083,0.01-0.097
			c0.016-0.006,0.061-0.011,0.141-0.011c0.2,0.022,0.381,0.115,0.55,0.281c0.165,0.165,0.246,0.352,0.246,0.56
			c0,0.336-0.134,0.619-0.404,0.845c-0.269,0.226-0.58,0.339-0.932,0.339c-0.416,0-0.76-0.14-1.033-0.42
			c-0.274-0.28-0.409-0.657-0.409-1.131c0-0.618,0.328-1.098,0.98-1.442c0.574-0.302,1.266-0.453,2.078-0.453
			c0.795,0,1.583,0.254,2.357,0.76c0.775,0.506,1.405,1.194,1.885,2.062c0.338,0.611,0.606,1.369,0.807,2.272
			c0.129,0.572,0.252,1.36,0.367,2.362c0.114,1.001,0.211,1.688,0.29,2.062c0.038,0.188,0.105,0.365,0.205,0.537
			C81.133,17.968,81.201,18.066,81.229,18.109z M79.399,14.664c0-0.811-0.3-1.457-0.9-1.943c-0.6-0.481-1.383-0.726-2.352-0.726
			c-0.791,0-1.481,0.259-2.067,0.776c-0.588,0.517-0.884,1.153-0.884,1.916c0,0.812,0.3,1.494,0.901,2.052
			c0.599,0.556,1.312,0.835,2.136,0.835c0.955,0,1.722-0.272,2.299-0.813C79.109,16.221,79.399,15.52,79.399,14.664z"/>
		<path fill="#1D1D1B" d="M93.311,17.639c-0.037,0.021-0.094,0.063-0.172,0.129c-0.128,0.106-0.235,0.199-0.318,0.273
			c-0.082,0.075-0.172,0.163-0.274,0.266c-0.072,0.07-0.118,0.121-0.14,0.149c-0.059,0.063-0.114,0.099-0.172,0.099
			c-0.037,0-0.093-0.027-0.172-0.076c-0.167-0.123-0.36-0.367-0.583-0.731c-0.242-0.401-0.416-0.771-0.516-1.099
			c-0.34,0.623-0.784,1.129-1.34,1.513c-0.557,0.383-1.159,0.575-1.803,0.575c-1.33,0-2.415-0.492-3.257-1.48
			c-0.844-0.984-1.266-2.242-1.266-3.771s0.429-2.847,1.292-3.953c0.919-1.184,2.083-1.777,3.488-1.777
			c0.588,0,1.116,0.098,1.583,0.292c0.424,0.172,0.836,0.448,1.237,0.829v-3.06c0-0.208-0.005-0.373-0.021-0.495
			c-0.016-0.122-0.102-0.172-0.258-0.15c-0.087,0.007-0.205,0.064-0.356,0.172c-0.199,0.144-0.318,0.222-0.354,0.236
			c-0.039,0.022-0.07,0.033-0.098,0.033c-0.093,0-0.139-0.043-0.139-0.13c0-0.035,0.023-0.085,0.07-0.151
			c0.046-0.064,0.189-0.211,0.426-0.44c0.423-0.41,0.704-0.683,0.839-0.819c0.243-0.244,0.51-0.534,0.797-0.872
			c0.199-0.237,0.328-0.377,0.387-0.42c0.014-0.015,0.037-0.025,0.066-0.032c0.02-0.007,0.038-0.011,0.052-0.011
			c0.064,0,0.097,0.058,0.097,0.173c-0.05,0.473-0.08,0.742-0.086,0.807c-0.027,0.395-0.043,0.771-0.043,1.131v10.789
			c0,0.425,0.077,0.775,0.226,1.056c0.152,0.279,0.406,0.512,0.767,0.688c0.078,0.043,0.117,0.095,0.117,0.147
			C93.385,17.573,93.359,17.607,93.311,17.639z M90.897,14.73V11.09c0-0.869-0.301-1.555-0.904-2.057
			c-0.538-0.452-1.211-0.678-2.023-0.678c-0.968,0-1.794,0.452-2.476,1.356c-0.648,0.861-0.97,1.852-0.97,2.971
			c0,1.344,0.319,2.467,0.958,3.37c0.696,0.983,1.611,1.476,2.745,1.476c0.725,0,1.341-0.235,1.842-0.709
			C90.623,16.295,90.897,15.6,90.897,14.73z"/>
		<path fill="#1D1D1B" d="M105.111,16.107c-0.187,0.609-0.634,1.181-1.345,1.713c-0.833,0.625-1.74,0.938-2.725,0.938
			c-0.632,0-1.19-0.068-1.678-0.205c-0.562-0.158-1.093-0.429-1.594-0.809c-0.2,0.252-0.385,0.523-0.55,0.818
			c-0.21,0.364-0.314,0.631-0.314,0.797c0,0.201,0.056,0.341,0.163,0.42c0.073,0.049,0.19,0.074,0.355,0.074
			c0.05,0,0.103-0.006,0.152-0.021c0.042-0.018,0.085-0.027,0.128-0.045c0.028-0.016,0.054-0.016,0.075,0
			c0.051,0.027,0.062,0.087,0.034,0.173c-0.043,0.173-0.13,0.33-0.259,0.476c-0.173,0.188-0.373,0.277-0.604,0.277
			c-0.244,0-0.446-0.09-0.603-0.271c-0.157-0.178-0.237-0.409-0.237-0.696c0-0.229,0.08-0.511,0.237-0.841
			c0.042-0.094,0.351-0.604,0.926-1.528c-0.533-0.546-0.941-1.14-1.227-1.774c-0.317-0.713-0.474-1.478-0.474-2.295
			c0-1.508,0.49-2.811,1.469-3.91c0.98-1.098,2.197-1.647,3.656-1.647c0.582,0,1.179,0.141,1.788,0.421
			c0.338,0.165,0.674,0.327,1.012,0.484c0.064,0.029,0.158,0.05,0.28,0.064c0.122,0.015,0.243,0.021,0.366,0.021l0.324-0.021
			c0.079,0,0.117,0.032,0.117,0.097c0,0.049-0.024,0.089-0.075,0.118c-0.113,0.071-0.242,0.168-0.378,0.291
			c-0.186,0.158-0.347,0.319-0.483,0.484c-0.697,0.774-1.503,1.791-2.424,3.047c-0.918,1.256-1.782,2.518-2.594,3.779
			c0.424,0.301,0.854,0.533,1.292,0.699c0.517,0.193,1.054,0.289,1.615,0.289c0.774,0,1.414-0.146,1.916-0.439
			c0.367-0.215,0.776-0.602,1.228-1.15c0.043-0.063,0.092-0.136,0.151-0.211c0.059-0.074,0.123-0.105,0.195-0.092
			c0.092,0.021,0.139,0.09,0.139,0.204C105.165,15.926,105.148,16.016,105.111,16.107z M102.162,9.756
			c0-0.424-0.231-0.754-0.69-0.992c-0.387-0.2-0.854-0.301-1.399-0.301c-1.019,0-1.859,0.435-2.52,1.303
			c-0.619,0.818-0.927,1.792-0.927,2.917c0,0.668,0.163,1.336,0.484,2.004c0.273,0.564,0.614,1.047,1.024,1.441
			c0.489-0.727,0.868-1.29,1.142-1.689c0.438-0.646,0.812-1.188,1.12-1.627c0.394-0.561,0.791-1.122,1.184-1.681
			C101.968,10.531,102.162,10.071,102.162,9.756z"/>
		<path fill="#1D1D1B" d="M125.536,3.058c0,0.244-0.09,0.463-0.271,0.656c-0.079,0.086-0.224,0.206-0.441,0.355
			c-0.041,0.022-0.075,0.033-0.097,0.033c-0.049,0-0.069-0.039-0.055-0.119c0.044-0.093,0.073-0.17,0.093-0.231
			c0.019-0.06,0.027-0.138,0.027-0.231c0-0.122-0.026-0.248-0.076-0.376c-0.081-0.216-0.22-0.377-0.42-0.485
			c-0.2-0.108-0.427-0.162-0.679-0.162c-0.457,0-0.865,0.166-1.217,0.497c-0.351,0.332-0.526,0.728-0.526,1.187
			c0,0.333,0.1,0.649,0.301,0.951c0.07,0.108,0.157,0.199,0.258,0.271c0.049,0.036,0.187,0.119,0.409,0.248
			c0.065,0.036,0.096,0.072,0.096,0.107c0,0.029-0.025,0.058-0.075,0.087l-0.668,0.389c-0.187,0.115-0.294,0.184-0.322,0.205
			c-0.195,0.129-0.295,0.198-0.302,0.205c-0.021,0.022-0.047,0.029-0.076,0.022c-0.064-0.006-0.091-0.05-0.075-0.129
			c0.016-0.064,0.034-0.157,0.06-0.28c0.024-0.122,0.038-0.229,0.038-0.322c0-0.145-0.026-0.302-0.076-0.474
			c-0.151-0.568-0.52-1.029-1.104-1.384c-0.583-0.355-1.271-0.533-2.062-0.533c-1.449,0-2.621,0.652-3.51,1.958
			c-0.818,1.198-1.227,2.618-1.227,4.26c0,2.01,0.512,3.774,1.54,5.293c1.142,1.692,2.624,2.539,4.447,2.539
			c1.077,0,2.006-0.283,2.789-0.853c0.781-0.563,1.173-1.209,1.173-1.929c0-0.178-0.047-0.346-0.141-0.5
			c-0.092-0.152-0.22-0.23-0.375-0.23c-0.146,0-0.265,0.032-0.367,0.1c-0.065,0.043-0.123,0.096-0.172,0.159
			c-0.015,0.06-0.043,0.089-0.087,0.089c-0.043,0-0.064-0.053-0.064-0.152c0-0.199,0.071-0.408,0.215-0.623
			c0.179-0.273,0.409-0.41,0.689-0.41c0.345,0,0.612,0.145,0.808,0.432c0.171,0.25,0.26,0.557,0.26,0.914
			c0,0.081-0.007,0.141-0.012,0.184c-0.103,1.057-0.654,1.955-1.659,2.699c-1.006,0.74-2.19,1.113-3.553,1.113
			c-2.062,0-3.765-0.854-5.115-2.553c-1.285-1.614-1.927-3.542-1.927-5.782c0-1.975,0.588-3.686,1.766-5.136
			c1.234-1.515,2.772-2.272,4.608-2.272c1.179,0,2.161,0.351,2.951,1.055c0.091-0.575,0.329-1.084,0.709-1.529
			c0.475-0.545,1.057-0.818,1.745-0.818c0.523,0,0.949,0.139,1.276,0.415C125.372,2.241,125.536,2.606,125.536,3.058z"/>
		<path fill="#1D1D1B" d="M135.055,17.961c0.049,0.079,0.075,0.137,0.075,0.172c0,0.071-0.055,0.108-0.162,0.108
			c-0.028,0-0.146-0.011-0.356-0.032c-0.207-0.021-0.4-0.033-0.59-0.033c-0.129,0-0.271,0.012-0.432,0.033
			c-0.156,0.021-0.253,0.032-0.281,0.032c-0.164,0-0.246-0.039-0.246-0.118c0-0.027,0.019-0.068,0.055-0.119
			c0.064-0.093,0.115-0.191,0.154-0.297c0.041-0.104,0.062-0.221,0.062-0.352l-0.063-1.032c-0.279,0.588-0.742,1.103-1.389,1.541
			c-0.719,0.479-1.471,0.722-2.253,0.722c-1.104,0-2.039-0.328-2.798-0.98c-0.805-0.688-1.207-1.584-1.207-2.682
			c0-1.104,0.438-2.029,1.312-2.777c0.84-0.716,1.844-1.077,3.017-1.077c0.563,0,1.108,0.111,1.632,0.334
			c0.521,0.223,0.915,0.491,1.188,0.808c0-0.317-0.185-0.786-0.549-1.411c-0.432-0.74-0.938-1.346-1.519-1.82
			c-0.731-0.603-1.486-0.904-2.261-0.904c-0.481,0-0.896,0.101-1.24,0.301c-0.395,0.23-0.592,0.546-0.592,0.948
			c0,0.23,0.059,0.42,0.179,0.569c0.117,0.153,0.28,0.227,0.489,0.227c0.145,0,0.27-0.046,0.375-0.14
			c0.109-0.093,0.164-0.205,0.164-0.334c0-0.092-0.014-0.183-0.039-0.273c-0.024-0.089-0.047-0.172-0.068-0.243
			c-0.021-0.049-0.018-0.082,0.012-0.096c0.016-0.007,0.061-0.011,0.139-0.011c0.201,0.021,0.385,0.114,0.55,0.279
			c0.168,0.166,0.249,0.352,0.249,0.56c0,0.338-0.137,0.619-0.404,0.845c-0.271,0.228-0.579,0.34-0.934,0.34
			c-0.413,0-0.76-0.141-1.03-0.42c-0.274-0.28-0.411-0.657-0.411-1.131c0-0.617,0.328-1.097,0.98-1.443
			c0.574-0.301,1.268-0.451,2.078-0.451c0.795,0,1.582,0.252,2.356,0.759c0.774,0.507,1.403,1.194,1.886,2.062
			c0.338,0.609,0.606,1.367,0.807,2.271c0.132,0.574,0.254,1.363,0.365,2.363c0.114,1.004,0.213,1.69,0.293,2.062
			c0.035,0.188,0.103,0.365,0.203,0.538C134.957,17.816,135.027,17.918,135.055,17.961z M133.223,14.516
			c0-0.812-0.299-1.459-0.897-1.945c-0.601-0.48-1.384-0.724-2.353-0.724c-0.789,0-1.479,0.257-2.068,0.774
			c-0.588,0.519-0.883,1.155-0.883,1.918c0,0.812,0.299,1.494,0.898,2.052c0.602,0.557,1.312,0.833,2.139,0.833
			c0.951,0,1.719-0.271,2.299-0.812C132.936,16.068,133.223,15.37,133.223,14.516z"/>
		<path fill="#1D1D1B" d="M144.725,9.174c0,0.416-0.113,0.754-0.334,1.013c-0.222,0.259-0.521,0.387-0.895,0.387
			c-0.268,0-0.493-0.035-0.684-0.106c-0.191-0.072-0.314-0.172-0.373-0.302c-0.021-0.029-0.023-0.061-0.01-0.097
			c0.016-0.037,0.047-0.054,0.096-0.054c0.132,0,0.252-0.02,0.359-0.054c0.111-0.036,0.211-0.102,0.299-0.194
			c0.123-0.136,0.184-0.306,0.184-0.507c0-0.235-0.094-0.426-0.28-0.571c-0.216-0.164-0.524-0.247-0.926-0.247
			c-0.513,0-1.013,0.226-1.507,0.677c-0.438,0.402-0.776,0.887-1.014,1.453v6.604c0,0.126,0.08,0.264,0.235,0.398
			c0.138,0.115,0.272,0.229,0.409,0.338c0.068,0.074,0.105,0.14,0.105,0.197c0,0.088-0.08,0.132-0.234,0.132
			c-0.131,0-0.238-0.005-0.324-0.011c-0.443-0.037-0.738-0.057-0.883-0.057c-0.274,0-0.489,0.008-0.651,0.021
			c-0.159,0.016-0.346,0.029-0.555,0.045c-0.156,0-0.236-0.042-0.236-0.12c0-0.065,0.044-0.144,0.13-0.231
			c0.131-0.109,0.227-0.188,0.293-0.24c0.221-0.178,0.332-0.336,0.332-0.474v-6.368c0-0.495-0.135-0.902-0.398-1.226
			c-0.178-0.215-0.563-0.453-1.15-0.71c-0.027-0.007-0.044-0.028-0.044-0.065c0-0.042,0.017-0.078,0.044-0.106l0.495-0.474
			c0.092-0.093,0.175-0.183,0.247-0.27c0.021-0.021,0.068-0.082,0.141-0.183c0.043-0.05,0.092-0.075,0.141-0.075
			c0.027,0,0.061,0.01,0.098,0.034c0.4,0.278,0.7,0.519,0.895,0.721c0.431,0.436,0.678,0.887,0.744,1.345
			c0.264-0.597,0.659-1.094,1.186-1.498c0.607-0.466,1.285-0.699,2.023-0.699c0.639,0,1.139,0.152,1.502,0.458
			C144.543,8.365,144.725,8.737,144.725,9.174z"/>
		<path fill="#1D1D1B" d="M156.201,11.931c0,1.901-0.527,3.5-1.582,4.792c-1.02,1.242-2.215,1.863-3.586,1.863
			c-0.495,0-0.944-0.093-1.346-0.279c-0.324-0.152-0.701-0.418-1.131-0.798v2.306c0,0.401,0.08,0.73,0.235,0.99
			c0.079,0.122,0.214,0.271,0.408,0.451c0.063,0.059,0.099,0.107,0.099,0.15c0,0.049-0.054,0.096-0.156,0.141
			c-0.104,0.043-0.222,0.09-0.351,0.141c-0.224,0.103-0.479,0.242-0.774,0.433c-0.201,0.122-0.392,0.254-0.564,0.396
			c-0.176,0.146-0.354,0.291-0.533,0.441c-0.059,0.027-0.107,0.043-0.15,0.043c-0.07,0-0.102-0.07-0.086-0.215
			c0.146-0.383,0.265-0.764,0.354-1.148c0.093-0.382,0.142-0.772,0.142-1.177v-9.648c0-0.619-0.188-1.121-0.572-1.508
			c-0.154-0.165-0.436-0.351-0.828-0.56c-0.043-0.021-0.063-0.05-0.063-0.085c0-0.021,0.007-0.047,0.021-0.076
			c0.016-0.029,0.027-0.054,0.043-0.074c0.035-0.044,0.098-0.101,0.184-0.173c0.124-0.1,0.223-0.187,0.293-0.258
			c0.105-0.107,0.188-0.194,0.245-0.258c0.06-0.065,0.113-0.129,0.163-0.195c0.021-0.036,0.062-0.053,0.119-0.053
			c0.041,0,0.074,0.01,0.096,0.032c0.294,0.223,0.582,0.509,0.859,0.86c0.416,0.525,0.662,1.034,0.732,1.53
			c0.279-0.553,0.663-1.04,1.151-1.465c0.718-0.617,1.519-0.925,2.401-0.925c0.891,0,1.676,0.262,2.355,0.786
			c0.566,0.438,1.023,1.024,1.368,1.756C156.051,10.79,156.201,11.387,156.201,11.931z M154.758,12.705
			c0-1.034-0.285-1.941-0.859-2.723c-0.604-0.826-1.352-1.239-2.239-1.239c-0.738,0-1.39,0.234-1.95,0.701
			c-0.456,0.38-0.843,0.9-1.148,1.561v6.267l0.43-0.41c0.123-0.111,0.222-0.213,0.297-0.301c0.076-0.086,0.163-0.209,0.265-0.365
			c0.035-0.043,0.071-0.063,0.104-0.063c0.096,0,0.125,0.06,0.089,0.171c-0.007,0.018-0.021,0.088-0.043,0.213
			s-0.033,0.228-0.033,0.307c0,0.174,0.033,0.328,0.099,0.474c0.092,0.188,0.272,0.345,0.543,0.476
			c0.271,0.129,0.547,0.192,0.834,0.192c1.094,0,1.967-0.483,2.627-1.453S154.758,14.271,154.758,12.705z"/>
		<path fill="#1D1D1B" d="M167.852,15.959c-0.186,0.607-0.633,1.18-1.346,1.712c-0.833,0.624-1.74,0.937-2.725,0.937
			c-0.631,0-1.189-0.068-1.68-0.205c-0.562-0.155-1.093-0.426-1.594-0.809c-0.199,0.254-0.384,0.524-0.551,0.818
			c-0.209,0.367-0.312,0.632-0.312,0.798c0,0.2,0.056,0.341,0.162,0.42c0.072,0.05,0.188,0.074,0.354,0.074
			c0.051,0,0.104-0.005,0.151-0.021c0.043-0.017,0.086-0.029,0.129-0.043c0.027-0.016,0.056-0.016,0.076,0
			c0.049,0.026,0.062,0.084,0.031,0.172c-0.042,0.172-0.13,0.33-0.259,0.475c-0.172,0.188-0.372,0.279-0.603,0.279
			c-0.244,0-0.446-0.092-0.604-0.271c-0.155-0.181-0.237-0.412-0.237-0.698c0-0.229,0.082-0.513,0.237-0.841
			c0.044-0.095,0.351-0.604,0.926-1.528c-0.53-0.545-0.938-1.139-1.227-1.776c-0.316-0.712-0.476-1.476-0.476-2.294
			c0-1.508,0.49-2.81,1.473-3.907c0.977-1.101,2.195-1.648,3.652-1.648c0.582,0,1.18,0.14,1.789,0.42
			c0.338,0.166,0.674,0.328,1.012,0.485c0.063,0.027,0.156,0.05,0.279,0.064c0.125,0.015,0.244,0.021,0.365,0.021l0.323-0.021
			c0.079,0,0.116,0.031,0.116,0.096c0,0.05-0.023,0.09-0.073,0.119c-0.114,0.072-0.24,0.168-0.377,0.29
			c-0.187,0.158-0.351,0.319-0.484,0.486c-0.694,0.775-1.504,1.792-2.424,3.046c-0.918,1.256-1.78,2.516-2.593,3.781
			c0.424,0.301,0.854,0.532,1.289,0.696c0.518,0.194,1.057,0.292,1.615,0.292c0.775,0,1.416-0.146,1.916-0.441
			c0.367-0.215,0.775-0.6,1.229-1.151c0.043-0.065,0.094-0.134,0.149-0.21c0.06-0.074,0.125-0.105,0.195-0.09
			c0.09,0.021,0.139,0.089,0.139,0.203C167.906,15.773,167.891,15.866,167.852,15.959z M164.902,9.606
			c0-0.424-0.23-0.755-0.69-0.991c-0.386-0.202-0.854-0.302-1.397-0.302c-1.02,0-1.858,0.435-2.521,1.302
			c-0.617,0.819-0.926,1.792-0.926,2.918c0,0.668,0.161,1.336,0.483,2.004c0.273,0.564,0.612,1.048,1.021,1.443
			c0.488-0.729,0.867-1.289,1.143-1.691c0.438-0.646,0.812-1.188,1.121-1.627c0.393-0.559,0.789-1.119,1.184-1.678
			C164.706,10.38,164.902,9.921,164.902,9.606z"/>
		<path fill="#1D1D1B" d="M173.3,8.463c0,0.116-0.048,0.174-0.149,0.174c-0.034,0-0.211-0.007-0.527-0.022
			c-0.314-0.015-0.611-0.021-0.895-0.021v7.127c0,0.512,0.146,0.944,0.432,1.305c0.081,0.103,0.285,0.291,0.626,0.568
			c0.058,0.045,0.087,0.094,0.087,0.152c0,0.035-0.029,0.072-0.087,0.111c-0.062,0.041-0.123,0.08-0.193,0.125
			c-0.093,0.072-0.168,0.129-0.217,0.172c-0.2,0.179-0.329,0.308-0.39,0.389c-0.059,0.059-0.112,0.086-0.17,0.086
			c-0.051,0-0.104-0.015-0.151-0.043c-0.31-0.174-0.58-0.468-0.817-0.883c-0.328-0.582-0.494-1.278-0.494-2.09V8.593
			c-0.229,0-0.447,0.006-0.658,0.015c-0.207,0.012-0.418,0.021-0.635,0.028c-0.103,0-0.15-0.058-0.15-0.174V8.119
			c0-0.115,0.064-0.172,0.193-0.172c0.037,0,0.193,0.008,0.475,0.022c0.281,0.013,0.538,0.021,0.775,0.021V7.171
			c0-0.415-0.092-0.649-0.271-0.699c-0.123-0.015-0.205-0.026-0.248-0.033c-0.103,0-0.149-0.05-0.149-0.151
			c0-0.043,0.022-0.086,0.063-0.129c0.157-0.136,0.317-0.282,0.483-0.437c0.164-0.154,0.35-0.331,0.551-0.532
			c0.229-0.236,0.406-0.435,0.531-0.594c0.125-0.157,0.25-0.31,0.371-0.461c0.021-0.037,0.051-0.054,0.086-0.054
			c0.061,0,0.086,0.054,0.086,0.161c-0.021,0.188-0.041,0.375-0.062,0.561c-0.043,0.452-0.062,0.919-0.062,1.399V7.99
			c0.235,0,0.47-0.004,0.699-0.011c0.229-0.006,0.469-0.018,0.721-0.032c0.104,0,0.149,0.051,0.149,0.151L173.3,8.463L173.3,8.463z"
			/>
		<path fill="#1D1D1B" d="M194.105,2.844c0,0.402-0.18,0.73-0.537,0.989c-0.361,0.259-0.781,0.388-1.271,0.388
			c-0.533,0-1.092-0.096-1.681-0.291c-1.285-0.423-2.167-0.635-2.646-0.635c-1.598,0-2.914,0.679-3.967,2.033
			c-0.988,1.278-1.482,2.795-1.482,4.554c0,2.123,0.617,3.948,1.852,5.478c1.275,1.578,2.85,2.365,4.717,2.365
			c0.193,0,0.436-0.015,0.727-0.043c0.291-0.027,0.646-0.104,1.062-0.227c0.416-0.12,0.718-0.256,0.905-0.407
			c-0.123-0.116-0.227-0.237-0.312-0.366c-0.06-0.095-0.132-0.231-0.222-0.412c-0.089-0.185-0.146-0.412-0.167-0.685
			c-0.021-0.271-0.031-0.622-0.031-1.056V9.713c-0.285,0.129-0.539,0.22-0.754,0.269c-0.216,0.05-0.475,0.076-0.775,0.076
			c-0.287,0-0.674-0.147-1.164-0.44c-0.487-0.297-0.875-0.444-1.159-0.444c-0.226,0-0.429,0.054-0.608,0.158
			c-0.186,0.104-0.275,0.259-0.275,0.468c0,0.445,0.192,0.645,0.584,0.603c0.121-0.022,0.217-0.048,0.285-0.082
			c0.065-0.033,0.113-0.069,0.144-0.112c0.022-0.038,0.049-0.054,0.075-0.054c0.039,0,0.056,0.025,0.056,0.074
			c0.035,0.092,0.053,0.199,0.053,0.312c0,0.06-0.007,0.131-0.021,0.221c-0.014,0.09-0.102,0.199-0.26,0.329
			c-0.155,0.128-0.332,0.193-0.526,0.193c-0.315,0-0.558-0.123-0.728-0.366c-0.168-0.245-0.252-0.528-0.252-0.85
			c0-0.073,0.004-0.126,0.01-0.162c0.051-0.49,0.264-0.883,0.637-1.185c0.373-0.302,0.822-0.453,1.347-0.453
			c0.488,0,0.962,0.088,1.419,0.258c0.999,0.373,1.783,0.561,2.348,0.561c0.269,0,0.545-0.048,0.844-0.141
			c0.314-0.112,0.63-0.231,0.945-0.354c0.103,0,0.129,0.042,0.086,0.128c-0.105,0.13-0.217,0.253-0.321,0.377
			c-0.315,0.408-0.476,0.836-0.476,1.28v4.566c0,0.574,0.114,1.062,0.346,1.464c0.078,0.138,0.252,0.352,0.518,0.647
			c0.035,0.041,0.055,0.078,0.055,0.116c0,0.037-0.025,0.075-0.076,0.118c-0.293,0.222-0.895,0.457-1.799,0.7
			c-1.074,0.296-2.055,0.438-2.938,0.438c-2.168,0-4.001-0.812-5.502-2.441c-1.472-1.603-2.207-3.516-2.207-5.739
			c0-2.117,0.64-3.894,1.917-5.329c1.334-1.502,3.051-2.252,5.146-2.252c0.705,0,1.485,0.141,2.348,0.42
			c0.859,0.28,1.379,0.42,1.552,0.42c0.617,0,0.925-0.224,0.925-0.667c0-0.188-0.057-0.327-0.166-0.42
			c-0.111-0.093-0.242-0.14-0.395-0.14c-0.059-0.015-0.112-0.013-0.17,0.005c-0.061,0.02-0.104,0.031-0.131,0.038
			c-0.043,0.023-0.08,0.028-0.107,0.023c-0.027-0.007-0.044-0.029-0.044-0.065c0-0.042,0.017-0.093,0.044-0.15
			c0.092-0.208,0.238-0.365,0.432-0.469c0.194-0.104,0.401-0.157,0.625-0.157c0.387,0,0.683,0.126,0.881,0.383
			C194.007,2.146,194.105,2.463,194.105,2.844z"/>
		<path fill="#1D1D1B" d="M205.648,17.811c0.051,0.08,0.076,0.138,0.076,0.172c0,0.072-0.057,0.107-0.16,0.107
			c-0.028,0-0.147-0.01-0.356-0.031c-0.209-0.021-0.403-0.031-0.592-0.031c-0.13,0-0.273,0.013-0.431,0.031
			c-0.158,0.021-0.254,0.031-0.281,0.031c-0.164,0-0.246-0.037-0.246-0.117c0-0.027,0.017-0.068,0.053-0.119
			c0.064-0.093,0.116-0.189,0.156-0.295c0.04-0.104,0.061-0.223,0.061-0.352l-0.062-1.034c-0.281,0.589-0.744,1.104-1.391,1.54
			c-0.718,0.479-1.471,0.723-2.252,0.723c-1.104,0-2.039-0.328-2.799-0.979c-0.804-0.688-1.207-1.583-1.207-2.682
			c0-1.104,0.438-2.031,1.312-2.778c0.842-0.716,1.847-1.075,3.017-1.075c0.565,0,1.111,0.112,1.631,0.333
			c0.521,0.223,0.917,0.491,1.19,0.81c0-0.316-0.186-0.788-0.549-1.413c-0.433-0.739-0.938-1.346-1.52-1.82
			c-0.732-0.603-1.486-0.905-2.264-0.905c-0.479,0-0.895,0.102-1.237,0.302c-0.396,0.231-0.592,0.544-0.592,0.946
			c0,0.231,0.06,0.421,0.178,0.571c0.117,0.151,0.28,0.227,0.49,0.227c0.146,0,0.271-0.047,0.376-0.14
			c0.107-0.092,0.162-0.205,0.162-0.333c0-0.094-0.014-0.187-0.038-0.275c-0.022-0.09-0.048-0.17-0.069-0.242
			c-0.021-0.049-0.017-0.082,0.012-0.096c0.015-0.008,0.061-0.012,0.141-0.012c0.199,0.022,0.383,0.115,0.55,0.28
			c0.165,0.166,0.248,0.351,0.248,0.56c0,0.338-0.137,0.619-0.403,0.845c-0.271,0.227-0.58,0.339-0.933,0.339
			c-0.417,0-0.759-0.14-1.034-0.42c-0.273-0.28-0.41-0.657-0.41-1.13c0-0.618,0.328-1.099,0.98-1.443
			c0.574-0.3,1.268-0.452,2.079-0.452c0.797,0,1.582,0.253,2.358,0.759c0.772,0.506,1.402,1.194,1.883,2.062
			c0.338,0.61,0.606,1.368,0.81,2.271c0.128,0.576,0.252,1.363,0.364,2.363c0.113,1.003,0.212,1.688,0.291,2.062
			c0.037,0.188,0.103,0.364,0.205,0.537C205.553,17.666,205.621,17.768,205.648,17.811z M203.818,14.365
			c0-0.812-0.299-1.459-0.898-1.943c-0.6-0.484-1.384-0.727-2.354-0.727c-0.791,0-1.479,0.258-2.065,0.776
			c-0.588,0.516-0.883,1.155-0.883,1.915c0,0.812,0.299,1.494,0.897,2.052c0.601,0.559,1.312,0.834,2.139,0.834
			c0.953,0,1.719-0.271,2.298-0.812C203.531,15.917,203.818,15.221,203.818,14.365z"/>
		<path fill="#1D1D1B" d="M210.861,17.752c0.086,0.084,0.13,0.154,0.13,0.211c0,0.086-0.08,0.127-0.237,0.127
			c-0.13,0-0.238-0.003-0.322-0.013c-0.447-0.039-0.74-0.062-0.885-0.062c-0.258,0-0.468,0.008-0.628,0.024
			c-0.162,0.017-0.347,0.032-0.556,0.049c-0.172,0-0.26-0.041-0.26-0.131c0-0.042,0.039-0.106,0.108-0.194
			c0.179-0.146,0.312-0.262,0.396-0.342c0.166-0.145,0.248-0.273,0.248-0.396V5.514c0-0.208-0.006-0.374-0.022-0.495
			c-0.015-0.124-0.101-0.174-0.256-0.152c-0.079,0.015-0.212,0.085-0.397,0.209c-0.188,0.126-0.312,0.201-0.379,0.222
			c-0.105,0.036-0.16-0.005-0.16-0.119c0-0.037,0.021-0.086,0.063-0.153c0.044-0.062,0.239-0.266,0.592-0.604
			c0.281-0.276,0.503-0.494,0.669-0.66c0.243-0.245,0.512-0.537,0.797-0.874c0.2-0.237,0.329-0.379,0.387-0.422
			c0.018-0.015,0.039-0.026,0.064-0.032c0.021-0.007,0.039-0.012,0.055-0.012c0.064,0,0.098,0.058,0.098,0.172
			c-0.037,0.23-0.066,0.516-0.092,0.856c-0.023,0.343-0.035,0.704-0.035,1.084v12.51c0,0.113,0.072,0.238,0.225,0.376
			C210.592,17.536,210.725,17.645,210.861,17.752z"/>
		<path fill="#1D1D1B" d="M216.893,17.752c0.084,0.084,0.129,0.154,0.129,0.211c0,0.086-0.08,0.127-0.236,0.127
			c-0.131,0-0.236-0.003-0.323-0.013c-0.442-0.039-0.737-0.062-0.882-0.062c-0.26,0-0.469,0.008-0.63,0.024
			c-0.162,0.017-0.349,0.032-0.558,0.049c-0.172,0-0.259-0.041-0.259-0.131c0-0.042,0.037-0.106,0.108-0.194
			c0.178-0.146,0.312-0.262,0.398-0.342c0.166-0.145,0.245-0.273,0.245-0.396V5.514c0-0.208-0.006-0.374-0.021-0.495
			c-0.018-0.124-0.104-0.174-0.262-0.152c-0.078,0.015-0.209,0.085-0.396,0.209c-0.188,0.126-0.312,0.201-0.375,0.222
			c-0.105,0.036-0.163-0.005-0.163-0.119c0-0.037,0.021-0.086,0.063-0.153c0.045-0.062,0.242-0.266,0.595-0.604
			c0.276-0.276,0.502-0.494,0.667-0.66c0.242-0.245,0.511-0.537,0.797-0.874c0.199-0.237,0.329-0.379,0.389-0.422
			c0.014-0.015,0.036-0.026,0.062-0.032c0.021-0.007,0.04-0.012,0.055-0.012c0.062,0,0.098,0.058,0.098,0.172
			c-0.035,0.23-0.065,0.516-0.09,0.856c-0.027,0.343-0.037,0.704-0.037,1.084v12.51c0,0.113,0.073,0.238,0.227,0.376
			C216.621,17.536,216.755,17.645,216.893,17.752z"/>
		<path fill="#1D1D1B" d="M229.314,15.809c-0.188,0.609-0.633,1.182-1.344,1.713c-0.832,0.623-1.74,0.938-2.726,0.938
			c-0.634,0-1.19-0.068-1.683-0.204c-0.56-0.157-1.09-0.428-1.592-0.81c-0.201,0.25-0.385,0.523-0.551,0.816
			c-0.208,0.367-0.312,0.635-0.312,0.799c0,0.199,0.057,0.34,0.162,0.42c0.071,0.049,0.19,0.076,0.355,0.076
			c0.049,0,0.102-0.009,0.148-0.021c0.045-0.018,0.088-0.027,0.131-0.043c0.027-0.016,0.055-0.016,0.076,0
			c0.049,0.025,0.062,0.086,0.031,0.173c-0.044,0.172-0.13,0.329-0.26,0.476c-0.171,0.187-0.372,0.278-0.604,0.278
			c-0.242,0-0.444-0.091-0.604-0.271c-0.156-0.18-0.234-0.412-0.234-0.699c0-0.229,0.078-0.51,0.234-0.84
			c0.043-0.092,0.352-0.604,0.928-1.528c-0.533-0.545-0.94-1.136-1.229-1.776c-0.313-0.711-0.474-1.476-0.474-2.294
			c0-1.507,0.488-2.81,1.469-3.908c0.98-1.099,2.199-1.648,3.656-1.648c0.582,0,1.178,0.14,1.787,0.419
			c0.338,0.167,0.676,0.328,1.016,0.486c0.062,0.027,0.154,0.048,0.275,0.063c0.125,0.016,0.246,0.022,0.369,0.022l0.321-0.022
			c0.08,0,0.116,0.033,0.116,0.097c0,0.05-0.023,0.09-0.073,0.119c-0.112,0.07-0.242,0.168-0.377,0.29
			c-0.187,0.158-0.351,0.32-0.483,0.485c-0.697,0.773-1.504,1.792-2.424,3.047c-0.919,1.256-1.781,2.516-2.595,3.779
			c0.423,0.303,0.856,0.533,1.292,0.701c0.516,0.19,1.057,0.289,1.615,0.289c0.774,0,1.412-0.147,1.916-0.44
			c0.367-0.218,0.774-0.599,1.229-1.153c0.042-0.063,0.092-0.133,0.148-0.21c0.06-0.075,0.123-0.106,0.195-0.091
			c0.09,0.021,0.139,0.091,0.139,0.204C229.371,15.625,229.354,15.716,229.314,15.809z M226.366,9.455
			c0-0.424-0.229-0.753-0.688-0.991c-0.387-0.199-0.854-0.302-1.398-0.302c-1.021,0-1.858,0.436-2.521,1.303
			c-0.616,0.819-0.926,1.793-0.926,2.919c0,0.668,0.162,1.335,0.481,2.003c0.274,0.567,0.615,1.049,1.024,1.442
			c0.488-0.726,0.868-1.287,1.142-1.69c0.438-0.646,0.812-1.188,1.119-1.627c0.396-0.559,0.791-1.119,1.188-1.678
			C226.172,10.229,226.366,9.772,226.366,9.455z"/>
		<path fill="#1D1D1B" d="M238.211,9.024c0,0.417-0.111,0.753-0.333,1.012c-0.224,0.26-0.522,0.389-0.896,0.389
			c-0.265,0-0.491-0.038-0.685-0.108c-0.19-0.071-0.312-0.172-0.372-0.302c-0.021-0.028-0.023-0.062-0.01-0.096
			c0.016-0.037,0.049-0.055,0.098-0.055c0.129,0,0.25-0.017,0.359-0.054s0.21-0.101,0.296-0.192
			c0.123-0.137,0.187-0.308,0.187-0.507c0-0.238-0.094-0.427-0.281-0.572c-0.217-0.165-0.521-0.247-0.926-0.247
			c-0.512,0-1.012,0.226-1.508,0.676c-0.438,0.402-0.775,0.887-1.015,1.453v6.603c0,0.129,0.08,0.264,0.237,0.398
			c0.136,0.117,0.271,0.23,0.408,0.342c0.069,0.07,0.108,0.137,0.108,0.194c0,0.09-0.08,0.131-0.237,0.131
			c-0.131,0-0.235-0.003-0.324-0.01c-0.442-0.037-0.736-0.054-0.883-0.054c-0.271,0-0.487,0.006-0.649,0.021
			c-0.161,0.015-0.349,0.026-0.556,0.041c-0.156,0-0.236-0.039-0.236-0.119c0-0.065,0.045-0.142,0.13-0.229
			c0.129-0.11,0.228-0.189,0.291-0.24c0.224-0.18,0.332-0.337,0.332-0.475v-6.366c0-0.495-0.133-0.903-0.396-1.229
			c-0.18-0.214-0.563-0.451-1.15-0.708c-0.03-0.007-0.045-0.029-0.045-0.064c0-0.045,0.015-0.079,0.045-0.108l0.494-0.474
			c0.093-0.093,0.178-0.183,0.248-0.269c0.021-0.021,0.068-0.083,0.14-0.184c0.043-0.049,0.091-0.074,0.14-0.074
			c0.028,0,0.062,0.01,0.099,0.032c0.401,0.28,0.698,0.521,0.895,0.722c0.431,0.436,0.681,0.887,0.742,1.346
			c0.269-0.597,0.662-1.094,1.187-1.498c0.607-0.468,1.285-0.699,2.022-0.699c0.642,0,1.14,0.154,1.501,0.457
			C238.029,8.213,238.211,8.586,238.211,9.024z"/>
		<path fill="#1D1D1B" d="M248.914,8.099c-0.174,0.149-0.305,0.264-0.398,0.344c-0.179,0.156-0.269,0.294-0.269,0.409v8.656
			c0,1.596-0.445,2.893-1.336,3.889c-0.847,0.953-1.901,1.434-3.165,1.434c-0.566,0-1.02-0.072-1.355-0.216
			c-0.445-0.188-0.67-0.488-0.67-0.905c0-0.311,0.166-0.559,0.496-0.749c0.33-0.188,0.624-0.271,0.883-0.239
			c0.108,0,0.162,0.037,0.162,0.116c0,0.03-0.018,0.065-0.049,0.113c-0.031,0.046-0.061,0.091-0.081,0.136
			c-0.044,0.085-0.063,0.167-0.063,0.247c0,0.06,0.012,0.117,0.031,0.185c0.051,0.191,0.168,0.346,0.356,0.457
			c0.187,0.109,0.397,0.168,0.633,0.168c0.88,0,1.569-0.395,2.08-1.176c0.468-0.717,0.699-1.633,0.699-2.744v-1.916
			c-0.238,0.493-0.601,0.941-1.087,1.346c-0.627,0.51-1.289,0.764-1.994,0.764c-1.312,0-2.325-0.434-3.035-1.303
			c-0.618-0.754-0.927-1.705-0.927-2.854c0-0.67,0.084-1.287,0.249-1.863c0.136-0.474,0.34-0.975,0.611-1.498
			c0.021-0.042,0.274-0.481,0.756-1.314c0.035-0.079-0.017-0.166-0.149-0.258c-0.088-0.058-0.253-0.135-0.496-0.236
			c-0.13-0.065-0.258-0.129-0.389-0.194c-0.06-0.022-0.087-0.058-0.087-0.107s0.062-0.091,0.188-0.12
			c0.126-0.028,0.256-0.057,0.385-0.085c0.221-0.048,0.467-0.124,0.73-0.225c0.266-0.103,0.506-0.212,0.729-0.329
			c0.219-0.12,0.438-0.239,0.66-0.361c0.045-0.021,0.081-0.033,0.118-0.033c0.087,0,0.129,0.04,0.129,0.118
			c0,0.022-0.015,0.061-0.042,0.114c-0.025,0.053-0.09,0.141-0.188,0.263c-0.057,0.081-0.127,0.178-0.213,0.291
			c-0.555,0.769-0.976,1.522-1.26,2.262c-0.338,0.877-0.506,1.772-0.506,2.691c0,1.147,0.264,2.095,0.79,2.832
			c0.528,0.737,1.233,1.108,2.117,1.108c0.617,0,1.192-0.18,1.733-0.532c0.537-0.354,0.931-0.804,1.173-1.343V8.853
			c0-0.135-0.079-0.276-0.238-0.421c-0.142-0.113-0.285-0.232-0.431-0.355c-0.049-0.049-0.074-0.103-0.074-0.162
			c0-0.079,0.061-0.117,0.184-0.117c0.036,0,0.194,0.01,0.473,0.033c0.281,0.021,0.541,0.031,0.777,0.031
			c0.277,0,0.5-0.004,0.661-0.016c0.161-0.011,0.351-0.027,0.565-0.048c0.145,0,0.215,0.043,0.215,0.128
			C249,7.983,248.973,8.04,248.914,8.099z"/>
	</g>
</g>
</svg>
