<?xml version="1.0" encoding="utf-8"?>
<!-- Generator: Adobe Illustrator 16.0.0, SVG Export Plug-In . SVG Version: 6.00 Build 0)  -->
<!DOCTYPE svg PUBLIC "-//W3C//DTD SVG 1.1//EN" "http://www.w3.org/Graphics/SVG/1.1/DTD/svg11.dtd">
<svg version="1.1" id="Layer_1" xmlns="http://www.w3.org/2000/svg" xmlns:xlink="http://www.w3.org/1999/xlink" x="0px" y="0px"
	 width="80px" height="30px" viewBox="0 0 80 30" enable-background="new 0 0 80 30" xml:space="preserve">
<g>
	<polygon fill="#FCB331" points="47.166,29.979 47.943,29.96 48.711,29.9 49.463,29.809 50.211,29.674 50.938,29.505 51.652,29.303 
		52.354,29.064 53.039,28.794 53.712,28.489 54.359,28.159 54.992,27.794 55.605,27.402 56.193,26.98 56.764,26.534 57.312,26.062 
		57.836,25.557 58.34,25.033 58.812,24.484 59.259,23.918 59.682,23.328 60.072,22.714 60.438,22.083 60.768,21.432 61.072,20.762 
		61.342,20.075 61.581,19.375 61.784,18.657 61.952,17.932 62.083,17.184 62.18,16.432 62.234,15.665 62.257,14.889 62.234,14.118 
		62.18,13.352 62.083,12.603 61.952,11.866 61.784,11.138 61.581,10.426 61.342,9.726 61.072,9.045 60.768,8.381 60.438,7.73 
		60.072,7.104 59.682,6.49 59.259,5.899 58.812,5.337 58.34,4.787 57.836,4.263 57.312,3.765 56.764,3.294 56.193,2.846 
		55.605,2.425 54.992,2.035 54.359,1.672 53.712,1.343 53.039,1.038 52.354,0.77 51.652,0.529 50.938,0.326 50.211,0.16 
		49.463,0.028 48.711,-0.069 47.943,-0.125 47.166,-0.147 46.393,-0.125 45.626,-0.069 44.875,0.028 44.133,0.16 43.406,0.326 
		42.689,0.529 41.994,0.77 41.309,1.038 40.643,1.343 39.996,1.672 39.367,2.035 38.758,2.425 38.168,2.846 37.6,3.294 
		37.055,3.765 36.531,4.263 36.035,4.787 35.562,5.337 35.114,5.899 34.697,6.49 34.307,7.104 33.945,7.73 33.611,8.381 
		33.311,9.045 33.042,9.726 32.808,10.426 32.604,11.138 32.437,11.866 32.305,12.603 32.208,13.352 32.152,14.118 32.132,14.889 
		32.152,15.665 32.208,16.432 32.305,17.184 32.437,17.932 32.604,18.657 32.808,19.375 33.042,20.075 33.311,20.762 33.611,21.432 
		33.945,22.083 34.307,22.714 34.697,23.328 35.114,23.918 35.562,24.484 36.035,25.033 36.531,25.557 37.055,26.062 37.6,26.534 
		38.168,26.98 38.758,27.402 39.367,27.794 39.996,28.159 40.643,28.489 41.309,28.794 41.994,29.064 42.689,29.303 43.406,29.505 
		44.133,29.674 44.875,29.809 45.626,29.9 46.393,29.96 	"/>
	<polygon fill="#ED1C2E" points="27.016,29.979 27.789,29.96 28.555,29.9 29.307,29.809 30.049,29.674 30.776,29.505 31.491,29.303 
		32.188,29.064 32.875,28.794 33.539,28.489 34.186,28.159 34.814,27.794 35.424,27.402 36.014,26.98 36.583,26.534 37.127,26.062 
		37.65,25.557 38.148,25.033 38.621,24.484 39.068,23.918 39.484,23.328 39.875,22.714 40.236,22.083 40.57,21.432 40.871,20.762 
		41.141,20.075 41.374,19.375 41.578,18.657 41.745,17.932 41.876,17.184 41.973,16.432 42.029,15.665 42.049,14.889 42.029,14.118 
		41.973,13.352 41.876,12.603 41.745,11.866 41.578,11.138 41.374,10.426 41.141,9.726 40.871,9.045 40.57,8.381 40.236,7.73 
		39.875,7.104 39.484,6.49 39.068,5.899 38.621,5.337 38.148,4.787 37.65,4.263 37.127,3.765 36.583,3.294 36.014,2.846 
		35.424,2.425 34.814,2.035 34.186,1.672 33.539,1.343 32.875,1.038 32.188,0.77 31.491,0.529 30.776,0.326 30.049,0.16 
		29.307,0.028 28.555,-0.069 27.789,-0.125 27.016,-0.147 26.238,-0.125 25.471,-0.069 24.719,0.028 23.972,0.16 23.245,0.326 
		22.529,0.529 21.828,0.77 21.143,1.038 20.471,1.343 19.822,1.672 19.192,2.035 18.576,2.425 17.987,2.846 17.419,3.294 
		16.869,3.765 16.346,4.263 15.843,4.787 15.37,5.337 14.924,5.899 14.502,6.49 14.109,7.104 13.744,7.73 13.414,8.381 
		13.109,9.045 12.84,9.726 12.601,10.426 12.397,11.138 12.23,11.866 12.099,12.603 12.001,13.352 11.946,14.118 11.925,14.889 
		11.946,15.665 12.001,16.432 12.099,17.184 12.23,17.932 12.397,18.657 12.601,19.375 12.84,20.075 13.109,20.762 13.414,21.432 
		13.744,22.083 14.109,22.714 14.502,23.328 14.924,23.918 15.37,24.484 15.843,25.033 16.346,25.557 16.869,26.062 17.419,26.534 
		17.987,26.98 18.576,27.402 19.192,27.794 19.822,28.159 20.471,28.489 21.143,28.794 21.828,29.064 22.529,29.303 23.245,29.505 
		23.972,29.674 24.719,29.809 25.471,29.9 26.238,29.96 	"/>
	<polygon fill="#FCB331" points="35.328,5.631 43.33,5.631 43.33,4.812 36.02,4.812 	"/>
	<polygon fill="#FCB331" points="34.129,7.45 43.33,7.45 43.33,6.634 34.611,6.634 	"/>
	<polygon fill="#FCB331" points="33.234,9.264 43.33,9.264 43.33,8.447 33.59,8.447 	"/>
	<polygon fill="#FCB331" points="32.619,11.083 43.33,11.083 43.33,10.266 32.875,10.266 	"/>
	<polygon fill="#FCB331" points="32.975,19.873 43.355,19.873 43.355,19.053 32.723,19.053 	"/>
	<polygon fill="#FCB331" points="33.742,21.691 43.355,21.691 43.355,20.872 33.361,20.872 	"/>
	<polygon fill="#FCB331" points="34.819,23.505 43.355,23.505 43.355,22.688 34.307,22.688 	"/>
	<polygon fill="#FCB331" points="36.303,25.324 43.355,25.324 43.355,24.503 35.588,24.503 	"/>
	<polygon fill="#FCB331" points="32.26,12.896 43.33,12.896 43.33,12.079 32.416,12.079 	"/>
	<polygon fill="#FCB331" points="39.007,18.061 43.229,18.061 43.229,17.24 39.159,17.24 	"/>
	<polygon fill="#FCB331" points="39.342,16.246 43.229,16.246 43.229,15.421 39.494,15.421 	"/>
	<polygon fill="#FCB331" points="31.98,15.421 33.078,15.421 33.078,16.246 32.029,16.246 	"/>
	<polygon fill="#FFFFFF" points="29.933,14.429 29.861,14.426 29.79,14.417 29.723,14.405 29.657,14.396 29.596,14.386 
		29.531,14.375 29.464,14.366 29.393,14.355 29.322,14.344 29.24,14.338 29.149,14.335 29.053,14.331 28.945,14.331 28.83,14.335 
		28.697,14.344 28.55,14.355 28.449,14.369 28.352,14.386 28.266,14.417 28.19,14.447 28.118,14.483 28.053,14.521 28.001,14.574 
		27.956,14.618 27.925,14.676 27.899,14.732 27.889,14.793 27.889,14.854 27.904,14.919 27.925,14.983 27.965,15.05 28.017,15.117 
		28.118,15.214 28.239,15.291 28.382,15.354 28.534,15.412 28.697,15.463 28.865,15.518 29.033,15.579 29.195,15.646 29.347,15.73 
		29.49,15.838 29.617,15.966 29.723,16.124 29.805,16.314 29.856,16.545 29.876,16.818 29.856,17.141 29.82,17.378 29.759,17.586 
		29.678,17.779 29.577,17.945 29.459,18.096 29.328,18.221 29.186,18.334 29.027,18.432 28.865,18.505 28.697,18.57 28.525,18.622 
		28.346,18.663 28.175,18.693 28.007,18.711 27.838,18.718 27.682,18.725 27.463,18.725 27.259,18.718 27.083,18.718 26.914,18.714 
		26.761,18.711 26.624,18.699 26.502,18.688 26.386,18.675 26.279,18.663 26.183,18.645 26.085,18.627 26,18.602 25.913,18.583 
		25.832,18.553 25.751,18.521 25.665,18.492 25.893,17.368 25.938,17.378 25.994,17.393 26.064,17.414 26.152,17.434 26.244,17.454 
		26.344,17.477 26.457,17.5 26.579,17.521 26.706,17.542 26.837,17.561 26.975,17.575 27.117,17.592 27.265,17.598 27.412,17.604 
		27.56,17.604 27.707,17.598 27.854,17.566 27.971,17.523 28.062,17.471 28.133,17.398 28.184,17.329 28.224,17.245 28.251,17.165 
		28.27,17.088 28.281,16.939 28.236,16.814 28.148,16.711 28.021,16.626 27.869,16.551 27.691,16.475 27.494,16.4 27.295,16.32 
		27.092,16.23 26.898,16.124 26.721,15.991 26.558,15.834 26.432,15.641 26.34,15.412 26.294,15.135 26.299,14.812 26.325,14.615 
		26.36,14.426 26.411,14.252 26.472,14.089 26.553,13.937 26.645,13.808 26.751,13.68 26.879,13.568 27.026,13.473 27.189,13.388 
		27.372,13.314 27.575,13.259 27.804,13.211 28.053,13.175 28.327,13.156 28.625,13.15 28.814,13.15 28.987,13.156 29.145,13.162 
		29.286,13.168 29.414,13.175 29.531,13.187 29.632,13.198 29.723,13.206 29.81,13.217 29.881,13.23 29.948,13.242 30.009,13.253 
		30.059,13.261 30.104,13.267 30.15,13.278 30.191,13.284 	"/>
	<polyline fill="none" stroke="#FFFFFF" stroke-width="0.216" stroke-miterlimit="2.6131" points="29.933,14.429 29.933,14.429 
		29.861,14.426 29.79,14.417 29.723,14.405 29.657,14.396 29.596,14.386 29.531,14.375 29.464,14.366 29.393,14.355 29.322,14.344 
		29.24,14.338 29.149,14.335 29.053,14.331 28.945,14.331 28.83,14.335 28.697,14.344 28.55,14.355 28.55,14.355 28.449,14.369 
		28.352,14.386 28.266,14.417 28.19,14.447 28.118,14.483 28.053,14.521 28.001,14.574 27.956,14.618 27.925,14.676 27.899,14.732 
		27.889,14.793 27.889,14.854 27.904,14.919 27.925,14.983 27.965,15.05 28.017,15.117 28.017,15.117 28.118,15.214 28.239,15.291 
		28.382,15.354 28.534,15.412 28.697,15.463 28.865,15.518 29.033,15.579 29.195,15.646 29.347,15.73 29.49,15.838 29.617,15.966 
		29.723,16.124 29.805,16.314 29.856,16.545 29.876,16.818 29.856,17.141 29.856,17.141 29.82,17.378 29.759,17.586 29.678,17.779 
		29.577,17.945 29.459,18.096 29.328,18.221 29.186,18.334 29.027,18.432 28.865,18.505 28.697,18.57 28.525,18.622 28.346,18.663 
		28.175,18.693 28.007,18.711 27.838,18.718 27.682,18.725 27.682,18.725 27.463,18.725 27.259,18.718 27.083,18.718 26.914,18.714 
		26.761,18.711 26.624,18.699 26.502,18.688 26.386,18.675 26.279,18.663 26.183,18.645 26.085,18.627 26,18.602 25.913,18.583 
		25.832,18.553 25.751,18.521 25.665,18.492 25.893,17.368 25.893,17.368 25.938,17.378 25.994,17.393 26.064,17.414 26.152,17.434 
		26.244,17.454 26.344,17.477 26.457,17.5 26.579,17.521 26.706,17.542 26.837,17.561 26.975,17.575 27.117,17.592 27.265,17.598 
		27.412,17.604 27.56,17.604 27.707,17.598 27.707,17.598 27.854,17.566 27.971,17.523 28.062,17.471 28.133,17.398 28.184,17.329 
		28.224,17.245 28.251,17.165 28.27,17.088 28.27,17.088 28.281,16.939 28.236,16.814 28.148,16.711 28.021,16.626 27.869,16.551 
		27.691,16.475 27.494,16.4 27.295,16.32 27.092,16.23 26.898,16.124 26.721,15.991 26.558,15.834 26.432,15.641 26.34,15.412 
		26.294,15.135 26.299,14.812 26.299,14.812 26.325,14.615 26.36,14.426 26.411,14.252 26.472,14.089 26.553,13.937 26.645,13.808 
		26.751,13.68 26.879,13.568 27.026,13.473 27.189,13.388 27.372,13.314 27.575,13.259 27.804,13.211 28.053,13.175 28.327,13.156 
		28.625,13.15 28.625,13.15 28.814,13.15 28.987,13.156 29.145,13.162 29.286,13.168 29.414,13.175 29.531,13.187 29.632,13.198 
		29.723,13.206 29.81,13.217 29.881,13.23 29.948,13.242 30.009,13.253 30.059,13.261 30.104,13.267 30.15,13.278 30.191,13.284 
		29.933,14.429 	"/>
	<polygon fill="#FFFFFF" points="31.135,12.027 32.543,12.027 32.336,13.259 33.185,13.259 33,14.405 32.105,14.38 31.619,17.215 
		31.613,17.316 31.639,17.402 31.69,17.471 31.756,17.523 31.848,17.561 31.949,17.592 32.061,17.611 32.184,17.622 32.295,17.616 
		32.396,17.605 32.488,17.592 32.568,17.572 32.635,17.551 32.681,17.536 32.711,17.523 32.723,17.521 32.543,18.467 32.508,18.492 
		32.473,18.511 32.437,18.531 32.4,18.553 32.366,18.564 32.324,18.583 32.279,18.596 32.233,18.613 32.184,18.627 32.132,18.639 
		32.071,18.648 32.01,18.657 31.944,18.669 31.868,18.682 31.786,18.688 31.7,18.699 31.314,18.699 31.111,18.684 30.934,18.663 
		30.77,18.633 30.633,18.596 30.517,18.553 30.42,18.5 30.333,18.439 30.268,18.376 30.216,18.305 30.181,18.218 30.155,18.129 
		30.14,18.035 30.135,17.927 30.135,17.816 30.15,17.697 30.166,17.572 	"/>
	<polyline fill="none" stroke="#FFFFFF" stroke-width="0.216" stroke-miterlimit="2.6131" points="31.135,12.027 32.543,12.027 
		32.336,13.259 33.185,13.259 33,14.405 32.105,14.38 31.619,17.215 31.619,17.215 31.613,17.316 31.639,17.402 31.69,17.471 
		31.756,17.523 31.848,17.561 31.949,17.592 32.061,17.611 32.184,17.622 32.184,17.622 32.295,17.616 32.396,17.605 32.488,17.592 
		32.568,17.572 32.635,17.551 32.681,17.536 32.711,17.523 32.723,17.521 32.543,18.467 32.543,18.467 32.508,18.492 32.473,18.511 
		32.437,18.531 32.4,18.553 32.366,18.564 32.324,18.583 32.279,18.596 32.233,18.613 32.184,18.627 32.132,18.639 32.071,18.648 
		32.01,18.657 31.944,18.669 31.868,18.682 31.786,18.688 31.7,18.699 31.314,18.699 31.314,18.699 31.111,18.684 30.934,18.663 
		30.77,18.633 30.633,18.596 30.517,18.553 30.42,18.5 30.333,18.439 30.268,18.376 30.216,18.305 30.181,18.218 30.155,18.129 
		30.14,18.035 30.135,17.927 30.135,17.816 30.15,17.697 30.166,17.572 31.135,12.027 	"/>
	<polygon fill="#FFFFFF" points="34.307,16.32 34.291,16.407 34.287,16.498 34.296,16.596 34.316,16.691 34.353,16.788 
		34.393,16.88 34.448,16.977 34.51,17.062 34.58,17.148 34.658,17.227 34.738,17.302 34.83,17.361 34.922,17.42 35.023,17.464 
		35.125,17.5 35.227,17.521 35.357,17.542 35.484,17.555 35.618,17.572 35.75,17.581 35.881,17.586 36.02,17.586 36.15,17.581 
		36.288,17.572 36.425,17.551 36.562,17.523 36.705,17.494 36.842,17.451 36.984,17.393 37.131,17.332 37.273,17.251 37.422,17.165 
		37.218,18.413 37.137,18.455 37.055,18.497 36.975,18.527 36.898,18.559 36.822,18.583 36.741,18.607 36.659,18.627 36.572,18.645 
		36.481,18.657 36.379,18.669 36.273,18.682 36.156,18.688 36.023,18.693 35.887,18.693 35.729,18.699 35.562,18.699 35.312,18.693 
		35.059,18.669 34.805,18.633 34.551,18.57 34.302,18.497 34.062,18.4 33.834,18.271 33.62,18.126 33.422,17.951 33.249,17.743 
		33.103,17.512 32.98,17.24 32.895,16.939 32.838,16.602 32.822,16.225 32.848,15.809 32.869,15.646 32.898,15.457 32.939,15.26 
		32.996,15.044 33.072,14.828 33.164,14.609 33.279,14.386 33.422,14.173 33.585,13.967 33.784,13.777 34.007,13.602 34.262,13.449 
		34.557,13.322 34.886,13.23 35.252,13.169 35.664,13.15 35.861,13.156 36.068,13.175 36.278,13.211 36.486,13.261 36.689,13.339 
		36.887,13.431 37.07,13.552 37.238,13.693 37.391,13.868 37.518,14.07 37.619,14.305 37.69,14.574 37.732,14.879 37.736,15.224 
		37.701,15.609 37.624,16.036 37.6,16.346 33.895,16.346 34.129,15.346 36.354,15.346 36.364,15.22 36.359,15.098 36.349,14.983 
		36.328,14.885 36.294,14.788 36.258,14.702 36.206,14.624 36.156,14.551 36.096,14.49 36.029,14.441 35.953,14.396 35.877,14.355 
		35.795,14.325 35.714,14.305 35.627,14.289 35.536,14.277 35.439,14.283 35.348,14.3 35.262,14.319 35.176,14.35 35.089,14.392 
		35.013,14.435 34.937,14.49 34.871,14.551 34.805,14.624 34.743,14.702 34.688,14.782 34.643,14.867 34.596,14.958 34.561,15.062 
		34.53,15.163 34.51,15.269 	"/>
	<polyline fill="none" stroke="#FFFFFF" stroke-width="0.216" stroke-miterlimit="2.6131" points="34.307,16.32 34.307,16.32 
		34.291,16.407 34.287,16.498 34.296,16.596 34.316,16.691 34.353,16.788 34.393,16.88 34.448,16.977 34.51,17.062 34.58,17.148 
		34.658,17.227 34.738,17.302 34.83,17.361 34.922,17.42 35.023,17.464 35.125,17.5 35.227,17.521 35.227,17.521 35.357,17.542 
		35.484,17.555 35.618,17.572 35.75,17.581 35.881,17.586 36.02,17.586 36.15,17.581 36.288,17.572 36.425,17.551 36.562,17.523 
		36.705,17.494 36.842,17.451 36.984,17.393 37.131,17.332 37.273,17.251 37.422,17.165 37.218,18.413 37.218,18.413 37.137,18.455 
		37.055,18.497 36.975,18.527 36.898,18.559 36.822,18.583 36.741,18.607 36.659,18.627 36.572,18.645 36.481,18.657 36.379,18.669 
		36.273,18.682 36.156,18.688 36.023,18.693 35.887,18.693 35.729,18.699 35.562,18.699 35.562,18.699 35.312,18.693 35.059,18.669 
		34.805,18.633 34.551,18.57 34.302,18.497 34.062,18.4 33.834,18.271 33.62,18.126 33.422,17.951 33.249,17.743 33.103,17.512 
		32.98,17.24 32.895,16.939 32.838,16.602 32.822,16.225 32.848,15.809 32.848,15.809 32.869,15.646 32.898,15.457 32.939,15.26 
		32.996,15.044 33.072,14.828 33.164,14.609 33.279,14.386 33.422,14.173 33.585,13.967 33.784,13.777 34.007,13.602 34.262,13.449 
		34.557,13.322 34.886,13.23 35.252,13.169 35.664,13.15 35.664,13.15 35.861,13.156 36.068,13.175 36.278,13.211 36.486,13.261 
		36.689,13.339 36.887,13.431 37.07,13.552 37.238,13.693 37.391,13.868 37.518,14.07 37.619,14.305 37.69,14.574 37.732,14.879 
		37.736,15.224 37.701,15.609 37.624,16.036 37.6,16.346 33.895,16.346 34.129,15.346 36.354,15.346 36.354,15.346 36.364,15.22 
		36.359,15.098 36.349,14.983 36.328,14.885 36.294,14.788 36.258,14.702 36.206,14.624 36.156,14.551 36.096,14.49 36.029,14.441 
		35.953,14.396 35.877,14.355 35.795,14.325 35.714,14.305 35.627,14.289 35.536,14.277 35.536,14.277 35.439,14.283 35.348,14.3 
		35.262,14.319 35.176,14.35 35.089,14.392 35.013,14.435 34.937,14.49 34.871,14.551 34.805,14.624 34.743,14.702 34.688,14.782 
		34.643,14.867 34.596,14.958 34.561,15.062 34.53,15.163 34.51,15.269 34.307,16.32 	"/>
	<polygon fill="#FFFFFF" points="46.424,13.564 46.357,13.527 46.293,13.497 46.223,13.461 46.145,13.425 46.07,13.394 
		45.982,13.364 45.896,13.333 45.805,13.303 45.709,13.278 45.611,13.259 45.505,13.236 45.398,13.223 45.281,13.211 45.164,13.2 
		45.043,13.2 44.915,13.2 44.789,13.2 44.656,13.211 44.52,13.229 44.377,13.253 44.234,13.292 44.093,13.351 43.95,13.419 
		43.807,13.51 43.67,13.625 43.539,13.754 43.412,13.917 43.289,14.106 43.178,14.331 43.07,14.582 42.975,14.867 42.895,15.193 
		42.863,15.376 42.842,15.555 42.832,15.73 42.838,15.904 42.854,16.078 42.889,16.24 42.934,16.393 42.99,16.545 43.066,16.682 
		43.157,16.814 43.264,16.932 43.385,17.037 43.523,17.129 43.682,17.204 43.854,17.271 44.047,17.316 44.111,17.332 44.188,17.348 
		44.279,17.359 44.383,17.368 44.494,17.378 44.609,17.378 44.738,17.378 44.865,17.368 44.997,17.354 45.128,17.329 45.256,17.293 
		45.383,17.251 45.51,17.195 45.626,17.129 45.732,17.049 45.836,16.958 45.605,18.314 45.575,18.34 45.545,18.37 45.505,18.406 
		45.459,18.438 45.404,18.475 45.332,18.511 45.252,18.547 45.158,18.577 45.043,18.613 44.91,18.639 44.757,18.657 44.58,18.682 
		44.383,18.688 44.154,18.693 43.895,18.688 43.609,18.675 43.376,18.648 43.143,18.596 42.909,18.521 42.676,18.419 42.451,18.298 
		42.238,18.146 42.034,17.969 41.848,17.764 41.678,17.536 41.537,17.281 41.415,16.997 41.323,16.688 41.262,16.346 41.242,15.986 
		41.252,15.591 41.309,15.169 41.35,14.958 41.395,14.757 41.445,14.557 41.496,14.369 41.553,14.191 41.617,14.015 41.684,13.845 
		41.754,13.69 41.83,13.533 41.908,13.384 41.994,13.242 42.086,13.108 42.178,12.982 42.277,12.861 42.38,12.749 42.486,12.642 
		42.604,12.542 42.721,12.444 42.842,12.359 42.971,12.276 43.107,12.201 43.244,12.134 43.385,12.073 43.533,12.019 43.691,11.966 
		43.848,11.927 44.012,11.891 44.184,11.86 44.355,11.835 44.54,11.814 44.723,11.805 44.915,11.799 45.078,11.805 45.236,11.814 
		45.389,11.83 45.541,11.85 45.684,11.872 45.82,11.902 45.952,11.927 46.074,11.958 46.191,11.988 46.293,12.019 46.389,12.049 
		46.471,12.079 46.541,12.104 46.602,12.124 46.648,12.146 46.68,12.155 	"/>
	<polyline fill="none" stroke="#FFFFFF" stroke-width="0.216" stroke-miterlimit="2.6131" points="46.424,13.564 46.424,13.564 
		46.357,13.527 46.293,13.497 46.223,13.461 46.145,13.425 46.07,13.394 45.982,13.364 45.896,13.333 45.805,13.303 45.709,13.278 
		45.611,13.259 45.505,13.236 45.398,13.223 45.281,13.211 45.164,13.2 45.043,13.2 44.915,13.2 44.915,13.2 44.789,13.2 
		44.656,13.211 44.52,13.229 44.377,13.253 44.234,13.292 44.093,13.351 43.95,13.419 43.807,13.51 43.67,13.625 43.539,13.754 
		43.412,13.917 43.289,14.106 43.178,14.331 43.07,14.582 42.975,14.867 42.895,15.193 42.895,15.193 42.863,15.376 42.842,15.555 
		42.832,15.73 42.838,15.904 42.854,16.078 42.889,16.24 42.934,16.393 42.99,16.545 43.066,16.682 43.157,16.814 43.264,16.932 
		43.385,17.037 43.523,17.129 43.682,17.204 43.854,17.271 44.047,17.316 44.047,17.316 44.111,17.332 44.188,17.348 44.279,17.359 
		44.383,17.368 44.494,17.378 44.609,17.378 44.738,17.378 44.865,17.368 44.997,17.354 45.128,17.329 45.256,17.293 45.383,17.251 
		45.51,17.195 45.626,17.129 45.732,17.049 45.836,16.958 45.605,18.314 45.605,18.314 45.575,18.34 45.545,18.37 45.505,18.406 
		45.459,18.438 45.404,18.475 45.332,18.511 45.252,18.547 45.158,18.577 45.043,18.613 44.91,18.639 44.757,18.657 44.58,18.682 
		44.383,18.688 44.154,18.693 43.895,18.688 43.609,18.675 43.609,18.675 43.376,18.648 43.143,18.596 42.909,18.521 42.676,18.419 
		42.451,18.298 42.238,18.146 42.034,17.969 41.848,17.764 41.678,17.536 41.537,17.281 41.415,16.997 41.323,16.688 41.262,16.346 
		41.242,15.986 41.252,15.591 41.309,15.169 41.309,15.169 41.35,14.958 41.395,14.757 41.445,14.557 41.496,14.369 41.553,14.191 
		41.617,14.015 41.684,13.845 41.754,13.69 41.83,13.533 41.908,13.384 41.994,13.242 42.086,13.108 42.178,12.982 42.277,12.861 
		42.38,12.749 42.486,12.642 42.604,12.542 42.721,12.444 42.842,12.359 42.971,12.276 43.107,12.201 43.244,12.134 43.385,12.073 
		43.533,12.019 43.691,11.966 43.848,11.927 44.012,11.891 44.184,11.86 44.355,11.835 44.54,11.814 44.723,11.805 44.915,11.799 
		44.915,11.799 45.078,11.805 45.236,11.814 45.389,11.83 45.541,11.85 45.684,11.872 45.82,11.902 45.952,11.927 46.074,11.958 
		46.191,11.988 46.293,12.019 46.389,12.049 46.471,12.079 46.541,12.104 46.602,12.124 46.648,12.146 46.68,12.155 46.424,13.564 	
		"/>
	<polygon fill="#FFFFFF" points="58.934,18.699 57.525,18.699 57.628,18.134 57.628,18.084 57.547,18.188 57.459,18.277 
		57.374,18.357 57.282,18.432 57.191,18.497 57.1,18.553 57.009,18.596 56.911,18.645 56.814,18.682 56.717,18.705 56.623,18.729 
		56.52,18.747 56.419,18.76 56.32,18.771 56.223,18.777 56.118,18.777 55.855,18.754 55.611,18.699 55.389,18.613 55.184,18.497 
		55.001,18.35 54.838,18.176 54.695,17.986 54.574,17.773 54.473,17.545 54.391,17.307 54.335,17.059 54.295,16.8 54.279,16.54 
		54.284,16.275 54.311,16.018 54.355,15.756 54.434,15.457 54.523,15.172 54.631,14.915 54.757,14.67 54.889,14.441 55.041,14.239 
		55.199,14.057 55.367,13.887 55.546,13.741 55.732,13.613 55.926,13.503 56.118,13.415 56.32,13.345 56.525,13.297 56.729,13.267 
		56.938,13.259 57.084,13.261 57.227,13.278 57.359,13.303 57.48,13.339 57.598,13.381 57.698,13.425 57.8,13.48 57.893,13.536 
		57.973,13.597 58.05,13.663 58.116,13.729 58.177,13.796 58.227,13.862 58.273,13.929 58.312,13.99 58.344,14.051 58.344,14.051 
		58.7,12.055 60.082,12.055 	"/>
	<polyline fill="none" stroke="#FFFFFF" stroke-width="0.216" stroke-miterlimit="2.6131" points="58.934,18.699 57.525,18.699 
		57.628,18.134 57.628,18.084 57.628,18.084 57.547,18.188 57.459,18.277 57.374,18.357 57.282,18.432 57.191,18.497 57.1,18.553 
		57.009,18.596 56.911,18.645 56.814,18.682 56.717,18.705 56.623,18.729 56.52,18.747 56.419,18.76 56.32,18.771 56.223,18.777 
		56.118,18.777 56.118,18.777 55.855,18.754 55.611,18.699 55.389,18.613 55.184,18.497 55.001,18.35 54.838,18.176 54.695,17.986 
		54.574,17.773 54.473,17.545 54.391,17.307 54.335,17.059 54.295,16.8 54.279,16.54 54.284,16.275 54.311,16.018 54.355,15.756 
		54.355,15.756 54.434,15.457 54.523,15.172 54.631,14.915 54.757,14.67 54.889,14.441 55.041,14.239 55.199,14.057 55.367,13.887 
		55.546,13.741 55.732,13.613 55.926,13.503 56.118,13.415 56.32,13.345 56.525,13.297 56.729,13.267 56.938,13.259 56.938,13.259 
		57.084,13.261 57.227,13.278 57.359,13.303 57.48,13.339 57.598,13.381 57.698,13.425 57.8,13.48 57.893,13.536 57.973,13.597 
		58.05,13.663 58.116,13.729 58.177,13.796 58.227,13.862 58.273,13.929 58.312,13.99 58.344,14.051 58.344,14.051 58.7,12.055 
		60.082,12.055 58.934,18.699 	"/>
	<polygon fill="#FCB331" points="56.632,17.471 56.775,17.459 56.904,17.43 57.027,17.393 57.145,17.336 57.252,17.275 
		57.354,17.201 57.451,17.113 57.536,17.021 57.611,16.922 57.686,16.809 57.749,16.691 57.807,16.57 57.855,16.443 57.896,16.311 
		57.934,16.174 57.958,16.036 57.982,15.895 57.999,15.747 57.999,15.609 57.994,15.467 57.979,15.335 57.958,15.208 57.922,15.086 
		57.881,14.97 57.831,14.867 57.77,14.77 57.703,14.69 57.628,14.618 57.542,14.557 57.451,14.518 57.354,14.49 57.246,14.483 
		57.109,14.49 56.982,14.514 56.866,14.551 56.748,14.605 56.646,14.67 56.546,14.751 56.459,14.837 56.373,14.934 56.297,15.044 
		56.225,15.163 56.16,15.285 56.104,15.415 56.053,15.555 56.012,15.691 55.973,15.838 55.941,15.986 55.917,16.21 55.926,16.453 
		55.962,16.703 56.027,16.939 56.13,17.148 56.262,17.316 56.43,17.43 	"/>
	<polygon fill="#FFFFFF" points="25.431,17.572 25.228,18.699 23.946,18.699 23.983,18.492 24.008,18.305 24.028,18.16 
		24.048,18.084 23.977,18.164 23.896,18.248 23.8,18.322 23.692,18.395 23.57,18.467 23.444,18.527 23.312,18.589 23.174,18.639 
		23.027,18.684 22.879,18.718 22.733,18.748 22.581,18.771 22.432,18.777 22.286,18.784 22.143,18.771 22.006,18.748 21.828,18.705 
		21.665,18.654 21.523,18.589 21.396,18.511 21.285,18.432 21.183,18.34 21.102,18.242 21.03,18.141 20.969,18.035 20.918,17.921 
		20.878,17.811 20.848,17.697 20.827,17.581 20.811,17.464 20.802,17.354 20.802,17.24 20.817,17.043 20.848,16.854 20.898,16.678 
		20.963,16.504 21.045,16.34 21.137,16.193 21.243,16.052 21.365,15.926 21.493,15.809 21.635,15.701 21.782,15.604 21.934,15.523 
		22.097,15.452 22.265,15.396 22.438,15.352 22.615,15.321 22.626,15.321 22.651,15.315 22.688,15.311 22.742,15.305 22.803,15.293 
		22.874,15.291 22.951,15.28 23.038,15.269 23.123,15.26 23.211,15.25 23.302,15.244 23.383,15.232 23.464,15.229 23.54,15.224 
		23.611,15.22 23.667,15.22 23.785,15.22 23.907,15.224 24.018,15.229 24.13,15.229 24.221,15.232 24.293,15.238 24.343,15.244 
		24.358,15.244 24.369,15.208 24.399,15.117 24.424,15.011 24.435,14.915 24.415,14.8 24.369,14.702 24.308,14.609 24.226,14.532 
		24.13,14.466 24.023,14.422 23.901,14.392 23.768,14.38 23.627,14.375 23.475,14.369 23.317,14.369 23.153,14.375 22.986,14.386 
		22.824,14.399 22.661,14.417 22.505,14.435 22.351,14.457 22.204,14.483 22.073,14.508 21.951,14.532 21.838,14.562 21.747,14.593 
		21.675,14.629 21.62,14.66 21.981,13.436 22.092,13.388 22.204,13.351 22.326,13.314 22.447,13.29 22.569,13.261 22.703,13.242 
		22.834,13.223 22.971,13.211 23.114,13.2 23.26,13.198 23.414,13.193 23.57,13.193 23.733,13.193 23.901,13.193 24.079,13.198 
		24.257,13.2 24.399,13.211 24.552,13.236 24.708,13.272 24.872,13.32 25.029,13.381 25.182,13.449 25.334,13.536 25.477,13.632 
		25.602,13.747 25.714,13.868 25.817,14.003 25.893,14.155 25.943,14.319 25.973,14.49 25.973,14.685 25.943,14.889 	"/>
	<polyline fill="none" stroke="#FFFFFF" stroke-width="0.216" stroke-miterlimit="2.6131" points="25.431,17.572 25.228,18.699 
		23.946,18.699 23.946,18.699 23.983,18.492 24.008,18.305 24.028,18.16 24.048,18.084 24.048,18.084 23.977,18.164 23.896,18.248 
		23.8,18.322 23.692,18.395 23.57,18.467 23.444,18.527 23.312,18.589 23.174,18.639 23.027,18.684 22.879,18.718 22.733,18.748 
		22.581,18.771 22.432,18.777 22.286,18.784 22.143,18.771 22.006,18.748 22.006,18.748 21.828,18.705 21.665,18.654 21.523,18.589 
		21.396,18.511 21.285,18.432 21.183,18.34 21.102,18.242 21.03,18.141 20.969,18.035 20.918,17.921 20.878,17.811 20.848,17.697 
		20.827,17.581 20.811,17.464 20.802,17.354 20.802,17.24 20.802,17.24 20.817,17.043 20.848,16.854 20.898,16.678 20.963,16.504 
		21.045,16.34 21.137,16.193 21.243,16.052 21.365,15.926 21.493,15.809 21.635,15.701 21.782,15.604 21.934,15.523 22.097,15.452 
		22.265,15.396 22.438,15.352 22.615,15.321 22.615,15.321 22.626,15.321 22.651,15.315 22.688,15.311 22.742,15.305 22.803,15.293 
		22.874,15.291 22.951,15.28 23.038,15.269 23.123,15.26 23.211,15.25 23.302,15.244 23.383,15.232 23.464,15.229 23.54,15.224 
		23.611,15.22 23.667,15.22 23.667,15.22 23.785,15.22 23.907,15.224 24.018,15.229 24.13,15.229 24.221,15.232 24.293,15.238 
		24.343,15.244 24.358,15.244 24.358,15.244 24.369,15.208 24.399,15.117 24.424,15.011 24.435,14.915 24.435,14.915 24.415,14.8 
		24.369,14.702 24.308,14.609 24.226,14.532 24.13,14.466 24.023,14.422 23.901,14.392 23.768,14.38 23.768,14.38 23.627,14.375 
		23.475,14.369 23.317,14.369 23.153,14.375 22.986,14.386 22.824,14.399 22.661,14.417 22.505,14.435 22.351,14.457 22.204,14.483 
		22.073,14.508 21.951,14.532 21.838,14.562 21.747,14.593 21.675,14.629 21.62,14.66 21.981,13.436 21.981,13.436 22.092,13.388 
		22.204,13.351 22.326,13.314 22.447,13.29 22.569,13.261 22.703,13.242 22.834,13.223 22.971,13.211 23.114,13.2 23.26,13.198 
		23.414,13.193 23.57,13.193 23.733,13.193 23.901,13.193 24.079,13.198 24.257,13.2 24.257,13.2 24.399,13.211 24.552,13.236 
		24.708,13.272 24.872,13.32 25.029,13.381 25.182,13.449 25.334,13.536 25.477,13.632 25.602,13.747 25.714,13.868 25.817,14.003 
		25.893,14.155 25.943,14.319 25.973,14.49 25.973,14.685 25.943,14.889 25.431,17.572 	"/>
	<polygon fill="#ED1C2E" points="24.206,16.246 24.2,16.219 24.181,16.193 24.15,16.18 24.1,16.169 24.043,16.157 23.977,16.154 
		23.901,16.154 23.825,16.154 23.744,16.157 23.657,16.169 23.576,16.18 23.494,16.188 23.418,16.199 23.348,16.216 23.287,16.23 
		23.229,16.246 23.195,16.255 23.153,16.271 23.098,16.291 23.042,16.314 22.977,16.346 22.91,16.382 22.839,16.417 22.773,16.459 
		22.703,16.51 22.636,16.561 22.575,16.62 22.52,16.682 22.468,16.748 22.432,16.818 22.402,16.898 22.387,16.982 22.381,17.152 
		22.408,17.293 22.459,17.393 22.523,17.471 22.6,17.521 22.688,17.551 22.767,17.566 22.849,17.572 23.001,17.566 23.138,17.551 
		23.271,17.529 23.388,17.5 23.49,17.464 23.585,17.42 23.672,17.372 23.749,17.316 23.815,17.266 23.876,17.204 23.926,17.148 
		23.967,17.088 24.002,17.027 24.033,16.967 24.059,16.91 24.074,16.854 24.115,16.708 24.15,16.54 24.181,16.376 	"/>
	<polygon fill="#FFFFFF" points="14.739,18.699 13.358,18.699 14.511,12.027 16.914,12.027 17.143,15.986 18.806,12.027 
		21.315,12.027 20.136,18.699 18.754,18.699 19.627,13.716 19.572,13.716 17.504,18.699 15.944,18.699 15.934,18.492 15.898,17.938 
		15.853,17.148 15.801,16.246 15.751,15.335 15.706,14.538 15.67,13.959 15.66,13.716 15.645,13.716 15.614,13.716 15.584,13.716 
		15.584,13.716 	"/>
	<polyline fill="none" stroke="#FFFFFF" stroke-width="0.216" stroke-miterlimit="2.6131" points="14.739,18.699 13.358,18.699 
		14.511,12.027 16.914,12.027 17.143,15.986 18.806,12.027 21.315,12.027 20.136,18.699 18.754,18.699 19.627,13.716 19.572,13.716 
		17.504,18.699 15.944,18.699 15.944,18.699 15.934,18.492 15.898,17.938 15.853,17.148 15.801,16.246 15.751,15.335 15.706,14.538 
		15.67,13.959 15.66,13.716 15.66,13.716 15.645,13.716 15.614,13.716 15.584,13.716 15.584,13.716 14.739,18.699 	"/>
	<polygon fill="#FFFFFF" points="50.646,17.572 50.438,18.699 49.164,18.699 49.174,18.492 49.178,18.309 49.178,18.17 
		49.188,18.109 49.121,18.188 49.047,18.261 48.955,18.334 48.854,18.406 48.748,18.471 48.625,18.531 48.498,18.592 48.371,18.645 
		48.232,18.684 48.091,18.725 47.949,18.748 47.807,18.771 47.658,18.777 47.518,18.784 47.379,18.771 47.242,18.748 47.061,18.705 
		46.896,18.654 46.756,18.589 46.623,18.511 46.512,18.432 46.415,18.34 46.332,18.242 46.264,18.141 46.201,18.035 46.154,17.921 
		46.115,17.811 46.088,17.697 46.07,17.581 46.053,17.464 46.043,17.354 46.043,17.24 46.053,17.043 46.084,16.854 46.131,16.678 
		46.195,16.504 46.271,16.34 46.369,16.193 46.477,16.052 46.594,15.926 46.725,15.809 46.861,15.701 47.008,15.604 47.166,15.523 
		47.324,15.452 47.49,15.396 47.658,15.352 47.831,15.321 47.842,15.321 47.867,15.315 47.902,15.311 47.953,15.305 48.02,15.293 
		48.091,15.291 48.166,15.28 48.249,15.269 48.336,15.26 48.426,15.25 48.514,15.244 48.598,15.232 48.682,15.229 48.75,15.224 
		48.822,15.22 48.878,15.22 49,15.22 49.121,15.224 49.238,15.229 49.352,15.229 49.447,15.232 49.529,15.238 49.574,15.244 
		49.596,15.244 49.605,15.208 49.62,15.117 49.637,15.011 49.645,14.915 49.626,14.8 49.584,14.702 49.52,14.609 49.443,14.532 
		49.352,14.466 49.243,14.422 49.133,14.392 49.012,14.38 48.869,14.375 48.717,14.369 48.559,14.369 48.395,14.375 48.227,14.386 
		48.066,14.399 47.902,14.417 47.746,14.435 47.594,14.457 47.445,14.483 47.312,14.508 47.191,14.532 47.08,14.562 46.988,14.593 
		46.916,14.629 46.861,14.66 47.217,13.436 47.33,13.388 47.445,13.351 47.562,13.314 47.686,13.29 47.811,13.261 47.938,13.242 
		48.07,13.223 48.208,13.211 48.35,13.2 48.498,13.198 48.645,13.193 48.803,13.193 48.961,13.193 49.121,13.193 49.295,13.198 
		49.469,13.2 49.609,13.211 49.762,13.236 49.92,13.272 50.083,13.32 50.24,13.381 50.398,13.449 50.551,13.536 50.693,13.632 
		50.818,13.747 50.938,13.868 51.038,14.003 51.113,14.155 51.17,14.319 51.205,14.49 51.205,14.685 51.182,14.889 	"/>
	<polygon fill="#FFFFFF" points="50.438,18.734 50.469,18.705 50.678,17.575 50.616,17.566 50.408,18.693 50.438,18.663 
		50.438,18.734 50.463,18.729 50.469,18.705 	"/>
	<polygon fill="#FFFFFF" points="49.133,18.699 49.164,18.734 50.438,18.734 50.438,18.663 49.164,18.663 49.193,18.699 
		49.133,18.699 49.127,18.734 49.164,18.734 	"/>
	<polygon fill="#FFFFFF" points="49.213,18.129 49.168,18.09 49.146,18.17 49.145,18.309 49.145,18.492 49.133,18.699 
		49.193,18.699 49.204,18.492 49.213,18.309 49.209,18.17 49.209,18.129 49.164,18.09 	"/>
	<polygon fill="#FFFFFF" points="47.238,18.777 47.238,18.777 47.379,18.802 47.518,18.814 47.658,18.811 47.807,18.802 
		47.953,18.777 48.098,18.754 48.238,18.714 48.379,18.675 48.507,18.622 48.641,18.562 48.762,18.5 48.869,18.432 48.975,18.357 
		49.066,18.287 49.146,18.206 49.213,18.129 49.164,18.09 49.098,18.164 49.025,18.236 48.934,18.309 48.839,18.379 48.73,18.439 
		48.609,18.5 48.486,18.562 48.359,18.613 48.227,18.654 48.085,18.693 47.943,18.718 47.807,18.741 47.658,18.748 47.518,18.754 
		47.379,18.741 47.247,18.718 47.247,18.718 	"/>
	<polygon fill="#FFFFFF" points="46.008,17.24 46.008,17.24 46.014,17.354 46.021,17.464 46.038,17.586 46.059,17.703 
		46.084,17.816 46.125,17.932 46.172,18.048 46.236,18.157 46.309,18.261 46.389,18.357 46.49,18.455 46.607,18.535 46.74,18.619 
		46.887,18.684 47.057,18.734 47.238,18.777 47.247,18.718 47.064,18.675 46.908,18.622 46.77,18.559 46.639,18.486 46.531,18.406 
		46.439,18.316 46.357,18.221 46.287,18.126 46.232,18.018 46.186,17.913 46.145,17.805 46.119,17.693 46.1,17.575 46.084,17.464 
		46.074,17.354 46.08,17.24 46.08,17.24 	"/>
	<polygon fill="#FFFFFF" points="47.831,15.291 47.831,15.291 47.654,15.321 47.482,15.366 47.312,15.421 47.15,15.494 
		46.993,15.573 46.841,15.676 46.703,15.784 46.57,15.904 46.449,16.029 46.344,16.174 46.24,16.326 46.166,16.492 46.1,16.666 
		46.053,16.85 46.021,17.043 46.008,17.24 46.08,17.24 46.084,17.043 46.115,16.859 46.161,16.688 46.227,16.516 46.302,16.355 
		46.393,16.216 46.5,16.072 46.611,15.943 46.746,15.834 46.882,15.727 47.025,15.634 47.182,15.555 47.334,15.482 47.5,15.427 
		47.664,15.382 47.831,15.352 47.831,15.352 	"/>
	<polygon fill="#FFFFFF" points="48.878,15.183 48.878,15.183 48.822,15.183 48.75,15.193 48.682,15.199 48.598,15.202 
		48.514,15.214 48.426,15.22 48.336,15.229 48.249,15.238 48.166,15.25 48.091,15.26 48.02,15.263 47.953,15.274 47.902,15.28 
		47.861,15.285 47.842,15.291 47.831,15.291 47.831,15.352 47.842,15.352 47.872,15.346 47.902,15.341 47.953,15.335 48.02,15.324 
		48.091,15.321 48.166,15.311 48.249,15.299 48.336,15.291 48.426,15.28 48.514,15.274 48.598,15.263 48.682,15.26 48.75,15.254 
		48.822,15.254 48.878,15.254 48.878,15.254 	"/>
	<polygon fill="#FFFFFF" points="49.564,15.238 49.596,15.214 49.574,15.214 49.529,15.208 49.447,15.202 49.352,15.193 
		49.238,15.193 49.121,15.193 49,15.183 48.878,15.183 48.878,15.254 49,15.254 49.121,15.254 49.238,15.263 49.352,15.263 
		49.447,15.263 49.529,15.269 49.574,15.274 49.596,15.274 49.626,15.25 49.596,15.274 49.62,15.28 49.626,15.25 	"/>
	<polygon fill="#FFFFFF" points="49.615,14.915 49.609,14.915 49.605,15.011 49.59,15.111 49.574,15.202 49.564,15.238 
		49.626,15.25 49.637,15.214 49.65,15.123 49.666,15.011 49.682,14.915 49.676,14.915 	"/>
	<polygon fill="#FFFFFF" points="49.012,14.411 49.012,14.417 49.127,14.422 49.234,14.453 49.335,14.496 49.422,14.557 
		49.492,14.629 49.555,14.715 49.596,14.806 49.615,14.915 49.676,14.915 49.656,14.798 49.615,14.685 49.543,14.587 49.463,14.508 
		49.365,14.435 49.255,14.392 49.139,14.361 49.012,14.344 49.012,14.35 	"/>
	<polygon fill="#FFFFFF" points="46.831,14.654 46.882,14.685 46.934,14.66 46.999,14.624 47.086,14.593 47.195,14.562 
		47.318,14.538 47.451,14.514 47.598,14.487 47.746,14.466 47.902,14.447 48.066,14.429 48.227,14.417 48.395,14.405 48.559,14.405 
		48.717,14.405 48.869,14.405 49.012,14.411 49.012,14.35 48.869,14.344 48.717,14.335 48.559,14.335 48.395,14.344 48.227,14.355 
		48.066,14.369 47.902,14.386 47.746,14.405 47.588,14.426 47.439,14.453 47.309,14.477 47.186,14.502 47.074,14.532 46.979,14.562 
		46.902,14.599 46.841,14.635 46.893,14.666 	"/>
	<polygon fill="#FFFFFF" points="47.208,13.406 47.186,13.431 46.831,14.654 46.893,14.666 47.247,13.442 47.227,13.467 
		47.208,13.406 47.191,13.412 47.186,13.431 	"/>
	<polygon fill="#FFFFFF" points="49.469,13.169 49.469,13.169 49.295,13.162 49.121,13.156 48.961,13.156 48.803,13.156 
		48.645,13.156 48.498,13.168 48.35,13.169 48.208,13.181 48.07,13.193 47.934,13.211 47.807,13.23 47.68,13.259 47.557,13.284 
		47.436,13.32 47.318,13.358 47.208,13.406 47.227,13.467 47.338,13.419 47.455,13.381 47.566,13.345 47.689,13.32 47.816,13.292 
		47.943,13.272 48.07,13.253 48.208,13.242 48.35,13.23 48.498,13.229 48.645,13.229 48.803,13.229 48.961,13.229 49.121,13.229 
		49.295,13.23 49.469,13.23 49.469,13.23 	"/>
	<polygon fill="#FFFFFF" points="51.211,14.892 51.211,14.892 51.234,14.685 51.234,14.49 51.2,14.313 51.145,14.148 51.062,13.99 
		50.961,13.845 50.84,13.72 50.712,13.607 50.564,13.51 50.414,13.419 50.25,13.351 50.093,13.29 49.925,13.242 49.768,13.206 
		49.609,13.181 49.469,13.169 49.469,13.23 49.609,13.242 49.758,13.267 49.914,13.303 50.072,13.351 50.229,13.412 50.383,13.48 
		50.535,13.564 50.673,13.66 50.801,13.771 50.91,13.887 51.014,14.021 51.083,14.167 51.139,14.325 51.175,14.49 51.175,14.685 
		51.148,14.885 51.148,14.885 	"/>
	<polygon fill="#FFFFFF" points="50.678,17.575 50.678,17.575 51.211,14.892 51.148,14.885 50.616,17.566 50.616,17.566 	"/>
	<polygon fill="#FCB331" points="49.418,16.246 49.407,16.216 49.387,16.188 49.352,16.174 49.3,16.157 49.243,16.154 
		49.178,16.148 49.104,16.148 49.025,16.154 48.945,16.163 48.863,16.174 48.781,16.186 48.705,16.193 48.629,16.21 48.562,16.219 
		48.498,16.234 48.445,16.246 48.41,16.249 48.371,16.266 48.318,16.279 48.264,16.301 48.197,16.331 48.137,16.361 48.066,16.398 
		48,16.443 47.934,16.489 47.867,16.545 47.811,16.602 47.756,16.666 47.709,16.739 47.675,16.814 47.645,16.895 47.629,16.982 
		47.624,17.152 47.648,17.293 47.689,17.393 47.75,17.471 47.827,17.521 47.914,17.551 48,17.566 48.085,17.572 48.238,17.566 
		48.379,17.551 48.514,17.523 48.629,17.49 48.742,17.451 48.839,17.402 48.93,17.354 49.012,17.293 49.082,17.234 49.145,17.171 
		49.198,17.109 49.243,17.043 49.279,16.982 49.305,16.922 49.326,16.859 49.34,16.803 49.361,16.662 49.387,16.516 49.407,16.371 	
		"/>
	<polygon fill="#FFFFFF" points="59.884,18.005 59.895,17.886 59.936,17.749 60.005,17.628 60.092,17.521 60.199,17.434 
		60.32,17.372 60.453,17.332 60.596,17.316 60.736,17.332 60.869,17.372 60.991,17.434 61.098,17.521 61.186,17.628 61.255,17.749 
		61.296,17.886 61.309,18.005 61.154,18.005 61.148,17.913 61.119,17.799 61.066,17.697 61.001,17.611 60.92,17.542 60.823,17.49 
		60.711,17.454 60.596,17.445 60.479,17.454 60.366,17.49 60.271,17.542 60.188,17.611 60.123,17.697 60.072,17.799 60.042,17.913 
		60.031,18.005 	"/>
	<polygon fill="#FFFFFF" points="60.34,18.005 60.34,17.697 60.62,17.697 60.682,17.703 60.736,17.713 60.777,17.729 60.814,17.749 
		60.839,17.779 60.859,17.811 60.869,17.848 60.875,17.883 60.869,17.927 60.859,17.963 60.846,17.993 60.833,18.005 60.62,18.005 
		60.641,17.999 60.677,17.993 60.707,17.98 60.73,17.975 60.753,17.957 60.762,17.943 60.771,17.916 60.771,17.883 60.768,17.855 
		60.758,17.835 60.742,17.825 60.729,17.816 60.701,17.811 60.677,17.805 60.65,17.805 60.62,17.805 60.468,17.805 60.468,18.005 	
		"/>
	<polygon fill="#FFFFFF" points="59.884,18.005 59.878,18.035 59.895,18.182 59.936,18.316 60.005,18.439 60.092,18.541 
		60.199,18.627 60.32,18.693 60.453,18.734 60.596,18.748 60.736,18.734 60.869,18.693 60.991,18.627 61.098,18.541 61.186,18.439 
		61.255,18.316 61.296,18.182 61.312,18.035 61.309,18.005 61.154,18.005 61.159,18.035 61.148,18.157 61.119,18.268 61.066,18.364 
		61.001,18.449 60.92,18.521 60.823,18.577 60.711,18.613 60.596,18.622 60.479,18.613 60.366,18.577 60.271,18.521 60.188,18.449 
		60.123,18.364 60.072,18.268 60.042,18.157 60.031,18.035 60.031,18.005 	"/>
	<polygon fill="#FFFFFF" points="60.34,18.005 60.34,18.314 60.468,18.314 60.468,18.061 60.596,18.061 60.748,18.314 60.85,18.314 
		60.697,18.061 60.73,18.061 60.768,18.048 60.798,18.038 60.823,18.018 60.833,18.005 60.62,18.005 60.596,18.008 60.468,18.008 
		60.468,18.005 	"/>
	<path fill="none" stroke="#FFFFFF" stroke-width="0.216" stroke-miterlimit="2.6131" d="M59.878,18.035L59.878,18.035l0.017-0.149
		l0.041-0.137l0.069-0.121l0.087-0.106l0.107-0.088l0.121-0.062l0.133-0.04l0.143-0.016l0,0l0.143,0.016l0.133,0.04l0.122,0.062
		l0.104,0.088l0.088,0.106l0.069,0.121l0.041,0.137l0.017,0.149l0,0l-0.017,0.146l-0.041,0.135l-0.069,0.123l-0.088,0.102
		l-0.104,0.086l-0.122,0.066l-0.133,0.041l-0.143,0.014l0,0l-0.143-0.014l-0.133-0.041l-0.121-0.066l-0.107-0.086l-0.087-0.102
		l-0.069-0.123l-0.041-0.135L59.878,18.035 M60.468,18.314H60.34v-0.617h0.28l0,0l0.062,0.006l0.057,0.01l0.041,0.016l0.035,0.021
		l0.024,0.029l0.021,0.031l0.012,0.035l0.006,0.036l0,0l-0.006,0.044l-0.012,0.036l-0.014,0.03l-0.021,0.023L60.8,18.036
		l-0.028,0.01l-0.037,0.013h-0.033l0.15,0.256H60.75l-0.15-0.256h-0.129L60.468,18.314 M60.596,18.008L60.596,18.008l0.045-0.009
		l0.036-0.006l0.03-0.013l0.023-0.006l0.021-0.02l0.009-0.016l0.012-0.025v-0.033l0,0l-0.004-0.025l-0.012-0.021l-0.016-0.01
		l-0.016-0.01L60.7,17.809l-0.024-0.006H60.65h-0.03h-0.152v0.203h0.128 M60.596,18.622L60.596,18.622l0.115-0.009l0.112-0.036
		l0.097-0.056l0.081-0.072l0.065-0.085l0.053-0.099l0.029-0.108l0.011-0.122l0,0l-0.011-0.122l-0.029-0.114l-0.053-0.102
		l-0.065-0.086l-0.081-0.069l-0.097-0.052l-0.112-0.036l-0.115-0.009l0,0l-0.115,0.009l-0.112,0.036l-0.097,0.052l-0.084,0.069
		l-0.062,0.086l-0.051,0.102l-0.03,0.114l-0.011,0.122l0,0l0.011,0.122l0.03,0.108l0.051,0.099l0.062,0.085l0.084,0.072l0.097,0.056
		l0.112,0.036L60.596,18.622"/>
	<polygon fill="#FFFFFF" points="51.027,18.699 52.461,18.699 52.461,18.699 52.977,15.809 52.994,15.695 53.023,15.585 
		53.055,15.473 53.096,15.36 53.146,15.25 53.207,15.141 53.273,15.041 53.355,14.945 53.445,14.858 53.548,14.776 53.665,14.702 
		53.797,14.64 53.943,14.587 54.107,14.548 54.284,14.518 54.482,14.508 54.555,14.508 54.596,14.508 54.609,14.508 54.609,14.508 
		54.838,13.2 54.695,13.211 54.561,13.229 54.434,13.253 54.311,13.29 54.199,13.328 54.092,13.381 53.988,13.436 53.895,13.497 
		53.803,13.568 53.715,13.638 53.635,13.72 53.555,13.802 53.477,13.887 53.4,13.984 53.324,14.076 53.252,14.179 53.406,13.259 
		51.979,13.259 51.027,18.699 	"/>
	<polyline fill="none" stroke="#FFFFFF" stroke-width="0.216" stroke-miterlimit="2.6131" points="51.027,18.699 52.461,18.699 
		52.461,18.699 52.977,15.809 52.977,15.809 52.994,15.695 53.023,15.585 53.055,15.473 53.096,15.36 53.146,15.25 53.207,15.141 
		53.273,15.041 53.355,14.945 53.445,14.858 53.548,14.776 53.665,14.702 53.797,14.64 53.943,14.587 54.107,14.548 54.284,14.518 
		54.482,14.508 54.482,14.508 54.555,14.508 54.596,14.508 54.609,14.508 54.609,14.508 54.838,13.2 54.838,13.2 54.695,13.211 
		54.561,13.229 54.434,13.253 54.311,13.29 54.199,13.328 54.092,13.381 53.988,13.436 53.895,13.497 53.803,13.568 53.715,13.638 
		53.635,13.72 53.555,13.802 53.477,13.887 53.4,13.984 53.324,14.076 53.252,14.179 53.406,13.259 51.979,13.259 51.027,18.699 
		51.027,18.699 	"/>
	<polygon fill="#FFFFFF" points="37.574,18.699 39.007,18.699 39.031,18.699 39.52,15.809 39.54,15.695 39.564,15.591 
		39.592,15.482 39.625,15.382 39.668,15.28 39.719,15.183 39.779,15.092 39.85,15.006 39.932,14.928 40.022,14.854 40.134,14.793 
		40.257,14.737 40.398,14.69 40.557,14.648 40.729,14.624 40.927,14.609 40.941,14.609 40.963,14.615 40.986,14.618 41.014,14.618 
		41.039,14.624 41.061,14.629 41.075,14.635 41.078,14.635 41.084,14.615 41.1,14.551 41.121,14.46 41.146,14.35 41.182,14.216 
		41.216,14.076 41.262,13.935 41.309,13.79 41.35,13.693 41.398,13.597 41.45,13.503 41.502,13.415 41.547,13.339 41.584,13.278 
		41.607,13.242 41.617,13.229 41.613,13.229 41.593,13.223 41.568,13.217 41.531,13.211 41.496,13.211 41.455,13.206 41.42,13.2 
		41.384,13.2 41.229,13.211 41.084,13.229 40.952,13.253 40.83,13.284 40.713,13.322 40.607,13.375 40.51,13.425 40.419,13.485 
		40.333,13.552 40.251,13.627 40.175,13.705 40.099,13.79 40.022,13.875 39.951,13.973 39.875,14.076 39.799,14.179 39.981,13.259 
		38.523,13.259 37.574,18.699 	"/>
	<polyline fill="none" stroke="#FFFFFF" stroke-width="0.216" stroke-miterlimit="2.6131" points="37.574,18.699 39.007,18.699 
		39.031,18.699 39.52,15.809 39.52,15.809 39.54,15.695 39.564,15.591 39.592,15.482 39.625,15.382 39.668,15.28 39.719,15.183 
		39.779,15.092 39.85,15.006 39.932,14.928 40.022,14.854 40.134,14.793 40.257,14.737 40.398,14.69 40.557,14.648 40.729,14.624 
		40.927,14.609 40.927,14.609 40.941,14.609 40.963,14.615 40.986,14.618 41.014,14.618 41.039,14.624 41.061,14.629 41.075,14.635 
		41.078,14.635 41.078,14.635 41.084,14.615 41.1,14.551 41.121,14.46 41.146,14.35 41.182,14.216 41.216,14.076 41.262,13.935 
		41.309,13.79 41.309,13.79 41.35,13.693 41.398,13.597 41.45,13.503 41.502,13.415 41.547,13.339 41.584,13.278 41.607,13.242 
		41.617,13.229 41.617,13.229 41.613,13.229 41.593,13.223 41.568,13.217 41.531,13.211 41.496,13.211 41.455,13.206 41.42,13.2 
		41.384,13.2 41.384,13.2 41.229,13.211 41.084,13.229 40.952,13.253 40.83,13.284 40.713,13.322 40.607,13.375 40.51,13.425 
		40.419,13.485 40.333,13.552 40.251,13.627 40.175,13.705 40.099,13.79 40.022,13.875 39.951,13.973 39.875,14.076 39.799,14.179 
		39.981,13.259 38.523,13.259 37.574,18.699 37.574,18.699 	"/>
	<polygon fill="#FCB331" points="59.895,24.046 59.895,24.021 59.936,23.891 60.005,23.773 60.092,23.675 60.199,23.591 
		60.32,23.529 60.453,23.495 60.596,23.48 60.736,23.495 60.869,23.529 60.991,23.591 61.098,23.675 61.186,23.773 61.255,23.891 
		61.296,24.021 61.296,24.046 61.148,24.046 61.119,23.938 61.066,23.84 61.001,23.755 60.92,23.682 60.823,23.627 60.711,23.591 
		60.596,23.583 60.479,23.591 60.366,23.627 60.271,23.682 60.188,23.755 60.123,23.84 60.072,23.938 60.042,24.046 	"/>
	<polygon fill="#FCB331" points="60.34,24.046 60.34,23.864 60.62,23.864 60.682,23.864 60.736,23.876 60.777,23.889 60.814,23.906 
		60.839,23.932 60.859,23.962 60.869,23.998 60.875,24.046 60.771,24.046 60.771,24.02 60.768,23.992 60.758,23.975 60.742,23.962 
		60.729,23.954 60.701,23.949 60.677,23.943 60.65,23.943 60.62,23.943 60.468,23.943 60.468,24.046 	"/>
	<polygon fill="#FCB331" points="59.878,24.156 59.895,24.046 60.042,24.046 60.042,24.049 60.031,24.156 	"/>
	<polygon fill="#FCB331" points="60.34,24.156 60.34,24.046 60.468,24.046 60.468,24.145 60.596,24.145 60.641,24.139 
		60.677,24.132 60.707,24.12 60.73,24.109 60.753,24.096 60.762,24.079 60.771,24.053 60.771,24.046 60.875,24.046 60.875,24.046 
		60.869,24.079 60.859,24.109 60.846,24.139 60.823,24.156 	"/>
	<polygon fill="#FCB331" points="61.159,24.156 61.148,24.049 61.148,24.046 61.296,24.046 61.312,24.156 	"/>
	<polygon fill="#FCB331" points="59.878,24.156 59.878,24.171 59.895,24.32 59.936,24.455 60.005,24.576 60.092,24.686 
		60.199,24.771 60.32,24.832 60.453,24.874 60.596,24.887 60.736,24.874 60.869,24.832 60.991,24.771 61.098,24.686 61.186,24.576 
		61.255,24.455 61.296,24.32 61.312,24.171 61.312,24.156 61.159,24.156 61.159,24.171 61.148,24.292 61.119,24.404 61.066,24.503 
		61.001,24.588 60.92,24.66 60.823,24.716 60.711,24.752 60.596,24.759 60.479,24.752 60.366,24.716 60.271,24.66 60.188,24.588 
		60.123,24.503 60.072,24.404 60.042,24.292 60.031,24.171 60.031,24.156 	"/>
	<polygon fill="#FCB331" points="60.34,24.156 60.34,24.449 60.468,24.449 60.468,24.198 60.596,24.198 60.748,24.449 60.85,24.449 
		60.697,24.198 60.73,24.198 60.768,24.188 60.798,24.175 60.823,24.156 60.823,24.156 	"/>
</g>
</svg>
