<?xml version="1.0" encoding="utf-8"?>
<!-- Generator: Adobe Illustrator 16.0.0, SVG Export Plug-In . SVG Version: 6.00 Build 0)  -->
<!DOCTYPE svg PUBLIC "-//W3C//DTD SVG 1.1//EN" "http://www.w3.org/Graphics/SVG/1.1/DTD/svg11.dtd">
<svg version="1.1" id="Layer_1" xmlns="http://www.w3.org/2000/svg" xmlns:xlink="http://www.w3.org/1999/xlink" x="0px" y="0px"
	 width="80px" height="30px" viewBox="0 0 80 30" enable-background="new 0 0 80 30" xml:space="preserve">
<g>
	<g>
		<g>
			<defs>
				<rect id="SVGID_1_" y="2" width="80" height="25.986"/>
			</defs>
			<clipPath id="SVGID_2_">
				<use xlink:href="#SVGID_1_"  overflow="visible"/>
			</clipPath>
			<path clip-path="url(#SVGID_2_)" fill="#253B80" d="M16.519,7.105c-0.853-0.973-2.395-1.389-4.367-1.389H6.427
				c-0.403,0-0.747,0.293-0.81,0.691L3.233,21.525c-0.047,0.298,0.184,0.565,0.486,0.565h3.534l0.888-5.63l-0.028,0.18
				c0.063-0.398,0.404-0.691,0.807-0.691h1.68c3.299,0,5.883-1.34,6.637-5.217c0.022-0.115,0.042-0.226,0.059-0.335
				c-0.095-0.05-0.095-0.05,0,0C17.52,8.963,17.294,7.988,16.519,7.105"/>
		</g>
	</g>
	<g>
		<g>
			<defs>
				<rect id="SVGID_3_" y="2" width="80" height="25.986"/>
			</defs>
			<clipPath id="SVGID_4_">
				<use xlink:href="#SVGID_3_"  overflow="visible"/>
			</clipPath>
			<path clip-path="url(#SVGID_4_)" fill="#179BD7" d="M59.331,10.598h-3.953c-0.271,0-0.5,0.196-0.542,0.464l-1.598,10.133
				c-0.032,0.199,0.123,0.382,0.324,0.382h2.026c0.188,0,0.353-0.138,0.379-0.324l0.455-2.873c0.041-0.269,0.271-0.465,0.541-0.465
				h1.251c2.604,0,4.105-1.259,4.498-3.756c0.178-1.092,0.008-1.95-0.504-2.55C61.648,10.947,60.652,10.598,59.331,10.598
				 M59.786,14.299c-0.216,1.419-1.3,1.419-2.347,1.419h-0.599l0.421-2.649c0.022-0.16,0.16-0.277,0.323-0.277h0.271
				c0.715,0,1.39,0,1.734,0.406C59.803,13.44,59.865,13.801,59.786,14.299"/>
		</g>
	</g>
	<g>
		<g>
			<defs>
				<rect id="SVGID_5_" y="2" width="80" height="25.986"/>
			</defs>
			<clipPath id="SVGID_6_">
				<use xlink:href="#SVGID_5_"  overflow="visible"/>
			</clipPath>
			<path clip-path="url(#SVGID_6_)" fill="#253B80" d="M31.142,10.598H27.19c-0.271,0-0.5,0.196-0.542,0.464L25.05,21.195
				c-0.031,0.199,0.123,0.382,0.325,0.382h1.888c0.27,0,0.5-0.197,0.542-0.464l0.432-2.733c0.042-0.269,0.272-0.465,0.542-0.465
				h1.25c2.604,0,4.106-1.259,4.498-3.756c0.177-1.092,0.007-1.95-0.503-2.55C33.46,10.947,32.464,10.598,31.142,10.598
				 M31.598,14.299c-0.216,1.419-1.299,1.419-2.348,1.419h-0.596l0.418-2.649c0.025-0.16,0.163-0.277,0.325-0.277h0.273
				c0.713,0,1.387,0,1.734,0.406C31.614,13.44,31.677,13.801,31.598,14.299"/>
		</g>
	</g>
	<g>
		<g>
			<defs>
				<rect id="SVGID_7_" y="2" width="80" height="25.986"/>
			</defs>
			<clipPath id="SVGID_8_">
				<use xlink:href="#SVGID_7_"  overflow="visible"/>
			</clipPath>
			<path clip-path="url(#SVGID_8_)" fill="#253B80" d="M42.955,14.253h-1.893c-0.162,0-0.301,0.118-0.326,0.278l-0.084,0.529
				l-0.131-0.192c-0.412-0.594-1.326-0.793-2.236-0.793c-2.09,0-3.876,1.585-4.224,3.807c-0.181,1.109,0.076,2.169,0.705,2.908
				c0.577,0.679,1.401,0.961,2.383,0.961c1.686,0,2.62-1.082,2.62-1.082l-0.084,0.526c-0.032,0.199,0.123,0.381,0.325,0.381h1.705
				c0.271,0,0.5-0.197,0.542-0.465l1.022-6.479C43.312,14.435,43.157,14.253,42.955,14.253 M40.317,17.938
				c-0.183,1.08-1.041,1.809-2.136,1.809c-0.549,0-0.989-0.178-1.271-0.512c-0.28-0.332-0.385-0.805-0.296-1.33
				c0.17-1.07,1.042-1.818,2.12-1.818c0.538,0,0.974,0.18,1.262,0.516C40.286,16.939,40.401,17.414,40.317,17.938"/>
		</g>
	</g>
	<g>
		<g>
			<defs>
				<rect id="SVGID_9_" y="2" width="80" height="25.986"/>
			</defs>
			<clipPath id="SVGID_10_">
				<use xlink:href="#SVGID_9_"  overflow="visible"/>
			</clipPath>
			<path clip-path="url(#SVGID_10_)" fill="#179BD7" d="M71.143,14.253h-1.892c-0.162,0-0.301,0.118-0.326,0.278l-0.083,0.529
				l-0.132-0.192c-0.41-0.594-1.323-0.793-2.235-0.793c-2.091,0-3.877,1.585-4.225,3.807c-0.182,1.109,0.075,2.169,0.705,2.908
				c0.577,0.679,1.4,0.961,2.383,0.961c1.686,0,2.62-1.082,2.62-1.082l-0.085,0.526c-0.031,0.199,0.123,0.381,0.326,0.381h1.703
				c0.271,0,0.5-0.197,0.543-0.465l1.021-6.479C71.5,14.435,71.346,14.253,71.143,14.253 M68.506,17.938
				c-0.183,1.08-1.041,1.809-2.136,1.809c-0.55,0-0.989-0.178-1.271-0.512c-0.279-0.332-0.387-0.805-0.298-1.33
				c0.171-1.07,1.044-1.818,2.121-1.818c0.537,0,0.976,0.18,1.263,0.516C68.477,16.939,68.589,17.414,68.506,17.938"/>
		</g>
	</g>
	<g>
		<g>
			<defs>
				<rect id="SVGID_11_" y="2" width="80" height="25.986"/>
			</defs>
			<clipPath id="SVGID_12_">
				<use xlink:href="#SVGID_11_"  overflow="visible"/>
			</clipPath>
			<path clip-path="url(#SVGID_12_)" fill="#253B80" d="M53.034,14.253h-1.902c-0.182,0-0.353,0.09-0.454,0.241l-2.623,3.865
				l-1.113-3.714c-0.067-0.232-0.281-0.392-0.523-0.392h-1.87c-0.228,0-0.385,0.222-0.312,0.436l2.095,6.149l-1.97,2.779
				c-0.154,0.218,0.002,0.52,0.27,0.52h1.898c0.181,0,0.35-0.088,0.453-0.234l6.324-9.13C53.456,14.552,53.3,14.253,53.034,14.253"
				/>
		</g>
	</g>
	<g>
		<g>
			<defs>
				<rect id="SVGID_13_" y="2" width="80" height="25.986"/>
			</defs>
			<clipPath id="SVGID_14_">
				<use xlink:href="#SVGID_13_"  overflow="visible"/>
			</clipPath>
			<path clip-path="url(#SVGID_14_)" fill="#179BD7" d="M73.374,10.876l-1.623,10.319c-0.03,0.199,0.123,0.381,0.326,0.381h1.632
				c0.27,0,0.5-0.197,0.542-0.465l1.601-10.133c0.03-0.199-0.123-0.38-0.326-0.38H73.7C73.537,10.598,73.398,10.715,73.374,10.876"
				/>
		</g>
	</g>
	<g>
		<g>
			<defs>
				<rect id="SVGID_15_" y="2" width="80" height="25.986"/>
			</defs>
			<clipPath id="SVGID_16_">
				<use xlink:href="#SVGID_15_"  overflow="visible"/>
			</clipPath>
			<path clip-path="url(#SVGID_16_)" fill="#253B80" d="M16.519,7.105c-0.853-0.973-2.395-1.389-4.367-1.389H6.427
				c-0.403,0-0.747,0.293-0.81,0.691L3.233,21.525c-0.047,0.298,0.184,0.565,0.486,0.565h3.534l0.888-5.63l-0.028,0.18
				c0.063-0.398,0.404-0.691,0.807-0.691h1.68c3.299,0,5.883-1.34,6.637-5.217c0.022-0.115,0.042-0.226,0.059-0.335
				c-0.095-0.05-0.095-0.05,0,0C17.52,8.963,17.294,7.988,16.519,7.105"/>
		</g>
	</g>
	<g>
		<g>
			<defs>
				<rect id="SVGID_17_" y="2" width="80" height="25.986"/>
			</defs>
			<clipPath id="SVGID_18_">
				<use xlink:href="#SVGID_17_"  overflow="visible"/>
			</clipPath>
			<path clip-path="url(#SVGID_18_)" fill="#253B80" d="M9.095,10.415c0.038-0.24,0.191-0.436,0.398-0.535
				c0.095-0.045,0.199-0.07,0.31-0.07h4.488c0.532,0,1.028,0.035,1.48,0.107c0.13,0.021,0.256,0.045,0.378,0.072
				c0.123,0.027,0.241,0.058,0.356,0.092c0.058,0.017,0.114,0.034,0.17,0.052c0.223,0.074,0.43,0.161,0.62,0.262
				c0.225-1.433-0.001-2.408-0.776-3.291c-0.853-0.972-2.395-1.389-4.367-1.389H6.426c-0.403,0-0.746,0.293-0.809,0.691
				L3.233,21.523c-0.047,0.3,0.184,0.567,0.485,0.567h3.535l0.888-5.63L9.095,10.415z"/>
		</g>
	</g>
	<g>
		<g>
			<defs>
				<rect id="SVGID_19_" y="2" width="80" height="25.986"/>
			</defs>
			<clipPath id="SVGID_20_">
				<use xlink:href="#SVGID_19_"  overflow="visible"/>
			</clipPath>
			<path clip-path="url(#SVGID_20_)" fill="#179BD7" d="M17.295,10.396L17.295,10.396c-0.017,0.109-0.036,0.221-0.058,0.335
				c-0.755,3.876-3.338,5.217-6.638,5.217h-1.68c-0.403,0-0.743,0.293-0.806,0.69l-0.86,5.452l-0.244,1.55
				c-0.042,0.262,0.161,0.498,0.424,0.498h2.98c0.352,0,0.652-0.259,0.708-0.604l0.029-0.153l0.562-3.558l0.036-0.197
				c0.056-0.349,0.355-0.604,0.708-0.604h0.446c2.886,0,5.146-1.172,5.806-4.562c0.276-1.417,0.133-2.6-0.596-3.431
				C17.89,10.773,17.616,10.566,17.295,10.396"/>
		</g>
	</g>
	<g>
		<g>
			<defs>
				<rect id="SVGID_21_" y="2" width="80" height="25.986"/>
			</defs>
			<clipPath id="SVGID_22_">
				<use xlink:href="#SVGID_21_"  overflow="visible"/>
			</clipPath>
			<path clip-path="url(#SVGID_22_)" fill="#222D65" d="M16.505,10.081c-0.115-0.034-0.234-0.064-0.356-0.091
				c-0.122-0.027-0.249-0.052-0.378-0.072c-0.454-0.073-0.948-0.108-1.48-0.108H9.803c-0.11,0-0.215,0.025-0.309,0.07
				c-0.208,0.099-0.361,0.295-0.398,0.535l-0.954,6.047l-0.028,0.179c0.062-0.397,0.403-0.69,0.806-0.69h1.68
				c3.299,0,5.882-1.34,6.637-5.217c0.022-0.115,0.042-0.226,0.059-0.335c-0.191-0.101-0.398-0.188-0.621-0.262
				C16.62,10.116,16.563,10.098,16.505,10.081"/>
		</g>
	</g>
</g>
</svg>
