<?xml version="1.0" encoding="utf-8"?>
<!-- Generator: Adobe Illustrator 16.0.0, SVG Export Plug-In . SVG Version: 6.00 Build 0)  -->
<!DOCTYPE svg PUBLIC "-//W3C//DTD SVG 1.1//EN" "http://www.w3.org/Graphics/SVG/1.1/DTD/svg11.dtd">
<svg version="1.1" id="Layer_1" xmlns="http://www.w3.org/2000/svg" xmlns:xlink="http://www.w3.org/1999/xlink" x="0px" y="0px"
	 width="80px" height="30px" viewBox="0 0 80 30" enable-background="new 0 0 80 30" xml:space="preserve">
<g>
	<g>
		<g>
			<g>
				<defs>
					<path id="SVGID_1_" d="M51.857,2.935c-2.515-1.389-5.366-2.044-7.658-2.353c-2.502-0.336-4.332-0.26-4.323-0.273
						c0.005,0.007-0.483-0.01-1.302,0.018c-0.835,0.029-2.015,0.105-3.367,0.304c-1.066,0.157-2.238,0.389-3.434,0.732
						c-1.303,0.375-2.631,0.884-3.877,1.572c0,0.966,0,1.933,0,2.899c0,0.28,0,0.825,0,1.104c0,0.793,0,1.324,0,2.117
						c0,2.693,0,5.387,0,8.079c0,2.875,0.99,5.402,3.157,7.202c0.492,0.415,1.245,0.889,2.11,1.371
						c0.734,0.407,1.549,0.82,2.35,1.208c0.944,0.457,1.87,0.877,2.623,1.211c1.034,0.455,1.746,0.749,1.74,0.742
						c-0.008,0.009,1.574-0.644,3.444-1.517c1.994-0.933,4.311-2.111,5.38-3.018c2.167-1.8,3.157-4.327,3.157-7.203
						c0-2.691,0-5.385,0-8.077c0-0.794,0-1.412,0-2.206c0-0.28,0-0.736,0-1.017C51.857,4.867,51.857,3.901,51.857,2.935"/>
				</defs>
				<clipPath id="SVGID_2_">
					<use xlink:href="#SVGID_1_"  overflow="visible"/>
				</clipPath>
				
					<linearGradient id="SVGID_3_" gradientUnits="userSpaceOnUse" x1="396.7637" y1="-296.0049" x2="421.5898" y2="-296.0049" gradientTransform="matrix(1 0 0 -1 -369.25 -281.5547)">
					<stop  offset="0" style="stop-color:#FFD66B"/>
					<stop  offset="0.2821" style="stop-color:#FEE2D2"/>
					<stop  offset="0.4908" style="stop-color:#E9AB70"/>
					<stop  offset="1" style="stop-color:#DC9427"/>
				</linearGradient>
				<rect x="27.513" y="0.06" clip-path="url(#SVGID_2_)" fill="url(#SVGID_3_)" width="24.827" height="28.78"/>
			</g>
		</g>
	</g>
</g>
<g>
	<g>
		<g>
			<g>
				<defs>
					<path id="SVGID_4_" d="M50.919,3.12c-3.505-0.369-7.368-0.466-11.212,0.301c-1.116,0.225-2.231,0.521-3.331,0.906
						c-1.175,0.412-2.333,0.924-3.456,1.556c-1.437,0.809-2.816,1.815-4.104,3.055c0,0.266-0.001,0.531-0.001,0.795
						c-0.002,1.273-0.003,2.547-0.004,3.821c-0.001,1.196,0,2.391,0.001,3.588c0.002,2.666,0.96,4.912,2.836,6.469
						c1.153,0.598,2.306,1.195,3.459,1.791c0.881,0.457,1.763,0.914,2.644,1.371c0.708,0.365,1.417,0.729,2.125,1.101
						c1.413-0.589,6.56-2.851,8.229-4.263c1.875-1.557,2.834-3.803,2.836-6.469c0.002-2.573,0-5.145-0.004-7.711
						c-0.004-1.745-0.008-3.488-0.016-5.226C50.921,3.844,50.921,3.482,50.919,3.12"/>
				</defs>
				<clipPath id="SVGID_5_">
					<use xlink:href="#SVGID_4_"  overflow="visible"/>
				</clipPath>
				
					<linearGradient id="SVGID_6_" gradientUnits="userSpaceOnUse" x1="397.5" y1="-294.1968" x2="408.1467" y2="-296.6213" gradientTransform="matrix(1 0 0 -1 -369.25 -281.5547)">
					<stop  offset="0" style="stop-color:#DBC9B8"/>
					<stop  offset="0.3114" style="stop-color:#785124"/>
					<stop  offset="1" style="stop-color:#4C2B11"/>
				</linearGradient>
				<rect x="28.672" y="2.537" clip-path="url(#SVGID_5_)" fill="url(#SVGID_6_)" width="22.666" height="25.562"/>
			</g>
		</g>
	</g>
</g>
<path fill="#3C1C0D" d="M39.876,27.874l-8.229-4.263C33.318,25.023,38.465,27.285,39.876,27.874"/>
<path fill="#3C1C0D" d="M52.012,17.133c0,1.486-0.262,2.854-0.777,4.066c-0.541,1.267-1.357,2.361-2.436,3.255
	c-1.083,0.916-3.434,2.106-5.215,2.944c-1.02,0.479-1.949,0.891-2.552,1.149c-0.36,0.155-0.99,0.419-1.156,0.487v0.085
	c0.166-0.07,0.826-0.349,1.188-0.502c0.603-0.263,1.533-0.675,2.554-1.151c2.597-1.223,4.356-2.216,5.231-2.956
	c1.084-0.899,1.908-2.007,2.452-3.284c0.522-1.222,0.787-2.598,0.787-4.096V2.798l-0.075,0.045L52.012,17.133"/>
<path fill="#3C1C0D" d="M27.821,2.8c4.381-2.422,9.8-2.657,11.924-2.645h0.13h0.133C42.132,0.144,47.55,0.378,51.932,2.8
	l0.078,0.043l0.078-0.045l-0.121-0.066c-4.396-2.43-9.828-2.665-11.961-2.653h-0.131h-0.13c-2.131-0.011-7.565,0.223-11.961,2.653
	l-0.12,0.066l0.078,0.046L27.821,2.8"/>
<path fill="#3C1C0D" d="M28.451,21.229c0.545,1.276,1.372,2.383,2.456,3.285c0.873,0.738,2.632,1.732,5.231,2.954
	c1.019,0.479,1.951,0.892,2.553,1.151c0.36,0.154,1.021,0.432,1.186,0.502v-0.085c-0.164-0.068-0.794-0.332-1.155-0.487
	c-0.602-0.261-1.533-0.671-2.552-1.15c-1.781-0.838-4.13-2.027-5.212-2.943c-1.076-0.895-1.895-1.988-2.435-3.255
	c-0.516-1.214-0.778-2.58-0.778-4.066l-0.002-14.29l-0.078-0.046l0.002,14.335C27.667,18.631,27.931,20.007,28.451,21.229"/>
<path fill="#3C1C0D" d="M49.896,9.962l0.057,0.046l0.078-0.038l-0.088-0.069c-0.375-0.297-1.188-0.792-2.442-0.768l0.003,0.077
	C48.734,9.187,49.531,9.671,49.896,9.962"/>
<path fill="#3C1C0D" d="M49.691,12.037c-0.375-0.398-1.035-0.831-1.758-0.843v0.078c0.696,0.013,1.338,0.431,1.7,0.819l0.4,0.425
	l-0.077-0.194L49.691,12.037"/>
<path fill="#3C1C0D" d="M46.854,12.059l0.078,0.001c0.019-0.729,0.707-0.795,1.002-0.789l0.002-0.078
	C47.688,11.19,46.874,11.239,46.854,12.059"/>
<polyline fill="#3C1C0D" points="49.959,12.322 50.036,12.516 50.031,9.97 49.953,10.008 49.959,12.322 "/>
<path fill="#3C1C0D" d="M43.203,10.599c0.693,0.905,1.061,2.224,1.061,3.817h0.076c0-1.61-0.371-2.946-1.076-3.863
	c-0.73-0.955-1.818-1.459-3.142-1.461V9.17C41.421,9.171,42.486,9.666,43.203,10.599"/>
<path fill="#3C1C0D" d="M44.514,12.117c0-1.068,0.516-1.743,0.949-2.125c0.549-0.482,1.294-0.767,2.041-0.781l-0.003-0.077
	c-0.763,0.015-1.526,0.306-2.089,0.8c-0.445,0.392-0.977,1.088-0.977,2.183c0,0.006,0,0.013,0,0.019h0.078
	C44.514,12.129,44.514,12.123,44.514,12.117"/>
<path fill="#3C1C0D" d="M46.627,15.376l0.039-0.065c-1.795-1.064-2.146-1.97-2.152-3.175h-0.078
	C44.439,13.37,44.801,14.295,46.627,15.376"/>
<path fill="#3C1C0D" d="M47.999,13.381l0.168,0.101l0.039-0.065l-0.167-0.101c-0.737-0.438-1.12-0.693-1.107-1.255l-0.078-0.001
	C46.84,12.692,47.301,12.965,47.999,13.381"/>
<path fill="#3C1C0D" d="M47.088,19.877l0.001,0.076c1.017-0.01,1.865-0.36,2.452-1.014c0.496-0.555,0.784-1.295,0.812-2.088
	l-0.08-0.002C50.227,18.339,49.221,19.854,47.088,19.877"/>
<path fill="#3C1C0D" d="M46.666,15.311l-0.039,0.065c0.93,0.554,1.188,0.851,1.198,1.394l0.075-0.002
	C47.889,16.198,47.613,15.873,46.666,15.311"/>
<path fill="#3C1C0D" d="M47.645,17.501c0.168-0.172,0.26-0.415,0.26-0.702c0-0.01-0.002-0.021-0.002-0.031l-0.075,0.002
	c0,0.01,0,0.021,0,0.029c0,0.268-0.082,0.49-0.235,0.648c-0.183,0.188-0.457,0.283-0.797,0.283v0.076
	C47.152,17.809,47.447,17.701,47.645,17.501"/>
<path fill="#3C1C0D" d="M49.907,15.086c0.278,0.49,0.387,1.02,0.366,1.766l0.078,0.002c0.035-1.305-0.312-2.332-2.146-3.438
	l-0.039,0.066C49.032,14.003,49.586,14.513,49.907,15.086"/>
<path fill="#3C1C0D" d="M43.25,18.335c-0.691,1.005-1.697,1.535-2.904,1.538v0.075c1.234,0,2.259-0.542,2.966-1.569
	c0.672-0.975,1.025-2.346,1.025-3.962h-0.074C44.264,16.02,43.912,17.374,43.25,18.335"/>
<path fill="#3C1C0D" d="M44.861,16.982c0.553,0.494,1.326,0.824,1.932,0.824V17.73c-0.586,0-1.342-0.323-1.877-0.807l-0.387-0.345
	l0.078,0.172L44.861,16.982"/>
<path fill="#3C1C0D" d="M44.677,19.209l-0.075-0.045l-0.078,0.044l0.115,0.065c0.75,0.444,1.619,0.688,2.45,0.68l-0.001-0.076
	C46.271,19.884,45.414,19.648,44.677,19.209"/>
<polyline fill="#3C1C0D" points="44.607,16.752 44.529,16.58 44.523,19.208 44.602,19.164 44.607,16.752 "/>
<path fill="#3C1C0D" d="M39.607,11.367l-0.079-0.055c0,0.195,0,6.208,0,6.42l0.079-0.062C39.607,17.359,39.607,11.66,39.607,11.367"
	/>
<path fill="#3C1C0D" d="M39.607,17.671l-0.079,0.062c0.133,0.037,0.328,0.084,0.545,0.084V17.74
	C39.893,17.739,39.729,17.706,39.607,17.671"/>
<path fill="#3C1C0D" d="M41.322,17.034c0.287-0.552,0.434-1.409,0.434-2.559H41.68c0,1.136-0.143,1.985-0.426,2.524
	c-0.266,0.504-0.641,0.74-1.18,0.74v0.077C40.639,17.816,41.046,17.561,41.322,17.034"/>
<path fill="#3C1C0D" d="M39.53,19.795l0.077,0.096c0.222,0.039,0.469,0.062,0.74,0.06v-0.075
	C40.044,19.873,39.77,19.848,39.53,19.795"/>
<path fill="#3C1C0D" d="M39.533,24.068l0.001,0.154l0.077,0.076v-0.23c0,0-0.003-3.672-0.003-4.18l-0.077-0.096
	C39.53,20.157,39.533,24.068,39.533,24.068"/>
<path fill="#3C1C0D" d="M37.088,24.062c-0.023-4.564-0.03-9.269-0.02-13.971l0.001-0.084l-0.076-0.042l-0.001,0.125
	c-0.011,4.702-0.004,9.405,0.019,13.972l0.001,0.229l0.076-0.076V24.062"/>
<rect x="37.013" y="24.218" fill="#3C1C0D" width="2.598" height="0.083"/>
<path fill="#3C1C0D" d="M36.351,9.551c-0.011,3.075-0.01,6.215-0.002,9.335v0.082l0.078,0.04v-0.122
	c-0.01-3.12-0.009-6.26,0.001-9.335V9.318l-0.077,0.078V9.551"/>
<path fill="#3C1C0D" d="M36.281,19.016c-0.853,0.577-1.992,0.877-3.297,0.862v0.079c1.32,0.012,2.476-0.291,3.341-0.878l0.103-0.071
	l-0.078-0.04L36.281,19.016"/>
<path fill="#3C1C0D" d="M33.903,17.57l-0.078-0.045c-0.197,0.101-0.466,0.156-0.771,0.154v0.075
	C33.393,17.758,33.689,17.691,33.903,17.57"/>
<path fill="#3C1C0D" d="M33.82,14.597c0,0.978,0.002,1.955,0.005,2.93l0.078,0.045c-0.003-0.989-0.005-1.981-0.005-2.975
	c0-1.684,0.004-3.368,0.012-5.034V9.411l-0.076-0.076l-0.002,0.228C33.825,11.229,33.82,12.913,33.82,14.597"/>
<path fill="#3C1C0D" d="M30.524,18.951c-0.543-0.6-0.812-1.493-0.813-2.654h-0.077c0.003,1.182,0.278,2.092,0.833,2.707
	c0.565,0.621,1.411,0.941,2.516,0.953v-0.079C31.902,19.866,31.074,19.557,30.524,18.951"/>
<path fill="#3C1C0D" d="M32.271,17.309c0.156,0.299,0.412,0.444,0.782,0.448V17.68c-0.217-0.003-0.877-0.009-0.881-1.279h-0.077
	C32.097,16.779,32.156,17.086,32.271,17.309"/>
<rect x="29.633" y="9.381" fill="#3C1C0D" width="0.078" height="6.916"/>
<path fill="#3C1C0D" d="M32.106,9.584c-0.01,2.273-0.014,4.565-0.011,6.816h0.077c-0.004-2.25-0.001-4.543,0.01-6.816l0.002-0.234
	l-0.078,0.078V9.584"/>
<polyline fill="#3C1C0D" points="36.196,9.396 36.351,9.396 36.428,9.317 36.195,9.319 33.834,9.335 33.91,9.411 36.196,9.396 "/>
<rect x="29.633" y="9.35" fill="#3C1C0D" width="2.552" height="0.107"/>
<path fill="#3C1C0D" d="M40.137,11.286c0.552,0,0.909,0.208,1.151,0.677c0.263,0.507,0.392,1.328,0.392,2.512h0.076
	c0-1.197-0.129-2.031-0.398-2.548c-0.254-0.491-0.643-0.718-1.218-0.72L40.137,11.286"/>
<path fill="#3C1C0D" d="M40.137,11.286v-0.078c-0.233,0-0.457,0.049-0.609,0.104l0.079,0.055
	C39.746,11.323,39.94,11.286,40.137,11.286"/>
<path fill="#3C1C0D" d="M36.994,9.968l0.076,0.042l0.07-0.046c0.819-0.534,1.795-0.793,2.982-0.793V9.093
	c-1.203,0-2.193,0.265-3.024,0.807L36.994,9.968"/>
<path fill="#3C1C0D" d="M39.737,3.573c-4.273,0.857-7.896,2.684-10.766,5.434l0.078,0.033c2.856-2.726,6.456-4.54,10.704-5.391
	c3.194-0.637,6.772-0.741,10.937-0.318l0.078-0.071C46.564,2.829,42.957,2.931,39.737,3.573"/>
<path fill="#3C1C0D" d="M50.711,14.593c0,0.852-0.001,1.704-0.002,2.55c-0.002,2.621-0.952,4.797-2.752,6.291
	c-1.549,1.311-6.271,3.431-8.081,4.188v0.083c1.79-0.749,6.565-2.889,8.13-4.212c1.816-1.509,2.777-3.705,2.78-6.351
	c0.001-0.848,0.002-1.699,0.002-2.551c0-3.75-0.009-7.55-0.022-11.333L50.688,3.33C50.703,7.089,50.711,10.867,50.711,14.593"/>
<path fill="#3C1C0D" d="M31.796,23.434c-1.798-1.492-2.75-3.668-2.752-6.291c-0.001-0.834-0.001-1.68-0.001-2.538
	c0-1.814,0.001-3.678,0.005-5.565L28.97,9.007c-0.003,1.899-0.005,3.773-0.005,5.599c0,0.858,0,1.705,0.001,2.539
	c0.002,2.646,0.964,4.84,2.779,6.352c1.557,1.312,6.34,3.462,8.131,4.212v-0.083C38.066,26.861,33.336,24.734,31.796,23.434"/>
<path fill="#3C1C0D" d="M39.746,0c-2.137-0.012-7.584,0.224-11.998,2.665l-0.162,0.086l0.077,0.045l0.12-0.066
	c4.397-2.43,9.831-2.664,11.961-2.653h0.13h0.131C42.139,0.066,47.57,0.3,51.967,2.73l0.12,0.066l0.077-0.046l-0.16-0.086
	c-4.413-2.441-9.861-2.677-12-2.665"/>
<path fill="#3C1C0D" d="M52.09,17.133c0,1.498-0.265,2.874-0.787,4.098c-0.544,1.275-1.371,2.381-2.453,3.283
	c-0.875,0.739-2.636,1.732-5.23,2.955c-1.021,0.479-1.951,0.891-2.555,1.151c-0.361,0.153-1.021,0.432-1.188,0.502v0.081
	c0.166-0.069,0.855-0.355,1.219-0.512c0.604-0.262,1.534-0.672,2.557-1.152c2.603-1.225,4.369-2.223,5.248-2.967
	c1.095-0.909,1.93-2.023,2.479-3.314c0.523-1.229,0.79-2.617,0.791-4.125V2.752l-0.08,0.046V17.133"/>
<path fill="#3C1C0D" d="M38.691,28.62c-0.602-0.261-1.535-0.673-2.553-1.151c-2.599-1.223-4.358-2.216-5.231-2.953
	c-1.084-0.904-1.911-2.01-2.456-3.285c-0.52-1.224-0.784-2.6-0.785-4.098L27.664,2.797l-0.077-0.045l0.001,14.381
	c0.001,1.508,0.267,2.896,0.792,4.127c0.549,1.289,1.383,2.403,2.477,3.312c0.88,0.744,2.646,1.742,5.248,2.967
	c1.019,0.48,1.953,0.891,2.555,1.152c0.361,0.154,1.053,0.441,1.217,0.512v-0.081C39.712,29.052,39.051,28.775,38.691,28.62"/>
<g>
	<g>
		<g>
			<g>
				<defs>
					<path id="SVGID_7_" d="M47.59,17.447c0.153-0.158,0.235-0.383,0.235-0.648c0-0.01,0-0.021,0-0.029l-0.078,0.002
						c0.001,0.011,0.001,0.021,0.001,0.027c0,0.25-0.072,0.449-0.215,0.596c-0.166,0.17-0.424,0.26-0.74,0.26v0.078
						C47.133,17.73,47.407,17.635,47.59,17.447"/>
				</defs>
				<clipPath id="SVGID_8_">
					<use xlink:href="#SVGID_7_"  overflow="visible"/>
				</clipPath>
				<path clip-path="url(#SVGID_8_)" fill="#47270F" d="M47.59,17.447c0.153-0.158,0.235-0.383,0.235-0.648c0-0.01,0-0.021,0-0.029
					l-0.078,0.002c0.001,0.011,0.001,0.021,0.001,0.027c0,0.25-0.072,0.449-0.215,0.596c-0.166,0.17-0.424,0.26-0.74,0.26v0.078
					C47.133,17.73,47.407,17.635,47.59,17.447"/>
			</g>
		</g>
	</g>
	<g>
		<g>
			<g>
				<defs>
					<path id="SVGID_9_" d="M47.59,17.447c0.153-0.158,0.235-0.383,0.235-0.648c0-0.01,0-0.021,0-0.029l-0.078,0.002
						c0.001,0.011,0.001,0.021,0.001,0.027c0,0.25-0.072,0.449-0.215,0.596c-0.166,0.17-0.424,0.26-0.74,0.26v0.078
						C47.133,17.73,47.407,17.635,47.59,17.447"/>
				</defs>
				<clipPath id="SVGID_10_">
					<use xlink:href="#SVGID_9_"  overflow="visible"/>
				</clipPath>
				
					<linearGradient id="SVGID_11_" gradientUnits="userSpaceOnUse" x1="-596.6714" y1="141.5732" x2="-596.1841" y2="141.5732" gradientTransform="matrix(2.1164 0 0 4.7729 1309.5898 -658.4702)">
					<stop  offset="0" style="stop-color:#47270F"/>
					<stop  offset="1" style="stop-color:#47270F"/>
				</linearGradient>
				<rect x="46.793" y="16.77" clip-path="url(#SVGID_10_)" fill="url(#SVGID_11_)" width="1.032" height="0.963"/>
			</g>
		</g>
	</g>
</g>
<polyline fill="#3C1C0D" points="44.529,16.58 44.453,16.408 44.447,19.251 44.523,19.208 44.529,16.58 "/>
<g>
	<g>
		<g>
			<g>
				<defs>
					<path id="SVGID_12_" d="M50.354,16.854l0.074,0.002c0.038-1.33-0.314-2.377-2.182-3.503l-0.04,0.066
						C50.04,14.521,50.387,15.549,50.354,16.854"/>
				</defs>
				<clipPath id="SVGID_13_">
					<use xlink:href="#SVGID_12_"  overflow="visible"/>
				</clipPath>
				<path clip-path="url(#SVGID_13_)" fill="#714A1E" d="M50.354,16.854l0.074,0.002c0.038-1.33-0.314-2.377-2.182-3.503
					l-0.04,0.066C50.04,14.521,50.387,15.549,50.354,16.854"/>
			</g>
		</g>
	</g>
	<g>
		<g>
			<g>
				<defs>
					<path id="SVGID_14_" d="M50.354,16.854l0.074,0.002c0.038-1.33-0.314-2.377-2.182-3.503l-0.04,0.066
						C50.04,14.521,50.387,15.549,50.354,16.854"/>
				</defs>
				<clipPath id="SVGID_15_">
					<use xlink:href="#SVGID_14_"  overflow="visible"/>
				</clipPath>
				
					<linearGradient id="SVGID_16_" gradientUnits="userSpaceOnUse" x1="-787.5649" y1="48.498" x2="-787.0776" y2="48.498" gradientTransform="matrix(4.5568 0 0 9.988 3636.9854 -469.2992)">
					<stop  offset="0" style="stop-color:#714A1E"/>
					<stop  offset="1" style="stop-color:#9C7A56"/>
				</linearGradient>
				<rect x="48.206" y="13.35" clip-path="url(#SVGID_15_)" fill="url(#SVGID_16_)" width="2.26" height="3.505"/>
			</g>
		</g>
	</g>
</g>
<g>
	<g>
		<g>
			<g>
				<defs>
					<path id="SVGID_17_" d="M44.639,19.273l-0.115-0.065l-0.074,0.043l0.15,0.092c0.76,0.45,1.646,0.695,2.489,0.688v-0.077
						C46.258,19.962,45.389,19.721,44.639,19.273 M50.354,16.854l0.074,0.002c-0.025,0.812-0.32,1.57-0.83,2.138
						c-0.602,0.669-1.47,1.026-2.509,1.039v-0.077c1.017-0.012,1.864-0.359,2.452-1.016C50.037,18.387,50.325,17.645,50.354,16.854z
						"/>
				</defs>
				<clipPath id="SVGID_18_">
					<use xlink:href="#SVGID_17_"  overflow="visible"/>
				</clipPath>
				<path clip-path="url(#SVGID_18_)" fill="#47270F" d="M44.639,19.273l-0.115-0.065l-0.074,0.043l0.15,0.092
					c0.76,0.45,1.646,0.695,2.489,0.688v-0.077C46.258,19.962,45.389,19.721,44.639,19.273 M50.354,16.854l0.074,0.002
					c-0.025,0.812-0.32,1.57-0.83,2.138c-0.602,0.669-1.47,1.026-2.509,1.039v-0.077c1.017-0.012,1.864-0.359,2.452-1.016
					C50.037,18.387,50.325,17.645,50.354,16.854z"/>
			</g>
		</g>
	</g>
	<g>
		<g>
			<g>
				<defs>
					<path id="SVGID_19_" d="M44.639,19.273l-0.115-0.065l-0.074,0.043l0.15,0.092c0.76,0.45,1.646,0.695,2.489,0.688v-0.077
						C46.258,19.962,45.389,19.721,44.639,19.273 M50.354,16.854l0.074,0.002c-0.025,0.812-0.32,1.57-0.83,2.138
						c-0.602,0.669-1.47,1.026-2.509,1.039v-0.077c1.017-0.012,1.864-0.359,2.452-1.016C50.037,18.387,50.325,17.645,50.354,16.854z
						"/>
				</defs>
				<clipPath id="SVGID_20_">
					<use xlink:href="#SVGID_19_"  overflow="visible"/>
				</clipPath>
				
					<linearGradient id="SVGID_21_" gradientUnits="userSpaceOnUse" x1="-890.9023" y1="54.1113" x2="-890.4155" y2="54.1113" gradientTransform="matrix(12.2657 0 0 9.3352 10972.0068 -486.6875)">
					<stop  offset="0" style="stop-color:#47270F"/>
					<stop  offset="1" style="stop-color:#9C7A56"/>
				</linearGradient>
				<rect x="44.447" y="16.854" clip-path="url(#SVGID_20_)" fill="url(#SVGID_21_)" width="5.979" height="3.188"/>
			</g>
		</g>
	</g>
</g>
<g>
	<g>
		<g>
			<g>
				<defs>
					<path id="SVGID_22_" d="M44.916,16.926c0.535,0.481,1.291,0.807,1.877,0.807v-0.078c-0.562,0-1.312-0.321-1.826-0.783
						l-0.514-0.461l0.076,0.172L44.916,16.926"/>
				</defs>
				<clipPath id="SVGID_23_">
					<use xlink:href="#SVGID_22_"  overflow="visible"/>
				</clipPath>
				<path clip-path="url(#SVGID_23_)" fill="#664118" d="M44.916,16.926c0.535,0.481,1.291,0.807,1.877,0.807v-0.078
					c-0.562,0-1.312-0.321-1.826-0.783l-0.514-0.461l0.076,0.172L44.916,16.926"/>
			</g>
		</g>
	</g>
	<g>
		<g>
			<g>
				<defs>
					<path id="SVGID_24_" d="M44.916,16.926c0.535,0.481,1.291,0.807,1.877,0.807v-0.078c-0.562,0-1.312-0.321-1.826-0.783
						l-0.514-0.461l0.076,0.172L44.916,16.926"/>
				</defs>
				<clipPath id="SVGID_25_">
					<use xlink:href="#SVGID_24_"  overflow="visible"/>
				</clipPath>
				
					<linearGradient id="SVGID_26_" gradientUnits="userSpaceOnUse" x1="-794.9673" y1="117.6309" x2="-794.4795" y2="117.6309" gradientTransform="matrix(4.7961 0 0 5.5125 3857.1956 -631.3703)">
					<stop  offset="0" style="stop-color:#664118"/>
					<stop  offset="1" style="stop-color:#47270F"/>
				</linearGradient>
				<rect x="44.453" y="16.408" clip-path="url(#SVGID_25_)" fill="url(#SVGID_26_)" width="2.34" height="1.322"/>
			</g>
		</g>
	</g>
</g>
<g>
	<g>
		<g>
			<g>
				<defs>
					<path id="SVGID_27_" d="M48.039,13.316l0.167,0.101l0.04-0.067l-0.168-0.101c-0.732-0.435-1.081-0.668-1.071-1.187
						l-0.075-0.002C46.919,12.623,47.302,12.877,48.039,13.316"/>
				</defs>
				<clipPath id="SVGID_28_">
					<use xlink:href="#SVGID_27_"  overflow="visible"/>
				</clipPath>
				<path clip-path="url(#SVGID_28_)" fill="#714A1E" d="M48.039,13.316l0.167,0.101l0.04-0.067l-0.168-0.101
					c-0.732-0.435-1.081-0.668-1.071-1.187l-0.075-0.002C46.919,12.623,47.302,12.877,48.039,13.316"/>
			</g>
		</g>
	</g>
	<g>
		<g>
			<g>
				<defs>
					<path id="SVGID_29_" d="M48.039,13.316l0.167,0.101l0.04-0.067l-0.168-0.101c-0.732-0.435-1.081-0.668-1.071-1.187
						l-0.075-0.002C46.919,12.623,47.302,12.877,48.039,13.316"/>
				</defs>
				<clipPath id="SVGID_30_">
					<use xlink:href="#SVGID_29_"  overflow="visible"/>
				</clipPath>
				
					<linearGradient id="SVGID_31_" gradientUnits="userSpaceOnUse" x1="-1231.2578" y1="-190.7871" x2="-1230.771" y2="-190.7871" gradientTransform="matrix(-2.6961 0 0 -5.5802 -3271.3486 -1051.8943)">
					<stop  offset="0" style="stop-color:#714A1E"/>
					<stop  offset="1" style="stop-color:#9C7A56"/>
				</linearGradient>
				<rect x="46.919" y="12.061" clip-path="url(#SVGID_30_)" fill="url(#SVGID_31_)" width="1.327" height="1.355"/>
			</g>
		</g>
	</g>
</g>
<g>
	<g>
		<g>
			<g>
				<defs>
					<path id="SVGID_32_" d="M32.183,9.584c-0.011,2.273-0.014,4.565-0.01,6.816h0.078c-0.004-2.25-0.001-4.543,0.009-6.815
						l0.002-0.313L32.186,9.35L32.183,9.584"/>
				</defs>
				<clipPath id="SVGID_33_">
					<use xlink:href="#SVGID_32_"  overflow="visible"/>
				</clipPath>
				<path clip-path="url(#SVGID_33_)" fill="#9C7A56" d="M32.183,9.584c-0.011,2.273-0.014,4.565-0.01,6.816h0.078
					c-0.004-2.25-0.001-4.543,0.009-6.815l0.002-0.313L32.186,9.35L32.183,9.584"/>
			</g>
		</g>
	</g>
	<g>
		<g>
			<g>
				<defs>
					<path id="SVGID_34_" d="M32.183,9.584c-0.011,2.273-0.014,4.565-0.01,6.816h0.078c-0.004-2.25-0.001-4.543,0.009-6.815
						l0.002-0.313L32.186,9.35L32.183,9.584"/>
				</defs>
				<clipPath id="SVGID_35_">
					<use xlink:href="#SVGID_34_"  overflow="visible"/>
				</clipPath>
				
					<linearGradient id="SVGID_36_" gradientUnits="userSpaceOnUse" x1="-1010.9121" y1="219.8135" x2="-1010.4243" y2="219.8135" gradientTransform="matrix(0 -14.6153 2.9907 0 -625.1813 -14758.3818)">
					<stop  offset="0" style="stop-color:#9C7A56"/>
					<stop  offset="1" style="stop-color:#AF906F"/>
				</linearGradient>
				<rect x="32.169" y="9.272" clip-path="url(#SVGID_35_)" fill="url(#SVGID_36_)" width="0.093" height="7.128"/>
			</g>
		</g>
	</g>
</g>
<path fill="#8B653F" d="M39.683,11.424l-0.077-0.058c0,0.293,0,5.993,0,6.304l0.077-0.061
	C39.683,17.201,39.683,11.813,39.683,11.424"/>
<rect x="29.556" y="9.272" fill="#785328" width="2.706" height="0.108"/>
<path fill="#714A1E" d="M33.82,14.597c0-1.684,0.005-3.368,0.012-5.034l0.002-0.228l-0.077-0.077l-0.001,0.304
	c-0.009,1.666-0.013,3.351-0.013,5.034c0,0.96,0.002,1.921,0.004,2.88l0.078,0.049C33.822,16.552,33.82,15.574,33.82,14.597"/>
<g>
	<g>
		<g>
			<g>
				<defs>
					<path id="SVGID_37_" d="M33.054,17.68v-0.078c-0.219,0-0.801-0.004-0.804-1.201h-0.077
						C32.176,17.671,32.836,17.678,33.054,17.68 M33.054,17.68v-0.078c0.273,0.002,0.512-0.041,0.693-0.123l0.078,0.049
						C33.628,17.626,33.359,17.682,33.054,17.68z"/>
				</defs>
				<clipPath id="SVGID_38_">
					<use xlink:href="#SVGID_37_"  overflow="visible"/>
				</clipPath>
				<path clip-path="url(#SVGID_38_)" fill="#523010" d="M33.054,17.68v-0.078c-0.219,0-0.801-0.004-0.804-1.201h-0.077
					C32.176,17.671,32.836,17.678,33.054,17.68 M33.054,17.68v-0.078c0.273,0.002,0.512-0.041,0.693-0.123l0.078,0.049
					C33.628,17.626,33.359,17.682,33.054,17.68z"/>
			</g>
		</g>
	</g>
	<g>
		<g>
			<g>
				<defs>
					<path id="SVGID_39_" d="M33.054,17.68v-0.078c-0.219,0-0.801-0.004-0.804-1.201h-0.077
						C32.176,17.671,32.836,17.678,33.054,17.68 M33.054,17.68v-0.078c0.273,0.002,0.512-0.041,0.693-0.123l0.078,0.049
						C33.628,17.626,33.359,17.682,33.054,17.68z"/>
				</defs>
				<clipPath id="SVGID_40_">
					<use xlink:href="#SVGID_39_"  overflow="visible"/>
				</clipPath>
				
					<linearGradient id="SVGID_41_" gradientUnits="userSpaceOnUse" x1="-1178.8057" y1="-194.2881" x2="-1178.3169" y2="-194.2881" gradientTransform="matrix(-3.3879 0 0 -5.4271 -3959.8491 -1037.3811)">
					<stop  offset="0" style="stop-color:#523010"/>
					<stop  offset="1" style="stop-color:#9C7A56"/>
				</linearGradient>
				<rect x="32.173" y="16.4" clip-path="url(#SVGID_40_)" fill="url(#SVGID_41_)" width="1.652" height="1.281"/>
			</g>
		</g>
	</g>
</g>
<polyline fill="#664118" points="33.757,9.258 33.834,9.335 36.195,9.319 36.428,9.317 36.505,9.24 36.195,9.242 33.757,9.258 "/>
<g>
	<g>
		<g>
			<g>
				<defs>
					<path id="SVGID_42_" d="M36.324,19.079c-0.865,0.587-2.021,0.89-3.341,0.878v0.076c1.335,0.012,2.507-0.295,3.385-0.893
						l0.136-0.094l-0.077-0.041L36.324,19.079 M30.467,19.004c-0.556-0.615-0.831-1.525-0.834-2.707h-0.077
						c0.002,1.201,0.285,2.129,0.854,2.758c0.58,0.637,1.445,0.967,2.573,0.979v-0.076C31.878,19.945,31.032,19.625,30.467,19.004z
						 M29.556,9.306l0.077,0.075v6.916h-0.077V9.306z"/>
				</defs>
				<clipPath id="SVGID_43_">
					<use xlink:href="#SVGID_42_"  overflow="visible"/>
				</clipPath>
				<path clip-path="url(#SVGID_43_)" fill="#825C34" d="M36.324,19.079c-0.865,0.587-2.021,0.89-3.341,0.878v0.076
					c1.335,0.012,2.507-0.295,3.385-0.893l0.136-0.094l-0.077-0.041L36.324,19.079 M30.467,19.004
					c-0.556-0.615-0.831-1.525-0.834-2.707h-0.077c0.002,1.201,0.285,2.129,0.854,2.758c0.58,0.637,1.445,0.967,2.573,0.979v-0.076
					C31.878,19.945,31.032,19.625,30.467,19.004z M29.556,9.306l0.077,0.075v6.916h-0.077V9.306z"/>
			</g>
		</g>
	</g>
	<g>
		<g>
			<g>
				<defs>
					<path id="SVGID_44_" d="M36.324,19.079c-0.865,0.587-2.021,0.89-3.341,0.878v0.076c1.335,0.012,2.507-0.295,3.385-0.893
						l0.136-0.094l-0.077-0.041L36.324,19.079 M30.467,19.004c-0.556-0.615-0.831-1.525-0.834-2.707h-0.077
						c0.002,1.201,0.285,2.129,0.854,2.758c0.58,0.637,1.445,0.967,2.573,0.979v-0.076C31.878,19.945,31.032,19.625,30.467,19.004z
						 M29.556,9.306l0.077,0.075v6.916h-0.077V9.306z"/>
				</defs>
				<clipPath id="SVGID_45_">
					<use xlink:href="#SVGID_44_"  overflow="visible"/>
				</clipPath>
				
					<linearGradient id="SVGID_46_" gradientUnits="userSpaceOnUse" x1="-898.3608" y1="-2.6411" x2="-897.873" y2="-2.6411" gradientTransform="matrix(14.2448 0 0 24.8207 12826.5322 80.2358)">
					<stop  offset="0" style="stop-color:#825C34"/>
					<stop  offset="1" style="stop-color:#9C7A56"/>
				</linearGradient>
				<rect x="29.556" y="9.306" clip-path="url(#SVGID_45_)" fill="url(#SVGID_46_)" width="6.947" height="10.739"/>
			</g>
		</g>
	</g>
</g>
<path fill="#8B653F" d="M36.428,9.551c-0.01,3.075-0.011,6.215-0.002,9.335v0.122l0.077,0.041v-0.163
	c-0.009-3.12-0.009-6.26,0.002-9.334V9.24l-0.077,0.078V9.551"/>
<g>
	<g>
		<g>
			<g>
				<defs>
					<path id="SVGID_47_" d="M46.627,15.376l-0.04,0.066c0.899,0.537,1.149,0.819,1.16,1.328l0.078-0.002
						C47.812,16.227,47.557,15.93,46.627,15.376 M46.627,15.376l-0.04,0.066c-0.884-0.523-1.456-1.027-1.8-1.583
						c-0.297-0.485-0.426-1-0.43-1.723l0.078-0.001C44.439,13.37,44.801,14.295,46.627,15.376z"/>
				</defs>
				<clipPath id="SVGID_48_">
					<use xlink:href="#SVGID_47_"  overflow="visible"/>
				</clipPath>
				<path clip-path="url(#SVGID_48_)" fill="#47270F" d="M46.627,15.376l-0.04,0.066c0.899,0.537,1.149,0.819,1.16,1.328
					l0.078-0.002C47.812,16.227,47.557,15.93,46.627,15.376 M46.627,15.376l-0.04,0.066c-0.884-0.523-1.456-1.027-1.8-1.583
					c-0.297-0.485-0.426-1-0.43-1.723l0.078-0.001C44.439,13.37,44.801,14.295,46.627,15.376z"/>
			</g>
		</g>
	</g>
	<g>
		<g>
			<g>
				<defs>
					<path id="SVGID_49_" d="M46.627,15.376l-0.04,0.066c0.899,0.537,1.149,0.819,1.16,1.328l0.078-0.002
						C47.812,16.227,47.557,15.93,46.627,15.376 M46.627,15.376l-0.04,0.066c-0.884-0.523-1.456-1.027-1.8-1.583
						c-0.297-0.485-0.426-1-0.43-1.723l0.078-0.001C44.439,13.37,44.801,14.295,46.627,15.376z"/>
				</defs>
				<clipPath id="SVGID_50_">
					<use xlink:href="#SVGID_49_"  overflow="visible"/>
				</clipPath>
				
					<linearGradient id="SVGID_51_" gradientUnits="userSpaceOnUse" x1="-846.1699" y1="32.4473" x2="-845.6816" y2="32.4473" gradientTransform="matrix(7.1067 0 0 12.3026 6057.834 -384.7376)">
					<stop  offset="0" style="stop-color:#47270F"/>
					<stop  offset="0.5" style="stop-color:#9C7A56"/>
					<stop  offset="1" style="stop-color:#47270F"/>
				</linearGradient>
				<rect x="44.357" y="12.136" clip-path="url(#SVGID_50_)" fill="url(#SVGID_51_)" width="3.468" height="4.636"/>
			</g>
		</g>
	</g>
</g>
<path fill="#523010" d="M37.011,24.062c-0.023-4.564-0.029-9.269-0.019-13.971l0.001-0.125l-0.078-0.042v0.167
	c-0.01,4.702-0.005,9.405,0.019,13.973l0.002,0.307l0.077-0.077L37.011,24.062"/>
<g>
	<g>
		<g>
			<g>
				<defs>
					<path id="SVGID_52_" d="M41.186,16.962c-0.25,0.478-0.604,0.699-1.11,0.699l0.001,0.078c0.537,0,0.912-0.236,1.18-0.74
						c0.283-0.539,0.428-1.388,0.428-2.524h-0.078C41.604,15.598,41.462,16.436,41.186,16.962 M40.073,17.661l0.001,0.078
						c-0.182,0-0.345-0.033-0.467-0.068l0.076-0.06C39.792,17.641,39.927,17.661,40.073,17.661z"/>
				</defs>
				<clipPath id="SVGID_53_">
					<use xlink:href="#SVGID_52_"  overflow="visible"/>
				</clipPath>
				<path clip-path="url(#SVGID_53_)" fill="#47270F" d="M41.186,16.962c-0.25,0.478-0.604,0.699-1.11,0.699l0.001,0.078
					c0.537,0,0.912-0.236,1.18-0.74c0.283-0.539,0.428-1.388,0.428-2.524h-0.078C41.604,15.598,41.462,16.436,41.186,16.962
					 M40.073,17.661l0.001,0.078c-0.182,0-0.345-0.033-0.467-0.068l0.076-0.06C39.792,17.641,39.927,17.661,40.073,17.661z"/>
			</g>
		</g>
	</g>
	<g>
		<g>
			<g>
				<defs>
					<path id="SVGID_54_" d="M41.186,16.962c-0.25,0.478-0.604,0.699-1.11,0.699l0.001,0.078c0.537,0,0.912-0.236,1.18-0.74
						c0.283-0.539,0.428-1.388,0.428-2.524h-0.078C41.604,15.598,41.462,16.436,41.186,16.962 M40.073,17.661l0.001,0.078
						c-0.182,0-0.345-0.033-0.467-0.068l0.076-0.06C39.792,17.641,39.927,17.661,40.073,17.661z"/>
				</defs>
				<clipPath id="SVGID_55_">
					<use xlink:href="#SVGID_54_"  overflow="visible"/>
				</clipPath>
				
					<linearGradient id="SVGID_56_" gradientUnits="userSpaceOnUse" x1="-1130.9014" y1="-127.0562" x2="-1130.415" y2="-127.0562" gradientTransform="matrix(-4.2513 0 0 -9.4948 -4766.1191 -1190.2628)">
					<stop  offset="0" style="stop-color:#47270F"/>
					<stop  offset="1" style="stop-color:#714A1E"/>
				</linearGradient>
				<rect x="39.607" y="14.475" clip-path="url(#SVGID_55_)" fill="url(#SVGID_56_)" width="2.073" height="3.264"/>
			</g>
		</g>
	</g>
</g>
<g>
	<g>
		<g>
			<g>
				<defs>
					<path id="SVGID_57_" d="M40.137,11.286L40.137,11.286v0.077c0.52,0,0.855,0.196,1.082,0.636
						c0.258,0.495,0.385,1.305,0.385,2.476h0.076c0-1.184-0.129-2.005-0.392-2.512C41.046,11.494,40.689,11.286,40.137,11.286
						 M39.683,11.424l-0.077-0.058c0.14-0.044,0.333-0.081,0.531-0.081v0.077C39.972,11.363,39.809,11.389,39.683,11.424z"/>
				</defs>
				<clipPath id="SVGID_58_">
					<use xlink:href="#SVGID_57_"  overflow="visible"/>
				</clipPath>
				<path clip-path="url(#SVGID_58_)" fill="#47270F" d="M40.137,11.286L40.137,11.286v0.077c0.52,0,0.855,0.196,1.082,0.636
					c0.258,0.495,0.385,1.305,0.385,2.476h0.076c0-1.184-0.129-2.005-0.392-2.512C41.046,11.494,40.689,11.286,40.137,11.286
					 M39.683,11.424l-0.077-0.058c0.14-0.044,0.333-0.081,0.531-0.081v0.077C39.972,11.363,39.809,11.389,39.683,11.424z"/>
			</g>
		</g>
	</g>
	<g>
		<g>
			<g>
				<defs>
					<path id="SVGID_59_" d="M40.137,11.286L40.137,11.286v0.077c0.52,0,0.855,0.196,1.082,0.636
						c0.258,0.495,0.385,1.305,0.385,2.476h0.076c0-1.184-0.129-2.005-0.392-2.512C41.046,11.494,40.689,11.286,40.137,11.286
						 M39.683,11.424l-0.077-0.058c0.14-0.044,0.333-0.081,0.531-0.081v0.077C39.972,11.363,39.809,11.389,39.683,11.424z"/>
				</defs>
				<clipPath id="SVGID_60_">
					<use xlink:href="#SVGID_59_"  overflow="visible"/>
				</clipPath>
				
					<linearGradient id="SVGID_61_" gradientUnits="userSpaceOnUse" x1="-1130.9019" y1="-128.9341" x2="-1130.4141" y2="-128.9341" gradientTransform="matrix(-4.2513 0 0 -9.3376 -4766.1191 -1191.0536)">
					<stop  offset="0" style="stop-color:#47270F"/>
					<stop  offset="1" style="stop-color:#9C7A56"/>
				</linearGradient>
				<rect x="39.607" y="11.286" clip-path="url(#SVGID_60_)" fill="url(#SVGID_61_)" width="2.073" height="3.189"/>
			</g>
		</g>
	</g>
</g>
<rect x="36.936" y="24.294" fill="#8B653F" width="2.752" height="0.085"/>
<g>
	<g>
		<g>
			<g>
				<defs>
					<path id="SVGID_62_" d="M37.098,9.899c0.83-0.543,1.821-0.807,3.024-0.807V9.016c-1.219,0-2.222,0.267-3.067,0.818
						l-0.139,0.092l0.078,0.042L37.098,9.899 M40.122,9.016v0.077c1.323,0.003,2.409,0.506,3.142,1.461
						c0.705,0.917,1.076,2.252,1.076,3.863h0.078c-0.002-1.627-0.379-2.979-1.092-3.911C42.579,9.533,41.471,9.018,40.122,9.016z
						 M39.607,19.891l0.077,0.092c0.203,0.027,0.423,0.045,0.663,0.045V19.95C40.076,19.95,39.829,19.93,39.607,19.891z
						 M44.34,14.417h0.078c0,1.633-0.359,3.019-1.041,4.007c-0.723,1.049-1.771,1.602-3.031,1.604V19.95
						c1.234,0,2.259-0.542,2.966-1.569C43.984,17.404,44.34,16.033,44.34,14.417z"/>
				</defs>
				<clipPath id="SVGID_63_">
					<use xlink:href="#SVGID_62_"  overflow="visible"/>
				</clipPath>
				<path clip-path="url(#SVGID_63_)" fill="#3C1C0C" d="M37.098,9.899c0.83-0.543,1.821-0.807,3.024-0.807V9.016
					c-1.219,0-2.222,0.267-3.067,0.818l-0.139,0.092l0.078,0.042L37.098,9.899 M40.122,9.016v0.077
					c1.323,0.003,2.409,0.506,3.142,1.461c0.705,0.917,1.076,2.252,1.076,3.863h0.078c-0.002-1.627-0.379-2.979-1.092-3.911
					C42.579,9.533,41.471,9.018,40.122,9.016z M39.607,19.891l0.077,0.092c0.203,0.027,0.423,0.045,0.663,0.045V19.95
					C40.076,19.95,39.829,19.93,39.607,19.891z M44.34,14.417h0.078c0,1.633-0.359,3.019-1.041,4.007
					c-0.723,1.049-1.771,1.602-3.031,1.604V19.95c1.234,0,2.259-0.542,2.966-1.569C43.984,17.404,44.34,16.033,44.34,14.417z"/>
			</g>
		</g>
	</g>
	<g>
		<g>
			<g>
				<defs>
					<path id="SVGID_64_" d="M37.098,9.899c0.83-0.543,1.821-0.807,3.024-0.807V9.016c-1.219,0-2.222,0.267-3.067,0.818
						l-0.139,0.092l0.078,0.042L37.098,9.899 M40.122,9.016v0.077c1.323,0.003,2.409,0.506,3.142,1.461
						c0.705,0.917,1.076,2.252,1.076,3.863h0.078c-0.002-1.627-0.379-2.979-1.092-3.911C42.579,9.533,41.471,9.018,40.122,9.016z
						 M39.607,19.891l0.077,0.092c0.203,0.027,0.423,0.045,0.663,0.045V19.95C40.076,19.95,39.829,19.93,39.607,19.891z
						 M44.34,14.417h0.078c0,1.633-0.359,3.019-1.041,4.007c-0.723,1.049-1.771,1.602-3.031,1.604V19.95
						c1.234,0,2.259-0.542,2.966-1.569C43.984,17.404,44.34,16.033,44.34,14.417z"/>
				</defs>
				<clipPath id="SVGID_65_">
					<use xlink:href="#SVGID_64_"  overflow="visible"/>
				</clipPath>
				
					<linearGradient id="SVGID_66_" gradientUnits="userSpaceOnUse" x1="-902.8672" y1="-3.3877" x2="-902.3794" y2="-3.3877" gradientTransform="matrix(15.3826 0 0 25.3747 13925.3682 100.4923)">
					<stop  offset="0" style="stop-color:#3C1C0C"/>
					<stop  offset="1" style="stop-color:#9C7A56"/>
				</linearGradient>
				<rect x="36.916" y="9.016" clip-path="url(#SVGID_65_)" fill="url(#SVGID_66_)" width="7.502" height="11.009"/>
			</g>
		</g>
	</g>
</g>
<polyline fill="#8B653F" points="50.036,12.516 50.115,12.71 50.107,9.933 50.031,9.97 50.036,12.516 "/>
<g>
	<g>
		<g>
			<g>
				<defs>
					<path id="SVGID_67_" d="M49.637,12.091c-0.365-0.389-1.005-0.808-1.703-0.819l-0.002,0.077
						c0.676,0.012,1.295,0.419,1.648,0.796l0.535,0.566l-0.079-0.194L49.637,12.091 M47.934,11.271l-0.002,0.077
						c-0.262-0.005-0.496,0.053-0.654,0.165c-0.176,0.119-0.264,0.299-0.271,0.55l-0.075-0.002
						C46.948,11.332,47.639,11.266,47.934,11.271z"/>
				</defs>
				<clipPath id="SVGID_68_">
					<use xlink:href="#SVGID_67_"  overflow="visible"/>
				</clipPath>
				<path clip-path="url(#SVGID_68_)" fill="#3C1C0C" d="M49.637,12.091c-0.365-0.389-1.005-0.808-1.703-0.819l-0.002,0.077
					c0.676,0.012,1.295,0.419,1.648,0.796l0.535,0.566l-0.079-0.194L49.637,12.091 M47.934,11.271l-0.002,0.077
					c-0.262-0.005-0.496,0.053-0.654,0.165c-0.176,0.119-0.264,0.299-0.271,0.55l-0.075-0.002
					C46.948,11.332,47.639,11.266,47.934,11.271z"/>
			</g>
		</g>
	</g>
	<g>
		<g>
			<g>
				<defs>
					<path id="SVGID_69_" d="M49.637,12.091c-0.365-0.389-1.005-0.808-1.703-0.819l-0.002,0.077
						c0.676,0.012,1.295,0.419,1.648,0.796l0.535,0.566l-0.079-0.194L49.637,12.091 M47.934,11.271l-0.002,0.077
						c-0.262-0.005-0.496,0.053-0.654,0.165c-0.176,0.119-0.264,0.299-0.271,0.55l-0.075-0.002
						C46.948,11.332,47.639,11.266,47.934,11.271z"/>
				</defs>
				<clipPath id="SVGID_70_">
					<use xlink:href="#SVGID_69_"  overflow="visible"/>
				</clipPath>
				
					<linearGradient id="SVGID_71_" gradientUnits="userSpaceOnUse" x1="-1067.311" y1="-186.0986" x2="-1066.8232" y2="-186.0986" gradientTransform="matrix(-6.529 0 0 -5.7613 -6918.3623 -1060.181)">
					<stop  offset="0" style="stop-color:#3C1C0C"/>
					<stop  offset="1" style="stop-color:#9C7A56"/>
				</linearGradient>
				<rect x="46.932" y="11.266" clip-path="url(#SVGID_70_)" fill="url(#SVGID_71_)" width="3.186" height="1.445"/>
			</g>
		</g>
	</g>
</g>
<g>
	<g>
		<g>
			<g>
				<defs>
					<path id="SVGID_72_" d="M44.357,12.117c0,0.006,0,0.014,0,0.02l0.078-0.001c0-0.006,0-0.013,0-0.019
						c0-1.095,0.529-1.791,0.977-2.183c0.562-0.494,1.326-0.785,2.089-0.8L47.5,9.056c-0.782,0.016-1.562,0.314-2.141,0.82
						C44.713,10.443,44.357,11.239,44.357,12.117 M47.501,9.134L47.5,9.056c1.279-0.023,2.111,0.48,2.493,0.785l0.114,0.092
						L50.031,9.97l-0.088-0.069C49.568,9.604,48.757,9.11,47.501,9.134z"/>
				</defs>
				<clipPath id="SVGID_73_">
					<use xlink:href="#SVGID_72_"  overflow="visible"/>
				</clipPath>
				<path clip-path="url(#SVGID_73_)" fill="#47270F" d="M44.357,12.117c0,0.006,0,0.014,0,0.02l0.078-0.001
					c0-0.006,0-0.013,0-0.019c0-1.095,0.529-1.791,0.977-2.183c0.562-0.494,1.326-0.785,2.089-0.8L47.5,9.056
					c-0.782,0.016-1.562,0.314-2.141,0.82C44.713,10.443,44.357,11.239,44.357,12.117 M47.501,9.134L47.5,9.056
					c1.279-0.023,2.111,0.48,2.493,0.785l0.114,0.092L50.031,9.97l-0.088-0.069C49.568,9.604,48.757,9.11,47.501,9.134z"/>
			</g>
		</g>
	</g>
	<g>
		<g>
			<g>
				<defs>
					<path id="SVGID_74_" d="M44.357,12.117c0,0.006,0,0.014,0,0.02l0.078-0.001c0-0.006,0-0.013,0-0.019
						c0-1.095,0.529-1.791,0.977-2.183c0.562-0.494,1.326-0.785,2.089-0.8L47.5,9.056c-0.782,0.016-1.562,0.314-2.141,0.82
						C44.713,10.443,44.357,11.239,44.357,12.117 M47.501,9.134L47.5,9.056c1.279-0.023,2.111,0.48,2.493,0.785l0.114,0.092
						L50.031,9.97l-0.088-0.069C49.568,9.604,48.757,9.11,47.501,9.134z"/>
				</defs>
				<clipPath id="SVGID_75_">
					<use xlink:href="#SVGID_74_"  overflow="visible"/>
				</clipPath>
				
					<linearGradient id="SVGID_76_" gradientUnits="userSpaceOnUse" x1="-888.4023" y1="56.7148" x2="-887.9146" y2="56.7148" gradientTransform="matrix(11.7886 0 0 9.1643 10517.3789 -509.1664)">
					<stop  offset="0" style="stop-color:#47270F"/>
					<stop  offset="1" style="stop-color:#714A1E"/>
				</linearGradient>
				<rect x="44.357" y="9.033" clip-path="url(#SVGID_75_)" fill="url(#SVGID_76_)" width="5.75" height="3.104"/>
			</g>
		</g>
	</g>
</g>
<path fill="#785328" d="M39.61,24.068V24.3l0.078,0.077l-0.001-0.309c0,0-0.003-3.45-0.003-4.088l-0.077-0.092
	C39.607,20.396,39.61,24.068,39.61,24.068"/>
<g>
	<g>
		<g>
			<g>
				<defs>
					<path id="SVGID_77_" d="M39.767,3.725c3.168-0.633,6.719-0.738,10.842-0.325l0.078-0.069
						c-4.162-0.423-7.742-0.319-10.938,0.318C35.504,4.5,31.904,6.314,29.048,9.04l0.078,0.034
						C31.967,6.371,35.546,4.57,39.767,3.725"/>
				</defs>
				<clipPath id="SVGID_78_">
					<use xlink:href="#SVGID_77_"  overflow="visible"/>
				</clipPath>
				<path clip-path="url(#SVGID_78_)" fill="#8D6842" d="M39.767,3.725c3.168-0.633,6.719-0.738,10.842-0.325l0.078-0.069
					c-4.162-0.423-7.742-0.319-10.938,0.318C35.504,4.5,31.904,6.314,29.048,9.04l0.078,0.034
					C31.967,6.371,35.546,4.57,39.767,3.725"/>
			</g>
		</g>
	</g>
	<g>
		<g>
			<g>
				<defs>
					<path id="SVGID_79_" d="M39.767,3.725c3.168-0.633,6.719-0.738,10.842-0.325l0.078-0.069
						c-4.162-0.423-7.742-0.319-10.938,0.318C35.504,4.5,31.904,6.314,29.048,9.04l0.078,0.034
						C31.967,6.371,35.546,4.57,39.767,3.725"/>
				</defs>
				<clipPath id="SVGID_80_">
					<use xlink:href="#SVGID_79_"  overflow="visible"/>
				</clipPath>
				
					<linearGradient id="SVGID_81_" gradientUnits="userSpaceOnUse" x1="-935.1069" y1="18.8828" x2="-934.6191" y2="18.8828" gradientTransform="matrix(44.3701 0 0 15.4421 41519.832 -285.5984)">
					<stop  offset="0" style="stop-color:#8D6842"/>
					<stop  offset="1" style="stop-color:#9C7A56"/>
				</linearGradient>
				<rect x="29.048" y="2.908" clip-path="url(#SVGID_80_)" fill="url(#SVGID_81_)" width="21.64" height="6.166"/>
			</g>
		</g>
	</g>
</g>
<path fill="#3C1C0D" d="M50.634,14.593c0,0.852-0.002,1.704-0.002,2.55c-0.002,2.6-0.942,4.752-2.725,6.233
	c-1.532,1.292-6.202,3.396-8.031,4.16v0.085c1.81-0.757,6.532-2.879,8.08-4.188c1.8-1.494,2.751-3.67,2.753-6.293
	c0.001-0.847,0.002-1.698,0.002-2.55c0-3.726-0.008-7.504-0.023-11.262L50.609,3.4C50.626,7.137,50.634,10.89,50.634,14.593"/>
<g>
	<g>
		<g>
			<g>
				<defs>
					<path id="SVGID_82_" d="M29.044,17.143c0.002,2.623,0.954,4.799,2.752,6.291c1.541,1.301,6.27,3.428,8.081,4.188v-0.085
						c-1.83-0.77-6.505-2.874-8.031-4.164c-1.78-1.479-2.722-3.633-2.724-6.23c0-0.834,0-1.68,0-2.538
						c0-1.804,0.001-3.655,0.006-5.531l-0.08-0.034c-0.004,1.888-0.005,3.751-0.005,5.565
						C29.043,15.463,29.043,16.309,29.044,17.143"/>
				</defs>
				<clipPath id="SVGID_83_">
					<use xlink:href="#SVGID_82_"  overflow="visible"/>
				</clipPath>
				<path clip-path="url(#SVGID_83_)" fill="#47270F" d="M29.044,17.143c0.002,2.623,0.954,4.799,2.752,6.291
					c1.541,1.301,6.27,3.428,8.081,4.188v-0.085c-1.83-0.77-6.505-2.874-8.031-4.164c-1.78-1.479-2.722-3.633-2.724-6.23
					c0-0.834,0-1.68,0-2.538c0-1.804,0.001-3.655,0.006-5.531l-0.08-0.034c-0.004,1.888-0.005,3.751-0.005,5.565
					C29.043,15.463,29.043,16.309,29.044,17.143"/>
			</g>
		</g>
	</g>
	<g>
		<g>
			<g>
				<defs>
					<path id="SVGID_84_" d="M29.044,17.143c0.002,2.623,0.954,4.799,2.752,6.291c1.541,1.301,6.27,3.428,8.081,4.188v-0.085
						c-1.83-0.77-6.505-2.874-8.031-4.164c-1.78-1.479-2.722-3.633-2.724-6.23c0-0.834,0-1.68,0-2.538
						c0-1.804,0.001-3.655,0.006-5.531l-0.08-0.034c-0.004,1.888-0.005,3.751-0.005,5.565
						C29.043,15.463,29.043,16.309,29.044,17.143"/>
				</defs>
				<clipPath id="SVGID_85_">
					<use xlink:href="#SVGID_84_"  overflow="visible"/>
				</clipPath>
				
					<linearGradient id="SVGID_86_" gradientUnits="userSpaceOnUse" x1="-986.7275" y1="-57.9326" x2="-986.2397" y2="-57.9326" gradientTransform="matrix(-22.2141 0 0 -40.9025 -21879.3828 -2351.2712)">
					<stop  offset="0" style="stop-color:#47270F"/>
					<stop  offset="1" style="stop-color:#714A1E"/>
				</linearGradient>
				<rect x="29.043" y="9.04" clip-path="url(#SVGID_85_)" fill="url(#SVGID_86_)" width="10.833" height="18.583"/>
			</g>
		</g>
	</g>
</g>
<path fill="#8F5A24" d="M43.584,27.398c1.781-0.838,4.132-2.028,5.215-2.944c1.076-0.894,1.895-1.988,2.436-3.255
	c0.518-1.213,0.777-2.58,0.777-4.066V2.843l-0.152,0.091c0,4.734,0,9.465,0,14.198c0,2.876-0.99,5.403-3.157,7.203
	c-2.071,1.753-8.841,4.549-8.824,4.532v0.169c0.166-0.068,0.796-0.331,1.156-0.487C41.635,28.289,42.564,27.879,43.584,27.398"/>
<g>
	<g>
		<g>
			<g>
				<defs>
					<path id="SVGID_87_" d="M31.054,24.336c-2.166-1.8-3.157-4.327-3.157-7.203c0-4.733-0.001-9.464-0.001-14.199l-0.155-0.091
						l0.002,14.29c0,1.486,0.262,2.854,0.778,4.066c0.541,1.267,1.359,2.361,2.435,3.255c1.082,0.916,3.432,2.106,5.212,2.944
						c1.019,0.479,1.951,0.891,2.552,1.149c0.361,0.155,0.991,0.419,1.155,0.487v-0.169C39.896,28.885,33.126,26.089,31.054,24.336"
						/>
				</defs>
				<clipPath id="SVGID_88_">
					<use xlink:href="#SVGID_87_"  overflow="visible"/>
				</clipPath>
				<path clip-path="url(#SVGID_88_)" fill="#FFD569" d="M31.054,24.336c-2.166-1.8-3.157-4.327-3.157-7.203
					c0-4.733-0.001-9.464-0.001-14.199l-0.155-0.091l0.002,14.29c0,1.486,0.262,2.854,0.778,4.066
					c0.541,1.267,1.359,2.361,2.435,3.255c1.082,0.916,3.432,2.106,5.212,2.944c1.019,0.479,1.951,0.891,2.552,1.149
					c0.361,0.155,0.991,0.419,1.155,0.487v-0.169C39.896,28.885,33.126,26.089,31.054,24.336"/>
			</g>
		</g>
	</g>
	<g>
		<g>
			<g>
				<defs>
					<path id="SVGID_89_" d="M31.054,24.336c-2.166-1.8-3.157-4.327-3.157-7.203c0-4.733-0.001-9.464-0.001-14.199l-0.155-0.091
						l0.002,14.29c0,1.486,0.262,2.854,0.778,4.066c0.541,1.267,1.359,2.361,2.435,3.255c1.082,0.916,3.432,2.106,5.212,2.944
						c1.019,0.479,1.951,0.891,2.552,1.149c0.361,0.155,0.991,0.419,1.155,0.487v-0.169C39.896,28.885,33.126,26.089,31.054,24.336"
						/>
				</defs>
				<clipPath id="SVGID_90_">
					<use xlink:href="#SVGID_89_"  overflow="visible"/>
				</clipPath>
				
					<linearGradient id="SVGID_91_" gradientUnits="userSpaceOnUse" x1="-921.4297" y1="-21.9941" x2="-920.9409" y2="-21.9941" gradientTransform="matrix(24.8811 0 0 56.5076 22953.9277 1258.7673)">
					<stop  offset="0" style="stop-color:#FFD569"/>
					<stop  offset="0.8353" style="stop-color:#A26F29"/>
					<stop  offset="1" style="stop-color:#8F5A24"/>
				</linearGradient>
				<rect x="27.742" y="2.843" clip-path="url(#SVGID_90_)" fill="url(#SVGID_91_)" width="12.154" height="26.194"/>
			</g>
		</g>
	</g>
</g>
<path fill="#FFD569" d="M39.876,0.308C39.859,0.333,46.6,0.029,51.857,2.935l0.154-0.091L51.934,2.8
	c-4.383-2.422-9.801-2.657-11.924-2.645h-0.133h-0.13C37.621,0.143,32.203,0.377,27.821,2.8l-0.08,0.043l0.155,0.091
	C33.155,0.028,39.896,0.333,39.876,0.308"/>
<g>
	<g>
		<g>
			<g>
				<defs>
					<path id="SVGID_92_" d="M46.7,12.056l0.153,0.003c0.021-0.821,0.832-0.869,1.08-0.865l0.004-0.153
						C47.341,11.028,46.718,11.292,46.7,12.056"/>
				</defs>
				<clipPath id="SVGID_93_">
					<use xlink:href="#SVGID_92_"  overflow="visible"/>
				</clipPath>
				<path clip-path="url(#SVGID_93_)" fill="#8F5A24" d="M46.7,12.056l0.153,0.003c0.021-0.821,0.832-0.869,1.08-0.865l0.004-0.153
					C47.341,11.028,46.718,11.292,46.7,12.056"/>
			</g>
		</g>
	</g>
	<g>
		<g>
			<g>
				<defs>
					<path id="SVGID_94_" d="M46.7,12.056l0.153,0.003c0.021-0.821,0.832-0.869,1.08-0.865l0.004-0.153
						C47.341,11.028,46.718,11.292,46.7,12.056"/>
				</defs>
				<clipPath id="SVGID_95_">
					<use xlink:href="#SVGID_94_"  overflow="visible"/>
				</clipPath>
				
					<linearGradient id="SVGID_96_" gradientUnits="userSpaceOnUse" x1="-655.9165" y1="137.6719" x2="-655.4287" y2="137.6719" gradientTransform="matrix(2.5396 0 0 4.9137 1712.4658 -664.9357)">
					<stop  offset="0" style="stop-color:#8F5A24"/>
					<stop  offset="1" style="stop-color:#8F5A24"/>
				</linearGradient>
				<rect x="46.7" y="11.028" clip-path="url(#SVGID_95_)" fill="url(#SVGID_96_)" width="1.237" height="1.031"/>
			</g>
		</g>
	</g>
</g>
<g>
	<g>
		<g>
			<g>
				<defs>
					<path id="SVGID_97_" d="M47.505,9.366L47.504,9.21c-0.747,0.014-1.492,0.299-2.041,0.781c-0.434,0.382-0.949,1.058-0.949,2.125
						c0,0.006,0,0.012,0,0.019l0.154-0.001C44.656,10.396,46.123,9.392,47.505,9.366"/>
				</defs>
				<clipPath id="SVGID_98_">
					<use xlink:href="#SVGID_97_"  overflow="visible"/>
				</clipPath>
				<path clip-path="url(#SVGID_98_)" fill="#EFCC95" d="M47.505,9.366L47.504,9.21c-0.747,0.014-1.492,0.299-2.041,0.781
					c-0.434,0.382-0.949,1.058-0.949,2.125c0,0.006,0,0.012,0,0.019l0.154-0.001C44.656,10.396,46.123,9.392,47.505,9.366"/>
			</g>
		</g>
	</g>
	<g>
		<g>
			<g>
				<defs>
					<path id="SVGID_99_" d="M47.505,9.366L47.504,9.21c-0.747,0.014-1.492,0.299-2.041,0.781c-0.434,0.382-0.949,1.058-0.949,2.125
						c0,0.006,0,0.012,0,0.019l0.154-0.001C44.656,10.396,46.123,9.392,47.505,9.366"/>
				</defs>
				<clipPath id="SVGID_100_">
					<use xlink:href="#SVGID_99_"  overflow="visible"/>
				</clipPath>
				
					<linearGradient id="SVGID_101_" gradientUnits="userSpaceOnUse" x1="-829.3794" y1="60.6123" x2="-828.8916" y2="60.6123" gradientTransform="matrix(6.1359 0 0 8.7975 5133.4985 -522.5634)">
					<stop  offset="0" style="stop-color:#EFCC95"/>
					<stop  offset="1" style="stop-color:#E2AC53"/>
				</linearGradient>
				<rect x="44.514" y="9.21" clip-path="url(#SVGID_100_)" fill="url(#SVGID_101_)" width="2.991" height="2.925"/>
			</g>
		</g>
	</g>
</g>
<g>
	<g>
		<g>
			<g>
				<defs>
					<path id="SVGID_102_" d="M47.938,11.041l-0.004,0.153c0.724,0.013,1.383,0.445,1.758,0.843l0.269,0.285l-0.153-0.39
						C49.373,11.474,48.672,11.052,47.938,11.041"/>
				</defs>
				<clipPath id="SVGID_103_">
					<use xlink:href="#SVGID_102_"  overflow="visible"/>
				</clipPath>
				<path clip-path="url(#SVGID_103_)" fill="#8F5A24" d="M47.938,11.041l-0.004,0.153c0.724,0.013,1.383,0.445,1.758,0.843
					l0.269,0.285l-0.153-0.39C49.373,11.474,48.672,11.052,47.938,11.041"/>
			</g>
		</g>
	</g>
	<g>
		<g>
			<g>
				<defs>
					<path id="SVGID_104_" d="M47.938,11.041l-0.004,0.153c0.724,0.013,1.383,0.445,1.758,0.843l0.269,0.285l-0.153-0.39
						C49.373,11.474,48.672,11.052,47.938,11.041"/>
				</defs>
				<clipPath id="SVGID_105_">
					<use xlink:href="#SVGID_104_"  overflow="visible"/>
				</clipPath>
				
					<linearGradient id="SVGID_106_" gradientUnits="userSpaceOnUse" x1="-771.4497" y1="121.1201" x2="-770.9619" y2="121.1201" gradientTransform="matrix(4.1528 0 0 5.4267 3251.6094 -645.6005)">
					<stop  offset="0" style="stop-color:#8F5A24"/>
					<stop  offset="0.5778" style="stop-color:#BE8932"/>
					<stop  offset="1" style="stop-color:#E4B05D"/>
				</linearGradient>
				<rect x="47.934" y="11.041" clip-path="url(#SVGID_105_)" fill="url(#SVGID_106_)" width="2.025" height="1.281"/>
			</g>
		</g>
	</g>
</g>
<g>
	<g>
		<g>
			<g>
				<defs>
					<path id="SVGID_107_" d="M49.8,10.083l0.153-0.075l-0.057-0.046c-0.365-0.291-1.162-0.775-2.395-0.751l0.001,0.155
						C48.663,9.343,49.436,9.793,49.8,10.083"/>
				</defs>
				<clipPath id="SVGID_108_">
					<use xlink:href="#SVGID_107_"  overflow="visible"/>
				</clipPath>
				<path clip-path="url(#SVGID_108_)" fill="#E2AC53" d="M49.8,10.083l0.153-0.075l-0.057-0.046
					c-0.365-0.291-1.162-0.775-2.395-0.751l0.001,0.155C48.663,9.343,49.436,9.793,49.8,10.083"/>
			</g>
		</g>
	</g>
	<g>
		<g>
			<g>
				<defs>
					<path id="SVGID_109_" d="M49.8,10.083l0.153-0.075l-0.057-0.046c-0.365-0.291-1.162-0.775-2.395-0.751l0.001,0.155
						C48.663,9.343,49.436,9.793,49.8,10.083"/>
				</defs>
				<clipPath id="SVGID_110_">
					<use xlink:href="#SVGID_109_"  overflow="visible"/>
				</clipPath>
				
					<linearGradient id="SVGID_111_" gradientUnits="userSpaceOnUse" x1="-802.7012" y1="148.5352" x2="-802.2134" y2="148.5352" gradientTransform="matrix(5.0224 0 0 4.6368 4078.9893 -679.0939)">
					<stop  offset="0" style="stop-color:#E2AC53"/>
					<stop  offset="1" style="stop-color:#C17A2A"/>
				</linearGradient>
				<rect x="47.504" y="9.187" clip-path="url(#SVGID_110_)" fill="url(#SVGID_111_)" width="2.449" height="0.896"/>
			</g>
		</g>
	</g>
</g>
<path fill="#8F5A24" d="M49.805,11.932l0.154,0.39l-0.006-2.314L49.8,10.083C49.802,10.699,49.803,11.315,49.805,11.932"/>
<g>
	<g>
		<g>
			<g>
				<defs>
					<path id="SVGID_112_" d="M48.087,13.615l0.08-0.133l-0.168-0.101c-0.699-0.416-1.159-0.689-1.146-1.322L46.7,12.055
						C46.682,12.835,47.309,13.145,48.087,13.615"/>
				</defs>
				<clipPath id="SVGID_113_">
					<use xlink:href="#SVGID_112_"  overflow="visible"/>
				</clipPath>
				<path clip-path="url(#SVGID_113_)" fill="#DEAD72" d="M48.087,13.615l0.08-0.133l-0.168-0.101
					c-0.699-0.416-1.159-0.689-1.146-1.322L46.7,12.055C46.682,12.835,47.309,13.145,48.087,13.615"/>
			</g>
		</g>
	</g>
	<g>
		<g>
			<g>
				<defs>
					<path id="SVGID_114_" d="M48.087,13.615l0.08-0.133l-0.168-0.101c-0.699-0.416-1.159-0.689-1.146-1.322L46.7,12.055
						C46.682,12.835,47.309,13.145,48.087,13.615"/>
				</defs>
				<clipPath id="SVGID_115_">
					<use xlink:href="#SVGID_114_"  overflow="visible"/>
				</clipPath>
				
					<linearGradient id="SVGID_116_" gradientUnits="userSpaceOnUse" x1="-1220.4136" y1="91.623" x2="-1219.9258" y2="91.623" gradientTransform="matrix(0 -3.1975 5.8447 0 -488.0838 -3888.6577)">
					<stop  offset="0" style="stop-color:#DEAD72"/>
					<stop  offset="1" style="stop-color:#8F5A24"/>
				</linearGradient>
				<rect x="46.682" y="12.056" clip-path="url(#SVGID_115_)" fill="url(#SVGID_116_)" width="1.485" height="1.559"/>
			</g>
		</g>
	</g>
</g>
<g>
	<g>
		<g>
			<g>
				<defs>
					<path id="SVGID_117_" d="M47.9,16.768l0.156-0.004c-0.017-0.672-0.388-1.035-1.312-1.583l-0.078,0.131
						C47.613,15.873,47.889,16.198,47.9,16.768"/>
				</defs>
				<clipPath id="SVGID_118_">
					<use xlink:href="#SVGID_117_"  overflow="visible"/>
				</clipPath>
				<path clip-path="url(#SVGID_118_)" fill="#EABC78" d="M47.9,16.768l0.156-0.004c-0.017-0.672-0.388-1.035-1.312-1.583
					l-0.078,0.131C47.613,15.873,47.889,16.198,47.9,16.768"/>
			</g>
		</g>
	</g>
	<g>
		<g>
			<g>
				<defs>
					<path id="SVGID_119_" d="M47.9,16.768l0.156-0.004c-0.017-0.672-0.388-1.035-1.312-1.583l-0.078,0.131
						C47.613,15.873,47.889,16.198,47.9,16.768"/>
				</defs>
				<clipPath id="SVGID_120_">
					<use xlink:href="#SVGID_119_"  overflow="visible"/>
				</clipPath>
				
					<linearGradient id="SVGID_121_" gradientUnits="userSpaceOnUse" x1="-1216.1016" y1="-178.1104" x2="-1215.6152" y2="-178.1104" gradientTransform="matrix(-2.8519 0 0 -6.058 -3420.1499 -1063.0099)">
					<stop  offset="0" style="stop-color:#EABC78"/>
					<stop  offset="1" style="stop-color:#C17A2A"/>
				</linearGradient>
				<rect x="46.666" y="15.18" clip-path="url(#SVGID_120_)" fill="url(#SVGID_121_)" width="1.391" height="1.587"/>
			</g>
		</g>
	</g>
</g>
<g>
	<g>
		<g>
			<g>
				<defs>
					<path id="SVGID_122_" d="M44.756,19.077l-0.154,0.087l0.075,0.045c0.737,0.439,1.595,0.675,2.411,0.668l-0.001-0.154
						C46.25,19.729,45.422,19.473,44.756,19.077"/>
				</defs>
				<clipPath id="SVGID_123_">
					<use xlink:href="#SVGID_122_"  overflow="visible"/>
				</clipPath>
				<path clip-path="url(#SVGID_123_)" fill="#C17A2A" d="M44.756,19.077l-0.154,0.087l0.075,0.045
					c0.737,0.439,1.595,0.675,2.411,0.668l-0.001-0.154C46.25,19.729,45.422,19.473,44.756,19.077"/>
			</g>
		</g>
	</g>
	<g>
		<g>
			<g>
				<defs>
					<path id="SVGID_124_" d="M44.756,19.077l-0.154,0.087l0.075,0.045c0.737,0.439,1.595,0.675,2.411,0.668l-0.001-0.154
						C46.25,19.729,45.422,19.473,44.756,19.077"/>
				</defs>
				<clipPath id="SVGID_125_">
					<use xlink:href="#SVGID_124_"  overflow="visible"/>
				</clipPath>
				
					<linearGradient id="SVGID_126_" gradientUnits="userSpaceOnUse" x1="-804.3945" y1="153.8223" x2="-803.9072" y2="153.8223" gradientTransform="matrix(5.1003 0 0 4.4543 4147.2515 -665.6952)">
					<stop  offset="0" style="stop-color:#C17A2A"/>
					<stop  offset="0.8538" style="stop-color:#985F26"/>
					<stop  offset="1" style="stop-color:#8F5A24"/>
				</linearGradient>
				<rect x="44.602" y="19.077" clip-path="url(#SVGID_125_)" fill="url(#SVGID_126_)" width="2.486" height="0.807"/>
			</g>
		</g>
	</g>
</g>
<path fill="#EDC68C" d="M44.76,17.098l-0.152-0.346L44.6,19.164l0.154-0.087C44.759,18.419,44.76,17.76,44.76,17.098"/>
<g>
	<g>
		<g>
			<g>
				<defs>
					<path id="SVGID_127_" d="M44.668,12.134l-0.154,0.001c0.006,1.205,0.357,2.111,2.152,3.175l0.078-0.131
						C44.994,14.14,44.672,13.281,44.668,12.134"/>
				</defs>
				<clipPath id="SVGID_128_">
					<use xlink:href="#SVGID_127_"  overflow="visible"/>
				</clipPath>
				<path clip-path="url(#SVGID_128_)" fill="#EFCC95" d="M44.668,12.134l-0.154,0.001c0.006,1.205,0.357,2.111,2.152,3.175
					l0.078-0.131C44.994,14.14,44.672,13.281,44.668,12.134"/>
			</g>
		</g>
	</g>
	<g>
		<g>
			<g>
				<defs>
					<path id="SVGID_129_" d="M44.668,12.134l-0.154,0.001c0.006,1.205,0.357,2.111,2.152,3.175l0.078-0.131
						C44.994,14.14,44.672,13.281,44.668,12.134"/>
				</defs>
				<clipPath id="SVGID_130_">
					<use xlink:href="#SVGID_129_"  overflow="visible"/>
				</clipPath>
				
					<linearGradient id="SVGID_131_" gradientUnits="userSpaceOnUse" x1="-787.3789" y1="54.8721" x2="-786.8916" y2="54.8721" gradientTransform="matrix(4.5753 0 0 9.312 3647.0085 -497.2524)">
					<stop  offset="0" style="stop-color:#EFCC95"/>
					<stop  offset="1" style="stop-color:#C17A2A"/>
				</linearGradient>
				<rect x="44.514" y="12.134" clip-path="url(#SVGID_130_)" fill="url(#SVGID_131_)" width="2.23" height="3.176"/>
			</g>
		</g>
	</g>
</g>
<g>
	<g>
		<g>
			<g>
				<defs>
					<path id="SVGID_132_" d="M46.793,17.963v-0.154c-0.605,0-1.379-0.33-1.932-0.826l-0.254-0.229l0.15,0.348
						C45.307,17.59,46.118,17.963,46.793,17.963"/>
				</defs>
				<clipPath id="SVGID_133_">
					<use xlink:href="#SVGID_132_"  overflow="visible"/>
				</clipPath>
				<path clip-path="url(#SVGID_133_)" fill="#EABC78" d="M46.793,17.963v-0.154c-0.605,0-1.379-0.33-1.932-0.826l-0.254-0.229
					l0.15,0.348C45.307,17.59,46.118,17.963,46.793,17.963"/>
			</g>
		</g>
	</g>
	<g>
		<g>
			<g>
				<defs>
					<path id="SVGID_134_" d="M46.793,17.963v-0.154c-0.605,0-1.379-0.33-1.932-0.826l-0.254-0.229l0.15,0.348
						C45.307,17.59,46.118,17.963,46.793,17.963"/>
				</defs>
				<clipPath id="SVGID_135_">
					<use xlink:href="#SVGID_134_"  overflow="visible"/>
				</clipPath>
				
					<linearGradient id="SVGID_136_" gradientUnits="userSpaceOnUse" x1="-1120.543" y1="-198.603" x2="-1120.0543" y2="-198.603" gradientTransform="matrix(-4.4816 0 0 -5.2801 -4975.0322 -1031.2883)">
					<stop  offset="0" style="stop-color:#EABC78"/>
					<stop  offset="1" style="stop-color:#C17A2A"/>
				</linearGradient>
				<rect x="44.607" y="16.752" clip-path="url(#SVGID_135_)" fill="url(#SVGID_136_)" width="2.186" height="1.211"/>
			</g>
		</g>
	</g>
</g>
<g>
	<g>
		<g>
			<g>
				<defs>
					<path id="SVGID_137_" d="M47.087,19.723l0.001,0.154c2.133-0.023,3.139-1.538,3.186-3.025l-0.15-0.008
						C50.075,18.203,49.172,19.7,47.087,19.723"/>
				</defs>
				<clipPath id="SVGID_138_">
					<use xlink:href="#SVGID_137_"  overflow="visible"/>
				</clipPath>
				<path clip-path="url(#SVGID_138_)" fill="#8F5A24" d="M47.087,19.723l0.001,0.154c2.133-0.023,3.139-1.538,3.186-3.025
					l-0.15-0.008C50.075,18.203,49.172,19.7,47.087,19.723"/>
			</g>
		</g>
	</g>
	<g>
		<g>
			<g>
				<defs>
					<path id="SVGID_139_" d="M47.087,19.723l0.001,0.154c2.133-0.023,3.139-1.538,3.186-3.025l-0.15-0.008
						C50.075,18.203,49.172,19.7,47.087,19.723"/>
				</defs>
				<clipPath id="SVGID_140_">
					<use xlink:href="#SVGID_139_"  overflow="visible"/>
				</clipPath>
				
					<linearGradient id="SVGID_141_" gradientUnits="userSpaceOnUse" x1="-837.3086" y1="57.3262" x2="-836.8218" y2="57.3262" gradientTransform="matrix(6.5352 0 0 9.018 5519.0684 -498.6098)">
					<stop  offset="0" style="stop-color:#8F5A24"/>
					<stop  offset="1" style="stop-color:#9A6627"/>
				</linearGradient>
				<rect x="47.087" y="16.844" clip-path="url(#SVGID_140_)" fill="url(#SVGID_141_)" width="3.187" height="3.033"/>
			</g>
		</g>
	</g>
</g>
<g>
	<g>
		<g>
			<g>
				<defs>
					<path id="SVGID_142_" d="M48.057,16.764l-0.154,0.004c0,0.01,0.002,0.021,0.002,0.031c0,0.287-0.092,0.53-0.26,0.702
						c-0.195,0.2-0.49,0.308-0.852,0.308v0.154C47.566,17.963,48.072,17.506,48.057,16.764"/>
				</defs>
				<clipPath id="SVGID_143_">
					<use xlink:href="#SVGID_142_"  overflow="visible"/>
				</clipPath>
				<path clip-path="url(#SVGID_143_)" fill="#EABC78" d="M48.057,16.764l-0.154,0.004c0,0.01,0.002,0.021,0.002,0.031
					c0,0.287-0.092,0.53-0.26,0.702c-0.195,0.2-0.49,0.308-0.852,0.308v0.154C47.566,17.963,48.072,17.506,48.057,16.764"/>
			</g>
		</g>
	</g>
	<g>
		<g>
			<g>
				<defs>
					<path id="SVGID_144_" d="M48.057,16.764l-0.154,0.004c0,0.01,0.002,0.021,0.002,0.031c0,0.287-0.092,0.53-0.26,0.702
						c-0.195,0.2-0.49,0.308-0.852,0.308v0.154C47.566,17.963,48.072,17.506,48.057,16.764"/>
				</defs>
				<clipPath id="SVGID_145_">
					<use xlink:href="#SVGID_144_"  overflow="visible"/>
				</clipPath>
				
					<linearGradient id="SVGID_146_" gradientUnits="userSpaceOnUse" x1="-661.832" y1="125.0762" x2="-661.3438" y2="125.0762" gradientTransform="matrix(2.5908 0 0 5.2575 1761.4705 -640.2261)">
					<stop  offset="0" style="stop-color:#EABC78"/>
					<stop  offset="1" style="stop-color:#EABC78"/>
				</linearGradient>
				<rect x="46.793" y="16.764" clip-path="url(#SVGID_145_)" fill="url(#SVGID_146_)" width="1.279" height="1.199"/>
			</g>
		</g>
	</g>
</g>
<g>
	<g>
		<g>
			<g>
				<defs>
					<path id="SVGID_147_" d="M50.121,16.844l0.152,0.008c0.021-0.746-0.088-1.273-0.366-1.766c-0.321-0.573-0.875-1.083-1.74-1.604
						l-0.08,0.133C49.838,14.67,50.154,15.604,50.121,16.844"/>
				</defs>
				<clipPath id="SVGID_148_">
					<use xlink:href="#SVGID_147_"  overflow="visible"/>
				</clipPath>
				<path clip-path="url(#SVGID_148_)" fill="#DEAD72" d="M50.121,16.844l0.152,0.008c0.021-0.746-0.088-1.273-0.366-1.766
					c-0.321-0.573-0.875-1.083-1.74-1.604l-0.08,0.133C49.838,14.67,50.154,15.604,50.121,16.844"/>
			</g>
		</g>
	</g>
	<g>
		<g>
			<g>
				<defs>
					<path id="SVGID_149_" d="M50.121,16.844l0.152,0.008c0.021-0.746-0.088-1.273-0.366-1.766c-0.321-0.573-0.875-1.083-1.74-1.604
						l-0.08,0.133C49.838,14.67,50.154,15.604,50.121,16.844"/>
				</defs>
				<clipPath id="SVGID_150_">
					<use xlink:href="#SVGID_149_"  overflow="visible"/>
				</clipPath>
				
					<linearGradient id="SVGID_151_" gradientUnits="userSpaceOnUse" x1="-828.4253" y1="-139.5723" x2="-827.9375" y2="-139.5723" gradientTransform="matrix(0 6.9053 -7.3254 0 -973.2324 5734.0088)">
					<stop  offset="0" style="stop-color:#DEAD72"/>
					<stop  offset="1" style="stop-color:#9A6627"/>
				</linearGradient>
				<rect x="48.087" y="13.482" clip-path="url(#SVGID_150_)" fill="url(#SVGID_151_)" width="2.207" height="3.37"/>
			</g>
		</g>
	</g>
</g>
<g>
	<g>
		<g>
			<g>
				<defs>
					<path id="SVGID_152_" d="M40.137,11.208c0.577,0.001,0.964,0.229,1.22,0.72c0.27,0.517,0.396,1.351,0.396,2.548l0.155-0.002
						c0-2.421-0.521-3.419-1.774-3.419L40.137,11.208"/>
				</defs>
				<clipPath id="SVGID_153_">
					<use xlink:href="#SVGID_152_"  overflow="visible"/>
				</clipPath>
				<path clip-path="url(#SVGID_153_)" fill="#EABC78" d="M40.137,11.208c0.577,0.001,0.964,0.229,1.22,0.72
					c0.27,0.517,0.396,1.351,0.396,2.548l0.155-0.002c0-2.421-0.521-3.419-1.774-3.419L40.137,11.208"/>
			</g>
		</g>
	</g>
	<g>
		<g>
			<g>
				<defs>
					<path id="SVGID_154_" d="M40.137,11.208c0.577,0.001,0.964,0.229,1.22,0.72c0.27,0.517,0.396,1.351,0.396,2.548l0.155-0.002
						c0-2.421-0.521-3.419-1.774-3.419L40.137,11.208"/>
				</defs>
				<clipPath id="SVGID_155_">
					<use xlink:href="#SVGID_154_"  overflow="visible"/>
				</clipPath>
				
					<linearGradient id="SVGID_156_" gradientUnits="userSpaceOnUse" x1="-1074.5352" y1="80.8154" x2="-1074.0459" y2="80.8154" gradientTransform="matrix(0 -7.0123 6.4374 0 -479.22 -7520.4814)">
					<stop  offset="0" style="stop-color:#EABC78"/>
					<stop  offset="1" style="stop-color:#8F5A24"/>
				</linearGradient>
				<rect x="40.137" y="11.054" clip-path="url(#SVGID_155_)" fill="url(#SVGID_156_)" width="1.774" height="3.421"/>
			</g>
		</g>
	</g>
</g>
<g>
	<g>
		<g>
			<g>
				<defs>
					<path id="SVGID_157_" d="M40.137,11.208v-0.154c-0.29,0-0.589,0.07-0.764,0.155l0.155,0.103
						C39.68,11.257,39.904,11.208,40.137,11.208"/>
				</defs>
				<clipPath id="SVGID_158_">
					<use xlink:href="#SVGID_157_"  overflow="visible"/>
				</clipPath>
				<path clip-path="url(#SVGID_158_)" fill="#8F5A24" d="M40.137,11.208v-0.154c-0.29,0-0.589,0.07-0.764,0.155l0.155,0.103
					C39.68,11.257,39.904,11.208,40.137,11.208"/>
			</g>
		</g>
	</g>
	<g>
		<g>
			<g>
				<defs>
					<path id="SVGID_159_" d="M40.137,11.208v-0.154c-0.29,0-0.589,0.07-0.764,0.155l0.155,0.103
						C39.68,11.257,39.904,11.208,40.137,11.208"/>
				</defs>
				<clipPath id="SVGID_160_">
					<use xlink:href="#SVGID_159_"  overflow="visible"/>
				</clipPath>
				
					<linearGradient id="SVGID_161_" gradientUnits="userSpaceOnUse" x1="-466.3452" y1="221.0566" x2="-465.8578" y2="221.0566" gradientTransform="matrix(1.5651 0 0 3.3281 769.2526 -724.513)">
					<stop  offset="0" style="stop-color:#8F5A24"/>
					<stop  offset="1" style="stop-color:#8F5A24"/>
				</linearGradient>
				<rect x="39.374" y="11.054" clip-path="url(#SVGID_160_)" fill="url(#SVGID_161_)" width="0.764" height="0.258"/>
			</g>
		</g>
	</g>
</g>
<g>
	<g>
		<g>
			<g>
				<defs>
					<path id="SVGID_162_" d="M40.346,19.717v0.156c1.207-0.001,2.21-0.533,2.904-1.538c0.662-0.961,1.014-2.315,1.014-3.918h-0.154
						C44.109,17.566,42.732,19.715,40.346,19.717"/>
				</defs>
				<clipPath id="SVGID_163_">
					<use xlink:href="#SVGID_162_"  overflow="visible"/>
				</clipPath>
				<path clip-path="url(#SVGID_163_)" fill="#8F5A24" d="M40.346,19.717v0.156c1.207-0.001,2.21-0.533,2.904-1.538
					c0.662-0.961,1.014-2.315,1.014-3.918h-0.154C44.109,17.566,42.732,19.715,40.346,19.717"/>
			</g>
		</g>
	</g>
	<g>
		<g>
			<g>
				<defs>
					<path id="SVGID_164_" d="M40.346,19.717v0.156c1.207-0.001,2.21-0.533,2.904-1.538c0.662-0.961,1.014-2.315,1.014-3.918h-0.154
						C44.109,17.566,42.732,19.715,40.346,19.717"/>
				</defs>
				<clipPath id="SVGID_165_">
					<use xlink:href="#SVGID_164_"  overflow="visible"/>
				</clipPath>
				
					<linearGradient id="SVGID_166_" gradientUnits="userSpaceOnUse" x1="-857.8906" y1="23.8652" x2="-857.4028" y2="23.8652" gradientTransform="matrix(8.0316 0 0 13.9884 6930.5806 -316.6926)">
					<stop  offset="0" style="stop-color:#8F5A24"/>
					<stop  offset="1" style="stop-color:#8F5A24"/>
				</linearGradient>
				<rect x="40.346" y="14.417" clip-path="url(#SVGID_165_)" fill="url(#SVGID_166_)" width="3.917" height="5.457"/>
			</g>
		</g>
	</g>
</g>
<g>
	<g>
		<g>
			<g>
				<defs>
					<path id="SVGID_167_" d="M37.088,24.062v0.153l0.154-0.153c-0.024-4.562-0.029-9.311-0.02-13.971l-0.153-0.084l-0.001,0.084
						C37.058,14.795,37.065,19.498,37.088,24.062"/>
				</defs>
				<clipPath id="SVGID_168_">
					<use xlink:href="#SVGID_167_"  overflow="visible"/>
				</clipPath>
				<path clip-path="url(#SVGID_168_)" fill="#DFB27C" d="M37.088,24.062v0.153l0.154-0.153c-0.024-4.562-0.029-9.311-0.02-13.971
					l-0.153-0.084l-0.001,0.084C37.058,14.795,37.065,19.498,37.088,24.062"/>
			</g>
		</g>
	</g>
	<g>
		<g>
			<g>
				<defs>
					<path id="SVGID_169_" d="M37.088,24.062v0.153l0.154-0.153c-0.024-4.562-0.029-9.311-0.02-13.971l-0.153-0.084l-0.001,0.084
						C37.058,14.795,37.065,19.498,37.088,24.062"/>
				</defs>
				<clipPath id="SVGID_170_">
					<use xlink:href="#SVGID_169_"  overflow="visible"/>
				</clipPath>
				
					<linearGradient id="SVGID_171_" gradientUnits="userSpaceOnUse" x1="-922.9653" y1="-277.3018" x2="-922.478" y2="-277.3018" gradientTransform="matrix(0 29.1327 -3.1774 0 -843.9493 26898.4863)">
					<stop  offset="0" style="stop-color:#DFB27C"/>
					<stop  offset="1" style="stop-color:#C17A2A"/>
				</linearGradient>
				<rect x="37.058" y="10.01" clip-path="url(#SVGID_170_)" fill="url(#SVGID_171_)" width="0.185" height="14.208"/>
			</g>
		</g>
	</g>
</g>
<g>
	<g>
		<g>
			<g>
				<defs>
					<path id="SVGID_172_" d="M39.528,11.312l-0.155-0.103c0,2.204,0,4.426,0.001,6.631l0.154-0.109
						C39.528,17.52,39.528,11.507,39.528,11.312"/>
				</defs>
				<clipPath id="SVGID_173_">
					<use xlink:href="#SVGID_172_"  overflow="visible"/>
				</clipPath>
				<path clip-path="url(#SVGID_173_)" fill="#8F5A24" d="M39.528,11.312l-0.155-0.103c0,2.204,0,4.426,0.001,6.631l0.154-0.109
					C39.528,17.52,39.528,11.507,39.528,11.312"/>
			</g>
		</g>
	</g>
	<g>
		<g>
			<g>
				<defs>
					<path id="SVGID_174_" d="M39.528,11.312l-0.155-0.103c0,2.204,0,4.426,0.001,6.631l0.154-0.109
						C39.528,17.52,39.528,11.507,39.528,11.312"/>
				</defs>
				<clipPath id="SVGID_175_">
					<use xlink:href="#SVGID_174_"  overflow="visible"/>
				</clipPath>
				
					<linearGradient id="SVGID_176_" gradientUnits="userSpaceOnUse" x1="1446.25" y1="15.0732" x2="1446.7383" y2="15.0732" gradientTransform="matrix(0.3172 0 0 16.3974 -419.377 -232.6405)">
					<stop  offset="0" style="stop-color:#8F5A24"/>
					<stop  offset="1" style="stop-color:#8F5A24"/>
				</linearGradient>
				<rect x="39.374" y="11.209" clip-path="url(#SVGID_175_)" fill="url(#SVGID_176_)" width="0.155" height="6.631"/>
			</g>
		</g>
	</g>
</g>
<g>
	<g>
		<g>
			<g>
				<defs>
					<path id="SVGID_177_" d="M44.109,14.417h0.154c0-1.593-0.367-2.913-1.062-3.817c-0.719-0.933-1.782-1.428-3.081-1.429v0.155
						C42.693,9.327,44.107,11.275,44.109,14.417"/>
				</defs>
				<clipPath id="SVGID_178_">
					<use xlink:href="#SVGID_177_"  overflow="visible"/>
				</clipPath>
				<path clip-path="url(#SVGID_178_)" fill="#EDC68C" d="M44.109,14.417h0.154c0-1.593-0.367-2.913-1.062-3.817
					c-0.719-0.933-1.782-1.428-3.081-1.429v0.155C42.693,9.327,44.107,11.275,44.109,14.417"/>
			</g>
		</g>
	</g>
	<g>
		<g>
			<g>
				<defs>
					<path id="SVGID_179_" d="M44.109,14.417h0.154c0-1.593-0.367-2.913-1.062-3.817c-0.719-0.933-1.782-1.428-3.081-1.429v0.155
						C42.693,9.327,44.107,11.275,44.109,14.417"/>
				</defs>
				<clipPath id="SVGID_180_">
					<use xlink:href="#SVGID_179_"  overflow="visible"/>
				</clipPath>
				
					<linearGradient id="SVGID_181_" gradientUnits="userSpaceOnUse" x1="-862.998" y1="26.2246" x2="-862.5112" y2="26.2246" gradientTransform="matrix(8.4923 0 0 13.5561 7368.959 -343.7054)">
					<stop  offset="0" style="stop-color:#EDC68C"/>
					<stop  offset="1" style="stop-color:#8F5A24"/>
				</linearGradient>
				<rect x="40.122" y="9.17" clip-path="url(#SVGID_180_)" fill="url(#SVGID_181_)" width="4.142" height="5.246"/>
			</g>
		</g>
	</g>
</g>
<g>
	<g>
		<g>
			<g>
				<defs>
					<path id="SVGID_182_" d="M40.122,9.326V9.171c-1.188,0-2.163,0.26-2.982,0.793l-0.07,0.046l0.153,0.084
						C38.001,9.587,38.95,9.326,40.122,9.326"/>
				</defs>
				<clipPath id="SVGID_183_">
					<use xlink:href="#SVGID_182_"  overflow="visible"/>
				</clipPath>
				<path clip-path="url(#SVGID_183_)" fill="#FFEDC1" d="M40.122,9.326V9.171c-1.188,0-2.163,0.26-2.982,0.793l-0.07,0.046
					l0.153,0.084C38.001,9.587,38.95,9.326,40.122,9.326"/>
			</g>
		</g>
	</g>
	<g>
		<g>
			<g>
				<defs>
					<path id="SVGID_184_" d="M40.122,9.326V9.171c-1.188,0-2.163,0.26-2.982,0.793l-0.07,0.046l0.153,0.084
						C38.001,9.587,38.95,9.326,40.122,9.326"/>
				</defs>
				<clipPath id="SVGID_185_">
					<use xlink:href="#SVGID_184_"  overflow="visible"/>
				</clipPath>
				
					<linearGradient id="SVGID_186_" gradientUnits="userSpaceOnUse" x1="-830.5488" y1="146.332" x2="-830.061" y2="146.332" gradientTransform="matrix(6.259 0 0 4.6925 5235.4727 -677.0309)">
					<stop  offset="0" style="stop-color:#FFEDC1"/>
					<stop  offset="0.1264" style="stop-color:#FDE7B9"/>
					<stop  offset="1" style="stop-color:#EDC68C"/>
				</linearGradient>
				<rect x="37.069" y="9.17" clip-path="url(#SVGID_185_)" fill="url(#SVGID_186_)" width="3.053" height="0.923"/>
			</g>
		</g>
	</g>
</g>
<g>
	<g>
		<g>
			<g>
				<defs>
					<path id="SVGID_187_" d="M39.375,19.598l0.154,0.197c0.24,0.053,0.515,0.078,0.816,0.078v-0.156
						C39.904,19.718,39.59,19.661,39.375,19.598"/>
				</defs>
				<clipPath id="SVGID_188_">
					<use xlink:href="#SVGID_187_"  overflow="visible"/>
				</clipPath>
				<path clip-path="url(#SVGID_188_)" fill="#8F5A24" d="M39.375,19.598l0.154,0.197c0.24,0.053,0.515,0.078,0.816,0.078v-0.156
					C39.904,19.718,39.59,19.661,39.375,19.598"/>
			</g>
		</g>
	</g>
	<g>
		<g>
			<g>
				<defs>
					<path id="SVGID_189_" d="M39.375,19.598l0.154,0.197c0.24,0.053,0.515,0.078,0.816,0.078v-0.156
						C39.904,19.718,39.59,19.661,39.375,19.598"/>
				</defs>
				<clipPath id="SVGID_190_">
					<use xlink:href="#SVGID_189_"  overflow="visible"/>
				</clipPath>
				
					<linearGradient id="SVGID_191_" gradientUnits="userSpaceOnUse" x1="-1333.9517" y1="-289.7881" x2="-1333.4644" y2="-289.7881" gradientTransform="matrix(-1.992 0 0 -3.3647 -2616.8853 -955.314)">
					<stop  offset="0" style="stop-color:#8F5A24"/>
					<stop  offset="1" style="stop-color:#C17A2A"/>
				</linearGradient>
				<rect x="39.375" y="19.598" clip-path="url(#SVGID_190_)" fill="url(#SVGID_191_)" width="0.971" height="0.275"/>
			</g>
		</g>
	</g>
</g>
<g>
	<g>
		<g>
			<g>
				<defs>
					<path id="SVGID_192_" d="M39.378,24.068l0.155,0.154l-0.001-0.154c0,0-0.002-3.911-0.003-4.273l-0.154-0.197
						C39.377,21.102,39.378,22.596,39.378,24.068"/>
				</defs>
				<clipPath id="SVGID_193_">
					<use xlink:href="#SVGID_192_"  overflow="visible"/>
				</clipPath>
				<path clip-path="url(#SVGID_193_)" fill="#8F5A24" d="M39.378,24.068l0.155,0.154l-0.001-0.154c0,0-0.002-3.911-0.003-4.273
					l-0.154-0.197C39.377,21.102,39.378,22.596,39.378,24.068"/>
			</g>
		</g>
	</g>
	<g>
		<g>
			<g>
				<defs>
					<path id="SVGID_194_" d="M39.378,24.068l0.155,0.154l-0.001-0.154c0,0-0.002-3.911-0.003-4.273l-0.154-0.197
						C39.377,21.102,39.378,22.596,39.378,24.068"/>
				</defs>
				<clipPath id="SVGID_195_">
					<use xlink:href="#SVGID_194_"  overflow="visible"/>
				</clipPath>
				
					<linearGradient id="SVGID_196_" gradientUnits="userSpaceOnUse" x1="1388.5889" y1="31.9004" x2="1389.0752" y2="31.9004" gradientTransform="matrix(0.325 0 0 12.287 -411.9139 -370.0508)">
					<stop  offset="0" style="stop-color:#8F5A24"/>
					<stop  offset="1" style="stop-color:#8F5A24"/>
				</linearGradient>
				<rect x="39.375" y="19.598" clip-path="url(#SVGID_195_)" fill="url(#SVGID_196_)" width="0.158" height="4.627"/>
			</g>
		</g>
	</g>
</g>
<path fill="#8F5A24" d="M37.243,24.062l-0.154,0.153l2.445,0.007l-0.155-0.154C38.666,24.068,37.954,24.066,37.243,24.062"/>
<g>
	<g>
		<g>
			<g>
				<defs>
					<path id="SVGID_197_" d="M41.756,14.475l0.155-0.002c0,2.361-0.595,3.498-1.837,3.498v-0.154c0.564,0,0.972-0.256,1.249-0.78
						C41.609,16.482,41.756,15.625,41.756,14.475"/>
				</defs>
				<clipPath id="SVGID_198_">
					<use xlink:href="#SVGID_197_"  overflow="visible"/>
				</clipPath>
				<path clip-path="url(#SVGID_198_)" fill="#FFE4A2" d="M41.756,14.475l0.155-0.002c0,2.361-0.595,3.498-1.837,3.498v-0.154
					c0.564,0,0.972-0.256,1.249-0.78C41.609,16.482,41.756,15.625,41.756,14.475"/>
			</g>
		</g>
	</g>
	<g>
		<g>
			<g>
				<defs>
					<path id="SVGID_199_" d="M41.756,14.475l0.155-0.002c0,2.361-0.595,3.498-1.837,3.498v-0.154c0.564,0,0.972-0.256,1.249-0.78
						C41.609,16.482,41.756,15.625,41.756,14.475"/>
				</defs>
				<clipPath id="SVGID_200_">
					<use xlink:href="#SVGID_199_"  overflow="visible"/>
				</clipPath>
				
					<linearGradient id="SVGID_201_" gradientUnits="userSpaceOnUse" x1="-737.1104" y1="48.5312" x2="-736.6227" y2="48.5312" gradientTransform="matrix(3.5289 0 0 9.9706 2641.301 -467.6662)">
					<stop  offset="0" style="stop-color:#FFE4A2"/>
					<stop  offset="0.1" style="stop-color:#FFE4A2"/>
					<stop  offset="0.6" style="stop-color:#F6E4CA"/>
					<stop  offset="1" style="stop-color:#EABC78"/>
				</linearGradient>
				<rect x="40.074" y="14.473" clip-path="url(#SVGID_200_)" fill="url(#SVGID_201_)" width="1.837" height="3.498"/>
			</g>
		</g>
	</g>
</g>
<path fill="#FFE4A2" d="M40.074,17.816c-0.218,0-0.412-0.047-0.545-0.086l-0.154,0.107c0.154,0.061,0.41,0.13,0.7,0.13
	L40.074,17.816"/>
<g>
	<g>
		<g>
			<g>
				<defs>
					<path id="SVGID_202_" d="M34.065,9.565L33.91,9.411l-0.001,0.152c-0.007,1.667-0.011,3.351-0.011,5.034
						c0,0.993,0.002,1.985,0.005,2.975l0.153,0.087C34.049,14.962,34.052,12.249,34.065,9.565"/>
				</defs>
				<clipPath id="SVGID_203_">
					<use xlink:href="#SVGID_202_"  overflow="visible"/>
				</clipPath>
				<path clip-path="url(#SVGID_203_)" fill="#DB9B28" d="M34.065,9.565L33.91,9.411l-0.001,0.152
					c-0.007,1.667-0.011,3.351-0.011,5.034c0,0.993,0.002,1.985,0.005,2.975l0.153,0.087C34.049,14.962,34.052,12.249,34.065,9.565"
					/>
			</g>
		</g>
	</g>
	<g>
		<g>
			<g>
				<defs>
					<path id="SVGID_204_" d="M34.065,9.565L33.91,9.411l-0.001,0.152c-0.007,1.667-0.011,3.351-0.011,5.034
						c0,0.993,0.002,1.985,0.005,2.975l0.153,0.087C34.049,14.962,34.052,12.249,34.065,9.565"/>
				</defs>
				<clipPath id="SVGID_205_">
					<use xlink:href="#SVGID_204_"  overflow="visible"/>
				</clipPath>
				
					<linearGradient id="SVGID_206_" gradientUnits="userSpaceOnUse" x1="-901.5791" y1="-281.0371" x2="-901.0913" y2="-281.0371" gradientTransform="matrix(0 16.9098 -3.1425 0 -849.1749 15254.9287)">
					<stop  offset="0" style="stop-color:#DB9B28"/>
					<stop  offset="1" style="stop-color:#C17A2A"/>
				</linearGradient>
				<rect x="33.898" y="9.411" clip-path="url(#SVGID_205_)" fill="url(#SVGID_206_)" width="0.167" height="8.248"/>
			</g>
		</g>
	</g>
</g>
<g>
	<g>
		<g>
			<g>
				<defs>
					<path id="SVGID_207_" d="M36.194,18.886l0.155,0.082v-0.082c-0.009-3.12-0.009-6.26,0.002-9.335V9.396l-0.155,0.155
						C36.185,12.647,36.185,15.785,36.194,18.886"/>
				</defs>
				<clipPath id="SVGID_208_">
					<use xlink:href="#SVGID_207_"  overflow="visible"/>
				</clipPath>
				<path clip-path="url(#SVGID_208_)" fill="#C17A2A" d="M36.194,18.886l0.155,0.082v-0.082c-0.009-3.12-0.009-6.26,0.002-9.335
					V9.396l-0.155,0.155C36.185,12.647,36.185,15.785,36.194,18.886"/>
			</g>
		</g>
	</g>
	<g>
		<g>
			<g>
				<defs>
					<path id="SVGID_209_" d="M36.194,18.886l0.155,0.082v-0.082c-0.009-3.12-0.009-6.26,0.002-9.335V9.396l-0.155,0.155
						C36.185,12.647,36.185,15.785,36.194,18.886"/>
				</defs>
				<clipPath id="SVGID_210_">
					<use xlink:href="#SVGID_209_"  overflow="visible"/>
				</clipPath>
				
					<linearGradient id="SVGID_211_" gradientUnits="userSpaceOnUse" x1="-908.6274" y1="-280.3433" x2="-908.1396" y2="-280.3433" gradientTransform="matrix(0 19.627 -3.1415 0 -844.4319 17843.0469)">
					<stop  offset="0" style="stop-color:#C17A2A"/>
					<stop  offset="0.8538" style="stop-color:#985F26"/>
					<stop  offset="1" style="stop-color:#8F5A24"/>
				</linearGradient>
				<rect x="36.185" y="9.396" clip-path="url(#SVGID_210_)" fill="url(#SVGID_211_)" width="0.167" height="9.572"/>
			</g>
		</g>
	</g>
</g>
<path fill="#F6E4CA" d="M36.196,9.551l0.155-0.155l-0.155,0.001L33.91,9.411l0.155,0.154C34.772,9.559,35.483,9.554,36.196,9.551"/>
<g>
	<g>
		<g>
			<g>
				<defs>
					<path id="SVGID_212_" d="M32.986,19.725l-0.002,0.153c1.305,0.015,2.444-0.285,3.297-0.862l0.068-0.048l-0.155-0.082
						C35.376,19.441,34.281,19.736,32.986,19.725"/>
				</defs>
				<clipPath id="SVGID_213_">
					<use xlink:href="#SVGID_212_"  overflow="visible"/>
				</clipPath>
				<path clip-path="url(#SVGID_213_)" fill="#8F5A24" d="M32.986,19.725l-0.002,0.153c1.305,0.015,2.444-0.285,3.297-0.862
					l0.068-0.048l-0.155-0.082C35.376,19.441,34.281,19.736,32.986,19.725"/>
			</g>
		</g>
	</g>
	<g>
		<g>
			<g>
				<defs>
					<path id="SVGID_214_" d="M32.986,19.725l-0.002,0.153c1.305,0.015,2.444-0.285,3.297-0.862l0.068-0.048l-0.155-0.082
						C35.376,19.441,34.281,19.736,32.986,19.725"/>
				</defs>
				<clipPath id="SVGID_215_">
					<use xlink:href="#SVGID_214_"  overflow="visible"/>
				</clipPath>
				
					<linearGradient id="SVGID_216_" gradientUnits="userSpaceOnUse" x1="-841.2598" y1="137.8652" x2="-840.7725" y2="137.8652" gradientTransform="matrix(6.9002 0 0 4.861 5837.8462 -650.7736)">
					<stop  offset="0" style="stop-color:#8F5A24"/>
					<stop  offset="1" style="stop-color:#8F5A24"/>
				</linearGradient>
				<rect x="32.984" y="18.886" clip-path="url(#SVGID_215_)" fill="url(#SVGID_216_)" width="3.365" height="1.007"/>
			</g>
		</g>
	</g>
</g>
<g>
	<g>
		<g>
			<g>
				<defs>
					<path id="SVGID_217_" d="M33.052,17.91c0.431,0.003,0.774-0.094,1.004-0.252l-0.153-0.088c-0.214,0.121-0.51,0.188-0.85,0.187
						L33.052,17.91 M33.052,17.91l0.001-0.153c-0.37-0.004-0.625-0.149-0.782-0.448c-0.116-0.223-0.175-0.526-0.176-0.908h-0.154
						C31.942,17.004,32.085,17.902,33.052,17.91z M31.952,9.584l0.156-0.156l-0.001,0.156c-0.01,2.273-0.014,4.565-0.011,6.816
						h-0.154C31.937,14.126,31.941,11.85,31.952,9.584z"/>
				</defs>
				<clipPath id="SVGID_218_">
					<use xlink:href="#SVGID_217_"  overflow="visible"/>
				</clipPath>
				
					<linearGradient id="SVGID_219_" gradientUnits="userSpaceOnUse" x1="401.1895" y1="-295.2236" x2="403.3066" y2="-295.2236" gradientTransform="matrix(1 0 0 -1 -369.25 -281.5547)">
					<stop  offset="0" style="stop-color:#CE8F3C"/>
					<stop  offset="1" style="stop-color:#FFE7B0"/>
				</linearGradient>
				<path clip-path="url(#SVGID_218_)" fill="url(#SVGID_219_)" d="M33.052,17.91c0.431,0.003,0.774-0.094,1.004-0.252l-0.153-0.088
					c-0.214,0.121-0.51,0.188-0.85,0.187L33.052,17.91 M33.052,17.91l0.001-0.153c-0.37-0.004-0.625-0.149-0.782-0.448
					c-0.116-0.223-0.175-0.526-0.176-0.908h-0.154C31.942,17.004,32.085,17.902,33.052,17.91z M31.952,9.584l0.156-0.156
					l-0.001,0.156c-0.01,2.273-0.014,4.565-0.011,6.816h-0.154C31.937,14.126,31.941,11.85,31.952,9.584z"/>
			</g>
		</g>
	</g>
</g>
<g>
	<g>
		<g>
			<g>
				<defs>
					<path id="SVGID_220_" d="M29.866,16.297H29.71c0.002,1.161,0.271,2.055,0.814,2.654c0.55,0.605,1.377,0.915,2.459,0.929
						l0.002-0.155C30.895,19.703,29.87,18.546,29.866,16.297"/>
				</defs>
				<clipPath id="SVGID_221_">
					<use xlink:href="#SVGID_220_"  overflow="visible"/>
				</clipPath>
				<path clip-path="url(#SVGID_221_)" fill="#DB9B28" d="M29.866,16.297H29.71c0.002,1.161,0.271,2.055,0.814,2.654
					c0.55,0.605,1.377,0.915,2.459,0.929l0.002-0.155C30.895,19.703,29.87,18.546,29.866,16.297"/>
			</g>
		</g>
	</g>
	<g>
		<g>
			<g>
				<defs>
					<path id="SVGID_222_" d="M29.866,16.297H29.71c0.002,1.161,0.271,2.055,0.814,2.654c0.55,0.605,1.377,0.915,2.459,0.929
						l0.002-0.155C30.895,19.703,29.87,18.546,29.866,16.297"/>
				</defs>
				<clipPath id="SVGID_223_">
					<use xlink:href="#SVGID_222_"  overflow="visible"/>
				</clipPath>
				
					<linearGradient id="SVGID_224_" gradientUnits="userSpaceOnUse" x1="-837.6909" y1="46.8613" x2="-837.2031" y2="46.8613" gradientTransform="matrix(6.7156 0 0 10.1452 5655.3047 -457.34)">
					<stop  offset="0" style="stop-color:#DB9B28"/>
					<stop  offset="0.9376" style="stop-color:#945E25"/>
					<stop  offset="1" style="stop-color:#8F5A24"/>
				</linearGradient>
				<rect x="29.71" y="16.297" clip-path="url(#SVGID_223_)" fill="url(#SVGID_224_)" width="3.275" height="3.581"/>
			</g>
		</g>
	</g>
</g>
<path fill="#FAF0E2" d="M31.952,9.584l0.156-0.156l-2.396,0.029l0.155,0.153C30.555,9.6,31.25,9.591,31.952,9.584"/>
<g>
	<g>
		<g>
			<g>
				<defs>
					<polyline id="SVGID_225_" points="29.71,16.297 29.866,16.297 29.866,9.61 29.711,9.458 29.71,16.297 					"/>
				</defs>
				<clipPath id="SVGID_226_">
					<use xlink:href="#SVGID_225_"  overflow="visible"/>
				</clipPath>
				<rect x="29.71" y="9.458" clip-path="url(#SVGID_226_)" fill="#DB9B28" width="0.156" height="6.839"/>
			</g>
		</g>
	</g>
	<g>
		<g>
			<g>
				<defs>
					<polyline id="SVGID_227_" points="29.71,16.297 29.866,16.297 29.866,9.61 29.711,9.458 29.71,16.297 					"/>
				</defs>
				<clipPath id="SVGID_228_">
					<use xlink:href="#SVGID_227_"  overflow="visible"/>
				</clipPath>
				
					<linearGradient id="SVGID_229_" gradientUnits="userSpaceOnUse" x1="-1013.3882" y1="210.1562" x2="-1012.9004" y2="210.1562" gradientTransform="matrix(0 -14.0223 3.1179 0 -625.4603 -14193.7422)">
					<stop  offset="0" style="stop-color:#DB9B28"/>
					<stop  offset="0.9376" style="stop-color:#945E25"/>
					<stop  offset="1" style="stop-color:#8F5A24"/>
				</linearGradient>
				<rect x="29.71" y="9.458" clip-path="url(#SVGID_228_)" fill="url(#SVGID_229_)" width="0.156" height="6.839"/>
			</g>
		</g>
	</g>
</g>
<path fill="#C17A2A" d="M39.737,3.573c3.22-0.642,6.83-0.744,11.029-0.312l0.153-0.14c-3.505-0.369-7.368-0.466-11.212,0.301
	C35.87,4.191,32.051,5.823,28.816,8.94l0.155,0.068C31.841,6.257,35.463,4.43,39.737,3.573"/>
<path fill="#FFD569" d="M50.766,3.26c0.018,3.783,0.023,7.583,0.023,11.333c0,0.852-0.002,1.704-0.002,2.55
	c-0.003,2.646-0.964,4.842-2.78,6.352c-1.563,1.322-6.341,3.463-8.13,4.212v0.169c1.413-0.589,6.559-2.852,8.23-4.264
	c1.875-1.557,2.834-3.803,2.836-6.469c0.004-4.682-0.004-9.372-0.023-14.021L50.766,3.26"/>
<g>
	<g>
		<g>
			<g>
				<defs>
					<path id="SVGID_230_" d="M31.746,23.493c-1.815-1.511-2.776-3.705-2.779-6.351c0-0.834-0.001-1.682-0.001-2.54
						c0-1.825,0.001-3.7,0.005-5.599l-0.155-0.068c-0.004,2.731-0.007,5.47-0.004,8.205c0.002,2.668,0.959,4.914,2.836,6.469
						c1.672,1.414,6.82,3.677,8.229,4.264v-0.169C38.085,26.955,33.303,24.809,31.746,23.493"/>
				</defs>
				<clipPath id="SVGID_231_">
					<use xlink:href="#SVGID_230_"  overflow="visible"/>
				</clipPath>
				<path clip-path="url(#SVGID_231_)" fill="#C17A2A" d="M31.746,23.493c-1.815-1.511-2.776-3.705-2.779-6.351
					c0-0.834-0.001-1.682-0.001-2.54c0-1.825,0.001-3.7,0.005-5.599l-0.155-0.068c-0.004,2.731-0.007,5.47-0.004,8.205
					c0.002,2.668,0.959,4.914,2.836,6.469c1.672,1.414,6.82,3.677,8.229,4.264v-0.169C38.085,26.955,33.303,24.809,31.746,23.493"/>
			</g>
		</g>
	</g>
	<g>
		<g>
			<g>
				<defs>
					<path id="SVGID_232_" d="M31.746,23.493c-1.815-1.511-2.776-3.705-2.779-6.351c0-0.834-0.001-1.682-0.001-2.54
						c0-1.825,0.001-3.7,0.005-5.599l-0.155-0.068c-0.004,2.731-0.007,5.47-0.004,8.205c0.002,2.668,0.959,4.914,2.836,6.469
						c1.672,1.414,6.82,3.677,8.229,4.264v-0.169C38.085,26.955,33.303,24.809,31.746,23.493"/>
				</defs>
				<clipPath id="SVGID_233_">
					<use xlink:href="#SVGID_232_"  overflow="visible"/>
				</clipPath>
				
					<linearGradient id="SVGID_234_" gradientUnits="userSpaceOnUse" x1="-974.1787" y1="-7.0586" x2="-973.6909" y2="-7.0586" gradientTransform="matrix(0 -38.8261 25.494 0 214.2996 -37795.6641)">
					<stop  offset="0" style="stop-color:#C17A2A"/>
					<stop  offset="0.3" style="stop-color:#DB9B28"/>
					<stop  offset="1" style="stop-color:#C17A2A"/>
				</linearGradient>
				<rect x="28.809" y="8.938" clip-path="url(#SVGID_233_)" fill="url(#SVGID_234_)" width="11.067" height="18.936"/>
			</g>
		</g>
	</g>
</g>
<g>
	<g>
		<g>
			<g>
				<defs>
					<path id="SVGID_235_" d="M48.057,16.764c-0.015-0.672-0.384-1.035-1.312-1.584c-1.75-1.038-2.072-1.897-2.077-3.043
						c-0.011-1.738,1.456-2.743,2.839-2.769c1.156-0.022,1.931,0.427,2.294,0.717c0.002,0.616,0.004,1.232,0.004,1.849
						c-0.431-0.458-1.132-0.878-1.865-0.891c-0.598-0.011-1.221,0.252-1.237,1.014c-0.019,0.78,0.608,1.09,1.388,1.56
						c1.75,1.056,2.066,1.987,2.033,3.229c-0.045,1.357-0.948,2.854-3.033,2.879c-0.835,0.008-1.665-0.25-2.331-0.646
						c0.002-0.658,0.005-1.319,0.005-1.98c0.547,0.491,1.357,0.865,2.031,0.865C47.566,17.962,48.072,17.508,48.057,16.764
						 M39.374,11.208c0.174-0.084,0.473-0.154,0.764-0.154c1.25,0,1.772,1,1.774,3.419c-0.001,2.359-0.596,3.498-1.838,3.498
						c-0.29,0-0.544-0.072-0.7-0.131C39.373,15.635,39.374,13.414,39.374,11.208z M39.378,24.068
						c-0.001-1.477-0.003-2.967-0.003-4.471c0.213,0.062,0.529,0.118,0.97,0.118c2.387-0.003,3.764-2.149,3.764-5.301
						c-0.002-3.142-1.418-5.089-3.988-5.091c-1.172,0-2.121,0.26-2.899,0.768c-0.01,4.66-0.004,9.407,0.019,13.971
						C37.953,24.066,38.666,24.068,39.378,24.068z M33.052,17.91c0.431,0.001,0.774-0.096,1.005-0.254
						c-0.008-2.696-0.005-5.407,0.008-8.091c0.708-0.006,1.418-0.011,2.131-0.014c-0.01,3.096-0.011,6.232-0.001,9.335
						c-0.818,0.556-1.913,0.851-3.208,0.839c-2.091-0.021-3.117-1.179-3.121-3.43c0-2.229,0-4.461,0-6.685
						c0.689-0.01,1.385-0.018,2.086-0.026c-0.01,2.264-0.014,4.542-0.01,6.816C31.943,17.004,32.086,17.902,33.052,17.91z"/>
				</defs>
				<clipPath id="SVGID_236_">
					<use xlink:href="#SVGID_235_"  overflow="visible"/>
				</clipPath>
				<path clip-path="url(#SVGID_236_)" fill="#D99128" d="M48.057,16.764c-0.015-0.672-0.384-1.035-1.312-1.584
					c-1.75-1.038-2.072-1.897-2.077-3.043c-0.011-1.738,1.456-2.743,2.839-2.769c1.156-0.022,1.931,0.427,2.294,0.717
					c0.002,0.616,0.004,1.232,0.004,1.849c-0.431-0.458-1.132-0.878-1.865-0.891c-0.598-0.011-1.221,0.252-1.237,1.014
					c-0.019,0.78,0.608,1.09,1.388,1.56c1.75,1.056,2.066,1.987,2.033,3.229c-0.045,1.357-0.948,2.854-3.033,2.879
					c-0.835,0.008-1.665-0.25-2.331-0.646c0.002-0.658,0.005-1.319,0.005-1.98c0.547,0.491,1.357,0.865,2.031,0.865
					C47.566,17.962,48.072,17.508,48.057,16.764 M39.374,11.208c0.174-0.084,0.473-0.154,0.764-0.154c1.25,0,1.772,1,1.774,3.419
					c-0.001,2.359-0.596,3.498-1.838,3.498c-0.29,0-0.544-0.072-0.7-0.131C39.373,15.635,39.374,13.414,39.374,11.208z
					 M39.378,24.068c-0.001-1.477-0.003-2.967-0.003-4.471c0.213,0.062,0.529,0.118,0.97,0.118c2.387-0.003,3.764-2.149,3.764-5.301
					c-0.002-3.142-1.418-5.089-3.988-5.091c-1.172,0-2.121,0.26-2.899,0.768c-0.01,4.66-0.004,9.407,0.019,13.971
					C37.953,24.066,38.666,24.068,39.378,24.068z M33.052,17.91c0.431,0.001,0.774-0.096,1.005-0.254
					c-0.008-2.696-0.005-5.407,0.008-8.091c0.708-0.006,1.418-0.011,2.131-0.014c-0.01,3.096-0.011,6.232-0.001,9.335
					c-0.818,0.556-1.913,0.851-3.208,0.839c-2.091-0.021-3.117-1.179-3.121-3.43c0-2.229,0-4.461,0-6.685
					c0.689-0.01,1.385-0.018,2.086-0.026c-0.01,2.264-0.014,4.542-0.01,6.816C31.943,17.004,32.086,17.902,33.052,17.91z"/>
			</g>
		</g>
	</g>
	<g>
		<g>
			<g>
				<defs>
					<path id="SVGID_237_" d="M48.057,16.764c-0.015-0.672-0.384-1.035-1.312-1.584c-1.75-1.038-2.072-1.897-2.077-3.043
						c-0.011-1.738,1.456-2.743,2.839-2.769c1.156-0.022,1.931,0.427,2.294,0.717c0.002,0.616,0.004,1.232,0.004,1.849
						c-0.431-0.458-1.132-0.878-1.865-0.891c-0.598-0.011-1.221,0.252-1.237,1.014c-0.019,0.78,0.608,1.09,1.388,1.56
						c1.75,1.056,2.066,1.987,2.033,3.229c-0.045,1.357-0.948,2.854-3.033,2.879c-0.835,0.008-1.665-0.25-2.331-0.646
						c0.002-0.658,0.005-1.319,0.005-1.98c0.547,0.491,1.357,0.865,2.031,0.865C47.566,17.962,48.072,17.508,48.057,16.764
						 M39.374,11.208c0.174-0.084,0.473-0.154,0.764-0.154c1.25,0,1.772,1,1.774,3.419c-0.001,2.359-0.596,3.498-1.838,3.498
						c-0.29,0-0.544-0.072-0.7-0.131C39.373,15.635,39.374,13.414,39.374,11.208z M39.378,24.068
						c-0.001-1.477-0.003-2.967-0.003-4.471c0.213,0.062,0.529,0.118,0.97,0.118c2.387-0.003,3.764-2.149,3.764-5.301
						c-0.002-3.142-1.418-5.089-3.988-5.091c-1.172,0-2.121,0.26-2.899,0.768c-0.01,4.66-0.004,9.407,0.019,13.971
						C37.953,24.066,38.666,24.068,39.378,24.068z M33.052,17.91c0.431,0.001,0.774-0.096,1.005-0.254
						c-0.008-2.696-0.005-5.407,0.008-8.091c0.708-0.006,1.418-0.011,2.131-0.014c-0.01,3.096-0.011,6.232-0.001,9.335
						c-0.818,0.556-1.913,0.851-3.208,0.839c-2.091-0.021-3.117-1.179-3.121-3.43c0-2.229,0-4.461,0-6.685
						c0.689-0.01,1.385-0.018,2.086-0.026c-0.01,2.264-0.014,4.542-0.01,6.816C31.943,17.004,32.086,17.902,33.052,17.91z"/>
				</defs>
				<clipPath id="SVGID_238_">
					<use xlink:href="#SVGID_237_"  overflow="visible"/>
				</clipPath>
				
					<radialGradient id="SVGID_239_" cx="402.6846" cy="-293.4019" r="13.9497" gradientTransform="matrix(1 0 0 -1 -369.25 -281.5547)" gradientUnits="userSpaceOnUse">
					<stop  offset="0" style="stop-color:#FFE7B0"/>
					<stop  offset="0.5275" style="stop-color:#FEBF53"/>
					<stop  offset="0.5568" style="stop-color:#F8B94C"/>
					<stop  offset="1" style="stop-color:#D99128"/>
				</radialGradient>
				<rect x="29.815" y="9.319" clip-path="url(#SVGID_238_)" fill="url(#SVGID_239_)" width="20.38" height="14.83"/>
			</g>
		</g>
	</g>
</g>
<path fill="#8F5A24" d="M47.807,29.203v-0.971l-0.315,0.971h-0.188l-0.312-0.971v0.971h-0.239v-1.376h0.321l0.328,1.036l0.332-1.036
	h0.326v1.376H47.807 M46.208,28.034v1.169h-0.263v-1.169h-0.348v-0.207h0.959v0.207H46.208z"/>
</svg>
