<?xml version="1.0" encoding="utf-8"?>
<!-- Generator: Adobe Illustrator 16.0.0, SVG Export Plug-In . SVG Version: 6.00 Build 0)  -->
<!DOCTYPE svg PUBLIC "-//W3C//DTD SVG 1.1//EN" "http://www.w3.org/Graphics/SVG/1.1/DTD/svg11.dtd">
<svg version="1.1" id="Layer_1" xmlns="http://www.w3.org/2000/svg" xmlns:xlink="http://www.w3.org/1999/xlink" x="0px" y="0px"
	 width="80px" height="30px" viewBox="0 0 80 30" enable-background="new 0 0 80 30" xml:space="preserve">
<g>
	<g>
		<polygon fill="#0058A0" points="28.64,27.116 32.605,3.849 38.947,3.849 34.979,27.116 		"/>
		<path fill="#0058A0" d="M57.98,4.422c-1.258-0.471-3.228-0.978-5.688-0.978c-6.268,0-10.68,3.156-10.717,7.679
			c-0.035,3.344,3.148,5.208,5.555,6.322c2.471,1.14,3.301,1.865,3.289,2.885c-0.018,1.561-1.972,2.271-3.794,2.271
			c-2.539,0-3.89-0.354-5.972-1.223l-0.815-0.37l-0.89,5.212c1.481,0.647,4.219,1.213,7.062,1.24c6.666,0,10.995-3.121,11.043-7.95
			c0.024-2.646-1.664-4.661-5.322-6.321c-2.217-1.077-3.574-1.794-3.562-2.884c0-0.967,1.149-2.001,3.632-2.001
			c2.072-0.032,3.575,0.42,4.746,0.892l0.569,0.269L57.98,4.422"/>
		<path fill="#0058A0" d="M74.241,3.871h-4.899c-1.519,0-2.654,0.415-3.32,1.929l-9.42,21.323h6.66c0,0,1.09-2.867,1.336-3.497
			c0.729,0,7.196,0.011,8.12,0.011c0.19,0.814,0.772,3.486,0.772,3.486h5.885L74.241,3.871 M66.421,18.868
			c0.524-1.341,2.528-6.504,2.528-6.504c-0.038,0.062,0.52-1.347,0.841-2.22l0.429,2.006c0,0,1.213,5.554,1.469,6.719L66.421,18.868
			L66.421,18.868z"/>
		<path fill="#0058A0" d="M23.321,3.866l-6.209,15.866l-0.662-3.227c-1.155-3.716-4.756-7.743-8.782-9.759l5.677,20.349l6.709-0.009
			l9.985-23.222L23.321,3.866"/>
		<path fill="#FAA61A" d="M11.353,3.852H1.126L1.045,4.335c7.956,1.927,13.22,6.581,15.405,12.171L14.228,5.815
			C13.843,4.343,12.729,3.903,11.353,3.852"/>
	</g>
</g>
</svg>
